<svg width="864" height="546" viewBox="0 0 864 546" fill="none" xmlns="http://www.w3.org/2000/svg">
<rect x="0.544922" y="5.26846" width="860" height="540" rx="10" transform="rotate(-0.310028 0.544922 5.26846)" fill="url(#paint0_diamond_203_73)"/>
<path d="M128.328 283H113.914L137.039 224.406H151.492L174.578 283H160.164L155.867 271.477H132.625L128.328 283ZM137.039 259.484H151.492L144.266 240.266L137.039 259.484ZM230.68 283H191.617V224.406H205.367V271.008H230.68V283ZM287.289 283H248.227V224.406H261.977V271.008H287.289V283ZM334.492 283V224.406H355.195C360.169 224.406 364.466 225.227 368.086 226.867C371.732 228.508 374.531 230.839 376.484 233.859C378.464 236.88 379.453 240.474 379.453 244.641C379.453 248.807 378.464 252.414 376.484 255.461C374.531 258.508 371.758 260.865 368.164 262.531C364.57 264.172 360.299 264.992 355.352 264.992H348.242V283H334.492ZM348.242 253H353.867C357.591 253 360.443 252.284 362.422 250.852C364.401 249.393 365.391 247.323 365.391 244.641C365.391 242.01 364.401 239.979 362.422 238.547C360.443 237.115 357.591 236.398 353.867 236.398H348.242V253ZM448.641 283H433.445L421.688 262.727H413.367V283H399.617V224.406H422.547C427.443 224.406 431.622 225.161 435.086 226.672C438.549 228.182 441.193 230.37 443.016 233.234C444.865 236.099 445.789 239.549 445.789 243.586C445.789 247.518 444.891 250.891 443.094 253.703C441.323 256.516 438.784 258.677 435.477 260.188L448.641 283ZM413.367 251.984H421.492C424.826 251.984 427.365 251.32 429.109 249.992C430.854 248.664 431.727 246.737 431.727 244.211C431.727 241.659 430.854 239.719 429.109 238.391C427.365 237.062 424.826 236.398 421.492 236.398H413.367V251.984ZM495.406 284.172C490.927 284.172 486.799 283.417 483.023 281.906C479.273 280.37 476.005 278.234 473.219 275.5C470.432 272.74 468.271 269.51 466.734 265.812C465.198 262.115 464.43 258.078 464.43 253.703C464.43 249.328 465.198 245.292 466.734 241.594C468.271 237.896 470.432 234.68 473.219 231.945C476.005 229.185 479.273 227.049 483.023 225.539C486.799 224.003 490.94 223.234 495.445 223.234C499.898 223.234 504 224.003 507.75 225.539C511.526 227.049 514.794 229.185 517.555 231.945C520.315 234.68 522.464 237.896 524 241.594C525.536 245.292 526.305 249.328 526.305 253.703C526.305 258.078 525.536 262.115 524 265.812C522.464 269.51 520.315 272.74 517.555 275.5C514.794 278.234 511.526 280.37 507.75 281.906C504 283.417 499.885 284.172 495.406 284.172ZM495.406 272.18C497.802 272.18 500.016 271.711 502.047 270.773C504.104 269.836 505.888 268.534 507.398 266.867C508.935 265.174 510.12 263.208 510.953 260.969C511.812 258.729 512.242 256.307 512.242 253.703C512.242 251.099 511.812 248.677 510.953 246.438C510.12 244.198 508.935 242.245 507.398 240.578C505.888 238.885 504.104 237.57 502.047 236.633C500.016 235.695 497.802 235.227 495.406 235.227C493.01 235.227 490.771 235.695 488.688 236.633C486.63 237.57 484.833 238.885 483.297 240.578C481.786 242.245 480.602 244.198 479.742 246.438C478.909 248.677 478.492 251.099 478.492 253.703C478.492 256.307 478.909 258.729 479.742 260.969C480.602 263.208 481.786 265.174 483.297 266.867C484.833 268.534 486.63 269.836 488.688 270.773C490.771 271.711 493.01 272.18 495.406 272.18ZM532.211 297.062L531.508 285.07C536.013 285.07 539.346 284.016 541.508 281.906C543.695 279.797 544.789 276.594 544.789 272.297V224.406H558.539V272.219C558.539 278.156 557.654 282.948 555.883 286.594C554.112 290.24 551.286 292.896 547.406 294.562C543.552 296.229 538.487 297.062 532.211 297.062ZM579.211 283V224.406H617.648V236.398H592.961V247.609H616.086V259.602H592.961V271.008H618.039V283H579.211ZM689.102 275.695C686.367 278.352 683.125 280.435 679.375 281.945C675.625 283.43 671.536 284.172 667.109 284.172C662.656 284.172 658.542 283.417 654.766 281.906C650.99 280.37 647.708 278.234 644.922 275.5C642.135 272.74 639.974 269.51 638.438 265.812C636.901 262.115 636.133 258.078 636.133 253.703C636.133 249.328 636.901 245.292 638.438 241.594C639.974 237.896 642.135 234.68 644.922 231.945C647.708 229.185 650.99 227.049 654.766 225.539C658.542 224.003 662.656 223.234 667.109 223.234C671.51 223.234 675.573 223.99 679.297 225.5C683.021 226.984 686.263 229.068 689.023 231.75L679.414 241.398C677.93 239.471 676.107 237.961 673.945 236.867C671.784 235.773 669.427 235.227 666.875 235.227C664.505 235.227 662.305 235.695 660.273 236.633C658.242 237.57 656.471 238.872 654.961 240.539C653.451 242.206 652.279 244.159 651.445 246.398C650.612 248.638 650.195 251.06 650.195 253.664C650.195 256.32 650.612 258.768 651.445 261.008C652.279 263.221 653.451 265.174 654.961 266.867C656.471 268.534 658.242 269.836 660.273 270.773C662.305 271.711 664.505 272.18 666.875 272.18C669.427 272.18 671.771 271.633 673.906 270.539C676.068 269.445 677.904 267.935 679.414 266.008L689.102 275.695ZM734.891 283H721.141V236.398H704.383V224.406H751.648V236.398H734.891V283ZM765.836 276.477L772.32 266.008C774.169 267.466 775.927 268.664 777.594 269.602C779.26 270.513 780.901 271.19 782.516 271.633C784.13 272.076 785.771 272.297 787.438 272.297C789.26 272.297 790.823 272.062 792.125 271.594C793.453 271.099 794.469 270.409 795.172 269.523C795.901 268.638 796.266 267.583 796.266 266.359C796.266 264.927 795.784 263.716 794.82 262.727C793.857 261.711 792.581 260.826 790.992 260.07C789.43 259.289 787.724 258.521 785.875 257.766C784 256.984 782.086 256.138 780.133 255.227C778.206 254.315 776.435 253.208 774.82 251.906C773.206 250.578 771.891 248.977 770.875 247.102C769.885 245.227 769.391 242.948 769.391 240.266C769.391 236.724 770.276 233.69 772.047 231.164C773.844 228.612 776.292 226.659 779.391 225.305C782.516 223.924 786.044 223.234 789.977 223.234C792.841 223.234 795.823 223.612 798.922 224.367C802.047 225.122 805.185 226.294 808.336 227.883L802.984 238.938C801.109 237.792 799.078 236.893 796.891 236.242C794.729 235.565 792.711 235.227 790.836 235.227C789.352 235.227 788.049 235.448 786.93 235.891C785.836 236.307 784.977 236.906 784.352 237.688C783.753 238.469 783.453 239.38 783.453 240.422C783.453 241.75 783.922 242.909 784.859 243.898C785.823 244.862 787.073 245.734 788.609 246.516C790.146 247.297 791.812 248.091 793.609 248.898C795.51 249.706 797.438 250.604 799.391 251.594C801.37 252.583 803.18 253.755 804.82 255.109C806.487 256.438 807.815 258.039 808.805 259.914C809.82 261.789 810.328 264.042 810.328 266.672C810.328 270.135 809.391 273.195 807.516 275.852C805.667 278.482 803.062 280.526 799.703 281.984C796.37 283.443 792.49 284.172 788.062 284.172C783.974 284.172 780.042 283.521 776.266 282.219C772.516 280.891 769.039 278.977 765.836 276.477Z" fill="white"/>
<path d="M128.328 283V285H129.717L130.202 283.699L128.328 283ZM113.914 283L112.054 282.266L110.975 285H113.914V283ZM137.039 224.406V222.406H135.678L135.179 223.672L137.039 224.406ZM151.492 224.406L153.353 223.673L152.854 222.406H151.492V224.406ZM174.578 283V285H177.516L176.439 282.267L174.578 283ZM160.164 283L158.29 283.699L158.775 285H160.164V283ZM155.867 271.477L157.741 270.778L157.256 269.477H155.867V271.477ZM132.625 271.477V269.477H131.236L130.751 270.778L132.625 271.477ZM137.039 259.484L135.167 258.78L134.15 261.484H137.039V259.484ZM151.492 259.484V261.484H154.381L153.364 258.78L151.492 259.484ZM144.266 240.266L146.138 239.562L144.266 234.583L142.394 239.562L144.266 240.266ZM128.328 281H113.914V285H128.328V281ZM115.774 283.734L138.899 225.14L135.179 223.672L112.054 282.266L115.774 283.734ZM137.039 226.406H151.492V222.406H137.039V226.406ZM149.631 225.139L172.717 283.733L176.439 282.267L153.353 223.673L149.631 225.139ZM174.578 281H160.164V285H174.578V281ZM162.038 282.301L157.741 270.778L153.993 272.175L158.29 283.699L162.038 282.301ZM155.867 269.477H132.625V273.477H155.867V269.477ZM130.751 270.778L126.454 282.301L130.202 283.699L134.499 272.175L130.751 270.778ZM137.039 261.484H151.492V257.484H137.039V261.484ZM153.364 258.78L146.138 239.562L142.394 240.97L149.62 260.188L153.364 258.78ZM142.394 239.562L135.167 258.78L138.911 260.188L146.138 240.97L142.394 239.562ZM230.68 283V285H232.68V283H230.68ZM191.617 283H189.617V285H191.617V283ZM191.617 224.406V222.406H189.617V224.406H191.617ZM205.367 224.406H207.367V222.406H205.367V224.406ZM205.367 271.008H203.367V273.008H205.367V271.008ZM230.68 271.008H232.68V269.008H230.68V271.008ZM230.68 281H191.617V285H230.68V281ZM193.617 283V224.406H189.617V283H193.617ZM191.617 226.406H205.367V222.406H191.617V226.406ZM203.367 224.406V271.008H207.367V224.406H203.367ZM205.367 273.008H230.68V269.008H205.367V273.008ZM228.68 271.008V283H232.68V271.008H228.68ZM287.289 283V285H289.289V283H287.289ZM248.227 283H246.227V285H248.227V283ZM248.227 224.406V222.406H246.227V224.406H248.227ZM261.977 224.406H263.977V222.406H261.977V224.406ZM261.977 271.008H259.977V273.008H261.977V271.008ZM287.289 271.008H289.289V269.008H287.289V271.008ZM287.289 281H248.227V285H287.289V281ZM250.227 283V224.406H246.227V283H250.227ZM248.227 226.406H261.977V222.406H248.227V226.406ZM259.977 224.406V271.008H263.977V224.406H259.977ZM261.977 273.008H287.289V269.008H261.977V273.008ZM285.289 271.008V283H289.289V271.008H285.289ZM334.492 283H332.492V285H334.492V283ZM334.492 224.406V222.406H332.492V224.406H334.492ZM368.086 226.867L367.26 228.689L367.265 228.691L368.086 226.867ZM376.484 233.859L374.805 234.945L374.811 234.955L376.484 233.859ZM376.484 255.461L374.807 254.371L374.801 254.382L376.484 255.461ZM368.164 262.531L368.995 264.351L369.006 264.346L368.164 262.531ZM348.242 264.992V262.992H346.242V264.992H348.242ZM348.242 283V285H350.242V283H348.242ZM348.242 253H346.242V255H348.242V253ZM362.422 250.852L363.594 252.472L363.601 252.467L363.608 252.462L362.422 250.852ZM348.242 236.398V234.398H346.242V236.398H348.242ZM336.492 283V224.406H332.492V283H336.492ZM334.492 226.406H355.195V222.406H334.492V226.406ZM355.195 226.406C359.954 226.406 363.956 227.191 367.26 228.689L368.912 225.046C364.976 223.262 360.385 222.406 355.195 222.406V226.406ZM367.265 228.691C370.6 230.192 373.084 232.283 374.805 234.945L378.164 232.773C375.979 229.394 372.863 226.824 368.907 225.043L367.265 228.691ZM374.811 234.955C376.546 237.603 377.453 240.802 377.453 244.641H381.453C381.453 240.146 380.381 236.158 378.157 232.763L374.811 234.955ZM377.453 244.641C377.453 248.479 376.546 251.695 374.807 254.371L378.162 256.55C380.381 253.134 381.453 249.136 381.453 244.641H377.453ZM374.801 254.382C373.072 257.078 370.605 259.194 367.323 260.717L369.006 264.346C372.91 262.535 375.991 259.937 378.168 256.54L374.801 254.382ZM367.333 260.712C364.058 262.207 360.083 262.992 355.352 262.992V266.992C360.516 266.992 365.083 266.136 368.995 264.351L367.333 260.712ZM355.352 262.992H348.242V266.992H355.352V262.992ZM346.242 264.992V283H350.242V264.992H346.242ZM348.242 281H334.492V285H348.242V281ZM348.242 255H353.867V251H348.242V255ZM353.867 255C357.805 255 361.138 254.25 363.594 252.472L361.249 249.231C359.748 250.318 357.378 251 353.867 251V255ZM363.608 252.462C366.151 250.588 367.391 247.891 367.391 244.641H363.391C363.391 246.755 362.651 248.198 361.235 249.241L363.608 252.462ZM367.391 244.641C367.391 241.426 366.138 238.767 363.594 236.927L361.249 240.167C362.664 241.191 363.391 242.595 363.391 244.641H367.391ZM363.594 236.927C361.138 235.149 357.805 234.398 353.867 234.398V238.398C357.378 238.398 359.748 239.081 361.249 240.167L363.594 236.927ZM353.867 234.398H348.242V238.398H353.867V234.398ZM346.242 236.398V253H350.242V236.398H346.242ZM448.641 283V285H452.104L450.373 282L448.641 283ZM433.445 283L431.715 284.003L432.293 285H433.445V283ZM421.688 262.727L423.418 261.723L422.84 260.727H421.688V262.727ZM413.367 262.727V260.727H411.367V262.727H413.367ZM413.367 283V285H415.367V283H413.367ZM399.617 283H397.617V285H399.617V283ZM399.617 224.406V222.406H397.617V224.406H399.617ZM435.086 226.672L434.286 228.505L435.086 226.672ZM443.016 233.234L441.328 234.308L441.335 234.319L443.016 233.234ZM443.094 253.703L441.408 252.626L441.401 252.637L443.094 253.703ZM435.477 260.188L434.646 258.368L432.645 259.282L433.744 261.187L435.477 260.188ZM413.367 251.984H411.367V253.984H413.367V251.984ZM413.367 236.398V234.398H411.367V236.398H413.367ZM448.641 281H433.445V285H448.641V281ZM435.175 281.997L423.418 261.723L419.957 263.73L431.715 284.003L435.175 281.997ZM421.688 260.727H413.367V264.727H421.688V260.727ZM411.367 262.727V283H415.367V262.727H411.367ZM413.367 281H399.617V285H413.367V281ZM401.617 283V224.406H397.617V283H401.617ZM399.617 226.406H422.547V222.406H399.617V226.406ZM422.547 226.406C427.245 226.406 431.138 227.132 434.286 228.505L435.885 224.839C432.107 223.191 427.64 222.406 422.547 222.406V226.406ZM434.286 228.505C437.428 229.875 439.743 231.817 441.328 234.308L444.703 232.161C442.643 228.923 439.671 226.49 435.885 224.839L434.286 228.505ZM441.335 234.319C442.94 236.805 443.789 239.862 443.789 243.586H447.789C447.789 239.237 446.789 235.393 444.696 232.15L441.335 234.319ZM443.789 243.586C443.789 247.206 442.966 250.189 441.408 252.626L444.779 254.78C446.816 251.592 447.789 247.831 447.789 243.586H443.789ZM441.401 252.637C439.858 255.089 437.633 257.004 434.646 258.368L436.307 262.007C439.935 260.35 442.788 257.942 444.786 254.769L441.401 252.637ZM433.744 261.187L446.908 284L450.373 282L437.209 259.188L433.744 261.187ZM413.367 253.984H421.492V249.984H413.367V253.984ZM421.492 253.984C425.048 253.984 428.088 253.283 430.321 251.584L427.898 248.401C426.641 249.358 424.603 249.984 421.492 249.984V253.984ZM430.321 251.584C432.642 249.816 433.727 247.254 433.727 244.211H429.727C429.727 246.22 429.066 247.512 427.898 248.401L430.321 251.584ZM433.727 244.211C433.727 241.15 432.648 238.571 430.321 236.799L427.898 239.982C429.06 240.867 429.727 242.168 429.727 244.211H433.727ZM430.321 236.799C428.088 235.1 425.048 234.398 421.492 234.398V238.398C424.603 238.398 426.641 239.025 427.898 239.982L430.321 236.799ZM421.492 234.398H413.367V238.398H421.492V234.398ZM411.367 236.398V251.984H415.367V236.398H411.367ZM483.023 281.906L482.265 283.757L482.273 283.76L482.281 283.763L483.023 281.906ZM473.219 275.5L471.811 276.921L471.818 276.927L473.219 275.5ZM473.219 231.945L474.62 233.373L474.626 233.366L473.219 231.945ZM483.023 225.539L483.771 227.394L483.777 227.392L483.023 225.539ZM507.75 225.539L506.992 227.39L506.999 227.393L507.007 227.396L507.75 225.539ZM517.555 231.945L516.14 233.36L516.147 233.366L517.555 231.945ZM524 241.594L522.153 242.361L524 241.594ZM524 265.812L522.153 265.045L524 265.812ZM517.555 275.5L518.962 276.921L518.969 276.914L517.555 275.5ZM507.75 281.906L508.497 283.761L508.504 283.759L507.75 281.906ZM502.047 270.773L501.218 268.953L501.209 268.958L502.047 270.773ZM507.398 266.867L505.918 265.523L505.916 265.524L507.398 266.867ZM510.953 260.969L509.086 260.252L509.082 260.262L509.079 260.271L510.953 260.969ZM510.953 246.438L509.079 247.135L509.082 247.145L509.086 247.154L510.953 246.438ZM507.398 240.578L505.906 241.91L505.917 241.922L505.928 241.934L507.398 240.578ZM502.047 236.633L501.209 238.449L501.218 238.453L502.047 236.633ZM488.688 236.633L487.867 234.809L487.858 234.813L488.688 236.633ZM483.297 240.578L481.816 239.234L481.815 239.235L483.297 240.578ZM479.742 246.438L477.875 245.721L477.871 245.73L477.868 245.74L479.742 246.438ZM479.742 260.969L477.868 261.666L477.871 261.676L477.875 261.685L479.742 260.969ZM483.297 266.867L481.805 268.199L481.815 268.211L481.826 268.223L483.297 266.867ZM488.688 270.773L487.858 272.593L487.867 272.597L488.688 270.773ZM495.406 282.172C491.156 282.172 487.283 281.456 483.766 280.049L482.281 283.763C486.316 285.377 490.698 286.172 495.406 286.172V282.172ZM483.782 280.056C480.262 278.613 477.214 276.619 474.62 274.073L471.818 276.927C474.796 279.85 478.285 282.126 482.265 283.757L483.782 280.056ZM474.626 274.079C472.032 271.509 470.018 268.504 468.581 265.045L464.887 266.58C466.523 270.517 468.832 273.97 471.811 276.921L474.626 274.079ZM468.581 265.045C467.155 261.612 466.43 257.839 466.43 253.703H462.43C462.43 258.317 463.241 262.617 464.887 266.58L468.581 265.045ZM466.43 253.703C466.43 249.567 467.155 245.794 468.581 242.361L464.887 240.826C463.241 244.789 462.43 249.089 462.43 253.703H466.43ZM468.581 242.361C470.018 238.904 472.03 235.914 474.62 233.373L471.818 230.518C468.835 233.445 466.524 236.887 464.887 240.826L468.581 242.361ZM474.626 233.366C477.218 230.799 480.26 228.808 483.771 227.394L482.276 223.684C478.287 225.291 474.793 227.571 471.811 230.524L474.626 233.366ZM483.777 227.392C487.29 225.962 491.171 225.234 495.445 225.234V221.234C490.709 221.234 486.309 222.043 482.27 223.687L483.777 227.392ZM495.445 225.234C499.664 225.234 503.505 225.961 506.992 227.39L508.508 223.688C504.495 222.044 500.133 221.234 495.445 221.234V225.234ZM507.007 227.396C510.543 228.81 513.58 230.799 516.14 233.36L518.969 230.531C516.009 227.571 512.51 225.289 508.493 223.682L507.007 227.396ZM516.147 233.366C518.713 235.908 520.715 238.9 522.153 242.361L525.847 240.826C524.212 236.891 521.917 233.451 518.962 230.524L516.147 233.366ZM522.153 242.361C523.579 245.794 524.305 249.567 524.305 253.703H528.305C528.305 249.089 527.493 244.789 525.847 240.826L522.153 242.361ZM524.305 253.703C524.305 257.839 523.579 261.612 522.153 265.045L525.847 266.58C527.493 262.617 528.305 258.317 528.305 253.703H524.305ZM522.153 265.045C520.714 268.508 518.711 271.515 516.14 274.086L518.969 276.914C521.919 273.964 524.213 270.513 525.847 266.58L522.153 265.045ZM516.147 274.079C513.583 276.619 510.54 278.612 506.996 280.054L508.504 283.759C512.512 282.128 516.005 279.85 518.962 276.921L516.147 274.079ZM507.003 280.051C503.515 281.456 499.657 282.172 495.406 282.172V286.172C500.114 286.172 504.485 285.377 508.497 283.761L507.003 280.051ZM495.406 274.18C498.071 274.18 500.573 273.657 502.885 272.589L501.209 268.958C499.459 269.765 497.534 270.18 495.406 270.18V274.18ZM502.876 272.593C505.18 271.544 507.186 270.08 508.88 268.21L505.916 265.524C504.59 266.988 503.028 268.128 501.218 268.953L502.876 272.593ZM508.879 268.211C510.595 266.322 511.91 264.133 512.828 261.666L509.079 260.271C508.33 262.283 507.275 264.027 505.918 265.523L508.879 268.211ZM512.82 261.685C513.775 259.198 514.242 256.531 514.242 253.703H510.242C510.242 256.083 509.85 258.26 509.086 260.252L512.82 261.685ZM514.242 253.703C514.242 250.875 513.775 248.208 512.82 245.721L509.086 247.154C509.85 249.146 510.242 251.323 510.242 253.703H514.242ZM512.828 245.74C511.909 243.27 510.591 241.09 508.869 239.223L505.928 241.934C507.279 243.399 508.331 245.126 509.079 247.135L512.828 245.74ZM508.891 239.247C507.196 237.348 505.187 235.866 502.876 234.813L501.218 238.453C503.021 239.275 504.58 240.423 505.906 241.91L508.891 239.247ZM502.885 234.817C500.573 233.75 498.071 233.227 495.406 233.227V237.227C497.534 237.227 499.459 237.641 501.209 238.449L502.885 234.817ZM495.406 233.227C492.742 233.227 490.221 233.75 487.867 234.809L489.508 238.457C491.321 237.641 493.279 237.227 495.406 237.227V233.227ZM487.858 234.813C485.551 235.864 483.533 237.342 481.816 239.234L484.778 241.922C486.134 240.429 487.71 239.276 489.517 238.453L487.858 234.813ZM481.815 239.235C480.128 241.097 478.817 243.266 477.875 245.721L481.609 247.154C482.386 245.13 483.445 243.393 484.779 241.921L481.815 239.235ZM477.868 245.74C476.944 248.222 476.492 250.882 476.492 253.703H480.492C480.492 251.316 480.873 249.132 481.617 247.135L477.868 245.74ZM476.492 253.703C476.492 256.524 476.944 259.184 477.868 261.666L481.617 260.271C480.873 258.274 480.492 256.091 480.492 253.703H476.492ZM477.875 261.685C478.816 264.138 480.124 266.315 481.805 268.199L484.789 265.536C483.449 264.034 482.387 262.279 481.609 260.252L477.875 261.685ZM481.826 268.223C483.543 270.085 485.558 271.545 487.858 272.593L489.517 268.953C487.703 268.127 486.124 266.983 484.767 265.512L481.826 268.223ZM487.867 272.597C490.221 273.657 492.742 274.18 495.406 274.18V270.18C493.279 270.18 491.321 269.765 489.508 268.95L487.867 272.597ZM532.211 297.062L530.214 297.18L530.325 299.062H532.211V297.062ZM531.508 285.07V283.07H529.387L529.511 285.187L531.508 285.07ZM541.508 281.906L540.12 280.467L540.111 280.475L541.508 281.906ZM544.789 224.406V222.406H542.789V224.406H544.789ZM558.539 224.406H560.539V222.406H558.539V224.406ZM547.406 294.562L546.617 292.725L546.612 292.727L547.406 294.562ZM534.208 296.945L533.504 284.953L529.511 285.187L530.214 297.18L534.208 296.945ZM531.508 287.07C536.282 287.07 540.221 285.957 542.905 283.338L540.111 280.475C538.472 282.075 535.744 283.07 531.508 283.07V287.07ZM542.896 283.346C545.613 280.726 546.789 276.908 546.789 272.297H542.789C542.789 276.279 541.778 278.868 540.12 280.467L542.896 283.346ZM546.789 272.297V224.406H542.789V272.297H546.789ZM544.789 226.406H558.539V222.406H544.789V226.406ZM556.539 224.406V272.219H560.539V224.406H556.539ZM556.539 272.219C556.539 277.983 555.675 282.443 554.084 285.72L557.682 287.468C559.632 283.453 560.539 278.329 560.539 272.219H556.539ZM554.084 285.72C552.532 288.914 550.076 291.239 546.617 292.725L548.196 296.4C552.497 294.553 555.692 291.565 557.682 287.468L554.084 285.72ZM546.612 292.727C543.101 294.245 538.337 295.062 532.211 295.062V299.062C538.637 299.062 544.003 298.213 548.2 296.398L546.612 292.727ZM579.211 283H577.211V285H579.211V283ZM579.211 224.406V222.406H577.211V224.406H579.211ZM617.648 224.406H619.648V222.406H617.648V224.406ZM617.648 236.398V238.398H619.648V236.398H617.648ZM592.961 236.398V234.398H590.961V236.398H592.961ZM592.961 247.609H590.961V249.609H592.961V247.609ZM616.086 247.609H618.086V245.609H616.086V247.609ZM616.086 259.602V261.602H618.086V259.602H616.086ZM592.961 259.602V257.602H590.961V259.602H592.961ZM592.961 271.008H590.961V273.008H592.961V271.008ZM618.039 271.008H620.039V269.008H618.039V271.008ZM618.039 283V285H620.039V283H618.039ZM581.211 283V224.406H577.211V283H581.211ZM579.211 226.406H617.648V222.406H579.211V226.406ZM615.648 224.406V236.398H619.648V224.406H615.648ZM617.648 234.398H592.961V238.398H617.648V234.398ZM590.961 236.398V247.609H594.961V236.398H590.961ZM592.961 249.609H616.086V245.609H592.961V249.609ZM614.086 247.609V259.602H618.086V247.609H614.086ZM616.086 257.602H592.961V261.602H616.086V257.602ZM590.961 259.602V271.008H594.961V259.602H590.961ZM592.961 273.008H618.039V269.008H592.961V273.008ZM616.039 271.008V283H620.039V271.008H616.039ZM618.039 281H579.211V285H618.039V281ZM689.102 275.695L690.495 277.13L691.951 275.716L690.516 274.281L689.102 275.695ZM679.375 281.945L680.111 283.805L680.122 283.8L679.375 281.945ZM654.766 281.906L654.012 283.759L654.023 283.763L654.766 281.906ZM644.922 275.5L643.514 276.921L643.521 276.927L644.922 275.5ZM644.922 231.945L646.323 233.373L646.329 233.366L644.922 231.945ZM654.766 225.539L655.508 227.396L655.519 227.392L654.766 225.539ZM679.297 225.5L678.545 227.353L678.556 227.358L679.297 225.5ZM689.023 231.75L690.441 233.161L691.869 231.727L690.417 230.316L689.023 231.75ZM679.414 241.398L677.83 242.619L679.222 244.426L680.831 242.81L679.414 241.398ZM673.945 236.867L674.848 235.083L673.945 236.867ZM654.961 240.539L656.443 241.882L654.961 240.539ZM651.445 261.008L649.571 261.705L649.574 261.712L651.445 261.008ZM654.961 266.867L653.469 268.199L653.474 268.205L653.479 268.21L654.961 266.867ZM673.906 270.539L673.003 268.755L672.994 268.759L673.906 270.539ZM679.414 266.008L680.828 264.594L679.232 262.998L677.84 264.774L679.414 266.008ZM687.708 274.261C685.171 276.725 682.152 278.671 678.628 280.09L680.122 283.8C684.098 282.199 687.564 279.978 690.495 277.13L687.708 274.261ZM678.639 280.086C675.145 281.469 671.309 282.172 667.109 282.172V286.172C671.764 286.172 676.105 285.391 680.111 283.805L678.639 280.086ZM667.109 282.172C662.886 282.172 659.027 281.457 655.508 280.049L654.023 283.763C658.057 285.377 662.426 286.172 667.109 286.172V282.172ZM655.519 280.054C651.974 278.611 648.915 276.616 646.323 274.073L643.521 276.927C646.502 279.852 650.005 282.129 654.012 283.759L655.519 280.054ZM646.329 274.079C643.735 271.509 641.721 268.504 640.284 265.045L636.591 266.58C638.227 270.517 640.536 273.97 643.514 276.921L646.329 274.079ZM640.284 265.045C638.858 261.612 638.133 257.839 638.133 253.703H634.133C634.133 258.317 634.944 262.617 636.591 266.58L640.284 265.045ZM638.133 253.703C638.133 249.567 638.858 245.794 640.284 242.361L636.591 240.826C634.944 244.789 634.133 249.089 634.133 253.703H638.133ZM640.284 242.361C641.721 238.904 643.733 235.914 646.323 233.373L643.521 230.518C640.538 233.445 638.227 236.887 636.591 240.826L640.284 242.361ZM646.329 233.366C648.919 230.801 651.972 228.811 655.508 227.396L654.023 223.682C650.008 225.288 646.498 227.569 643.514 230.524L646.329 233.366ZM655.519 227.392C659.035 225.961 662.891 225.234 667.109 225.234V221.234C662.422 221.234 658.049 222.044 654.012 223.687L655.519 227.392ZM667.109 225.234C671.277 225.234 675.082 225.949 678.545 227.353L680.049 223.647C676.064 222.031 671.743 221.234 667.109 221.234V225.234ZM678.556 227.358C682.047 228.749 685.065 230.692 687.63 233.184L690.417 230.316C687.461 227.443 683.994 225.219 680.037 223.642L678.556 227.358ZM687.606 230.339L677.997 239.987L680.831 242.81L690.441 233.161L687.606 230.339ZM680.999 240.178C679.333 238.015 677.277 236.312 674.848 235.083L673.042 238.652C674.936 239.61 676.527 240.927 677.83 242.619L680.999 240.178ZM674.848 235.083C672.392 233.84 669.724 233.227 666.875 233.227V237.227C669.131 237.227 671.176 237.707 673.042 238.652L674.848 235.083ZM666.875 233.227C664.233 233.227 661.745 233.751 659.435 234.817L661.112 238.449C662.865 237.64 664.777 237.227 666.875 237.227V233.227ZM659.435 234.817C657.158 235.868 655.169 237.331 653.479 239.196L656.443 241.882C657.774 240.414 659.326 239.273 661.112 238.449L659.435 234.817ZM653.479 239.196C651.787 241.063 650.487 243.238 649.571 245.701L653.32 247.096C654.07 245.079 655.114 243.349 656.443 241.882L653.479 239.196ZM649.571 245.701C648.647 248.183 648.195 250.843 648.195 253.664H652.195C652.195 251.277 652.577 249.093 653.32 247.096L649.571 245.701ZM648.195 253.664C648.195 256.532 648.646 259.219 649.571 261.705L653.32 260.31C652.578 258.317 652.195 256.109 652.195 253.664H648.195ZM649.574 261.712C650.49 264.147 651.787 266.314 653.469 268.199L656.453 265.536C655.114 264.035 654.067 262.296 653.317 260.303L649.574 261.712ZM653.479 268.21C655.169 270.075 657.158 271.539 659.435 272.589L661.112 268.958C659.326 268.133 657.774 266.993 656.443 265.524L653.479 268.21ZM659.435 272.589C661.745 273.655 664.233 274.18 666.875 274.18V270.18C664.777 270.18 662.865 269.767 661.112 268.958L659.435 272.589ZM666.875 274.18C669.723 274.18 672.382 273.567 674.818 272.319L672.994 268.759C671.159 269.699 669.131 270.18 666.875 270.18V274.18ZM674.809 272.324C677.235 271.096 679.299 269.397 680.988 267.242L677.84 264.774C676.508 266.473 674.9 267.794 673.003 268.755L674.809 272.324ZM678 267.422L687.687 277.11L690.516 274.281L680.828 264.594L678 267.422ZM734.891 283V285H736.891V283H734.891ZM721.141 283H719.141V285H721.141V283ZM721.141 236.398H723.141V234.398H721.141V236.398ZM704.383 236.398H702.383V238.398H704.383V236.398ZM704.383 224.406V222.406H702.383V224.406H704.383ZM751.648 224.406H753.648V222.406H751.648V224.406ZM751.648 236.398V238.398H753.648V236.398H751.648ZM734.891 236.398V234.398H732.891V236.398H734.891ZM734.891 281H721.141V285H734.891V281ZM723.141 283V236.398H719.141V283H723.141ZM721.141 234.398H704.383V238.398H721.141V234.398ZM706.383 236.398V224.406H702.383V236.398H706.383ZM704.383 226.406H751.648V222.406H704.383V226.406ZM749.648 224.406V236.398H753.648V224.406H749.648ZM751.648 234.398H734.891V238.398H751.648V234.398ZM732.891 236.398V283H736.891V236.398H732.891ZM765.836 276.477L764.136 275.423L763.191 276.949L764.605 278.053L765.836 276.477ZM772.32 266.008L773.559 264.437L771.8 263.05L770.62 264.955L772.32 266.008ZM777.594 269.602L776.613 271.345L776.624 271.351L776.634 271.356L777.594 269.602ZM792.125 271.594L792.802 273.476L792.813 273.472L792.823 273.468L792.125 271.594ZM795.172 269.523L793.628 268.252L793.617 268.266L793.606 268.28L795.172 269.523ZM794.82 262.727L793.369 264.103L793.378 264.112L793.387 264.122L794.82 262.727ZM790.992 260.07L790.098 261.859L790.116 261.868L790.133 261.877L790.992 260.07ZM785.875 257.766L785.106 259.612L785.119 259.617L785.875 257.766ZM780.133 255.227L779.278 257.035L779.287 257.039L780.133 255.227ZM774.82 251.906L773.55 253.451L773.557 253.457L773.565 253.463L774.82 251.906ZM770.875 247.102L769.106 248.035L769.111 248.045L769.116 248.054L770.875 247.102ZM772.047 231.164L770.412 230.013L770.409 230.016L772.047 231.164ZM779.391 225.305L780.191 227.137L780.199 227.134L779.391 225.305ZM798.922 224.367L798.448 226.31L798.452 226.311L798.922 224.367ZM808.336 227.883L810.136 228.754L810.994 226.983L809.236 226.097L808.336 227.883ZM802.984 238.938L801.941 240.644L803.823 241.794L804.785 239.809L802.984 238.938ZM796.891 236.242L796.293 238.151L796.306 238.155L796.32 238.159L796.891 236.242ZM786.93 235.891L787.642 237.76L787.653 237.755L787.665 237.751L786.93 235.891ZM784.352 237.688L782.79 236.438L782.777 236.454L782.764 236.471L784.352 237.688ZM784.859 243.898L783.407 245.274L783.426 245.294L783.445 245.313L784.859 243.898ZM793.609 248.898L792.79 250.723L792.809 250.731L792.828 250.739L793.609 248.898ZM799.391 251.594L798.487 253.378L798.496 253.383L799.391 251.594ZM804.82 255.109L803.547 256.652L803.56 256.663L803.574 256.673L804.82 255.109ZM808.805 259.914L807.036 260.848L807.041 260.857L807.046 260.867L808.805 259.914ZM807.516 275.852L805.882 274.698L805.879 274.701L807.516 275.852ZM799.703 281.984L798.907 280.15L798.901 280.152L799.703 281.984ZM776.266 282.219L775.598 284.104L775.606 284.107L775.614 284.109L776.266 282.219ZM767.536 277.53L774.021 267.061L770.62 264.955L764.136 275.423L767.536 277.53ZM771.082 267.578C772.994 269.087 774.838 270.346 776.613 271.345L778.574 267.858C777.016 266.982 775.344 265.846 773.559 264.437L771.082 267.578ZM776.634 271.356C778.419 272.333 780.204 273.073 781.987 273.562L783.044 269.704C781.598 269.307 780.102 268.694 778.553 267.847L776.634 271.356ZM781.987 273.562C783.773 274.051 785.591 274.297 787.438 274.297V270.297C785.95 270.297 784.488 270.1 783.044 269.704L781.987 273.562ZM787.438 274.297C789.422 274.297 791.226 274.043 792.802 273.476L791.448 269.712C790.419 270.082 789.099 270.297 787.438 270.297V274.297ZM792.823 273.468C794.407 272.878 795.758 272.002 796.738 270.767L793.606 268.28C793.18 268.816 792.499 269.32 791.427 269.72L792.823 273.468ZM796.716 270.795C797.76 269.526 798.266 268.014 798.266 266.359H794.266C794.266 267.153 794.042 267.75 793.628 268.252L796.716 270.795ZM798.266 266.359C798.266 264.427 797.595 262.709 796.253 261.331L793.387 264.122C793.973 264.723 794.266 265.427 794.266 266.359H798.266ZM796.271 261.35C795.101 260.117 793.607 259.099 791.851 258.264L790.133 261.877C791.555 262.552 792.612 263.305 793.369 264.103L796.271 261.35ZM791.887 258.281C790.273 257.475 788.521 256.686 786.631 255.914L785.119 259.617C786.927 260.356 788.586 261.103 790.098 261.859L791.887 258.281ZM786.644 255.919C784.796 255.15 782.908 254.315 780.979 253.414L779.287 257.039C781.264 257.961 783.204 258.819 785.106 259.612L786.644 255.919ZM780.988 253.419C779.2 252.573 777.564 251.55 776.076 250.349L773.565 253.463C775.306 254.867 777.212 256.057 779.278 257.035L780.988 253.419ZM776.091 250.362C774.68 249.201 773.529 247.802 772.634 246.149L769.116 248.054C770.252 250.151 771.732 251.955 773.55 253.451L776.091 250.362ZM772.644 246.168C771.841 244.647 771.391 242.707 771.391 240.266H767.391C767.391 243.189 767.93 245.806 769.106 248.035L772.644 246.168ZM771.391 240.266C771.391 237.072 772.183 234.454 773.685 232.312L770.409 230.016C768.369 232.927 767.391 236.376 767.391 240.266H771.391ZM773.682 232.315C775.251 230.087 777.399 228.358 780.191 227.137L778.59 223.472C775.185 224.96 772.437 227.137 770.412 230.013L773.682 232.315ZM780.199 227.134C783.033 225.882 786.281 225.234 789.977 225.234V221.234C785.808 221.234 781.998 221.967 778.583 223.475L780.199 227.134ZM789.977 225.234C792.665 225.234 795.487 225.589 798.448 226.31L799.395 222.424C796.159 221.635 793.018 221.234 789.977 221.234V225.234ZM798.452 226.311C801.414 227.027 804.408 228.143 807.436 229.669L809.236 226.097C805.961 224.446 802.679 223.218 799.392 222.423L798.452 226.311ZM806.536 227.011L801.184 238.066L804.785 239.809L810.136 228.754L806.536 227.011ZM804.027 237.231C801.999 235.991 799.808 235.024 797.461 234.325L796.32 238.159C798.348 238.763 800.22 239.592 801.941 240.644L804.027 237.231ZM797.488 234.334C795.172 233.608 792.951 233.227 790.836 233.227V237.227C792.471 237.227 794.286 237.522 796.293 238.151L797.488 234.334ZM790.836 233.227C789.157 233.227 787.596 233.477 786.194 234.031L787.665 237.751C788.503 237.419 789.547 237.227 790.836 237.227V233.227ZM786.218 234.022C784.848 234.544 783.673 235.334 782.79 236.438L785.913 238.937C786.28 238.478 786.824 238.071 787.642 237.76L786.218 234.022ZM782.764 236.471C781.882 237.622 781.453 238.968 781.453 240.422H785.453C785.453 239.793 785.624 239.315 785.939 238.904L782.764 236.471ZM781.453 240.422C781.453 242.277 782.128 243.924 783.407 245.274L786.311 242.523C785.715 241.894 785.453 241.223 785.453 240.422H781.453ZM783.445 245.313C784.591 246.458 786.026 247.446 787.703 248.298L789.516 244.733C788.12 244.023 787.055 243.266 786.274 242.484L783.445 245.313ZM787.703 248.298C789.272 249.096 790.968 249.904 792.79 250.723L794.429 247.074C792.657 246.278 791.02 245.498 789.516 244.733L787.703 248.298ZM792.828 250.739C794.685 251.528 796.571 252.407 798.487 253.378L800.295 249.81C798.304 248.801 796.336 247.883 794.391 247.058L792.828 250.739ZM798.496 253.383C800.346 254.307 802.028 255.398 803.547 256.652L806.093 253.567C804.332 252.113 802.394 250.859 800.285 249.805L798.496 253.383ZM803.574 256.673C805.026 257.831 806.176 259.218 807.036 260.848L810.573 258.981C809.454 256.86 807.948 255.044 806.067 253.545L803.574 256.673ZM807.046 260.867C807.87 262.388 808.328 264.298 808.328 266.672H812.328C812.328 263.786 811.77 261.19 810.563 258.961L807.046 260.867ZM808.328 266.672C808.328 269.751 807.503 272.402 805.882 274.698L809.15 277.005C811.279 273.989 812.328 270.52 812.328 266.672H808.328ZM805.879 274.701C804.27 276.99 801.977 278.817 798.907 280.15L800.5 283.819C804.148 282.235 807.063 279.973 809.152 277.002L805.879 274.701ZM798.901 280.152C795.869 281.479 792.272 282.172 788.062 282.172V286.172C792.707 286.172 796.87 285.407 800.505 283.817L798.901 280.152ZM788.062 282.172C784.191 282.172 780.479 281.556 776.918 280.328L775.614 284.109C779.604 285.486 783.757 286.172 788.062 286.172V282.172ZM776.933 280.333C773.391 279.079 770.104 277.27 767.066 274.9L764.605 278.053C767.975 280.683 771.641 282.702 775.598 284.104L776.933 280.333Z" fill="black"/>
<defs>
<radialGradient id="paint0_diamond_203_73" cx="0" cy="0" r="1" gradientUnits="userSpaceOnUse" gradientTransform="translate(430.545 275.268) rotate(90) scale(270 430)">
<stop stop-color="#D9BFB2"/>
<stop offset="1"/>
</radialGradient>
</defs>
</svg>
