<svg width="864" height="546" viewBox="0 0 864 546" fill="none" xmlns="http://www.w3.org/2000/svg">
<rect x="1.04762" y="5.76575" width="859" height="539" rx="9.5" transform="rotate(-0.310028 1.04762 5.76575)" fill="url(#paint0_diamond_203_73)" stroke="black"/>
<path d="M137.516 290V231.406H157.477C164.534 231.406 170.654 232.617 175.836 235.039C181.018 237.435 185.042 240.833 187.906 245.234C190.771 249.609 192.203 254.766 192.203 260.703C192.203 266.615 190.771 271.771 187.906 276.172C185.042 280.573 181.018 283.984 175.836 286.406C170.654 288.802 164.534 290 157.477 290H137.516ZM151.266 278.008H157.945C162.268 278.008 165.927 277.344 168.922 276.016C171.917 274.661 174.195 272.695 175.758 270.117C177.346 267.539 178.141 264.401 178.141 260.703C178.141 257.005 177.346 253.867 175.758 251.289C174.195 248.711 171.917 246.758 168.922 245.43C165.927 244.076 162.268 243.398 157.945 243.398H151.266V278.008ZM247.055 290H235.844L235.18 285.547C233.747 287.214 232.003 288.503 229.945 289.414C227.888 290.326 225.622 290.781 223.148 290.781C220.44 290.781 218.031 290.26 215.922 289.219C213.812 288.177 212.146 286.745 210.922 284.922C209.724 283.073 209.125 280.977 209.125 278.633C209.125 276.159 209.776 273.984 211.078 272.109C212.406 270.234 214.229 268.763 216.547 267.695C218.865 266.628 221.508 266.094 224.477 266.094C226.169 266.094 227.836 266.276 229.477 266.641C231.143 267.005 232.732 267.513 234.242 268.164V267.344C234.242 265.964 233.826 264.766 232.992 263.75C232.159 262.734 231.026 261.94 229.594 261.367C228.161 260.768 226.534 260.469 224.711 260.469C222.914 260.469 221.169 260.755 219.477 261.328C217.784 261.875 216.234 262.669 214.828 263.711L211.469 254.141C214.229 252.812 216.977 251.823 219.711 251.172C222.471 250.495 225.128 250.156 227.68 250.156C231.612 250.156 235.023 250.924 237.914 252.461C240.831 253.997 243.083 256.172 244.672 258.984C246.26 261.771 247.055 265.078 247.055 268.906V290ZM226.039 281.211C227.367 281.211 228.643 280.924 229.867 280.352C231.117 279.753 232.133 278.971 232.914 278.008C233.721 277.044 234.138 276.016 234.164 274.922V274.766C233.122 274.089 231.964 273.581 230.688 273.242C229.411 272.878 228.135 272.695 226.859 272.695C224.958 272.695 223.435 273.086 222.289 273.867C221.143 274.622 220.57 275.638 220.57 276.914C220.57 277.721 220.805 278.464 221.273 279.141C221.742 279.792 222.393 280.299 223.227 280.664C224.06 281.029 224.997 281.211 226.039 281.211ZM294.641 288.945C291.516 290.169 288.482 290.781 285.539 290.781C282.44 290.781 279.693 290.13 277.297 288.828C274.927 287.5 273.078 285.677 271.75 283.359C270.422 281.016 269.758 278.294 269.758 275.195V262.383H262.922V250.938H270.461V241.172H282.57V250.938H293.117V262.383H282.57V272.891C282.57 274.948 283.143 276.536 284.289 277.656C285.435 278.776 286.815 279.336 288.43 279.336C289.992 279.336 291.516 278.841 293 277.852L294.641 288.945ZM347.617 290H336.406L335.742 285.547C334.31 287.214 332.565 288.503 330.508 289.414C328.451 290.326 326.185 290.781 323.711 290.781C321.003 290.781 318.594 290.26 316.484 289.219C314.375 288.177 312.708 286.745 311.484 284.922C310.286 283.073 309.688 280.977 309.688 278.633C309.688 276.159 310.339 273.984 311.641 272.109C312.969 270.234 314.792 268.763 317.109 267.695C319.427 266.628 322.07 266.094 325.039 266.094C326.732 266.094 328.398 266.276 330.039 266.641C331.706 267.005 333.294 267.513 334.805 268.164V267.344C334.805 265.964 334.388 264.766 333.555 263.75C332.721 262.734 331.589 261.94 330.156 261.367C328.724 260.768 327.096 260.469 325.273 260.469C323.477 260.469 321.732 260.755 320.039 261.328C318.346 261.875 316.797 262.669 315.391 263.711L312.031 254.141C314.792 252.812 317.539 251.823 320.273 251.172C323.034 250.495 325.69 250.156 328.242 250.156C332.174 250.156 335.586 250.924 338.477 252.461C341.393 253.997 343.646 256.172 345.234 258.984C346.823 261.771 347.617 265.078 347.617 268.906V290ZM326.602 281.211C327.93 281.211 329.206 280.924 330.43 280.352C331.68 279.753 332.695 278.971 333.477 278.008C334.284 277.044 334.701 276.016 334.727 274.922V274.766C333.685 274.089 332.526 273.581 331.25 273.242C329.974 272.878 328.698 272.695 327.422 272.695C325.521 272.695 323.997 273.086 322.852 273.867C321.706 274.622 321.133 275.638 321.133 276.914C321.133 277.721 321.367 278.464 321.836 279.141C322.305 279.792 322.956 280.299 323.789 280.664C324.622 281.029 325.56 281.211 326.602 281.211ZM394.469 283.477L400.953 273.008C402.802 274.466 404.56 275.664 406.227 276.602C407.893 277.513 409.534 278.19 411.148 278.633C412.763 279.076 414.404 279.297 416.07 279.297C417.893 279.297 419.456 279.062 420.758 278.594C422.086 278.099 423.102 277.409 423.805 276.523C424.534 275.638 424.898 274.583 424.898 273.359C424.898 271.927 424.417 270.716 423.453 269.727C422.49 268.711 421.214 267.826 419.625 267.07C418.062 266.289 416.357 265.521 414.508 264.766C412.633 263.984 410.719 263.138 408.766 262.227C406.839 261.315 405.068 260.208 403.453 258.906C401.839 257.578 400.523 255.977 399.508 254.102C398.518 252.227 398.023 249.948 398.023 247.266C398.023 243.724 398.909 240.69 400.68 238.164C402.477 235.612 404.924 233.659 408.023 232.305C411.148 230.924 414.677 230.234 418.609 230.234C421.474 230.234 424.456 230.612 427.555 231.367C430.68 232.122 433.818 233.294 436.969 234.883L431.617 245.938C429.742 244.792 427.711 243.893 425.523 243.242C423.362 242.565 421.344 242.227 419.469 242.227C417.984 242.227 416.682 242.448 415.562 242.891C414.469 243.307 413.609 243.906 412.984 244.688C412.385 245.469 412.086 246.38 412.086 247.422C412.086 248.75 412.555 249.909 413.492 250.898C414.456 251.862 415.706 252.734 417.242 253.516C418.779 254.297 420.445 255.091 422.242 255.898C424.143 256.706 426.07 257.604 428.023 258.594C430.003 259.583 431.812 260.755 433.453 262.109C435.12 263.438 436.448 265.039 437.438 266.914C438.453 268.789 438.961 271.042 438.961 273.672C438.961 277.135 438.023 280.195 436.148 282.852C434.299 285.482 431.695 287.526 428.336 288.984C425.003 290.443 421.122 291.172 416.695 291.172C412.607 291.172 408.674 290.521 404.898 289.219C401.148 287.891 397.672 285.977 394.469 283.477ZM493.07 283.594C491.169 285.833 488.812 287.591 486 288.867C483.188 290.143 480.076 290.781 476.664 290.781C472.602 290.781 468.969 289.909 465.766 288.164C462.589 286.393 460.089 283.984 458.266 280.938C456.443 277.865 455.531 274.375 455.531 270.469C455.531 266.562 456.443 263.086 458.266 260.039C460.089 256.966 462.589 254.557 465.766 252.812C468.969 251.042 472.602 250.156 476.664 250.156C480.049 250.156 483.135 250.794 485.922 252.07C488.734 253.32 491.091 255.039 492.992 257.227L485.492 265.156C484.581 264.062 483.409 263.203 481.977 262.578C480.57 261.953 479.099 261.641 477.562 261.641C475.844 261.641 474.307 262.018 472.953 262.773C471.625 263.503 470.57 264.531 469.789 265.859C469.034 267.188 468.656 268.698 468.656 270.391C468.656 272.135 469.034 273.685 469.789 275.039C470.57 276.367 471.625 277.409 472.953 278.164C474.307 278.919 475.844 279.297 477.562 279.297C479.099 279.297 480.583 278.984 482.016 278.359C483.448 277.734 484.607 276.875 485.492 275.781L493.07 283.594ZM517.688 242.578C516.073 242.578 514.706 242.018 513.586 240.898C512.492 239.753 511.945 238.372 511.945 236.758C511.945 235.169 512.492 233.815 513.586 232.695C514.706 231.549 516.073 230.977 517.688 230.977C519.328 230.977 520.708 231.549 521.828 232.695C522.948 233.815 523.508 235.169 523.508 236.758C523.508 238.372 522.948 239.753 521.828 240.898C520.708 242.018 519.328 242.578 517.688 242.578ZM524.133 290H511.32V250.938H524.133V290ZM581.406 285.742C576.536 289.102 571.237 290.781 565.508 290.781C561.185 290.781 557.292 289.87 553.828 288.047C550.391 286.198 547.669 283.698 545.664 280.547C543.659 277.37 542.656 273.802 542.656 269.844C542.656 266.068 543.555 262.708 545.352 259.766C547.148 256.797 549.596 254.453 552.695 252.734C555.82 251.016 559.349 250.156 563.281 250.156C567.37 250.156 570.964 251.107 574.062 253.008C577.161 254.909 579.57 257.552 581.289 260.938C583.034 264.297 583.906 268.203 583.906 272.656V273.906H556.406C556.875 275.182 557.578 276.315 558.516 277.305C559.479 278.294 560.677 279.089 562.109 279.688C563.542 280.26 565.182 280.547 567.031 280.547C570.859 280.547 574.453 279.31 577.812 276.836L581.406 285.742ZM555.859 268.125H572.109C571.953 266.667 571.51 265.378 570.781 264.258C570.052 263.138 569.089 262.266 567.891 261.641C566.719 261.016 565.404 260.703 563.945 260.703C562.461 260.703 561.146 261.042 560 261.719C558.88 262.37 557.956 263.255 557.227 264.375C556.523 265.469 556.068 266.719 555.859 268.125ZM642.156 290H629.344V270.586C629.344 267.747 628.732 265.547 627.508 263.984C626.284 262.422 624.591 261.641 622.43 261.641C620.19 261.641 618.419 262.448 617.117 264.062C615.841 265.677 615.203 267.904 615.203 270.742V290H602.391V250.938H612.625L613.055 257.188C614.435 254.896 616.245 253.151 618.484 251.953C620.75 250.755 623.406 250.156 626.453 250.156C631.349 250.156 635.19 251.68 637.977 254.727C640.763 257.747 642.156 261.94 642.156 267.305V290ZM697.398 283.594C695.497 285.833 693.141 287.591 690.328 288.867C687.516 290.143 684.404 290.781 680.992 290.781C676.93 290.781 673.297 289.909 670.094 288.164C666.917 286.393 664.417 283.984 662.594 280.938C660.771 277.865 659.859 274.375 659.859 270.469C659.859 266.562 660.771 263.086 662.594 260.039C664.417 256.966 666.917 254.557 670.094 252.812C673.297 251.042 676.93 250.156 680.992 250.156C684.378 250.156 687.464 250.794 690.25 252.07C693.062 253.32 695.419 255.039 697.32 257.227L689.82 265.156C688.909 264.062 687.737 263.203 686.305 262.578C684.898 261.953 683.427 261.641 681.891 261.641C680.172 261.641 678.635 262.018 677.281 262.773C675.953 263.503 674.898 264.531 674.117 265.859C673.362 267.188 672.984 268.698 672.984 270.391C672.984 272.135 673.362 273.685 674.117 275.039C674.898 276.367 675.953 277.409 677.281 278.164C678.635 278.919 680.172 279.297 681.891 279.297C683.427 279.297 684.911 278.984 686.344 278.359C687.776 277.734 688.935 276.875 689.82 275.781L697.398 283.594ZM752.172 285.742C747.302 289.102 742.003 290.781 736.273 290.781C731.951 290.781 728.057 289.87 724.594 288.047C721.156 286.198 718.435 283.698 716.43 280.547C714.424 277.37 713.422 273.802 713.422 269.844C713.422 266.068 714.32 262.708 716.117 259.766C717.914 256.797 720.362 254.453 723.461 252.734C726.586 251.016 730.115 250.156 734.047 250.156C738.135 250.156 741.729 251.107 744.828 253.008C747.927 254.909 750.336 257.552 752.055 260.938C753.799 264.297 754.672 268.203 754.672 272.656V273.906H727.172C727.641 275.182 728.344 276.315 729.281 277.305C730.245 278.294 731.443 279.089 732.875 279.688C734.307 280.26 735.948 280.547 737.797 280.547C741.625 280.547 745.219 279.31 748.578 276.836L752.172 285.742ZM726.625 268.125H742.875C742.719 266.667 742.276 265.378 741.547 264.258C740.818 263.138 739.854 262.266 738.656 261.641C737.484 261.016 736.169 260.703 734.711 260.703C733.227 260.703 731.911 261.042 730.766 261.719C729.646 262.37 728.721 263.255 727.992 264.375C727.289 265.469 726.833 266.719 726.625 268.125Z" fill="white"/>
<path d="M137.516 290H135.516V292H137.516V290ZM137.516 231.406V229.406H135.516V231.406H137.516ZM175.836 235.039L174.989 236.851L174.997 236.854L175.836 235.039ZM187.906 245.234L186.23 246.325L186.233 246.33L187.906 245.234ZM175.836 286.406L176.675 288.222L176.683 288.218L175.836 286.406ZM151.266 278.008H149.266V280.008H151.266V278.008ZM168.922 276.016L169.733 277.844L169.739 277.841L169.746 277.838L168.922 276.016ZM175.758 270.117L174.055 269.068L174.051 269.074L174.047 269.081L175.758 270.117ZM175.758 251.289L174.047 252.326L174.051 252.332L174.055 252.338L175.758 251.289ZM168.922 245.43L168.098 247.252L168.104 247.255L168.111 247.258L168.922 245.43ZM151.266 243.398V241.398H149.266V243.398H151.266ZM139.516 290V231.406H135.516V290H139.516ZM137.516 233.406H157.477V229.406H137.516V233.406ZM157.477 233.406C164.308 233.406 170.126 234.578 174.989 236.851L176.683 233.227C171.181 230.656 164.76 229.406 157.477 229.406V233.406ZM174.997 236.854C179.868 239.107 183.589 242.267 186.23 246.325L189.582 244.143C186.495 239.4 182.168 235.763 176.675 233.224L174.997 236.854ZM186.233 246.33C188.856 250.337 190.203 255.101 190.203 260.703H194.203C194.203 254.431 192.685 248.882 189.579 244.139L186.233 246.33ZM190.203 260.703C190.203 266.277 188.857 271.044 186.23 275.081L189.582 277.263C192.684 272.498 194.203 266.952 194.203 260.703H190.203ZM186.23 275.081C183.587 279.141 179.864 282.316 174.989 284.594L176.683 288.218C182.172 285.653 186.496 282.005 189.582 277.263L186.23 275.081ZM174.997 284.591C170.132 286.84 164.311 288 157.477 288V292C164.757 292 171.175 290.764 176.675 288.222L174.997 284.591ZM157.477 288H137.516V292H157.477V288ZM151.266 280.008H157.945V276.008H151.266V280.008ZM157.945 280.008C162.463 280.008 166.415 279.315 169.733 277.844L168.111 274.187C165.439 275.372 162.074 276.008 157.945 276.008V280.008ZM169.746 277.838C173.074 276.333 175.677 274.109 177.468 271.154L174.047 269.081C172.713 271.282 170.759 272.99 168.098 274.193L169.746 277.838ZM177.461 271.166C179.282 268.21 180.141 264.689 180.141 260.703H176.141C176.141 264.113 175.41 266.869 174.055 269.068L177.461 271.166ZM180.141 260.703C180.141 256.717 179.282 253.197 177.461 250.24L174.055 252.338C175.41 254.538 176.141 257.294 176.141 260.703H180.141ZM177.468 250.252C175.675 247.294 173.067 245.08 169.733 243.601L168.111 247.258C170.766 248.435 172.715 250.128 174.047 252.326L177.468 250.252ZM169.746 243.607C166.424 242.105 162.467 241.398 157.945 241.398V245.398C162.07 245.398 165.43 246.046 168.098 247.252L169.746 243.607ZM157.945 241.398H151.266V245.398H157.945V241.398ZM149.266 243.398V278.008H153.266V243.398H149.266ZM247.055 290V292H249.055V290H247.055ZM235.844 290L233.866 290.295L234.12 292H235.844V290ZM235.18 285.547L237.158 285.252L236.513 280.927L233.663 284.243L235.18 285.547ZM210.922 284.922L209.243 286.009L209.252 286.023L209.261 286.037L210.922 284.922ZM211.078 272.109L209.446 270.953L209.441 270.961L209.435 270.969L211.078 272.109ZM229.477 266.641L229.043 268.593L229.049 268.594L229.477 266.641ZM234.242 268.164L233.451 270.001L236.242 271.204V268.164H234.242ZM229.594 261.367L228.822 263.212L228.837 263.218L228.851 263.224L229.594 261.367ZM219.477 261.328L220.091 263.231L220.105 263.227L220.118 263.223L219.477 261.328ZM214.828 263.711L212.941 264.373L213.839 266.932L216.019 265.318L214.828 263.711ZM211.469 254.141L210.602 252.338L208.989 253.114L209.582 254.803L211.469 254.141ZM219.711 251.172L220.174 253.118L220.187 253.114L219.711 251.172ZM237.914 252.461L236.975 254.227L236.982 254.23L237.914 252.461ZM244.672 258.984L242.93 259.968L242.934 259.975L244.672 258.984ZM229.867 280.352L230.715 282.163L230.723 282.159L230.731 282.155L229.867 280.352ZM232.914 278.008L231.381 276.723L231.371 276.736L231.361 276.748L232.914 278.008ZM234.164 274.922L236.163 274.969L236.164 274.946V274.922H234.164ZM234.164 274.766H236.164V273.68L235.254 273.089L234.164 274.766ZM230.688 273.242L230.138 275.165L230.156 275.17L230.175 275.175L230.688 273.242ZM222.289 273.867L223.39 275.537L223.403 275.528L223.416 275.52L222.289 273.867ZM221.273 279.141L219.629 280.279L219.64 280.294L219.65 280.309L221.273 279.141ZM247.055 288H235.844V292H247.055V288ZM237.822 289.705L237.158 285.252L233.202 285.842L233.866 290.295L237.822 289.705ZM233.663 284.243C232.429 285.679 230.928 286.791 229.135 287.585L230.755 291.243C233.078 290.214 235.066 288.748 236.697 286.85L233.663 284.243ZM229.135 287.585C227.357 288.373 225.371 288.781 223.148 288.781V292.781C225.873 292.781 228.419 292.278 230.755 291.243L229.135 287.585ZM223.148 288.781C220.701 288.781 218.603 288.312 216.807 287.425L215.036 291.012C217.46 292.209 220.179 292.781 223.148 292.781V288.781ZM216.807 287.425C214.988 286.527 213.598 285.319 212.582 283.807L209.261 286.037C210.694 288.17 212.637 289.827 215.036 291.012L216.807 287.425ZM212.6 283.834C211.626 282.33 211.125 280.616 211.125 278.633H207.125C207.125 281.337 207.822 283.816 209.243 286.009L212.6 283.834ZM211.125 278.633C211.125 276.531 211.671 274.762 212.721 273.25L209.435 270.969C207.881 273.207 207.125 275.787 207.125 278.633H211.125ZM212.71 273.265C213.814 271.707 215.348 270.449 217.384 269.512L215.71 265.879C213.11 267.077 210.999 268.762 209.446 270.953L212.71 273.265ZM217.384 269.512C219.399 268.583 221.75 268.094 224.477 268.094V264.094C221.266 264.094 218.33 264.672 215.71 265.879L217.384 269.512ZM224.477 268.094C226.024 268.094 227.546 268.26 229.043 268.593L229.91 264.688C228.126 264.292 226.314 264.094 224.477 264.094V268.094ZM229.049 268.594C230.596 268.933 232.062 269.402 233.451 270.001L235.034 266.327C233.402 265.624 231.691 265.078 229.904 264.687L229.049 268.594ZM236.242 268.164V267.344H232.242V268.164H236.242ZM236.242 267.344C236.242 265.526 235.681 263.874 234.538 262.481L231.446 265.019C231.97 265.658 232.242 266.401 232.242 267.344H236.242ZM234.538 262.481C233.457 261.163 232.027 260.186 230.337 259.51L228.851 263.224C230.025 263.694 230.861 264.306 231.446 265.019L234.538 262.481ZM230.365 259.522C228.65 258.805 226.753 258.469 224.711 258.469V262.469C226.314 262.469 227.673 262.732 228.822 263.212L230.365 259.522ZM224.711 258.469C222.697 258.469 220.736 258.79 218.835 259.434L220.118 263.223C221.603 262.72 223.131 262.469 224.711 262.469V258.469ZM218.862 259.425C216.966 260.038 215.221 260.931 213.638 262.104L216.019 265.318C217.247 264.408 218.602 263.712 220.091 263.231L218.862 259.425ZM216.715 263.049L213.356 253.478L209.582 254.803L212.941 264.373L216.715 263.049ZM212.336 255.943C214.979 254.671 217.591 253.733 220.174 253.117L219.248 249.226C216.362 249.913 213.48 250.954 210.602 252.338L212.336 255.943ZM220.187 253.114C222.809 252.471 225.305 252.156 227.68 252.156V248.156C224.95 248.156 222.133 248.518 219.234 249.229L220.187 253.114ZM227.68 252.156C231.35 252.156 234.427 252.872 236.975 254.227L238.853 250.695C235.62 248.977 231.874 248.156 227.68 248.156V252.156ZM236.982 254.23C239.566 255.592 241.535 257.497 242.93 259.968L246.413 258.001C244.632 254.847 242.095 252.403 238.846 250.691L236.982 254.23ZM242.934 259.975C244.32 262.406 245.055 265.358 245.055 268.906H249.055C249.055 264.798 248.2 261.136 246.409 257.994L242.934 259.975ZM245.055 268.906V290H249.055V268.906H245.055ZM226.039 283.211C227.665 283.211 229.231 282.858 230.715 282.163L229.019 278.54C228.056 278.991 227.069 279.211 226.039 279.211V283.211ZM230.731 282.155C232.217 281.443 233.479 280.487 234.468 279.267L231.361 276.748C230.787 277.456 230.017 278.062 229.003 278.548L230.731 282.155ZM234.447 279.292C235.5 278.036 236.125 276.583 236.163 274.969L232.165 274.874C232.151 275.449 231.943 276.053 231.381 276.723L234.447 279.292ZM236.164 274.922V274.766H232.164V274.922H236.164ZM235.254 273.089C234.024 272.289 232.668 271.699 231.2 271.309L230.175 275.175C231.259 275.463 232.221 275.888 233.074 276.443L235.254 273.089ZM231.237 271.319C229.789 270.906 228.329 270.695 226.859 270.695V274.695C227.942 274.695 229.034 274.85 230.138 275.165L231.237 271.319ZM226.859 270.695C224.701 270.695 222.743 271.137 221.162 272.215L223.416 275.52C224.127 275.035 225.215 274.695 226.859 274.695V270.695ZM221.188 272.197C219.532 273.289 218.57 274.907 218.57 276.914H222.57C222.57 276.369 222.755 275.955 223.39 275.537L221.188 272.197ZM218.57 276.914C218.57 278.137 218.934 279.275 219.629 280.279L222.918 278.002C222.676 277.652 222.57 277.306 222.57 276.914H218.57ZM219.65 280.309C220.355 281.288 221.308 282.008 222.425 282.496L224.028 278.832C223.478 278.591 223.129 278.295 222.897 277.972L219.65 280.309ZM222.425 282.496C223.545 282.986 224.761 283.211 226.039 283.211V279.211C225.233 279.211 224.575 279.071 224.028 278.832L222.425 282.496ZM294.641 288.945L295.37 290.808L296.852 290.227L296.619 288.653L294.641 288.945ZM277.297 288.828L276.319 290.573L276.33 290.579L276.342 290.585L277.297 288.828ZM271.75 283.359L270.01 284.345L270.015 284.354L271.75 283.359ZM269.758 262.383H271.758V260.383H269.758V262.383ZM262.922 262.383H260.922V264.383H262.922V262.383ZM262.922 250.938V248.938H260.922V250.938H262.922ZM270.461 250.938V252.938H272.461V250.938H270.461ZM270.461 241.172V239.172H268.461V241.172H270.461ZM282.57 241.172H284.57V239.172H282.57V241.172ZM282.57 250.938H280.57V252.938H282.57V250.938ZM293.117 250.938H295.117V248.938H293.117V250.938ZM293.117 262.383V264.383H295.117V262.383H293.117ZM282.57 262.383V260.383H280.57V262.383H282.57ZM293 277.852L294.978 277.559L294.517 274.437L291.891 276.187L293 277.852ZM293.911 287.083C290.986 288.229 288.2 288.781 285.539 288.781V292.781C288.764 292.781 292.045 292.11 295.37 290.808L293.911 287.083ZM285.539 288.781C282.728 288.781 280.317 288.193 278.252 287.071L276.342 290.585C279.069 292.067 282.153 292.781 285.539 292.781V288.781ZM278.275 287.083C276.215 285.929 274.63 284.363 273.485 282.365L270.015 284.354C271.526 286.991 273.639 289.071 276.319 290.573L278.275 287.083ZM273.49 282.373C272.356 280.373 271.758 278.001 271.758 275.195H267.758C267.758 278.587 268.487 281.658 270.01 284.345L273.49 282.373ZM271.758 275.195V262.383H267.758V275.195H271.758ZM269.758 260.383H262.922V264.383H269.758V260.383ZM264.922 262.383V250.938H260.922V262.383H264.922ZM262.922 252.938H270.461V248.938H262.922V252.938ZM272.461 250.938V241.172H268.461V250.938H272.461ZM270.461 243.172H282.57V239.172H270.461V243.172ZM280.57 241.172V250.938H284.57V241.172H280.57ZM282.57 252.938H293.117V248.938H282.57V252.938ZM291.117 250.938V262.383H295.117V250.938H291.117ZM293.117 260.383H282.57V264.383H293.117V260.383ZM280.57 262.383V272.891H284.57V262.383H280.57ZM280.57 272.891C280.57 275.326 281.259 277.491 282.891 279.087L285.687 276.226C285.028 275.582 284.57 274.57 284.57 272.891H280.57ZM282.891 279.087C284.414 280.575 286.297 281.336 288.43 281.336V277.336C287.333 277.336 286.456 276.977 285.687 276.226L282.891 279.087ZM288.43 281.336C290.441 281.336 292.344 280.692 294.109 279.516L291.891 276.187C290.687 276.99 289.543 277.336 288.43 277.336V281.336ZM291.022 278.144L292.662 289.238L296.619 288.653L294.978 277.559L291.022 278.144ZM347.617 290V292H349.617V290H347.617ZM336.406 290L334.428 290.295L334.682 292H336.406V290ZM335.742 285.547L337.72 285.252L337.075 280.927L334.225 284.243L335.742 285.547ZM311.484 284.922L309.806 286.009L309.815 286.023L309.824 286.037L311.484 284.922ZM311.641 272.109L310.009 270.953L310.003 270.961L309.998 270.969L311.641 272.109ZM330.039 266.641L329.605 268.593L329.612 268.594L330.039 266.641ZM334.805 268.164L334.013 270.001L336.805 271.204V268.164H334.805ZM330.156 261.367L329.385 263.212L329.399 263.218L329.413 263.224L330.156 261.367ZM320.039 261.328L320.654 263.231L320.667 263.227L320.68 263.223L320.039 261.328ZM315.391 263.711L313.504 264.373L314.402 266.932L316.581 265.318L315.391 263.711ZM312.031 254.141L311.164 252.338L309.551 253.114L310.144 254.803L312.031 254.141ZM320.273 251.172L320.737 253.118L320.75 253.114L320.273 251.172ZM338.477 252.461L337.538 254.227L337.544 254.23L338.477 252.461ZM345.234 258.984L343.493 259.968L343.497 259.975L345.234 258.984ZM330.43 280.352L331.278 282.163L331.286 282.159L331.294 282.155L330.43 280.352ZM333.477 278.008L331.944 276.723L331.933 276.736L331.923 276.748L333.477 278.008ZM334.727 274.922L336.726 274.969L336.727 274.946V274.922H334.727ZM334.727 274.766H336.727V273.68L335.817 273.089L334.727 274.766ZM331.25 273.242L330.701 275.165L330.719 275.17L330.737 275.175L331.25 273.242ZM322.852 273.867L323.952 275.537L323.965 275.528L323.978 275.52L322.852 273.867ZM321.836 279.141L320.192 280.279L320.202 280.294L320.213 280.309L321.836 279.141ZM347.617 288H336.406V292H347.617V288ZM338.384 289.705L337.72 285.252L333.764 285.842L334.428 290.295L338.384 289.705ZM334.225 284.243C332.991 285.679 331.49 286.791 329.698 287.585L331.318 291.243C333.64 290.214 335.628 288.748 337.259 286.85L334.225 284.243ZM329.698 287.585C327.92 288.373 325.934 288.781 323.711 288.781V292.781C326.436 292.781 328.981 292.278 331.318 291.243L329.698 287.585ZM323.711 288.781C321.263 288.781 319.165 288.312 317.37 287.425L315.599 291.012C318.022 292.209 320.742 292.781 323.711 292.781V288.781ZM317.37 287.425C315.551 286.527 314.16 285.319 313.145 283.807L309.824 286.037C311.256 288.17 313.199 289.827 315.599 291.012L317.37 287.425ZM313.163 283.834C312.188 282.33 311.688 280.616 311.688 278.633H307.688C307.688 281.337 308.384 283.816 309.806 286.009L313.163 283.834ZM311.688 278.633C311.688 276.531 312.234 274.762 313.283 273.25L309.998 270.969C308.444 273.207 307.688 275.787 307.688 278.633H311.688ZM313.273 273.265C314.376 271.707 315.911 270.449 317.946 269.512L316.273 265.879C313.673 267.077 311.561 268.762 310.009 270.953L313.273 273.265ZM317.946 269.512C319.962 268.583 322.312 268.094 325.039 268.094V264.094C321.828 264.094 318.892 264.672 316.273 265.879L317.946 269.512ZM325.039 268.094C326.587 268.094 328.108 268.26 329.605 268.593L330.473 264.688C328.689 264.292 326.877 264.094 325.039 264.094V268.094ZM329.612 268.594C331.158 268.933 332.624 269.402 334.013 270.001L335.596 266.327C333.964 265.624 332.253 265.078 330.466 264.687L329.612 268.594ZM336.805 268.164V267.344H332.805V268.164H336.805ZM336.805 267.344C336.805 265.526 336.243 263.874 335.101 262.481L332.009 265.019C332.533 265.658 332.805 266.401 332.805 267.344H336.805ZM335.101 262.481C334.019 261.163 332.59 260.186 330.899 259.51L329.413 263.224C330.587 263.694 331.424 264.306 332.009 265.019L335.101 262.481ZM330.928 259.522C329.212 258.805 327.316 258.469 325.273 258.469V262.469C326.877 262.469 328.235 262.732 329.385 263.212L330.928 259.522ZM325.273 258.469C323.26 258.469 321.298 258.79 319.398 259.434L320.68 263.223C322.165 262.72 323.693 262.469 325.273 262.469V258.469ZM319.424 259.425C317.528 260.038 315.784 260.931 314.2 262.104L316.581 265.318C317.81 264.408 319.164 263.712 320.654 263.231L319.424 259.425ZM317.278 263.049L313.918 253.478L310.144 254.803L313.504 264.373L317.278 263.049ZM312.898 255.943C315.541 254.671 318.154 253.733 320.737 253.117L319.81 249.226C316.925 249.913 314.042 250.954 311.164 252.338L312.898 255.943ZM320.75 253.114C323.372 252.471 325.868 252.156 328.242 252.156V248.156C325.513 248.156 322.696 248.518 319.797 249.229L320.75 253.114ZM328.242 252.156C331.913 252.156 334.989 252.872 337.538 254.227L339.415 250.695C336.183 248.977 332.436 248.156 328.242 248.156V252.156ZM337.544 254.23C340.129 255.592 342.097 257.497 343.493 259.968L346.976 258.001C345.194 254.847 342.658 252.403 339.409 250.691L337.544 254.23ZM343.497 259.975C344.883 262.406 345.617 265.358 345.617 268.906H349.617C349.617 264.798 348.763 261.136 346.972 257.994L343.497 259.975ZM345.617 268.906V290H349.617V268.906H345.617ZM326.602 283.211C328.228 283.211 329.793 282.858 331.278 282.163L329.582 278.54C328.618 278.991 327.631 279.211 326.602 279.211V283.211ZM331.294 282.155C332.78 281.443 334.041 280.487 335.03 279.267L331.923 276.748C331.349 277.456 330.58 278.062 329.565 278.548L331.294 282.155ZM335.01 279.292C336.062 278.036 336.688 276.583 336.726 274.969L332.727 274.874C332.713 275.449 332.505 276.053 331.944 276.723L335.01 279.292ZM336.727 274.922V274.766H332.727V274.922H336.727ZM335.817 273.089C334.586 272.289 333.231 271.699 331.763 271.309L330.737 275.175C331.821 275.463 332.783 275.888 333.637 276.443L335.817 273.089ZM331.799 271.319C330.352 270.906 328.891 270.695 327.422 270.695V274.695C328.505 274.695 329.596 274.85 330.701 275.165L331.799 271.319ZM327.422 270.695C325.264 270.695 323.305 271.137 321.725 272.215L323.978 275.52C324.69 275.035 325.778 274.695 327.422 274.695V270.695ZM321.751 272.197C320.094 273.289 319.133 274.907 319.133 276.914H323.133C323.133 276.369 323.317 275.955 323.952 275.537L321.751 272.197ZM319.133 276.914C319.133 278.137 319.496 279.275 320.192 280.279L323.48 278.002C323.238 277.652 323.133 277.306 323.133 276.914H319.133ZM320.213 280.309C320.918 281.288 321.871 282.008 322.987 282.496L324.591 278.832C324.041 278.591 323.691 278.295 323.459 277.972L320.213 280.309ZM322.987 282.496C324.108 282.986 325.324 283.211 326.602 283.211V279.211C325.796 279.211 325.137 279.071 324.591 278.832L322.987 282.496ZM394.469 283.477L392.768 282.423L391.824 283.949L393.238 285.053L394.469 283.477ZM400.953 273.008L402.192 271.437L400.433 270.05L399.253 271.955L400.953 273.008ZM406.227 276.602L405.246 278.345L405.256 278.351L405.267 278.356L406.227 276.602ZM420.758 278.594L421.435 280.476L421.446 280.472L421.456 280.468L420.758 278.594ZM423.805 276.523L422.261 275.252L422.25 275.266L422.238 275.28L423.805 276.523ZM423.453 269.727L422.002 271.103L422.011 271.112L422.02 271.122L423.453 269.727ZM419.625 267.07L418.731 268.859L418.748 268.868L418.766 268.877L419.625 267.07ZM414.508 264.766L413.739 266.612L413.752 266.617L414.508 264.766ZM408.766 262.227L407.91 264.035L407.92 264.039L408.766 262.227ZM403.453 258.906L402.183 260.451L402.19 260.457L402.198 260.463L403.453 258.906ZM399.508 254.102L397.739 255.035L397.744 255.045L397.749 255.054L399.508 254.102ZM400.68 238.164L399.044 237.013L399.042 237.016L400.68 238.164ZM408.023 232.305L408.824 234.137L408.831 234.134L408.023 232.305ZM427.555 231.367L427.081 233.31L427.085 233.311L427.555 231.367ZM436.969 234.883L438.769 235.754L439.626 233.983L437.869 233.097L436.969 234.883ZM431.617 245.938L430.574 247.644L432.456 248.794L433.417 246.809L431.617 245.938ZM425.523 243.242L424.926 245.151L424.939 245.155L424.953 245.159L425.523 243.242ZM415.562 242.891L416.274 244.76L416.286 244.755L416.298 244.751L415.562 242.891ZM412.984 244.688L411.423 243.438L411.41 243.454L411.397 243.471L412.984 244.688ZM413.492 250.898L412.04 252.274L412.059 252.294L412.078 252.313L413.492 250.898ZM422.242 255.898L421.423 257.723L421.441 257.731L421.46 257.739L422.242 255.898ZM428.023 258.594L427.119 260.378L427.129 260.383L428.023 258.594ZM433.453 262.109L432.18 263.652L432.193 263.663L432.207 263.673L433.453 262.109ZM437.438 266.914L435.669 267.848L435.674 267.857L435.679 267.867L437.438 266.914ZM436.148 282.852L434.514 281.698L434.512 281.701L436.148 282.852ZM428.336 288.984L427.54 287.15L427.534 287.152L428.336 288.984ZM404.898 289.219L404.231 291.104L404.239 291.107L404.246 291.109L404.898 289.219ZM396.169 284.53L402.653 274.061L399.253 271.955L392.768 282.423L396.169 284.53ZM399.715 274.578C401.627 276.087 403.471 277.346 405.246 278.345L407.207 274.858C405.649 273.982 403.977 272.846 402.192 271.437L399.715 274.578ZM405.267 278.356C407.052 279.333 408.837 280.073 410.62 280.562L411.677 276.704C410.231 276.307 408.734 275.694 407.186 274.847L405.267 278.356ZM410.62 280.562C412.406 281.051 414.224 281.297 416.07 281.297V277.297C414.583 277.297 413.12 277.1 411.677 276.704L410.62 280.562ZM416.07 281.297C418.055 281.297 419.859 281.043 421.435 280.476L420.08 276.712C419.052 277.082 417.731 277.297 416.07 277.297V281.297ZM421.456 280.468C423.04 279.878 424.39 279.002 425.371 277.767L422.238 275.28C421.813 275.816 421.132 276.32 420.06 276.72L421.456 280.468ZM425.349 277.795C426.393 276.526 426.898 275.014 426.898 273.359H422.898C422.898 274.153 422.674 274.75 422.261 275.252L425.349 277.795ZM426.898 273.359C426.898 271.427 426.228 269.709 424.886 268.331L422.02 271.122C422.605 271.723 422.898 272.427 422.898 273.359H426.898ZM424.904 268.35C423.734 267.117 422.24 266.099 420.484 265.264L418.766 268.877C420.187 269.552 421.245 270.305 422.002 271.103L424.904 268.35ZM420.519 265.281C418.906 264.475 417.153 263.686 415.264 262.914L413.752 266.617C415.56 267.356 417.219 268.103 418.731 268.859L420.519 265.281ZM415.277 262.919C413.429 262.15 411.541 261.315 409.611 260.414L407.92 264.039C409.897 264.961 411.836 265.819 413.739 266.612L415.277 262.919ZM409.621 260.419C407.833 259.573 406.197 258.55 404.709 257.349L402.198 260.463C403.939 261.867 405.844 263.057 407.911 264.035L409.621 260.419ZM404.724 257.362C403.312 256.201 402.162 254.802 401.266 253.149L397.749 255.054C398.885 257.151 400.365 258.955 402.183 260.451L404.724 257.362ZM401.277 253.168C400.474 251.647 400.023 249.707 400.023 247.266H396.023C396.023 250.189 396.563 252.806 397.739 255.035L401.277 253.168ZM400.023 247.266C400.023 244.072 400.816 241.454 402.317 239.312L399.042 237.016C397.002 239.927 396.023 243.376 396.023 247.266H400.023ZM402.315 239.315C403.884 237.087 406.032 235.358 408.824 234.137L407.223 230.472C403.817 231.96 401.069 234.137 399.044 237.013L402.315 239.315ZM408.831 234.134C411.666 232.882 414.914 232.234 418.609 232.234V228.234C414.441 228.234 410.631 228.967 407.215 230.475L408.831 234.134ZM418.609 232.234C421.298 232.234 424.12 232.589 427.081 233.31L428.028 229.424C424.792 228.635 421.65 228.234 418.609 228.234V232.234ZM427.085 233.311C430.047 234.027 433.041 235.143 436.068 236.669L437.869 233.097C434.594 231.446 431.312 230.218 428.024 229.423L427.085 233.311ZM435.169 234.011L429.817 245.066L433.417 246.809L438.769 235.754L435.169 234.011ZM432.66 244.231C430.632 242.991 428.441 242.024 426.094 241.325L424.953 245.159C426.981 245.763 428.853 246.592 430.574 247.644L432.66 244.231ZM426.121 241.334C423.805 240.608 421.584 240.227 419.469 240.227V244.227C421.104 244.227 422.919 244.522 424.926 245.151L426.121 241.334ZM419.469 240.227C417.789 240.227 416.229 240.477 414.827 241.031L416.298 244.751C417.136 244.419 418.179 244.227 419.469 244.227V240.227ZM414.851 241.022C413.481 241.544 412.306 242.334 411.423 243.438L414.546 245.937C414.913 245.478 415.457 245.071 416.274 244.76L414.851 241.022ZM411.397 243.471C410.514 244.622 410.086 245.968 410.086 247.422H414.086C414.086 246.793 414.257 246.315 414.572 245.904L411.397 243.471ZM410.086 247.422C410.086 249.277 410.761 250.924 412.04 252.274L414.944 249.523C414.348 248.894 414.086 248.223 414.086 247.422H410.086ZM412.078 252.313C413.224 253.458 414.659 254.446 416.336 255.298L418.149 251.733C416.752 251.023 415.688 250.266 414.906 249.484L412.078 252.313ZM416.336 255.298C417.904 256.096 419.6 256.904 421.423 257.723L423.062 254.074C421.29 253.278 419.653 252.498 418.149 251.733L416.336 255.298ZM421.46 257.739C423.318 258.528 425.204 259.407 427.12 260.378L428.927 256.81C426.937 255.801 424.969 254.883 423.024 254.058L421.46 257.739ZM427.129 260.383C428.978 261.307 430.66 262.398 432.18 263.652L434.726 260.567C432.965 259.113 431.027 257.859 428.918 256.805L427.129 260.383ZM432.207 263.673C433.659 264.831 434.809 266.218 435.669 267.848L439.206 265.981C438.087 263.86 436.581 262.044 434.7 260.545L432.207 263.673ZM435.679 267.867C436.503 269.388 436.961 271.298 436.961 273.672H440.961C440.961 270.786 440.403 268.19 439.196 265.961L435.679 267.867ZM436.961 273.672C436.961 276.751 436.135 279.402 434.515 281.698L437.782 284.005C439.911 280.989 440.961 277.52 440.961 273.672H436.961ZM434.512 281.701C432.903 283.99 430.609 285.817 427.54 287.15L429.132 290.819C432.781 289.235 435.696 286.973 437.785 284.002L434.512 281.701ZM427.534 287.152C424.502 288.479 420.905 289.172 416.695 289.172V293.172C421.34 293.172 425.503 292.407 429.138 290.817L427.534 287.152ZM416.695 289.172C412.823 289.172 409.112 288.556 405.55 287.328L404.246 291.109C408.237 292.486 412.39 293.172 416.695 293.172V289.172ZM405.566 287.333C402.023 286.079 398.736 284.27 395.699 281.9L393.238 285.053C396.607 287.683 400.273 289.702 404.231 291.104L405.566 287.333ZM493.07 283.594L494.595 284.888L495.77 283.504L494.506 282.201L493.07 283.594ZM465.766 288.164L464.792 289.911L464.8 289.916L464.809 289.92L465.766 288.164ZM458.266 280.938L456.546 281.958L456.549 281.964L458.266 280.938ZM458.266 260.039L459.982 261.066L459.986 261.059L458.266 260.039ZM465.766 252.812L466.728 254.566L466.733 254.563L465.766 252.812ZM485.922 252.07L485.089 253.889L485.099 253.893L485.11 253.898L485.922 252.07ZM492.992 257.227L494.445 258.601L495.691 257.283L494.502 255.915L492.992 257.227ZM485.492 265.156L483.956 266.437L485.398 268.167L486.945 266.531L485.492 265.156ZM481.977 262.578L481.164 264.406L481.177 264.411L481.977 262.578ZM472.953 262.773L473.916 264.527L473.927 264.52L472.953 262.773ZM469.789 265.859L468.065 264.845L468.058 264.858L468.05 264.871L469.789 265.859ZM469.789 275.039L468.042 276.013L468.054 276.033L468.065 276.053L469.789 275.039ZM472.953 278.164L471.965 279.903L471.972 279.907L471.979 279.911L472.953 278.164ZM485.492 275.781L486.928 274.389L485.357 272.769L483.938 274.523L485.492 275.781ZM491.546 282.299C489.845 284.302 487.731 285.885 485.174 287.046L486.826 290.688C489.894 289.297 492.493 287.364 494.595 284.888L491.546 282.299ZM485.174 287.046C482.647 288.192 479.821 288.781 476.664 288.781V292.781C480.331 292.781 483.728 292.094 486.826 290.688L485.174 287.046ZM476.664 288.781C472.897 288.781 469.6 287.975 466.722 286.408L464.809 289.92C468.338 291.843 472.306 292.781 476.664 292.781V288.781ZM466.739 286.417C463.861 284.813 461.62 282.649 459.982 279.911L456.549 281.964C458.557 285.32 461.316 287.974 464.792 289.911L466.739 286.417ZM459.986 279.917C458.363 277.181 457.531 274.05 457.531 270.469H453.531C453.531 274.7 454.523 278.548 456.546 281.958L459.986 279.917ZM457.531 270.469C457.531 266.887 458.363 263.772 459.982 261.066L456.549 259.012C454.522 262.4 453.531 266.238 453.531 270.469H457.531ZM459.986 261.059C461.623 258.299 463.86 256.141 466.728 254.566L464.803 251.059C461.317 252.974 458.554 255.634 456.546 259.019L459.986 261.059ZM466.733 254.563C469.609 252.973 472.902 252.156 476.664 252.156V248.156C472.301 248.156 468.329 249.11 464.798 251.062L466.733 254.563ZM476.664 252.156C479.792 252.156 482.59 252.744 485.089 253.889L486.755 250.252C483.681 248.844 480.307 248.156 476.664 248.156V252.156ZM485.11 253.898C487.672 255.037 489.785 256.585 491.483 258.538L494.502 255.915C492.397 253.493 489.797 251.604 486.734 250.243L485.11 253.898ZM491.539 255.852L484.039 263.782L486.945 266.531L494.445 258.601L491.539 255.852ZM487.029 263.876C485.899 262.52 484.466 261.482 482.776 260.745L481.177 264.411C482.352 264.924 483.262 265.605 483.956 266.437L487.029 263.876ZM482.789 260.751C481.127 260.012 479.379 259.641 477.562 259.641V263.641C478.819 263.641 480.013 263.894 481.164 264.406L482.789 260.751ZM477.562 259.641C475.541 259.641 473.662 260.088 471.979 261.027L473.927 264.52C474.952 263.949 476.147 263.641 477.562 263.641V259.641ZM471.991 261.02C470.341 261.926 469.026 263.212 468.065 264.845L471.513 266.873C472.115 265.85 472.909 265.079 473.916 264.527L471.991 261.02ZM468.05 264.871C467.106 266.532 466.656 268.39 466.656 270.391H470.656C470.656 269.006 470.962 267.843 471.528 266.848L468.05 264.871ZM466.656 270.391C466.656 272.433 467.101 274.325 468.042 276.013L471.536 274.065C470.967 273.044 470.656 271.838 470.656 270.391H466.656ZM468.065 276.053C469.022 277.68 470.329 278.973 471.965 279.903L473.942 276.425C472.921 275.845 472.118 275.054 471.513 274.025L468.065 276.053ZM471.979 279.911C473.662 280.85 475.541 281.297 477.562 281.297V277.297C476.147 277.297 474.952 276.989 473.927 276.417L471.979 279.911ZM477.562 281.297C479.379 281.297 481.135 280.926 482.816 280.192L481.216 276.526C480.031 277.043 478.819 277.297 477.562 277.297V281.297ZM482.816 280.192C484.509 279.454 485.938 278.409 487.047 277.04L483.938 274.523C483.276 275.341 482.387 276.015 481.216 276.526L482.816 280.192ZM484.057 277.174L491.635 284.986L494.506 282.201L486.928 274.389L484.057 277.174ZM513.586 240.898L512.139 242.279L512.155 242.296L512.172 242.313L513.586 240.898ZM513.586 232.695L512.156 231.297L512.155 231.298L513.586 232.695ZM521.828 232.695L520.398 234.093L520.406 234.101L520.414 234.11L521.828 232.695ZM521.828 240.898L523.242 242.313L523.25 242.305L523.258 242.296L521.828 240.898ZM524.133 290V292H526.133V290H524.133ZM511.32 290H509.32V292H511.32V290ZM511.32 250.938V248.938H509.32V250.938H511.32ZM524.133 250.938H526.133V248.938H524.133V250.938ZM517.688 240.578C516.592 240.578 515.737 240.221 515 239.484L512.172 242.313C513.675 243.816 515.554 244.578 517.688 244.578V240.578ZM515.033 239.517C514.302 238.752 513.945 237.869 513.945 236.758H509.945C509.945 238.876 510.683 240.754 512.139 242.279L515.033 239.517ZM513.945 236.758C513.945 235.683 514.294 234.833 515.017 234.093L512.155 231.298C510.69 232.797 509.945 234.656 509.945 236.758H513.945ZM515.016 234.093C515.757 233.336 516.607 232.977 517.688 232.977V228.977C515.539 228.977 513.655 229.763 512.156 231.297L515.016 234.093ZM517.688 232.977C518.804 232.977 519.664 233.343 520.398 234.093L523.258 231.297C521.752 229.756 519.852 228.977 517.688 228.977V232.977ZM520.414 234.11C521.157 234.853 521.508 235.698 521.508 236.758H525.508C525.508 234.641 524.739 232.777 523.242 231.281L520.414 234.11ZM521.508 236.758C521.508 237.854 521.149 238.732 520.398 239.501L523.258 242.296C524.747 240.774 525.508 238.89 525.508 236.758H521.508ZM520.414 239.484C519.684 240.214 518.819 240.578 517.688 240.578V244.578C519.837 244.578 521.733 243.822 523.242 242.313L520.414 239.484ZM524.133 288H511.32V292H524.133V288ZM513.32 290V250.938H509.32V290H513.32ZM511.32 252.938H524.133V248.938H511.32V252.938ZM522.133 250.938V290H526.133V250.938H522.133ZM581.406 285.742L582.542 287.388L583.86 286.479L583.261 284.994L581.406 285.742ZM553.828 288.047L552.881 289.808L552.889 289.813L552.897 289.817L553.828 288.047ZM545.664 280.547L543.973 281.614L543.977 281.621L545.664 280.547ZM545.352 259.766L547.059 260.808L547.063 260.801L545.352 259.766ZM552.695 252.734L551.731 250.982L551.725 250.985L552.695 252.734ZM581.289 260.938L579.506 261.843L579.51 261.851L579.514 261.859L581.289 260.938ZM583.906 273.906V275.906H585.906V273.906H583.906ZM556.406 273.906V271.906H553.541L554.529 274.596L556.406 273.906ZM558.516 277.305L557.064 278.68L557.073 278.69L557.083 278.7L558.516 277.305ZM562.109 279.688L561.338 281.533L561.352 281.539L561.367 281.544L562.109 279.688ZM577.812 276.836L579.667 276.088L578.702 273.697L576.627 275.226L577.812 276.836ZM555.859 268.125L553.881 267.832L553.541 270.125H555.859V268.125ZM572.109 268.125V270.125H574.335L574.098 267.912L572.109 268.125ZM567.891 261.641L566.949 263.405L566.957 263.41L566.965 263.414L567.891 261.641ZM560 261.719L561.005 263.448L561.011 263.444L561.017 263.441L560 261.719ZM557.227 264.375L555.551 263.284L555.544 263.293L557.227 264.375ZM580.271 284.096C575.723 287.233 570.817 288.781 565.508 288.781V292.781C571.657 292.781 577.35 290.97 582.542 287.388L580.271 284.096ZM565.508 288.781C561.475 288.781 557.907 287.933 554.76 286.277L552.897 289.817C556.676 291.806 560.895 292.781 565.508 292.781V288.781ZM554.776 286.286C551.625 284.591 549.164 282.322 547.351 279.473L543.977 281.621C546.174 285.074 549.156 287.805 552.881 289.808L554.776 286.286ZM547.355 279.479C545.563 276.639 544.656 273.445 544.656 269.844H540.656C540.656 274.159 541.755 278.1 543.973 281.614L547.355 279.479ZM544.656 269.844C544.656 266.399 545.471 263.407 547.058 260.808L543.645 258.723C541.638 262.009 540.656 265.736 540.656 269.844H544.656ZM547.063 260.801C548.675 258.137 550.865 256.037 553.665 254.483L551.725 250.985C548.328 252.87 545.622 255.456 543.641 258.73L547.063 260.801ZM553.659 254.487C556.459 252.947 559.651 252.156 563.281 252.156V248.156C559.047 248.156 555.181 249.085 551.731 250.982L553.659 254.487ZM563.281 252.156C567.048 252.156 570.27 253.028 573.017 254.713L575.108 251.303C571.657 249.186 567.692 248.156 563.281 248.156V252.156ZM573.017 254.713C575.786 256.412 577.946 258.772 579.506 261.843L583.072 260.032C581.194 256.333 578.537 253.406 575.108 251.303L573.017 254.713ZM579.514 261.859C581.087 264.888 581.906 268.467 581.906 272.656H585.906C585.906 267.939 584.981 263.706 583.064 260.016L579.514 261.859ZM581.906 272.656V273.906H585.906V272.656H581.906ZM583.906 271.906H556.406V275.906H583.906V271.906ZM554.529 274.596C555.092 276.128 555.94 277.494 557.064 278.68L559.968 275.929C559.216 275.136 558.658 274.237 558.284 273.217L554.529 274.596ZM557.083 278.7C558.256 279.905 559.688 280.843 561.338 281.533L562.881 277.842C561.666 277.334 560.702 276.684 559.949 275.909L557.083 278.7ZM561.367 281.544C563.077 282.229 564.977 282.547 567.031 282.547V278.547C565.387 278.547 564.006 278.292 562.852 277.831L561.367 281.544ZM567.031 282.547C571.325 282.547 575.328 281.149 578.998 278.446L576.627 275.226C573.578 277.47 570.394 278.547 567.031 278.547V282.547ZM575.958 277.584L579.552 286.491L583.261 284.994L579.667 276.088L575.958 277.584ZM555.859 270.125H572.109V266.125H555.859V270.125ZM574.098 267.912C573.912 266.171 573.375 264.575 572.457 263.166L569.105 265.349C569.646 266.18 569.995 267.162 570.121 268.338L574.098 267.912ZM572.457 263.166C571.538 261.755 570.315 260.65 568.816 259.867L566.965 263.414C567.862 263.882 568.566 264.521 569.105 265.349L572.457 263.166ZM568.832 259.876C567.343 259.082 565.699 258.703 563.945 258.703V262.703C565.108 262.703 566.095 262.95 566.949 263.405L568.832 259.876ZM563.945 258.703C562.145 258.703 560.471 259.117 558.983 259.997L561.017 263.441C561.821 262.966 562.777 262.703 563.945 262.703V258.703ZM558.995 259.99C557.596 260.803 556.445 261.91 555.551 263.284L558.903 265.466C559.467 264.6 560.165 263.937 561.005 263.448L558.995 259.99ZM555.544 263.293C554.674 264.648 554.127 266.171 553.881 267.832L557.838 268.418C558.008 267.266 558.373 266.29 558.909 265.457L555.544 263.293ZM642.156 290V292H644.156V290H642.156ZM629.344 290H627.344V292H629.344V290ZM617.117 264.062L615.56 262.807L615.554 262.815L615.548 262.822L617.117 264.062ZM615.203 290V292H617.203V290H615.203ZM602.391 290H600.391V292H602.391V290ZM602.391 250.938V248.938H600.391V250.938H602.391ZM612.625 250.938L614.62 250.8L614.492 248.938H612.625V250.938ZM613.055 257.188L611.059 257.325L611.495 263.654L614.768 258.219L613.055 257.188ZM618.484 251.953L617.55 250.185L617.541 250.19L618.484 251.953ZM637.977 254.727L636.501 256.076L636.506 256.083L637.977 254.727ZM642.156 288H629.344V292H642.156V288ZM631.344 290V270.586H627.344V290H631.344ZM631.344 270.586C631.344 267.487 630.679 264.789 629.082 262.751L625.933 265.218C626.785 266.305 627.344 268.007 627.344 270.586H631.344ZM629.082 262.751C627.442 260.657 625.143 259.641 622.43 259.641V263.641C624.039 263.641 625.126 264.187 625.933 265.218L629.082 262.751ZM622.43 259.641C619.641 259.641 617.275 260.68 615.56 262.807L618.674 265.318C619.563 264.216 620.74 263.641 622.43 263.641V259.641ZM615.548 262.822C613.904 264.903 613.203 267.622 613.203 270.742H617.203C617.203 268.185 617.778 266.451 618.686 265.303L615.548 262.822ZM613.203 270.742V290H617.203V270.742H613.203ZM615.203 288H602.391V292H615.203V288ZM604.391 290V250.938H600.391V290H604.391ZM602.391 252.938H612.625V248.938H602.391V252.938ZM610.63 251.075L611.059 257.325L615.05 257.05L614.62 250.8L610.63 251.075ZM614.768 258.219C615.972 256.219 617.523 254.735 619.428 253.717L617.541 250.19C614.966 251.567 612.897 253.572 611.341 256.156L614.768 258.219ZM619.419 253.721C621.347 252.702 623.671 252.156 626.453 252.156V248.156C623.142 248.156 620.153 248.809 617.55 250.185L619.419 253.721ZM626.453 252.156C630.901 252.156 634.164 253.521 636.501 256.076L639.452 253.377C636.217 249.839 631.797 248.156 626.453 248.156V252.156ZM636.506 256.083C638.859 258.632 640.156 262.285 640.156 267.305H644.156C644.156 261.595 642.668 256.862 639.447 253.371L636.506 256.083ZM640.156 267.305V290H644.156V267.305H640.156ZM697.398 283.594L698.923 284.888L700.098 283.504L698.834 282.201L697.398 283.594ZM670.094 288.164L669.12 289.911L669.129 289.916L669.137 289.92L670.094 288.164ZM662.594 280.938L660.874 281.958L660.877 281.964L662.594 280.938ZM662.594 260.039L664.31 261.066L664.314 261.059L662.594 260.039ZM670.094 252.812L671.056 254.566L671.061 254.563L670.094 252.812ZM690.25 252.07L689.417 253.889L689.427 253.893L689.438 253.898L690.25 252.07ZM697.32 257.227L698.773 258.601L700.019 257.283L698.83 255.915L697.32 257.227ZM689.82 265.156L688.284 266.437L689.726 268.167L691.273 266.531L689.82 265.156ZM686.305 262.578L685.492 264.406L685.505 264.411L686.305 262.578ZM677.281 262.773L678.244 264.527L678.255 264.52L677.281 262.773ZM674.117 265.859L672.393 264.845L672.386 264.858L672.379 264.871L674.117 265.859ZM674.117 275.039L672.37 276.013L672.382 276.033L672.393 276.053L674.117 275.039ZM677.281 278.164L676.293 279.903L676.3 279.907L676.307 279.911L677.281 278.164ZM689.82 275.781L691.256 274.389L689.685 272.769L688.266 274.523L689.82 275.781ZM695.874 282.299C694.173 284.302 692.06 285.885 689.502 287.046L691.154 290.688C694.222 289.297 696.821 287.364 698.923 284.888L695.874 282.299ZM689.502 287.046C686.975 288.192 684.149 288.781 680.992 288.781V292.781C684.659 292.781 688.056 292.094 691.154 290.688L689.502 287.046ZM680.992 288.781C677.225 288.781 673.928 287.975 671.05 286.408L669.137 289.92C672.666 291.843 676.634 292.781 680.992 292.781V288.781ZM671.067 286.417C668.189 284.813 665.948 282.649 664.31 279.911L660.877 281.964C662.885 285.32 665.644 287.974 669.12 289.911L671.067 286.417ZM664.314 279.917C662.691 277.181 661.859 274.05 661.859 270.469H657.859C657.859 274.7 658.851 278.548 660.874 281.958L664.314 279.917ZM661.859 270.469C661.859 266.887 662.691 263.772 664.31 261.066L660.877 259.012C658.851 262.4 657.859 266.238 657.859 270.469H661.859ZM664.314 261.059C665.952 258.299 668.188 256.141 671.056 254.566L669.131 251.059C665.645 252.974 662.882 255.634 660.874 259.019L664.314 261.059ZM671.061 254.563C673.937 252.973 677.23 252.156 680.992 252.156V248.156C676.629 248.156 672.657 249.11 669.126 251.062L671.061 254.563ZM680.992 252.156C684.121 252.156 686.918 252.744 689.417 253.889L691.083 250.252C688.009 248.844 684.635 248.156 680.992 248.156V252.156ZM689.438 253.898C692 255.037 694.113 256.585 695.811 258.538L698.83 255.915C696.725 253.493 694.125 251.604 691.062 250.243L689.438 253.898ZM695.867 255.852L688.367 263.782L691.273 266.531L698.773 258.601L695.867 255.852ZM691.357 263.876C690.227 262.52 688.794 261.482 687.105 260.745L685.505 264.411C686.68 264.924 687.59 265.605 688.284 266.437L691.357 263.876ZM687.117 260.751C685.455 260.012 683.707 259.641 681.891 259.641V263.641C683.147 263.641 684.341 263.894 685.492 264.406L687.117 260.751ZM681.891 259.641C679.869 259.641 677.99 260.088 676.307 261.027L678.255 264.52C679.28 263.949 680.475 263.641 681.891 263.641V259.641ZM676.319 261.02C674.669 261.926 673.354 263.212 672.393 264.845L675.841 266.873C676.443 265.85 677.237 265.079 678.244 264.527L676.319 261.02ZM672.379 264.871C671.434 266.532 670.984 268.39 670.984 270.391H674.984C674.984 269.006 675.29 267.843 675.856 266.848L672.379 264.871ZM670.984 270.391C670.984 272.433 671.429 274.325 672.37 276.013L675.864 274.065C675.295 273.044 674.984 271.838 674.984 270.391H670.984ZM672.393 276.053C673.35 277.68 674.658 278.973 676.293 279.903L678.27 276.425C677.249 275.845 676.446 275.054 675.841 274.025L672.393 276.053ZM676.307 279.911C677.99 280.85 679.869 281.297 681.891 281.297V277.297C680.475 277.297 679.28 276.989 678.255 276.417L676.307 279.911ZM681.891 281.297C683.707 281.297 685.463 280.926 687.144 280.192L685.544 276.526C684.359 277.043 683.147 277.297 681.891 277.297V281.297ZM687.144 280.192C688.837 279.454 690.266 278.409 691.375 277.04L688.266 274.523C687.604 275.341 686.715 276.015 685.544 276.526L687.144 280.192ZM688.385 277.174L695.963 284.986L698.834 282.201L691.256 274.389L688.385 277.174ZM752.172 285.742L753.308 287.388L754.626 286.479L754.027 284.994L752.172 285.742ZM724.594 288.047L723.646 289.808L723.654 289.813L723.662 289.817L724.594 288.047ZM716.43 280.547L714.738 281.614L714.742 281.621L716.43 280.547ZM716.117 259.766L717.824 260.808L717.828 260.801L716.117 259.766ZM723.461 252.734L722.497 250.982L722.491 250.985L723.461 252.734ZM752.055 260.938L750.271 261.843L750.276 261.851L750.28 261.859L752.055 260.938ZM754.672 273.906V275.906H756.672V273.906H754.672ZM727.172 273.906V271.906H724.307L725.295 274.596L727.172 273.906ZM729.281 277.305L727.829 278.68L727.839 278.69L727.848 278.7L729.281 277.305ZM732.875 279.688L732.103 281.533L732.118 281.539L732.132 281.544L732.875 279.688ZM748.578 276.836L750.433 276.088L749.468 273.697L747.392 275.226L748.578 276.836ZM726.625 268.125L724.647 267.832L724.307 270.125H726.625V268.125ZM742.875 268.125V270.125H745.101L744.864 267.912L742.875 268.125ZM738.656 261.641L737.715 263.405L737.723 263.41L737.731 263.414L738.656 261.641ZM730.766 261.719L731.771 263.448L731.777 263.444L731.783 263.441L730.766 261.719ZM727.992 264.375L726.316 263.284L726.31 263.293L727.992 264.375ZM751.036 284.096C746.489 287.233 741.583 288.781 736.273 288.781V292.781C742.422 292.781 748.115 290.97 753.308 287.388L751.036 284.096ZM736.273 288.781C732.241 288.781 728.672 287.933 725.525 286.277L723.662 289.817C727.442 291.806 731.66 292.781 736.273 292.781V288.781ZM725.541 286.286C722.391 284.591 719.93 282.322 718.117 279.473L714.742 281.621C716.94 285.074 719.922 287.805 723.646 289.808L725.541 286.286ZM718.121 279.479C716.328 276.639 715.422 273.445 715.422 269.844H711.422C711.422 274.159 712.52 278.1 714.738 281.614L718.121 279.479ZM715.422 269.844C715.422 266.399 716.237 263.407 717.824 260.808L714.41 258.723C712.404 262.009 711.422 265.736 711.422 269.844H715.422ZM717.828 260.801C719.441 258.137 721.63 256.037 724.431 254.483L722.491 250.985C719.094 252.87 716.388 255.456 714.406 258.73L717.828 260.801ZM724.425 254.487C727.225 252.947 730.416 252.156 734.047 252.156V248.156C729.813 248.156 725.947 249.085 722.497 250.982L724.425 254.487ZM734.047 252.156C737.813 252.156 741.036 253.028 743.782 254.713L745.874 251.303C742.422 249.186 738.457 248.156 734.047 248.156V252.156ZM743.782 254.713C746.552 256.412 748.712 258.772 750.271 261.843L753.838 260.032C751.96 256.333 749.302 253.406 745.874 251.303L743.782 254.713ZM750.28 261.859C751.853 264.888 752.672 268.467 752.672 272.656H756.672C756.672 267.939 755.746 263.706 753.83 260.016L750.28 261.859ZM752.672 272.656V273.906H756.672V272.656H752.672ZM754.672 271.906H727.172V275.906H754.672V271.906ZM725.295 274.596C725.857 276.128 726.705 277.494 727.829 278.68L730.733 275.929C729.982 275.136 729.424 274.237 729.049 273.217L725.295 274.596ZM727.848 278.7C729.022 279.905 730.453 280.843 732.103 281.533L733.647 277.842C732.432 277.334 731.468 276.684 730.714 275.909L727.848 278.7ZM732.132 281.544C733.843 282.229 735.743 282.547 737.797 282.547V278.547C736.153 278.547 734.772 278.292 733.618 277.831L732.132 281.544ZM737.797 282.547C742.091 282.547 746.094 281.149 749.764 278.446L747.392 275.226C744.344 277.47 741.159 278.547 737.797 278.547V282.547ZM746.723 277.584L750.317 286.491L754.027 284.994L750.433 276.088L746.723 277.584ZM726.625 270.125H742.875V266.125H726.625V270.125ZM744.864 267.912C744.677 266.171 744.14 264.575 743.223 263.166L739.871 265.349C740.412 266.18 740.76 267.162 740.886 268.338L744.864 267.912ZM743.223 263.166C742.304 261.755 741.08 260.65 739.581 259.867L737.731 263.414C738.628 263.882 739.331 264.521 739.871 265.349L743.223 263.166ZM739.597 259.876C738.108 259.082 736.465 258.703 734.711 258.703V262.703C735.874 262.703 736.861 262.95 737.715 263.405L739.597 259.876ZM734.711 258.703C732.911 258.703 731.237 259.117 729.748 259.997L731.783 263.441C732.586 262.966 733.542 262.703 734.711 262.703V258.703ZM729.76 259.99C728.362 260.803 727.21 261.91 726.316 263.284L729.668 265.466C730.232 264.6 730.93 263.937 731.771 263.448L729.76 259.99ZM726.31 263.293C725.439 264.648 724.893 266.171 724.647 267.832L728.603 268.418C728.774 267.266 729.139 266.29 729.675 265.457L726.31 263.293Z" fill="#2F2E41"/>
<defs>
<radialGradient id="paint0_diamond_203_73" cx="0" cy="0" r="1" gradientUnits="userSpaceOnUse" gradientTransform="translate(430.545 275.268) rotate(90) scale(270 430)">
<stop stop-color="#FAFF00"/>
<stop offset="1" stop-color="#0E0E0D"/>
</radialGradient>
</defs>
</svg>
