<svg width="864" height="546" viewBox="0 0 864 546" fill="none" xmlns="http://www.w3.org/2000/svg">
<rect x="0.544922" y="5.26846" width="860" height="540" rx="10" transform="rotate(-0.310028 0.544922 5.26846)" fill="url(#paint0_diamond_203_73)"/>
<path d="M327.482 249.533C325.562 247.548 323.218 246.018 320.451 244.943C317.684 243.837 314.722 243.283 311.564 243.283C308.439 243.283 305.607 243.82 303.068 244.895C300.529 245.969 298.332 247.515 296.477 249.533C294.654 251.519 293.238 253.895 292.229 256.662C291.252 259.429 290.764 262.538 290.764 265.988C290.764 269.471 291.285 272.661 292.326 275.559C293.368 278.423 294.833 280.897 296.721 282.98C298.641 285.031 300.92 286.626 303.557 287.766C306.193 288.905 309.123 289.475 312.346 289.475C314.885 289.475 317.196 289.117 319.279 288.4C321.395 287.652 323.251 286.594 324.846 285.227C326.473 283.827 327.824 282.134 328.898 280.148C330.005 278.163 330.803 275.917 331.291 273.41H311.857V260.324H346.379L346.867 266.867C346.867 272.434 346.021 277.528 344.328 282.15C342.635 286.74 340.227 290.712 337.102 294.064C334.009 297.385 330.314 299.956 326.018 301.779C321.721 303.57 316.952 304.465 311.711 304.465C306.275 304.465 301.213 303.505 296.525 301.584C291.87 299.631 287.785 296.929 284.27 293.479C280.786 290.028 278.068 285.992 276.115 281.369C274.162 276.714 273.186 271.669 273.186 266.232C273.186 260.894 274.146 255.93 276.066 251.34C277.987 246.717 280.656 242.681 284.074 239.23C287.525 235.78 291.545 233.094 296.135 231.174C300.757 229.253 305.754 228.293 311.125 228.293C316.171 228.293 321.07 229.172 325.822 230.93C330.575 232.688 334.839 235.194 338.615 238.449L327.482 249.533ZM415.48 303H401.467L400.637 297.434C398.846 299.517 396.665 301.128 394.094 302.268C391.522 303.407 388.69 303.977 385.598 303.977C382.212 303.977 379.201 303.326 376.564 302.023C373.928 300.721 371.844 298.931 370.314 296.652C368.817 294.341 368.068 291.721 368.068 288.791C368.068 285.699 368.882 282.98 370.51 280.637C372.17 278.293 374.449 276.454 377.346 275.119C380.243 273.785 383.547 273.117 387.258 273.117C389.374 273.117 391.457 273.345 393.508 273.801C395.591 274.257 397.577 274.891 399.465 275.705V274.68C399.465 272.954 398.944 271.457 397.902 270.188C396.861 268.918 395.445 267.925 393.654 267.209C391.864 266.46 389.829 266.086 387.551 266.086C385.305 266.086 383.124 266.444 381.008 267.16C378.892 267.844 376.955 268.837 375.197 270.139L370.998 258.176C374.449 256.516 377.883 255.279 381.301 254.465C384.751 253.618 388.072 253.195 391.262 253.195C396.177 253.195 400.441 254.156 404.055 256.076C407.701 257.997 410.516 260.715 412.502 264.23C414.488 267.714 415.48 271.848 415.48 276.633V303ZM389.211 292.014C390.871 292.014 392.466 291.656 393.996 290.939C395.559 290.191 396.828 289.214 397.805 288.01C398.814 286.805 399.335 285.52 399.367 284.152V283.957C398.065 283.111 396.617 282.476 395.021 282.053C393.426 281.597 391.831 281.369 390.236 281.369C387.86 281.369 385.956 281.857 384.523 282.834C383.091 283.778 382.375 285.048 382.375 286.643C382.375 287.652 382.668 288.579 383.254 289.426C383.84 290.24 384.654 290.874 385.695 291.33C386.737 291.786 387.909 292.014 389.211 292.014ZM520.568 303H504.553V278.977C504.553 275.331 503.869 272.515 502.502 270.529C501.135 268.511 499.182 267.502 496.643 267.502C494.071 267.502 492.069 268.511 490.637 270.529C489.204 272.548 488.488 275.363 488.488 278.977V303H472.473V278.977C472.473 275.331 471.789 272.515 470.422 270.529C469.055 268.511 467.102 267.502 464.562 267.502C461.991 267.502 459.989 268.511 458.557 270.529C457.124 272.548 456.408 275.363 456.408 278.977V303H440.393V254.172H453.088L453.625 262.033C455.285 259.136 457.466 256.939 460.168 255.441C462.902 253.944 466.076 253.195 469.689 253.195C473.368 253.195 476.558 253.96 479.26 255.49C481.994 256.988 484.126 259.152 485.656 261.984C487.316 259.12 489.497 256.939 492.199 255.441C494.901 253.944 498.075 253.195 501.721 253.195C507.645 253.195 512.268 255.083 515.588 258.859C518.908 262.635 520.568 267.893 520.568 274.631V303ZM591.135 297.678C585.048 301.877 578.423 303.977 571.262 303.977C565.858 303.977 560.992 302.837 556.662 300.559C552.365 298.247 548.964 295.122 546.457 291.184C543.951 287.212 542.697 282.753 542.697 277.805C542.697 273.085 543.82 268.885 546.066 265.207C548.312 261.496 551.372 258.566 555.246 256.418C559.152 254.27 563.563 253.195 568.479 253.195C573.589 253.195 578.081 254.383 581.955 256.76C585.829 259.136 588.84 262.44 590.988 266.672C593.169 270.871 594.26 275.754 594.26 281.32V282.883H559.885C560.471 284.478 561.35 285.894 562.521 287.131C563.726 288.368 565.223 289.361 567.014 290.109C568.804 290.826 570.855 291.184 573.166 291.184C577.951 291.184 582.443 289.637 586.643 286.545L591.135 297.678ZM559.201 275.656H579.514C579.318 273.833 578.765 272.222 577.854 270.822C576.942 269.423 575.738 268.332 574.24 267.551C572.775 266.77 571.132 266.379 569.309 266.379C567.453 266.379 565.809 266.802 564.377 267.648C562.977 268.462 561.822 269.569 560.91 270.969C560.031 272.336 559.462 273.898 559.201 275.656ZM613.947 298.85L617.316 285.471C618.26 286.512 619.579 287.505 621.271 288.449C622.964 289.393 624.787 290.158 626.74 290.744C628.726 291.298 630.581 291.574 632.307 291.574C633.967 291.574 635.253 291.281 636.164 290.695C637.076 290.109 637.531 289.328 637.531 288.352C637.531 287.44 637.173 286.675 636.457 286.057C635.741 285.406 634.797 284.82 633.625 284.299C632.453 283.778 631.118 283.257 629.621 282.736C627.538 281.955 625.357 281.027 623.078 279.953C620.799 278.846 618.879 277.365 617.316 275.51C615.786 273.622 615.021 271.115 615.021 267.99C615.021 264.963 615.803 262.342 617.365 260.129C618.96 257.915 621.206 256.206 624.104 255.002C627.001 253.798 630.402 253.195 634.309 253.195C640.721 253.195 647.15 254.807 653.596 258.029L649.104 270.432C648.062 269.585 646.727 268.788 645.1 268.039C643.472 267.258 641.796 266.639 640.07 266.184C638.378 265.695 636.88 265.451 635.578 265.451C634.243 265.451 633.218 265.712 632.502 266.232C631.786 266.753 631.428 267.453 631.428 268.332C631.428 269.113 631.737 269.813 632.355 270.432C632.974 271.018 633.869 271.571 635.041 272.092C636.213 272.613 637.564 273.166 639.094 273.752C641.307 274.533 643.553 275.477 645.832 276.584C648.111 277.691 650.031 279.188 651.594 281.076C653.189 282.964 653.986 285.487 653.986 288.645C653.986 291.737 653.14 294.439 651.447 296.75C649.755 299.029 647.362 300.803 644.27 302.072C641.21 303.342 637.596 303.977 633.43 303.977C626.464 303.977 619.969 302.268 613.947 298.85Z" fill="white"/>
<path d="M327.482 249.533L326.045 250.924L327.456 252.382L328.894 250.951L327.482 249.533ZM320.451 244.943L319.708 246.8L319.718 246.804L319.727 246.808L320.451 244.943ZM296.477 249.533L295.004 248.18L295.003 248.181L296.477 249.533ZM292.229 256.662L290.35 255.977L290.346 255.987L290.343 255.996L292.229 256.662ZM292.326 275.559L290.444 276.235L290.447 276.242L292.326 275.559ZM296.721 282.98L295.239 284.324L295.25 284.336L295.261 284.348L296.721 282.98ZM319.279 288.4L319.929 290.292L319.938 290.289L319.946 290.286L319.279 288.4ZM324.846 285.227L326.147 286.745L326.15 286.743L324.846 285.227ZM328.898 280.148L327.151 279.175L327.145 279.186L327.139 279.197L328.898 280.148ZM331.291 273.41L333.254 273.793L333.718 271.41H331.291V273.41ZM311.857 273.41H309.857V275.41H311.857V273.41ZM311.857 260.324V258.324H309.857V260.324H311.857ZM346.379 260.324L348.373 260.175L348.235 258.324H346.379V260.324ZM346.867 266.867H348.867V266.793L348.862 266.718L346.867 266.867ZM344.328 282.15L346.205 282.842L346.206 282.838L344.328 282.15ZM337.102 294.064L335.639 292.701L335.638 292.701L337.102 294.064ZM326.018 301.779L326.787 303.625L326.799 303.62L326.018 301.779ZM296.525 301.584L295.752 303.428L295.759 303.431L295.767 303.435L296.525 301.584ZM284.27 293.479L282.862 294.899L282.869 294.906L284.27 293.479ZM276.115 281.369L274.271 282.143L274.273 282.148L276.115 281.369ZM276.066 251.34L277.911 252.112L277.913 252.107L276.066 251.34ZM284.074 239.23L282.66 237.816L282.653 237.823L284.074 239.23ZM296.135 231.174L295.367 229.327L295.363 229.329L296.135 231.174ZM338.615 238.449L340.026 239.867L341.556 238.344L339.921 236.934L338.615 238.449ZM328.92 248.143C326.784 245.934 324.191 244.25 321.175 243.079L319.727 246.808C322.245 247.785 324.34 249.161 326.045 250.924L328.92 248.143ZM321.194 243.086C318.177 241.88 314.961 241.283 311.564 241.283V245.283C314.483 245.283 317.192 245.794 319.708 246.8L321.194 243.086ZM311.564 241.283C308.207 241.283 305.106 241.861 302.289 243.053L303.848 246.736C306.109 245.78 308.672 245.283 311.564 245.283V241.283ZM302.289 243.053C299.488 244.238 297.054 245.95 295.004 248.18L297.949 250.887C299.61 249.08 301.57 247.7 303.848 246.736L302.289 243.053ZM295.003 248.181C292.987 250.377 291.44 252.986 290.35 255.977L294.107 257.347C295.035 254.804 296.321 252.661 297.95 250.886L295.003 248.181ZM290.343 255.996C289.279 259.011 288.764 262.35 288.764 265.988H292.764C292.764 262.726 293.225 259.847 294.114 257.328L290.343 255.996ZM288.764 265.988C288.764 269.672 289.315 273.095 290.444 276.235L294.208 274.882C293.254 272.228 292.764 269.271 292.764 265.988H288.764ZM290.447 276.242C291.569 279.33 293.163 282.033 295.239 284.324L298.203 281.637C296.503 279.762 295.166 277.517 294.206 274.875L290.447 276.242ZM295.261 284.348C297.373 286.603 299.88 288.356 302.763 289.602L304.35 285.93C301.959 284.897 299.909 283.459 298.18 281.613L295.261 284.348ZM302.763 289.602C305.679 290.862 308.883 291.475 312.346 291.475V287.475C309.363 287.475 306.707 286.948 304.35 285.93L302.763 289.602ZM312.346 291.475C315.073 291.475 317.608 291.09 319.929 290.292L318.629 286.509C316.784 287.143 314.697 287.475 312.346 287.475V291.475ZM319.946 290.286C322.279 289.461 324.353 288.283 326.147 286.745L323.544 283.708C322.149 284.904 320.512 285.843 318.612 286.515L319.946 290.286ZM326.15 286.743C327.972 285.176 329.473 283.289 330.658 281.1L327.139 279.197C326.175 280.979 324.975 282.478 323.542 283.71L326.15 286.743ZM330.645 281.122C331.867 278.931 332.73 276.481 333.254 273.793L329.328 273.028C328.875 275.352 328.144 277.395 327.151 279.175L330.645 281.122ZM331.291 271.41H311.857V275.41H331.291V271.41ZM313.857 273.41V260.324H309.857V273.41H313.857ZM311.857 262.324H346.379V258.324H311.857V262.324ZM344.384 260.473L344.873 267.016L348.862 266.718L348.373 260.175L344.384 260.473ZM344.867 266.867C344.867 272.229 344.052 277.087 342.45 281.463L346.206 282.838C347.989 277.969 348.867 272.638 348.867 266.867H344.867ZM342.452 281.458C340.845 285.816 338.571 289.555 335.639 292.701L338.565 295.428C341.883 291.868 344.426 287.664 346.205 282.842L342.452 281.458ZM335.638 292.701C332.743 295.81 329.282 298.222 325.236 299.938L326.799 303.62C331.346 301.691 335.276 298.959 338.565 295.428L335.638 292.701ZM325.248 299.933C321.224 301.61 316.721 302.465 311.711 302.465V306.465C317.183 306.465 322.217 305.529 326.787 303.625L325.248 299.933ZM311.711 302.465C306.516 302.465 301.713 301.548 297.284 299.733L295.767 303.435C300.712 305.461 306.034 306.465 311.711 306.465V302.465ZM297.299 299.74C292.872 297.882 289.001 295.32 285.67 292.051L282.869 294.906C286.569 298.538 290.869 301.38 295.752 303.428L297.299 299.74ZM285.677 292.058C282.384 288.795 279.811 284.978 277.958 280.591L274.273 282.148C276.325 287.005 279.189 291.261 282.862 294.899L285.677 292.058ZM277.959 280.595C276.117 276.204 275.186 271.424 275.186 266.232H271.186C271.186 271.914 272.207 277.225 274.271 282.143L277.959 280.595ZM275.186 266.232C275.186 261.139 276.1 256.44 277.911 252.112L274.221 250.568C272.191 255.42 271.186 260.648 271.186 266.232H275.186ZM277.913 252.107C279.738 247.716 282.265 243.899 285.495 240.638L282.653 237.823C279.048 241.463 276.236 245.719 274.219 250.572L277.913 252.107ZM285.488 240.645C288.751 237.382 292.552 234.841 296.907 233.019L295.363 229.329C290.538 231.348 286.298 234.178 282.66 237.816L285.488 240.645ZM296.902 233.021C301.264 231.208 305.998 230.293 311.125 230.293V226.293C305.51 226.293 300.25 227.298 295.367 229.327L296.902 233.021ZM311.125 230.293C315.933 230.293 320.597 231.129 325.128 232.805L326.516 229.054C321.542 227.214 316.408 226.293 311.125 226.293V230.293ZM325.128 232.805C329.661 234.482 333.717 236.867 337.309 239.964L339.921 236.934C335.961 233.521 331.489 230.893 326.516 229.054L325.128 232.805ZM337.204 237.032L326.071 248.116L328.894 250.951L340.026 239.867L337.204 237.032ZM415.48 303V305H417.48V303H415.48ZM401.467 303L399.489 303.295L399.743 305H401.467V303ZM400.637 297.434L402.615 297.139L401.97 292.814L399.12 296.13L400.637 297.434ZM370.314 296.652L368.636 297.74L368.645 297.754L368.654 297.767L370.314 296.652ZM370.51 280.637L368.878 279.481L368.872 279.488L368.867 279.496L370.51 280.637ZM393.508 273.801L393.074 275.753L393.08 275.755L393.508 273.801ZM399.465 275.705L398.673 277.542L401.465 278.745V275.705H399.465ZM397.902 270.188L396.356 271.456L397.902 270.188ZM393.654 267.209L392.883 269.054L392.897 269.06L392.912 269.066L393.654 267.209ZM381.008 267.16L381.623 269.063L381.636 269.059L381.649 269.055L381.008 267.16ZM375.197 270.139L373.31 270.801L374.208 273.36L376.388 271.746L375.197 270.139ZM370.998 258.176L370.131 256.374L368.518 257.149L369.111 258.838L370.998 258.176ZM381.301 254.465L381.764 256.411L381.777 256.407L381.301 254.465ZM404.055 256.076L403.116 257.842L403.123 257.846L404.055 256.076ZM412.502 264.23L410.761 265.214L410.764 265.221L412.502 264.23ZM393.996 290.939L394.844 292.751L394.852 292.747L394.86 292.743L393.996 290.939ZM397.805 288.01L396.272 286.725L396.261 286.738L396.251 286.75L397.805 288.01ZM399.367 284.152L401.367 284.2L401.367 284.176V284.152H399.367ZM399.367 283.957H401.367V282.872L400.457 282.28L399.367 283.957ZM395.021 282.053L394.472 283.976L394.49 283.981L394.509 283.986L395.021 282.053ZM384.523 282.834L385.624 284.504L385.637 284.495L385.65 284.486L384.523 282.834ZM383.254 289.426L381.61 290.564L381.62 290.579L381.631 290.594L383.254 289.426ZM415.48 301H401.467V305H415.48V301ZM403.445 302.705L402.615 297.139L398.659 297.729L399.489 303.295L403.445 302.705ZM399.12 296.13C397.528 297.983 395.59 299.417 393.284 300.439L394.904 304.096C397.74 302.839 400.165 301.051 402.154 298.737L399.12 296.13ZM393.284 300.439C390.992 301.454 388.439 301.977 385.598 301.977V305.977C388.941 305.977 392.053 305.359 394.904 304.096L393.284 300.439ZM385.598 301.977C382.473 301.977 379.772 301.377 377.45 300.23L375.679 303.817C378.63 305.274 381.952 305.977 385.598 305.977V301.977ZM377.45 300.23C375.103 299.071 373.296 297.506 371.975 295.537L368.654 297.767C370.392 300.356 372.752 302.371 375.679 303.817L377.45 300.23ZM371.993 295.565C370.719 293.599 370.068 291.361 370.068 288.791H366.068C366.068 292.081 366.915 295.084 368.636 297.74L371.993 295.565ZM370.068 288.791C370.068 286.07 370.777 283.758 372.153 281.778L368.867 279.496C366.987 282.203 366.068 285.327 366.068 288.791H370.068ZM372.142 281.793C373.578 279.766 375.568 278.14 378.183 276.936L376.509 273.303C373.329 274.767 370.762 276.82 368.878 279.481L372.142 281.793ZM378.183 276.936C380.778 275.74 383.789 275.117 387.258 275.117V271.117C383.305 271.117 379.708 271.829 376.509 273.303L378.183 276.936ZM387.258 275.117C389.229 275.117 391.167 275.329 393.074 275.753L393.942 271.848C391.747 271.361 389.519 271.117 387.258 271.117V275.117ZM393.08 275.755C395.044 276.184 396.907 276.78 398.673 277.542L400.257 273.868C398.247 273.002 396.139 272.329 393.935 271.847L393.08 275.755ZM401.465 275.705V274.68H397.465V275.705H401.465ZM401.465 274.68C401.465 272.517 400.799 270.565 399.448 268.919L396.356 271.456C397.089 272.349 397.465 273.392 397.465 274.68H401.465ZM399.448 268.919C398.158 267.347 396.446 266.172 394.397 265.352L392.912 269.066C394.444 269.679 395.563 270.489 396.356 271.456L399.448 268.919ZM394.426 265.364C392.352 264.497 390.049 264.086 387.551 264.086V268.086C389.61 268.086 391.375 268.424 392.883 269.054L394.426 265.364ZM387.551 264.086C385.088 264.086 382.69 264.479 380.367 265.266L381.649 269.055C383.557 268.409 385.522 268.086 387.551 268.086V264.086ZM380.393 265.257C378.074 266.006 375.942 267.098 374.007 268.532L376.388 271.746C377.968 270.575 379.71 269.681 381.623 269.063L380.393 265.257ZM377.084 269.476L372.885 257.513L369.111 258.838L373.31 270.801L377.084 269.476ZM371.865 259.978C375.198 258.374 378.497 257.188 381.764 256.41L380.838 252.519C377.268 253.369 373.699 254.657 370.131 256.374L371.865 259.978ZM381.777 256.407C385.089 255.595 388.249 255.195 391.262 255.195V251.195C387.894 251.195 384.413 251.642 380.824 252.522L381.777 256.407ZM391.262 255.195C395.915 255.195 399.844 256.103 403.116 257.842L404.993 254.31C401.038 252.208 396.439 251.195 391.262 251.195V255.195ZM403.123 257.846C406.436 259.591 408.968 262.04 410.761 265.214L414.243 263.247C412.065 259.39 408.965 256.402 404.987 254.307L403.123 257.846ZM410.764 265.221C412.548 268.349 413.48 272.128 413.48 276.633H417.48C417.48 271.568 416.428 267.078 414.239 263.24L410.764 265.221ZM413.48 276.633V303H417.48V276.633H413.48ZM389.211 294.014C391.169 294.014 393.053 293.589 394.844 292.751L393.148 289.128C391.879 289.722 390.573 290.014 389.211 290.014V294.014ZM394.86 292.743C396.658 291.881 398.174 290.73 399.358 289.269L396.251 286.75C395.482 287.699 394.459 288.5 393.132 289.136L394.86 292.743ZM399.338 289.294C400.592 287.797 401.322 286.087 401.367 284.2L397.368 284.105C397.348 284.953 397.035 285.814 396.272 286.725L399.338 289.294ZM401.367 284.152V283.957H397.367V284.152H401.367ZM400.457 282.28C398.967 281.311 397.321 280.594 395.534 280.12L394.509 283.986C395.912 284.358 397.164 284.91 398.277 285.634L400.457 282.28ZM395.571 280.13C393.804 279.625 392.025 279.369 390.236 279.369V283.369C391.638 283.369 393.048 283.569 394.472 283.976L395.571 280.13ZM390.236 279.369C387.603 279.369 385.264 279.909 383.397 281.182L385.65 284.486C386.648 283.806 388.117 283.369 390.236 283.369V279.369ZM383.423 281.164C381.479 282.445 380.375 284.317 380.375 286.643H384.375C384.375 285.778 384.703 285.111 385.624 284.504L383.423 281.164ZM380.375 286.643C380.375 288.067 380.797 289.391 381.61 290.564L384.898 288.287C384.539 287.768 384.375 287.236 384.375 286.643H380.375ZM381.631 290.594C382.453 291.736 383.569 292.583 384.894 293.162L386.497 289.498C385.739 289.166 385.227 288.743 384.877 288.257L381.631 290.594ZM384.894 293.162C386.222 293.744 387.673 294.014 389.211 294.014V290.014C388.145 290.014 387.252 289.828 386.497 289.498L384.894 293.162ZM520.568 303V305H522.568V303H520.568ZM504.553 303H502.553V305H504.553V303ZM502.502 270.529L500.846 271.651L500.85 271.657L500.855 271.664L502.502 270.529ZM490.637 270.529L492.268 271.687L492.268 271.687L490.637 270.529ZM488.488 303V305H490.488V303H488.488ZM472.473 303H470.473V305H472.473V303ZM470.422 270.529L468.766 271.651L468.77 271.657L468.775 271.664L470.422 270.529ZM458.557 270.529L456.926 269.372L458.557 270.529ZM456.408 303V305H458.408V303H456.408ZM440.393 303H438.393V305H440.393V303ZM440.393 254.172V252.172H438.393V254.172H440.393ZM453.088 254.172L455.083 254.036L454.956 252.172H453.088V254.172ZM453.625 262.033L451.63 262.17L452.079 268.753L455.36 263.028L453.625 262.033ZM460.168 255.441L459.207 253.687L459.198 253.692L460.168 255.441ZM479.26 255.49L478.274 257.231L478.287 257.238L478.299 257.244L479.26 255.49ZM485.656 261.984L483.897 262.935L485.595 266.079L487.387 262.987L485.656 261.984ZM520.568 301H504.553V305H520.568V301ZM506.553 303V278.977H502.553V303H506.553ZM506.553 278.977C506.553 275.12 505.836 271.845 504.149 269.395L500.855 271.664C501.902 273.185 502.553 275.541 502.553 278.977H506.553ZM504.158 269.408C502.4 266.813 499.812 265.502 496.643 265.502V269.502C498.551 269.502 499.869 270.209 500.846 271.651L504.158 269.408ZM496.643 265.502C493.453 265.502 490.83 266.801 489.006 269.372L492.268 271.687C493.308 270.221 494.689 269.502 496.643 269.502V265.502ZM489.006 269.372C487.246 271.851 486.488 275.131 486.488 278.977H490.488C490.488 275.596 491.163 273.244 492.268 271.687L489.006 269.372ZM486.488 278.977V303H490.488V278.977H486.488ZM488.488 301H472.473V305H488.488V301ZM474.473 303V278.977H470.473V303H474.473ZM474.473 278.977C474.473 275.12 473.756 271.845 472.069 269.395L468.775 271.664C469.822 273.185 470.473 275.541 470.473 278.977H474.473ZM472.078 269.408C470.32 266.813 467.732 265.502 464.562 265.502V269.502C466.471 269.502 467.789 270.209 468.766 271.651L472.078 269.408ZM464.562 265.502C461.373 265.502 458.75 266.801 456.926 269.372L460.188 271.687C461.228 270.221 462.609 269.502 464.562 269.502V265.502ZM456.926 269.372C455.166 271.851 454.408 275.131 454.408 278.977H458.408C458.408 275.596 459.083 273.244 460.188 271.687L456.926 269.372ZM454.408 278.977V303H458.408V278.977H454.408ZM456.408 301H440.393V305H456.408V301ZM442.393 303V254.172H438.393V303H442.393ZM440.393 256.172H453.088V252.172H440.393V256.172ZM451.093 254.308L451.63 262.17L455.62 261.897L455.083 254.036L451.093 254.308ZM455.36 263.028C456.854 260.421 458.781 258.497 461.137 257.191L459.198 253.692C456.151 255.381 453.716 257.851 451.89 261.039L455.36 263.028ZM461.129 257.196C463.525 255.883 466.358 255.195 469.689 255.195V251.195C465.794 251.195 462.28 252.005 459.207 253.687L461.129 257.196ZM469.689 255.195C473.086 255.195 475.924 255.9 478.274 257.231L480.245 253.75C477.192 252.021 473.649 251.195 469.689 251.195V255.195ZM478.299 257.244C480.684 258.55 482.544 260.431 483.897 262.935L487.416 261.034C485.709 257.874 483.304 255.425 480.22 253.736L478.299 257.244ZM487.387 262.987C488.879 260.412 490.806 258.5 493.169 257.191L491.23 253.692C488.189 255.378 485.754 257.827 483.926 260.982L487.387 262.987ZM493.169 257.191C495.524 255.885 498.353 255.195 501.721 255.195V251.195C497.797 251.195 494.278 252.003 491.23 253.692L493.169 257.191ZM501.721 255.195C507.183 255.195 511.214 256.914 514.086 260.18L517.09 257.539C513.321 253.253 508.108 251.195 501.721 251.195V255.195ZM514.086 260.18C516.99 263.482 518.568 268.211 518.568 274.631H522.568C522.568 267.574 520.827 261.788 517.09 257.539L514.086 260.18ZM518.568 274.631V303H522.568V274.631H518.568ZM591.135 297.678L592.27 299.324L593.589 298.415L592.989 296.929L591.135 297.678ZM556.662 300.559L555.715 302.32L555.723 302.324L555.731 302.328L556.662 300.559ZM546.457 291.184L544.766 292.251L544.77 292.257L546.457 291.184ZM546.066 265.207L547.773 266.249L547.777 266.243L546.066 265.207ZM555.246 256.418L554.282 254.666L554.276 254.669L555.246 256.418ZM590.988 266.672L589.205 267.577L589.209 267.586L589.213 267.594L590.988 266.672ZM594.26 282.883V284.883H596.26V282.883H594.26ZM559.885 282.883V280.883H557.019L558.007 283.572L559.885 282.883ZM562.521 287.131L561.07 288.506L561.079 288.516L561.089 288.526L562.521 287.131ZM567.014 290.109L566.242 291.955L566.256 291.961L566.271 291.966L567.014 290.109ZM586.643 286.545L588.497 285.797L587.533 283.406L585.457 284.934L586.643 286.545ZM559.201 275.656L557.223 275.363L556.883 277.656H559.201V275.656ZM579.514 275.656V277.656H581.739L581.502 275.443L579.514 275.656ZM577.854 270.822L579.53 269.731L577.854 270.822ZM574.24 267.551L573.299 269.315L573.307 269.32L573.315 269.324L574.24 267.551ZM564.377 267.648L565.382 269.377L565.388 269.374L565.394 269.37L564.377 267.648ZM560.91 270.969L559.234 269.877L559.228 269.887L560.91 270.969ZM589.999 296.031C584.234 300.008 578.004 301.977 571.262 301.977V305.977C578.843 305.977 585.861 303.746 592.27 299.324L589.999 296.031ZM571.262 301.977C566.148 301.977 561.607 300.901 557.594 298.789L555.731 302.328C560.376 304.774 565.568 305.977 571.262 305.977V301.977ZM557.61 298.797C553.6 296.641 550.459 293.747 548.144 290.11L544.77 292.257C547.468 296.498 551.131 299.854 555.715 302.32L557.61 298.797ZM548.148 290.116C545.855 286.482 544.697 282.396 544.697 277.805H540.697C540.697 283.109 542.047 287.943 544.766 292.251L548.148 290.116ZM544.697 277.805C544.697 273.416 545.737 269.584 547.773 266.249L544.359 264.165C541.904 268.187 540.697 272.753 540.697 277.805H544.697ZM547.777 266.243C549.839 262.837 552.641 260.15 556.216 258.167L554.276 254.669C550.104 256.983 546.786 260.156 544.355 264.171L547.777 266.243ZM556.21 258.17C559.791 256.201 563.865 255.195 568.479 255.195V251.195C563.261 251.195 558.513 252.338 554.282 254.666L556.21 258.17ZM568.479 255.195C573.267 255.195 577.388 256.305 580.909 258.465L583.001 255.055C578.775 252.462 573.911 251.195 568.479 251.195V255.195ZM580.909 258.465C584.454 260.639 587.216 263.66 589.205 267.577L592.772 265.766C590.464 261.221 587.204 257.633 583.001 255.055L580.909 258.465ZM589.213 267.594C591.222 271.462 592.26 276.018 592.26 281.32H596.26C596.26 275.49 595.116 270.28 592.763 265.75L589.213 267.594ZM592.26 281.32V282.883H596.26V281.32H592.26ZM594.26 280.883H559.885V284.883H594.26V280.883ZM558.007 283.572C558.687 285.423 559.711 287.073 561.07 288.506L563.973 285.755C562.988 284.715 562.254 283.532 561.762 282.193L558.007 283.572ZM561.089 288.526C562.503 289.979 564.234 291.115 566.242 291.955L567.785 288.264C566.213 287.607 564.949 286.757 563.954 285.736L561.089 288.526ZM566.271 291.966C568.339 292.794 570.65 293.184 573.166 293.184V289.184C571.06 289.184 569.269 288.857 567.756 288.252L566.271 291.966ZM573.166 293.184C578.417 293.184 583.318 291.477 587.829 288.155L585.457 284.934C581.568 287.798 577.486 289.184 573.166 289.184V293.184ZM584.788 287.293L589.28 298.426L592.989 296.929L588.497 285.797L584.788 287.293ZM559.201 277.656H579.514V273.656H559.201V277.656ZM581.502 275.443C581.277 273.338 580.629 271.42 579.53 269.731L576.178 271.914C576.901 273.024 577.36 274.329 577.525 275.869L581.502 275.443ZM579.53 269.731C578.428 268.04 576.964 266.716 575.165 265.778L573.315 269.324C574.511 269.948 575.456 270.805 576.178 271.914L579.53 269.731ZM575.181 265.786C573.399 264.836 571.427 264.379 569.309 264.379V268.379C570.836 268.379 572.152 268.703 573.299 269.315L575.181 265.786ZM569.309 264.379C567.138 264.379 565.134 264.878 563.359 265.927L565.394 269.37C566.484 268.726 567.769 268.379 569.309 268.379V264.379ZM563.372 265.919C561.693 266.895 560.311 268.224 559.234 269.877L562.586 272.06C563.333 270.914 564.262 270.029 565.382 269.377L563.372 265.919ZM559.228 269.887C558.182 271.515 557.521 273.351 557.223 275.363L561.18 275.949C561.402 274.446 561.881 273.157 562.593 272.05L559.228 269.887ZM613.947 298.85L612.008 298.361L611.636 299.838L612.96 300.589L613.947 298.85ZM617.316 285.471L618.798 284.128L616.289 281.359L615.377 284.982L617.316 285.471ZM626.74 290.744L626.166 292.66L626.184 292.665L626.203 292.671L626.74 290.744ZM636.164 290.695L637.246 292.378L636.164 290.695ZM636.457 286.057L635.112 287.537L635.131 287.554L635.15 287.57L636.457 286.057ZM629.621 282.736L628.919 284.609L628.941 284.617L628.964 284.625L629.621 282.736ZM623.078 279.953L622.204 281.752L622.215 281.757L622.225 281.762L623.078 279.953ZM617.316 275.51L615.763 276.769L615.774 276.784L615.787 276.798L617.316 275.51ZM617.365 260.129L615.743 258.96L615.737 258.968L615.731 258.976L617.365 260.129ZM653.596 258.029L655.476 258.71L656.082 257.037L654.49 256.24L653.596 258.029ZM649.104 270.432L647.842 271.984L650.026 273.758L650.984 271.113L649.104 270.432ZM645.1 268.039L644.234 269.842L644.249 269.849L644.264 269.856L645.1 268.039ZM640.07 266.184L639.516 268.105L639.538 268.112L639.56 268.117L640.07 266.184ZM632.355 270.432L630.941 271.846L630.96 271.865L630.98 271.884L632.355 270.432ZM639.094 273.752L638.378 275.62L638.403 275.629L638.428 275.638L639.094 273.752ZM645.832 276.584L646.706 274.785L645.832 276.584ZM651.594 281.076L650.053 282.351L650.059 282.359L650.066 282.367L651.594 281.076ZM651.447 296.75L653.053 297.943L653.061 297.932L651.447 296.75ZM644.27 302.072L643.51 300.222L643.503 300.225L644.27 302.072ZM615.887 299.338L619.256 285.959L615.377 284.982L612.008 298.361L615.887 299.338ZM615.834 286.814C616.968 288.065 618.481 289.183 620.297 290.196L622.246 286.702C620.676 285.827 619.553 284.96 618.798 284.128L615.834 286.814ZM620.297 290.196C622.123 291.214 624.081 292.034 626.166 292.66L627.315 288.828C625.493 288.282 623.805 287.572 622.246 286.702L620.297 290.196ZM626.203 292.671C628.331 293.264 630.369 293.574 632.307 293.574V289.574C630.794 289.574 629.121 289.331 627.277 288.818L626.203 292.671ZM632.307 293.574C634.161 293.574 635.883 293.254 637.246 292.378L635.083 289.013C634.623 289.309 633.772 289.574 632.307 289.574V293.574ZM637.246 292.378C638.655 291.472 639.531 290.093 639.531 288.352H635.531C635.531 288.564 635.496 288.747 635.083 289.013L637.246 292.378ZM639.531 288.352C639.531 286.834 638.901 285.525 637.764 284.543L635.15 287.57C635.445 287.825 635.531 288.046 635.531 288.352H639.531ZM637.802 284.577C636.886 283.744 635.745 283.052 634.437 282.471L632.813 286.126C633.849 286.587 634.595 287.067 635.112 287.537L637.802 284.577ZM634.437 282.471C633.204 281.923 631.816 281.382 630.278 280.847L628.964 284.625C630.421 285.132 631.702 285.633 632.813 286.126L634.437 282.471ZM630.323 280.864C628.297 280.104 626.167 279.198 623.931 278.144L622.225 281.762C624.547 282.857 626.778 283.806 628.919 284.609L630.323 280.864ZM623.952 278.154C621.914 277.164 620.22 275.853 618.846 274.221L615.787 276.798C617.538 278.877 619.685 280.528 622.204 281.752L623.952 278.154ZM618.87 274.251C617.703 272.81 617.021 270.79 617.021 267.99H613.021C613.021 271.441 613.87 274.433 615.763 276.769L618.87 274.251ZM617.021 267.99C617.021 265.325 617.702 263.119 618.999 261.282L615.731 258.976C613.903 261.566 613.021 264.6 613.021 267.99H617.021ZM618.988 261.298C620.335 259.428 622.264 257.933 624.871 256.849L623.336 253.155C620.149 254.48 617.585 256.403 615.743 258.96L618.988 261.298ZM624.871 256.849C627.473 255.767 630.603 255.195 634.309 255.195V251.195C630.201 251.195 626.528 251.828 623.336 253.155L624.871 256.849ZM634.309 255.195C640.374 255.195 646.499 256.717 652.701 259.818L654.49 256.24C647.802 252.896 641.068 251.195 634.309 251.195V255.195ZM651.715 257.348L647.223 269.751L650.984 271.113L655.476 258.71L651.715 257.348ZM650.365 268.879C649.158 267.899 647.668 267.019 645.935 266.222L644.264 269.856C645.786 270.556 646.966 271.272 647.842 271.984L650.365 268.879ZM645.965 266.236C644.225 265.401 642.43 264.738 640.581 264.25L639.56 268.117C641.161 268.54 642.719 269.115 644.234 269.842L645.965 266.236ZM640.625 264.262C638.811 263.739 637.121 263.451 635.578 263.451V267.451C636.64 267.451 637.944 267.652 639.516 268.105L640.625 264.262ZM635.578 263.451C634.023 263.451 632.517 263.748 631.326 264.615L633.678 267.85C633.919 267.675 634.464 267.451 635.578 267.451V263.451ZM631.326 264.615C630.097 265.509 629.428 266.808 629.428 268.332H633.428C633.428 268.099 633.475 267.998 633.678 267.85L631.326 264.615ZM629.428 268.332C629.428 269.709 629.997 270.901 630.941 271.846L633.77 269.017C633.477 268.725 633.428 268.517 633.428 268.332H629.428ZM630.98 271.884C631.825 272.684 632.943 273.348 634.229 273.919L635.853 270.264C634.795 269.794 634.123 269.351 633.731 268.98L630.98 271.884ZM634.229 273.919C635.44 274.458 636.824 275.024 638.378 275.62L639.809 271.884C638.303 271.308 636.986 270.768 635.853 270.264L634.229 273.919ZM638.428 275.638C640.565 276.392 642.742 277.307 644.958 278.383L646.706 274.785C644.365 273.648 642.049 272.674 639.759 271.866L638.428 275.638ZM644.958 278.383C646.989 279.369 648.679 280.691 650.053 282.351L653.135 279.801C651.384 277.685 649.233 276.012 646.706 274.785L644.958 278.383ZM650.066 282.367C651.279 283.803 651.986 285.825 651.986 288.645H655.986C655.986 285.149 655.098 282.125 653.122 279.785L650.066 282.367ZM651.986 288.645C651.986 291.348 651.255 293.628 649.834 295.568L653.061 297.932C655.025 295.25 655.986 292.126 655.986 288.645H651.986ZM649.842 295.557C648.402 297.496 646.326 299.066 643.51 300.222L645.029 303.922C648.398 302.54 651.107 300.562 653.053 297.943L649.842 295.557ZM643.503 300.225C640.74 301.371 637.399 301.977 633.43 301.977V305.977C637.794 305.977 641.679 305.312 645.036 303.92L643.503 300.225ZM633.43 301.977C626.807 301.977 620.654 300.356 614.934 297.11L612.96 300.589C619.285 304.179 626.12 305.977 633.43 305.977V301.977Z" fill="#00C142"/>
<defs>
<radialGradient id="paint0_diamond_203_73" cx="0" cy="0" r="1" gradientUnits="userSpaceOnUse" gradientTransform="translate(430.545 275.268) rotate(90) scale(270 430)">
<stop stop-color="#10AC61"/>
<stop offset="1"/>
</radialGradient>
</defs>
</svg>
