<svg width="864" height="546" viewBox="0 0 864 546" fill="none" xmlns="http://www.w3.org/2000/svg">
<rect x="1.04762" y="5.76575" width="859" height="539" rx="9.5" transform="rotate(-0.310028 1.04762 5.76575)" fill="url(#paint0_diamond_203_73)" stroke="black"/>
<path d="M282.453 290H267.258L255.5 269.727H247.18V290H233.43V231.406H256.359C261.255 231.406 265.435 232.161 268.898 233.672C272.362 235.182 275.005 237.37 276.828 240.234C278.677 243.099 279.602 246.549 279.602 250.586C279.602 254.518 278.703 257.891 276.906 260.703C275.135 263.516 272.596 265.677 269.289 267.188L282.453 290ZM247.18 258.984H255.305C258.638 258.984 261.177 258.32 262.922 256.992C264.667 255.664 265.539 253.737 265.539 251.211C265.539 248.659 264.667 246.719 262.922 245.391C261.177 244.062 258.638 243.398 255.305 243.398H247.18V258.984ZM336.211 285.742C331.341 289.102 326.042 290.781 320.312 290.781C315.99 290.781 312.096 289.87 308.633 288.047C305.195 286.198 302.474 283.698 300.469 280.547C298.464 277.37 297.461 273.802 297.461 269.844C297.461 266.068 298.359 262.708 300.156 259.766C301.953 256.797 304.401 254.453 307.5 252.734C310.625 251.016 314.154 250.156 318.086 250.156C322.174 250.156 325.768 251.107 328.867 253.008C331.966 254.909 334.375 257.552 336.094 260.938C337.839 264.297 338.711 268.203 338.711 272.656V273.906H311.211C311.68 275.182 312.383 276.315 313.32 277.305C314.284 278.294 315.482 279.089 316.914 279.688C318.346 280.26 319.987 280.547 321.836 280.547C325.664 280.547 329.258 279.31 332.617 276.836L336.211 285.742ZM310.664 268.125H326.914C326.758 266.667 326.315 265.378 325.586 264.258C324.857 263.138 323.893 262.266 322.695 261.641C321.523 261.016 320.208 260.703 318.75 260.703C317.266 260.703 315.951 261.042 314.805 261.719C313.685 262.37 312.76 263.255 312.031 264.375C311.328 265.469 310.872 266.719 310.664 268.125ZM354.461 286.68L357.156 275.977C357.911 276.81 358.966 277.604 360.32 278.359C361.674 279.115 363.133 279.727 364.695 280.195C366.284 280.638 367.768 280.859 369.148 280.859C370.477 280.859 371.505 280.625 372.234 280.156C372.964 279.688 373.328 279.062 373.328 278.281C373.328 277.552 373.042 276.94 372.469 276.445C371.896 275.924 371.141 275.456 370.203 275.039C369.266 274.622 368.198 274.206 367 273.789C365.333 273.164 363.589 272.422 361.766 271.562C359.943 270.677 358.406 269.492 357.156 268.008C355.932 266.497 355.32 264.492 355.32 261.992C355.32 259.57 355.945 257.474 357.195 255.703C358.471 253.932 360.268 252.565 362.586 251.602C364.904 250.638 367.625 250.156 370.75 250.156C375.88 250.156 381.023 251.445 386.18 254.023L382.586 263.945C381.753 263.268 380.685 262.63 379.383 262.031C378.081 261.406 376.74 260.911 375.359 260.547C374.005 260.156 372.807 259.961 371.766 259.961C370.698 259.961 369.878 260.169 369.305 260.586C368.732 261.003 368.445 261.562 368.445 262.266C368.445 262.891 368.693 263.451 369.188 263.945C369.682 264.414 370.398 264.857 371.336 265.273C372.273 265.69 373.354 266.133 374.578 266.602C376.349 267.227 378.146 267.982 379.969 268.867C381.792 269.753 383.328 270.951 384.578 272.461C385.854 273.971 386.492 275.99 386.492 278.516C386.492 280.99 385.815 283.151 384.461 285C383.107 286.823 381.193 288.242 378.719 289.258C376.271 290.273 373.38 290.781 370.047 290.781C364.474 290.781 359.279 289.414 354.461 286.68ZM440.992 285.742C436.122 289.102 430.823 290.781 425.094 290.781C420.771 290.781 416.878 289.87 413.414 288.047C409.977 286.198 407.255 283.698 405.25 280.547C403.245 277.37 402.242 273.802 402.242 269.844C402.242 266.068 403.141 262.708 404.938 259.766C406.734 256.797 409.182 254.453 412.281 252.734C415.406 251.016 418.935 250.156 422.867 250.156C426.956 250.156 430.549 251.107 433.648 253.008C436.747 254.909 439.156 257.552 440.875 260.938C442.62 264.297 443.492 268.203 443.492 272.656V273.906H415.992C416.461 275.182 417.164 276.315 418.102 277.305C419.065 278.294 420.263 279.089 421.695 279.688C423.128 280.26 424.768 280.547 426.617 280.547C430.445 280.547 434.039 279.31 437.398 276.836L440.992 285.742ZM415.445 268.125H431.695C431.539 266.667 431.096 265.378 430.367 264.258C429.638 263.138 428.674 262.266 427.477 261.641C426.305 261.016 424.99 260.703 423.531 260.703C422.047 260.703 420.732 261.042 419.586 261.719C418.466 262.37 417.542 263.255 416.812 264.375C416.109 265.469 415.654 266.719 415.445 268.125ZM497.953 290H486.742L486.078 285.547C484.646 287.214 482.901 288.503 480.844 289.414C478.786 290.326 476.521 290.781 474.047 290.781C471.339 290.781 468.93 290.26 466.82 289.219C464.711 288.177 463.044 286.745 461.82 284.922C460.622 283.073 460.023 280.977 460.023 278.633C460.023 276.159 460.674 273.984 461.977 272.109C463.305 270.234 465.128 268.763 467.445 267.695C469.763 266.628 472.406 266.094 475.375 266.094C477.068 266.094 478.734 266.276 480.375 266.641C482.042 267.005 483.63 267.513 485.141 268.164V267.344C485.141 265.964 484.724 264.766 483.891 263.75C483.057 262.734 481.924 261.94 480.492 261.367C479.06 260.768 477.432 260.469 475.609 260.469C473.812 260.469 472.068 260.755 470.375 261.328C468.682 261.875 467.133 262.669 465.727 263.711L462.367 254.141C465.128 252.812 467.875 251.823 470.609 251.172C473.37 250.495 476.026 250.156 478.578 250.156C482.51 250.156 485.922 250.924 488.812 252.461C491.729 253.997 493.982 256.172 495.57 258.984C497.159 261.771 497.953 265.078 497.953 268.906V290ZM476.938 281.211C478.266 281.211 479.542 280.924 480.766 280.352C482.016 279.753 483.031 278.971 483.812 278.008C484.62 277.044 485.036 276.016 485.062 274.922V274.766C484.021 274.089 482.862 273.581 481.586 273.242C480.31 272.878 479.034 272.695 477.758 272.695C475.857 272.695 474.333 273.086 473.188 273.867C472.042 274.622 471.469 275.638 471.469 276.914C471.469 277.721 471.703 278.464 472.172 279.141C472.641 279.792 473.292 280.299 474.125 280.664C474.958 281.029 475.896 281.211 476.938 281.211ZM530.695 290H517.883V250.938H529.016L529.445 257.383C530.747 255.091 532.479 253.32 534.641 252.07C536.802 250.794 539.276 250.156 542.062 250.156C542.922 250.156 543.794 250.221 544.68 250.352C545.591 250.482 546.503 250.677 547.414 250.938L545.852 262.461C544.029 261.888 542.323 261.602 540.734 261.602C538.703 261.602 536.932 262.044 535.422 262.93C533.911 263.815 532.74 265.052 531.906 266.641C531.099 268.229 530.695 270.104 530.695 272.266V290ZM599.375 283.594C597.474 285.833 595.117 287.591 592.305 288.867C589.492 290.143 586.38 290.781 582.969 290.781C578.906 290.781 575.273 289.909 572.07 288.164C568.893 286.393 566.393 283.984 564.57 280.938C562.747 277.865 561.836 274.375 561.836 270.469C561.836 266.562 562.747 263.086 564.57 260.039C566.393 256.966 568.893 254.557 572.07 252.812C575.273 251.042 578.906 250.156 582.969 250.156C586.354 250.156 589.44 250.794 592.227 252.07C595.039 253.32 597.396 255.039 599.297 257.227L591.797 265.156C590.885 264.062 589.714 263.203 588.281 262.578C586.875 261.953 585.404 261.641 583.867 261.641C582.148 261.641 580.612 262.018 579.258 262.773C577.93 263.503 576.875 264.531 576.094 265.859C575.339 267.188 574.961 268.698 574.961 270.391C574.961 272.135 575.339 273.685 576.094 275.039C576.875 276.367 577.93 277.409 579.258 278.164C580.612 278.919 582.148 279.297 583.867 279.297C585.404 279.297 586.888 278.984 588.32 278.359C589.753 277.734 590.911 276.875 591.797 275.781L599.375 283.594ZM617.586 290V231.406H630.398V255.117C633.185 251.81 637.039 250.156 641.961 250.156C646.805 250.156 650.581 251.667 653.289 254.688C655.997 257.708 657.352 261.914 657.352 267.305V290H644.539V270.781C644.539 267.865 643.927 265.612 642.703 264.023C641.505 262.409 639.799 261.602 637.586 261.602C635.32 261.602 633.549 262.409 632.273 264.023C631.023 265.638 630.398 267.891 630.398 270.781V290H617.586Z" fill="white"/>
<path d="M282.453 290V292H285.916L284.185 289L282.453 290ZM267.258 290L265.528 291.003L266.106 292H267.258V290ZM255.5 269.727L257.23 268.723L256.652 267.727H255.5V269.727ZM247.18 269.727V267.727H245.18V269.727H247.18ZM247.18 290V292H249.18V290H247.18ZM233.43 290H231.43V292H233.43V290ZM233.43 231.406V229.406H231.43V231.406H233.43ZM268.898 233.672L268.099 235.505L268.898 233.672ZM276.828 240.234L275.141 241.308L275.148 241.319L276.828 240.234ZM276.906 260.703L275.221 259.626L275.214 259.637L276.906 260.703ZM269.289 267.188L268.458 265.368L266.457 266.282L267.557 268.187L269.289 267.188ZM247.18 258.984H245.18V260.984H247.18V258.984ZM247.18 243.398V241.398H245.18V243.398H247.18ZM282.453 288H267.258V292H282.453V288ZM268.988 288.997L257.23 268.723L253.77 270.73L265.528 291.003L268.988 288.997ZM255.5 267.727H247.18V271.727H255.5V267.727ZM245.18 269.727V290H249.18V269.727H245.18ZM247.18 288H233.43V292H247.18V288ZM235.43 290V231.406H231.43V290H235.43ZM233.43 233.406H256.359V229.406H233.43V233.406ZM256.359 233.406C261.058 233.406 264.95 234.132 268.099 235.505L269.698 231.839C265.919 230.191 261.452 229.406 256.359 229.406V233.406ZM268.099 235.505C271.24 236.875 273.555 238.817 275.141 241.308L278.515 239.161C276.455 235.923 273.484 233.49 269.698 231.839L268.099 235.505ZM275.148 241.319C276.752 243.805 277.602 246.862 277.602 250.586H281.602C281.602 246.237 280.602 242.393 278.508 239.15L275.148 241.319ZM277.602 250.586C277.602 254.206 276.778 257.189 275.221 259.626L278.592 261.78C280.628 258.592 281.602 254.831 281.602 250.586H277.602ZM275.214 259.637C273.67 262.089 271.446 264.004 268.458 265.368L270.12 269.007C273.747 267.35 276.601 264.942 278.599 261.769L275.214 259.637ZM267.557 268.187L280.721 291L284.185 289L271.021 266.188L267.557 268.187ZM247.18 260.984H255.305V256.984H247.18V260.984ZM255.305 260.984C258.86 260.984 261.901 260.283 264.133 258.584L261.711 255.401C260.453 256.358 258.416 256.984 255.305 256.984V260.984ZM264.133 258.584C266.455 256.816 267.539 254.254 267.539 251.211H263.539C263.539 253.22 262.878 254.512 261.711 255.401L264.133 258.584ZM267.539 251.211C267.539 248.15 266.46 245.571 264.133 243.799L261.711 246.982C262.873 247.867 263.539 249.168 263.539 251.211H267.539ZM264.133 243.799C261.901 242.1 258.86 241.398 255.305 241.398V245.398C258.416 245.398 260.453 246.025 261.711 246.982L264.133 243.799ZM255.305 241.398H247.18V245.398H255.305V241.398ZM245.18 243.398V258.984H249.18V243.398H245.18ZM336.211 285.742L337.347 287.388L338.665 286.479L338.066 284.994L336.211 285.742ZM308.633 288.047L307.685 289.808L307.693 289.813L307.701 289.817L308.633 288.047ZM300.469 280.547L298.777 281.614L298.781 281.621L300.469 280.547ZM300.156 259.766L301.863 260.808L301.867 260.801L300.156 259.766ZM307.5 252.734L306.536 250.982L306.53 250.985L307.5 252.734ZM336.094 260.938L334.31 261.843L334.315 261.851L334.319 261.859L336.094 260.938ZM338.711 273.906V275.906H340.711V273.906H338.711ZM311.211 273.906V271.906H308.346L309.334 274.596L311.211 273.906ZM313.32 277.305L311.868 278.68L311.878 278.69L311.887 278.7L313.32 277.305ZM316.914 279.688L316.142 281.533L316.157 281.539L316.171 281.544L316.914 279.688ZM332.617 276.836L334.472 276.088L333.507 273.697L331.431 275.226L332.617 276.836ZM310.664 268.125L308.686 267.832L308.346 270.125H310.664V268.125ZM326.914 268.125V270.125H329.14L328.903 267.912L326.914 268.125ZM322.695 261.641L321.754 263.405L321.762 263.41L321.77 263.414L322.695 261.641ZM314.805 261.719L315.81 263.448L315.816 263.444L315.822 263.441L314.805 261.719ZM312.031 264.375L310.355 263.284L310.349 263.293L312.031 264.375ZM335.075 284.096C330.528 287.233 325.622 288.781 320.312 288.781V292.781C326.461 292.781 332.154 290.97 337.347 287.388L335.075 284.096ZM320.312 288.781C316.28 288.781 312.712 287.933 309.564 286.277L307.701 289.817C311.481 291.806 315.7 292.781 320.312 292.781V288.781ZM309.58 286.286C306.43 284.591 303.969 282.322 302.156 279.473L298.781 281.621C300.979 285.074 303.961 287.805 307.685 289.808L309.58 286.286ZM302.16 279.479C300.368 276.639 299.461 273.445 299.461 269.844H295.461C295.461 274.159 296.56 278.1 298.777 281.614L302.16 279.479ZM299.461 269.844C299.461 266.399 300.276 263.407 301.863 260.808L298.449 258.723C296.443 262.009 295.461 265.736 295.461 269.844H299.461ZM301.867 260.801C303.48 258.137 305.669 256.037 308.47 254.483L306.53 250.985C303.133 252.87 300.427 255.456 298.445 258.73L301.867 260.801ZM308.464 254.487C311.264 252.947 314.455 252.156 318.086 252.156V248.156C313.852 248.156 309.986 249.085 306.536 250.982L308.464 254.487ZM318.086 252.156C321.853 252.156 325.075 253.028 327.821 254.713L329.913 251.303C326.461 249.186 322.496 248.156 318.086 248.156V252.156ZM327.821 254.713C330.591 256.412 332.751 258.772 334.31 261.843L337.877 260.032C335.999 256.333 333.341 253.406 329.913 251.303L327.821 254.713ZM334.319 261.859C335.892 264.888 336.711 268.467 336.711 272.656H340.711C340.711 267.939 339.785 263.706 337.869 260.016L334.319 261.859ZM336.711 272.656V273.906H340.711V272.656H336.711ZM338.711 271.906H311.211V275.906H338.711V271.906ZM309.334 274.596C309.896 276.128 310.744 277.494 311.868 278.68L314.772 275.929C314.021 275.136 313.463 274.237 313.088 273.217L309.334 274.596ZM311.887 278.7C313.061 279.905 314.492 280.843 316.142 281.533L317.686 277.842C316.471 277.334 315.507 276.684 314.753 275.909L311.887 278.7ZM316.171 281.544C317.882 282.229 319.782 282.547 321.836 282.547V278.547C320.192 278.547 318.811 278.292 317.657 277.831L316.171 281.544ZM321.836 282.547C326.13 282.547 330.133 281.149 333.803 278.446L331.431 275.226C328.383 277.47 325.199 278.547 321.836 278.547V282.547ZM330.762 277.584L334.356 286.491L338.066 284.994L334.472 276.088L330.762 277.584ZM310.664 270.125H326.914V266.125H310.664V270.125ZM328.903 267.912C328.716 266.171 328.179 264.575 327.262 263.166L323.91 265.349C324.451 266.18 324.799 267.162 324.925 268.338L328.903 267.912ZM327.262 263.166C326.343 261.755 325.12 260.65 323.62 259.867L321.77 263.414C322.667 263.882 323.37 264.521 323.91 265.349L327.262 263.166ZM323.636 259.876C322.147 259.082 320.504 258.703 318.75 258.703V262.703C319.913 262.703 320.9 262.95 321.754 263.405L323.636 259.876ZM318.75 258.703C316.95 258.703 315.276 259.117 313.787 259.997L315.822 263.441C316.625 262.966 317.581 262.703 318.75 262.703V258.703ZM313.799 259.99C312.401 260.803 311.249 261.91 310.355 263.284L313.707 265.466C314.271 264.6 314.969 263.937 315.81 263.448L313.799 259.99ZM310.349 263.293C309.478 264.648 308.932 266.171 308.686 267.832L312.642 268.418C312.813 267.266 313.178 266.29 313.714 265.457L310.349 263.293ZM354.461 286.68L352.521 286.191L352.15 287.668L353.474 288.419L354.461 286.68ZM357.156 275.977L358.638 274.634L356.129 271.865L355.217 275.488L357.156 275.977ZM364.695 280.195L364.121 282.111L364.139 282.117L364.158 282.122L364.695 280.195ZM372.234 280.156L373.316 281.839L372.234 280.156ZM372.469 276.445L371.123 277.925L371.142 277.942L371.162 277.959L372.469 276.445ZM367 273.789L366.298 275.662L366.32 275.67L366.343 275.678L367 273.789ZM361.766 271.562L360.892 273.362L360.902 273.367L360.913 273.372L361.766 271.562ZM357.156 268.008L355.602 269.267L355.614 269.282L355.626 269.296L357.156 268.008ZM357.195 255.703L355.573 254.534L355.567 254.542L355.561 254.55L357.195 255.703ZM386.18 254.023L388.06 254.705L388.666 253.031L387.074 252.235L386.18 254.023ZM382.586 263.945L381.325 265.498L383.508 267.272L384.466 264.626L382.586 263.945ZM379.383 262.031L378.517 263.834L378.532 263.841L378.547 263.848L379.383 262.031ZM375.359 260.547L374.805 262.469L374.827 262.475L374.849 262.481L375.359 260.547ZM369.188 263.945L367.773 265.36L367.792 265.379L367.812 265.397L369.188 263.945ZM374.578 266.602L373.863 268.469L373.888 268.479L373.912 268.488L374.578 266.602ZM384.578 272.461L383.037 273.736L383.044 273.744L383.05 273.752L384.578 272.461ZM384.461 285L386.066 286.193L386.074 286.182L384.461 285ZM378.719 289.258L377.959 287.408L377.952 287.41L378.719 289.258ZM356.4 287.168L359.096 276.465L355.217 275.488L352.521 286.191L356.4 287.168ZM355.674 277.32C356.619 278.362 357.869 279.282 359.346 280.106L361.294 276.613C360.064 275.926 359.204 275.257 358.638 274.634L355.674 277.32ZM359.346 280.106C360.833 280.936 362.426 281.603 364.121 282.111L365.27 278.28C363.839 277.85 362.516 277.294 361.294 276.613L359.346 280.106ZM364.158 282.122C365.889 282.604 367.556 282.859 369.148 282.859V278.859C367.981 278.859 366.679 278.672 365.232 278.269L364.158 282.122ZM369.148 282.859C370.671 282.859 372.135 282.598 373.316 281.839L371.153 278.474C370.875 278.652 370.282 278.859 369.148 278.859V282.859ZM373.316 281.839C374.543 281.05 375.328 279.827 375.328 278.281H371.328C371.328 278.301 371.327 278.315 371.326 278.323C371.325 278.331 371.324 278.335 371.324 278.336C371.324 278.336 371.324 278.335 371.325 278.333C371.326 278.33 371.327 278.329 371.327 278.328C371.332 278.319 371.304 278.377 371.153 278.474L373.316 281.839ZM375.328 278.281C375.328 276.946 374.77 275.79 373.776 274.932L371.162 277.959C371.261 278.045 371.292 278.101 371.302 278.123C371.311 278.143 371.328 278.186 371.328 278.281H375.328ZM373.814 274.965C373.041 274.263 372.089 273.688 371.015 273.211L369.391 276.867C370.193 277.223 370.75 277.586 371.123 277.925L373.814 274.965ZM371.015 273.211C370.017 272.768 368.896 272.331 367.657 271.9L366.343 275.678C367.5 276.081 368.514 276.477 369.391 276.867L371.015 273.211ZM367.702 271.916C366.093 271.313 364.398 270.593 362.618 269.753L360.913 273.372C362.779 274.251 364.574 275.015 366.298 275.662L367.702 271.916ZM362.639 269.763C361.057 268.995 359.748 267.98 358.686 266.72L355.626 269.296C357.065 271.004 358.828 272.359 360.892 273.362L362.639 269.763ZM358.71 266.749C357.849 265.686 357.32 264.167 357.32 261.992H353.32C353.32 264.818 354.016 267.309 355.602 269.267L358.71 266.749ZM357.32 261.992C357.32 259.933 357.845 258.251 358.829 256.856L355.561 254.55C354.046 256.697 353.32 259.208 353.32 261.992H357.32ZM358.818 256.872C359.846 255.445 361.326 254.291 363.354 253.448L361.818 249.755C359.211 250.839 357.096 252.419 355.573 254.534L358.818 256.872ZM363.354 253.448C365.376 252.607 367.826 252.156 370.75 252.156V248.156C367.424 248.156 364.431 248.669 361.818 249.755L363.354 253.448ZM370.75 252.156C375.533 252.156 380.372 253.356 385.285 255.812L387.074 252.235C381.675 249.535 376.227 248.156 370.75 248.156V252.156ZM384.299 253.342L380.705 263.264L384.466 264.626L388.06 254.705L384.299 253.342ZM383.847 262.393C382.849 261.582 381.626 260.862 380.219 260.214L378.547 263.848C379.744 264.399 380.657 264.955 381.325 265.498L383.847 262.393ZM380.248 260.228C378.834 259.549 377.374 259.01 375.87 258.613L374.849 262.481C376.105 262.813 377.328 263.263 378.517 263.834L380.248 260.228ZM375.914 258.625C374.438 258.2 373.048 257.961 371.766 257.961V261.961C372.567 261.961 373.572 262.113 374.805 262.469L375.914 258.625ZM371.766 257.961C370.478 257.961 369.177 258.206 368.128 258.968L370.481 262.203C370.578 262.133 370.918 261.961 371.766 261.961V257.961ZM368.128 258.968C367.043 259.758 366.445 260.917 366.445 262.266H370.445C370.445 262.226 370.449 262.208 370.449 262.208C370.449 262.207 370.447 262.216 370.441 262.229C370.434 262.242 370.429 262.248 370.43 262.247C370.432 262.244 370.446 262.229 370.481 262.203L368.128 258.968ZM366.445 262.266C366.445 263.487 366.952 264.539 367.773 265.36L370.602 262.531C370.433 262.362 370.445 262.295 370.445 262.266H366.445ZM367.812 265.397C368.533 266.08 369.473 266.634 370.524 267.101L372.148 263.446C371.324 263.08 370.832 262.748 370.563 262.493L367.812 265.397ZM370.524 267.101C371.5 267.535 372.615 267.991 373.863 268.469L375.293 264.734C374.094 264.274 373.046 263.845 372.148 263.446L370.524 267.101ZM373.912 268.488C375.607 269.086 377.334 269.811 379.095 270.666L380.843 267.068C378.957 266.152 377.091 265.368 375.244 264.716L373.912 268.488ZM379.095 270.666C380.67 271.431 381.976 272.453 383.037 273.736L386.119 271.186C384.68 269.448 382.914 268.074 380.843 267.068L379.095 270.666ZM383.05 273.752C383.945 274.81 384.492 276.328 384.492 278.516H388.492C388.492 275.651 387.764 273.132 386.106 271.17L383.05 273.752ZM384.492 278.516C384.492 280.6 383.93 282.34 382.847 283.818L386.074 286.182C387.7 283.962 388.492 281.379 388.492 278.516H384.492ZM382.855 283.807C381.754 285.29 380.157 286.505 377.959 287.408L379.478 291.108C382.228 289.979 384.459 288.356 386.066 286.193L382.855 283.807ZM377.952 287.41C375.801 288.303 373.183 288.781 370.047 288.781V292.781C373.578 292.781 376.74 292.244 379.485 291.105L377.952 287.41ZM370.047 288.781C364.818 288.781 359.963 287.503 355.448 284.94L353.474 288.419C358.594 291.325 364.13 292.781 370.047 292.781V288.781ZM440.992 285.742L442.128 287.388L443.446 286.479L442.847 284.994L440.992 285.742ZM413.414 288.047L412.467 289.808L412.475 289.813L412.483 289.817L413.414 288.047ZM405.25 280.547L403.559 281.614L403.563 281.621L405.25 280.547ZM404.938 259.766L406.644 260.808L406.649 260.801L404.938 259.766ZM412.281 252.734L411.317 250.982L411.311 250.985L412.281 252.734ZM440.875 260.938L439.092 261.843L439.096 261.851L439.1 261.859L440.875 260.938ZM443.492 273.906V275.906H445.492V273.906H443.492ZM415.992 273.906V271.906H413.127L414.115 274.596L415.992 273.906ZM418.102 277.305L416.65 278.68L416.659 278.69L416.669 278.7L418.102 277.305ZM421.695 279.688L420.924 281.533L420.938 281.539L420.953 281.544L421.695 279.688ZM437.398 276.836L439.253 276.088L438.288 273.697L436.212 275.226L437.398 276.836ZM415.445 268.125L413.467 267.832L413.127 270.125H415.445V268.125ZM431.695 268.125V270.125H433.921L433.684 267.912L431.695 268.125ZM427.477 261.641L426.535 263.405L426.543 263.41L426.551 263.414L427.477 261.641ZM419.586 261.719L420.591 263.448L420.597 263.444L420.603 263.441L419.586 261.719ZM416.812 264.375L415.136 263.284L415.13 263.293L416.812 264.375ZM439.857 284.096C435.309 287.233 430.403 288.781 425.094 288.781V292.781C431.242 292.781 436.936 290.97 442.128 287.388L439.857 284.096ZM425.094 288.781C421.061 288.781 417.493 287.933 414.346 286.277L412.483 289.817C416.262 291.806 420.481 292.781 425.094 292.781V288.781ZM414.361 286.286C411.211 284.591 408.75 282.322 406.937 279.473L403.563 281.621C405.76 285.074 408.742 287.805 412.467 289.808L414.361 286.286ZM406.941 279.479C405.149 276.639 404.242 273.445 404.242 269.844H400.242C400.242 274.159 401.341 278.1 403.559 281.614L406.941 279.479ZM404.242 269.844C404.242 266.399 405.057 263.407 406.644 260.808L403.231 258.723C401.224 262.009 400.242 265.736 400.242 269.844H404.242ZM406.649 260.801C408.261 258.137 410.451 256.037 413.251 254.483L411.311 250.985C407.914 252.87 405.208 255.456 403.226 258.73L406.649 260.801ZM413.245 254.487C416.045 252.947 419.237 252.156 422.867 252.156V248.156C418.633 248.156 414.767 249.085 411.317 250.982L413.245 254.487ZM422.867 252.156C426.634 252.156 429.856 253.028 432.603 254.713L434.694 251.303C431.243 249.186 427.278 248.156 422.867 248.156V252.156ZM432.603 254.713C435.372 256.412 437.532 258.772 439.092 261.843L442.658 260.032C440.78 256.333 438.122 253.406 434.694 251.303L432.603 254.713ZM439.1 261.859C440.673 264.888 441.492 268.467 441.492 272.656H445.492C445.492 267.939 444.567 263.706 442.65 260.016L439.1 261.859ZM441.492 272.656V273.906H445.492V272.656H441.492ZM443.492 271.906H415.992V275.906H443.492V271.906ZM414.115 274.596C414.678 276.128 415.526 277.494 416.65 278.68L419.553 275.929C418.802 275.136 418.244 274.237 417.87 273.217L414.115 274.596ZM416.669 278.7C417.842 279.905 419.274 280.843 420.924 281.533L422.467 277.842C421.252 277.334 420.288 276.684 419.535 275.909L416.669 278.7ZM420.953 281.544C422.663 282.229 424.563 282.547 426.617 282.547V278.547C424.973 278.547 423.592 278.292 422.438 277.831L420.953 281.544ZM426.617 282.547C430.911 282.547 434.914 281.149 438.584 278.446L436.212 275.226C433.164 277.47 429.98 278.547 426.617 278.547V282.547ZM435.544 277.584L439.137 286.491L442.847 284.994L439.253 276.088L435.544 277.584ZM415.445 270.125H431.695V266.125H415.445V270.125ZM433.684 267.912C433.497 266.171 432.961 264.575 432.043 263.166L428.691 265.349C429.232 266.18 429.581 267.162 429.707 268.338L433.684 267.912ZM432.043 263.166C431.124 261.755 429.901 260.65 428.402 259.867L426.551 263.414C427.448 263.882 428.152 264.521 428.691 265.349L432.043 263.166ZM428.418 259.876C426.929 259.082 425.285 258.703 423.531 258.703V262.703C424.694 262.703 425.681 262.95 426.535 263.405L428.418 259.876ZM423.531 258.703C421.731 258.703 420.057 259.117 418.568 259.997L420.603 263.441C421.407 262.966 422.362 262.703 423.531 262.703V258.703ZM418.581 259.99C417.182 260.803 416.031 261.91 415.137 263.284L418.488 265.466C419.053 264.6 419.75 263.937 420.591 263.448L418.581 259.99ZM415.13 263.293C414.26 264.648 413.713 266.171 413.467 267.832L417.424 268.418C417.594 267.266 417.959 266.29 418.495 265.457L415.13 263.293ZM497.953 290V292H499.953V290H497.953ZM486.742 290L484.764 290.295L485.018 292H486.742V290ZM486.078 285.547L488.056 285.252L487.411 280.927L484.561 284.243L486.078 285.547ZM461.82 284.922L460.142 286.009L460.151 286.023L460.16 286.037L461.82 284.922ZM461.977 272.109L460.345 270.953L460.339 270.961L460.334 270.969L461.977 272.109ZM480.375 266.641L479.941 268.593L479.948 268.594L480.375 266.641ZM485.141 268.164L484.349 270.001L487.141 271.204V268.164H485.141ZM480.492 261.367L479.721 263.212L479.735 263.218L479.749 263.224L480.492 261.367ZM470.375 261.328L470.99 263.231L471.003 263.227L471.016 263.223L470.375 261.328ZM465.727 263.711L463.839 264.373L464.738 266.932L466.917 265.318L465.727 263.711ZM462.367 254.141L461.5 252.338L459.887 253.114L460.48 254.803L462.367 254.141ZM470.609 251.172L471.073 253.118L471.086 253.114L470.609 251.172ZM488.812 252.461L487.874 254.227L487.88 254.23L488.812 252.461ZM495.57 258.984L493.829 259.968L493.833 259.975L495.57 258.984ZM480.766 280.352L481.614 282.163L481.622 282.159L481.63 282.155L480.766 280.352ZM483.812 278.008L482.279 276.723L482.269 276.736L482.259 276.748L483.812 278.008ZM485.062 274.922L487.062 274.969L487.062 274.946V274.922H485.062ZM485.062 274.766H487.062V273.68L486.152 273.089L485.062 274.766ZM481.586 273.242L481.036 275.165L481.055 275.17L481.073 275.175L481.586 273.242ZM473.188 273.867L474.288 275.537L474.301 275.528L474.314 275.52L473.188 273.867ZM472.172 279.141L470.527 280.279L470.538 280.294L470.549 280.309L472.172 279.141ZM497.953 288H486.742V292H497.953V288ZM488.72 289.705L488.056 285.252L484.1 285.842L484.764 290.295L488.72 289.705ZM484.561 284.243C483.327 285.679 481.826 286.791 480.034 287.585L481.654 291.243C483.976 290.214 485.964 288.748 487.595 286.85L484.561 284.243ZM480.034 287.585C478.256 288.373 476.27 288.781 474.047 288.781V292.781C476.772 292.781 479.317 292.278 481.654 291.243L480.034 287.585ZM474.047 288.781C471.599 288.781 469.501 288.312 467.706 287.425L465.935 291.012C468.358 292.209 471.078 292.781 474.047 292.781V288.781ZM467.706 287.425C465.886 286.527 464.496 285.319 463.481 283.807L460.16 286.037C461.592 288.17 463.535 289.827 465.935 291.012L467.706 287.425ZM463.499 283.834C462.524 282.33 462.023 280.616 462.023 278.633H458.023C458.023 281.337 458.72 283.816 460.142 286.009L463.499 283.834ZM462.023 278.633C462.023 276.531 462.569 274.762 463.619 273.25L460.334 270.969C458.779 273.207 458.023 275.787 458.023 278.633H462.023ZM463.609 273.265C464.712 271.707 466.247 270.449 468.282 269.512L466.608 265.879C464.008 267.077 461.897 268.762 460.345 270.953L463.609 273.265ZM468.282 269.512C470.298 268.583 472.648 268.094 475.375 268.094V264.094C472.164 264.094 469.228 264.672 466.608 265.879L468.282 269.512ZM475.375 268.094C476.923 268.094 478.444 268.26 479.941 268.593L480.809 264.688C479.025 264.292 477.213 264.094 475.375 264.094V268.094ZM479.948 268.594C481.494 268.933 482.96 269.402 484.349 270.001L485.932 266.327C484.3 265.624 482.589 265.078 480.802 264.687L479.948 268.594ZM487.141 268.164V267.344H483.141V268.164H487.141ZM487.141 267.344C487.141 265.526 486.579 263.874 485.437 262.481L482.344 265.019C482.869 265.658 483.141 266.401 483.141 267.344H487.141ZM485.437 262.481C484.355 261.163 482.926 260.186 481.235 259.51L479.749 263.224C480.923 263.694 481.76 264.306 482.344 265.019L485.437 262.481ZM481.264 259.522C479.548 258.805 477.652 258.469 475.609 258.469V262.469C477.213 262.469 478.571 262.732 479.721 263.212L481.264 259.522ZM475.609 258.469C473.596 258.469 471.634 258.79 469.734 259.434L471.016 263.223C472.501 262.72 474.029 262.469 475.609 262.469V258.469ZM469.76 259.425C467.864 260.038 466.12 260.931 464.536 262.104L466.917 265.318C468.146 264.408 469.5 263.712 470.99 263.231L469.76 259.425ZM467.614 263.049L464.254 253.478L460.48 254.803L463.839 264.373L467.614 263.049ZM463.234 255.943C465.877 254.671 468.489 253.733 471.073 253.117L470.146 249.226C467.261 249.913 464.378 250.954 461.5 252.338L463.234 255.943ZM471.086 253.114C473.708 252.471 476.204 252.156 478.578 252.156V248.156C475.849 248.156 473.032 248.518 470.133 249.229L471.086 253.114ZM478.578 252.156C482.249 252.156 485.325 252.872 487.874 254.227L489.751 250.695C486.519 248.977 482.772 248.156 478.578 248.156V252.156ZM487.88 254.23C490.465 255.592 492.433 257.497 493.829 259.968L497.312 258.001C495.53 254.847 492.993 252.403 489.745 250.691L487.88 254.23ZM493.833 259.975C495.219 262.406 495.953 265.358 495.953 268.906H499.953C499.953 264.798 499.099 261.136 497.308 257.994L493.833 259.975ZM495.953 268.906V290H499.953V268.906H495.953ZM476.938 283.211C478.564 283.211 480.129 282.858 481.614 282.163L479.918 278.54C478.954 278.991 477.967 279.211 476.938 279.211V283.211ZM481.63 282.155C483.115 281.443 484.377 280.487 485.366 279.267L482.259 276.748C481.685 277.456 480.916 278.062 479.901 278.548L481.63 282.155ZM485.346 279.292C486.398 278.036 487.024 276.583 487.062 274.969L483.063 274.874C483.049 275.449 482.841 276.053 482.279 276.723L485.346 279.292ZM487.062 274.922V274.766H483.062V274.922H487.062ZM486.152 273.089C484.922 272.289 483.567 271.699 482.099 271.309L481.073 275.175C482.157 275.463 483.119 275.888 483.973 276.443L486.152 273.089ZM482.135 271.319C480.688 270.906 479.227 270.695 477.758 270.695V274.695C478.841 274.695 479.932 274.85 481.036 275.165L482.135 271.319ZM477.758 270.695C475.6 270.695 473.641 271.137 472.061 272.215L474.314 275.52C475.025 275.035 476.114 274.695 477.758 274.695V270.695ZM472.087 272.197C470.43 273.289 469.469 274.907 469.469 276.914H473.469C473.469 276.369 473.653 275.955 474.288 275.537L472.087 272.197ZM469.469 276.914C469.469 278.137 469.832 279.275 470.527 280.279L473.816 278.002C473.574 277.652 473.469 277.306 473.469 276.914H469.469ZM470.549 280.309C471.254 281.288 472.207 282.008 473.323 282.496L474.927 278.832C474.377 278.591 474.027 278.295 473.795 277.972L470.549 280.309ZM473.323 282.496C474.444 282.986 475.66 283.211 476.938 283.211V279.211C476.132 279.211 475.473 279.071 474.927 278.832L473.323 282.496ZM530.695 290V292H532.695V290H530.695ZM517.883 290H515.883V292H517.883V290ZM517.883 250.938V248.938H515.883V250.938H517.883ZM529.016 250.938L531.011 250.804L530.887 248.938H529.016V250.938ZM529.445 257.383L527.45 257.516L527.893 264.164L531.184 258.371L529.445 257.383ZM534.641 252.07L535.642 253.802L535.65 253.797L535.657 253.793L534.641 252.07ZM544.68 250.352L544.389 252.33L544.397 252.331L544.68 250.352ZM547.414 250.938L549.396 251.206L549.629 249.49L547.964 249.014L547.414 250.938ZM545.852 262.461L545.252 264.369L547.515 265.08L547.833 262.73L545.852 262.461ZM531.906 266.641L530.135 265.712L530.129 265.723L530.123 265.735L531.906 266.641ZM530.695 288H517.883V292H530.695V288ZM519.883 290V250.938H515.883V290H519.883ZM517.883 252.938H529.016V248.938H517.883V252.938ZM527.02 251.071L527.45 257.516L531.441 257.25L531.011 250.804L527.02 251.071ZM531.184 258.371C532.321 256.37 533.805 254.864 535.642 253.802L533.639 250.339C531.153 251.777 529.174 253.812 527.706 256.395L531.184 258.371ZM535.657 253.793C537.478 252.718 539.593 252.156 542.062 252.156V248.156C538.959 248.156 536.126 248.871 533.624 250.348L535.657 253.793ZM542.062 252.156C542.821 252.156 543.596 252.214 544.389 252.33L544.971 248.373C543.993 248.229 543.023 248.156 542.062 248.156V252.156ZM544.397 252.331C545.216 252.448 546.038 252.624 546.865 252.861L547.964 249.014C546.967 248.73 545.967 248.515 544.963 248.372L544.397 252.331ZM545.432 250.669L543.87 262.192L547.833 262.73L549.396 251.206L545.432 250.669ZM546.451 260.553C544.472 259.931 542.563 259.602 540.734 259.602V263.602C542.083 263.602 543.585 263.845 545.252 264.369L546.451 260.553ZM540.734 259.602C538.405 259.602 536.274 260.112 534.41 261.204L536.433 264.655C537.591 263.977 539.001 263.602 540.734 263.602V259.602ZM534.41 261.204C532.569 262.284 531.138 263.8 530.135 265.712L533.677 267.57C534.341 266.304 535.254 265.346 536.433 264.655L534.41 261.204ZM530.123 265.735C529.146 267.657 528.695 269.856 528.695 272.266H532.695C532.695 270.353 533.052 268.801 533.689 267.547L530.123 265.735ZM528.695 272.266V290H532.695V272.266H528.695ZM599.375 283.594L600.9 284.888L602.074 283.504L600.811 282.201L599.375 283.594ZM572.07 288.164L571.097 289.911L571.105 289.916L571.114 289.92L572.07 288.164ZM564.57 280.938L562.85 281.958L562.854 281.964L564.57 280.938ZM564.57 260.039L566.287 261.066L566.29 261.059L564.57 260.039ZM572.07 252.812L573.033 254.566L573.038 254.563L572.07 252.812ZM592.227 252.07L591.394 253.889L591.404 253.893L591.414 253.898L592.227 252.07ZM599.297 257.227L600.75 258.601L601.996 257.283L600.806 255.915L599.297 257.227ZM591.797 265.156L590.26 266.437L591.702 268.167L593.25 266.531L591.797 265.156ZM588.281 262.578L587.469 264.406L587.481 264.411L588.281 262.578ZM579.258 262.773L580.22 264.527L580.232 264.52L579.258 262.773ZM576.094 265.859L574.37 264.845L574.362 264.858L574.355 264.871L576.094 265.859ZM576.094 275.039L574.347 276.013L574.358 276.033L574.37 276.053L576.094 275.039ZM579.258 278.164L578.269 279.903L578.276 279.907L578.284 279.911L579.258 278.164ZM591.797 275.781L593.232 274.389L591.662 272.769L590.242 274.523L591.797 275.781ZM597.85 282.299C596.15 284.302 594.036 285.885 591.478 287.046L593.131 290.688C596.198 289.297 598.798 287.364 600.9 284.888L597.85 282.299ZM591.478 287.046C588.951 288.192 586.125 288.781 582.969 288.781V292.781C586.635 292.781 590.033 292.094 593.131 290.688L591.478 287.046ZM582.969 288.781C579.202 288.781 575.904 287.975 573.027 286.408L571.114 289.92C574.642 291.843 578.611 292.781 582.969 292.781V288.781ZM573.044 286.417C570.165 284.813 567.925 282.649 566.287 279.911L562.854 281.964C564.862 285.32 567.621 287.974 571.097 289.911L573.044 286.417ZM566.29 279.917C564.668 277.181 563.836 274.05 563.836 270.469H559.836C559.836 274.7 560.827 278.548 562.85 281.958L566.29 279.917ZM563.836 270.469C563.836 266.887 564.668 263.772 566.287 261.066L562.854 259.012C560.827 262.4 559.836 266.238 559.836 270.469H563.836ZM566.29 261.059C567.928 258.299 570.165 256.141 573.033 254.566L571.108 251.059C567.622 252.974 564.858 255.634 562.85 259.019L566.29 261.059ZM573.038 254.563C575.913 252.973 579.207 252.156 582.969 252.156V248.156C578.606 248.156 574.634 249.11 571.103 251.062L573.038 254.563ZM582.969 252.156C586.097 252.156 588.895 252.744 591.394 253.889L593.059 250.252C589.985 248.844 586.611 248.156 582.969 248.156V252.156ZM591.414 253.898C593.976 255.037 596.09 256.585 597.787 258.538L600.806 255.915C598.702 253.493 596.102 251.604 593.039 250.243L591.414 253.898ZM597.844 255.852L590.344 263.782L593.25 266.531L600.75 258.601L597.844 255.852ZM593.333 263.876C592.204 262.52 590.77 261.482 589.081 260.745L587.481 264.411C588.657 264.924 589.567 265.605 590.26 266.437L593.333 263.876ZM589.094 260.751C587.432 260.012 585.684 259.641 583.867 259.641V263.641C585.123 263.641 586.318 263.894 587.469 264.406L589.094 260.751ZM583.867 259.641C581.845 259.641 579.967 260.088 578.284 261.027L580.232 264.52C581.257 263.949 582.452 263.641 583.867 263.641V259.641ZM578.295 261.02C576.646 261.926 575.33 263.212 574.37 264.845L577.818 266.873C578.42 265.85 579.214 265.079 580.22 264.527L578.295 261.02ZM574.355 264.871C573.411 266.532 572.961 268.39 572.961 270.391H576.961C576.961 269.006 577.266 267.843 577.832 266.848L574.355 264.871ZM572.961 270.391C572.961 272.433 573.406 274.325 574.347 276.013L577.84 274.065C577.271 273.044 576.961 271.838 576.961 270.391H572.961ZM574.37 276.053C575.327 277.68 576.634 278.973 578.269 279.903L580.246 276.425C579.225 275.845 578.423 275.054 577.818 274.025L574.37 276.053ZM578.284 279.911C579.967 280.85 581.845 281.297 583.867 281.297V277.297C582.452 277.297 581.257 276.989 580.232 276.417L578.284 279.911ZM583.867 281.297C585.684 281.297 587.44 280.926 589.12 280.192L587.52 276.526C586.336 277.043 585.124 277.297 583.867 277.297V281.297ZM589.12 280.192C590.813 279.454 592.243 278.409 593.351 277.04L590.242 274.523C589.58 275.341 588.692 276.015 587.52 276.526L589.12 280.192ZM590.361 277.174L597.939 284.986L600.811 282.201L593.232 274.389L590.361 277.174ZM617.586 290H615.586V292H617.586V290ZM617.586 231.406V229.406H615.586V231.406H617.586ZM630.398 231.406H632.398V229.406H630.398V231.406ZM630.398 255.117H628.398V260.595L631.928 256.406L630.398 255.117ZM653.289 254.688L654.778 253.352L653.289 254.688ZM657.352 290V292H659.352V290H657.352ZM644.539 290H642.539V292H644.539V290ZM642.703 264.023L641.097 265.215L641.108 265.23L641.119 265.244L642.703 264.023ZM632.273 264.023L630.704 262.783L630.698 262.791L630.692 262.799L632.273 264.023ZM630.398 290V292H632.398V290H630.398ZM619.586 290V231.406H615.586V290H619.586ZM617.586 233.406H630.398V229.406H617.586V233.406ZM628.398 231.406V255.117H632.398V231.406H628.398ZM631.928 256.406C634.279 253.615 637.538 252.156 641.961 252.156V248.156C636.54 248.156 632.09 250.005 628.869 253.829L631.928 256.406ZM641.961 252.156C646.357 252.156 649.544 253.507 651.8 256.023L654.778 253.352C651.617 249.826 647.253 248.156 641.961 248.156V252.156ZM651.8 256.023C654.084 258.57 655.352 262.242 655.352 267.305H659.352C659.352 261.586 657.911 256.847 654.778 253.352L651.8 256.023ZM655.352 267.305V290H659.352V267.305H655.352ZM657.352 288H644.539V292H657.352V288ZM646.539 290V270.781H642.539V290H646.539ZM646.539 270.781C646.539 267.617 645.879 264.869 644.287 262.803L641.119 265.244C641.975 266.355 642.539 268.113 642.539 270.781H646.539ZM644.309 262.832C642.692 260.652 640.359 259.602 637.586 259.602V263.602C639.24 263.602 640.318 264.166 641.097 265.215L644.309 262.832ZM637.586 259.602C634.779 259.602 632.401 260.636 630.704 262.783L633.843 265.264C634.698 264.182 635.861 263.602 637.586 263.602V259.602ZM630.692 262.799C629.078 264.884 628.398 267.627 628.398 270.781H632.398C632.398 268.154 632.969 266.392 633.855 265.248L630.692 262.799ZM628.398 270.781V290H632.398V270.781H628.398ZM630.398 288H617.586V292H630.398V288Z" fill="#53ABFC"/>
<defs>
<radialGradient id="paint0_diamond_203_73" cx="0" cy="0" r="1" gradientUnits="userSpaceOnUse" gradientTransform="translate(430.545 275.268) rotate(90) scale(270 430)">
<stop stop-color="#60D9FF"/>
<stop offset="1" stop-color="#0E0E0D"/>
</radialGradient>
</defs>
</svg>
