<svg width="864" height="546" viewBox="0 0 864 546" fill="none" xmlns="http://www.w3.org/2000/svg">
<rect x="1.04762" y="5.76575" width="859" height="539" rx="9.5" transform="rotate(-0.310028 1.04762 5.76575)" fill="url(#paint0_diamond_203_73)" stroke="black"/>
<path d="M227.922 283.477L234.406 273.008C236.255 274.466 238.013 275.664 239.68 276.602C241.346 277.513 242.987 278.19 244.602 278.633C246.216 279.076 247.857 279.297 249.523 279.297C251.346 279.297 252.909 279.062 254.211 278.594C255.539 278.099 256.555 277.409 257.258 276.523C257.987 275.638 258.352 274.583 258.352 273.359C258.352 271.927 257.87 270.716 256.906 269.727C255.943 268.711 254.667 267.826 253.078 267.07C251.516 266.289 249.81 265.521 247.961 264.766C246.086 263.984 244.172 263.138 242.219 262.227C240.292 261.315 238.521 260.208 236.906 258.906C235.292 257.578 233.977 255.977 232.961 254.102C231.971 252.227 231.477 249.948 231.477 247.266C231.477 243.724 232.362 240.69 234.133 238.164C235.93 235.612 238.378 233.659 241.477 232.305C244.602 230.924 248.13 230.234 252.062 230.234C254.927 230.234 257.909 230.612 261.008 231.367C264.133 232.122 267.271 233.294 270.422 234.883L265.07 245.938C263.195 244.792 261.164 243.893 258.977 243.242C256.815 242.565 254.797 242.227 252.922 242.227C251.438 242.227 250.135 242.448 249.016 242.891C247.922 243.307 247.062 243.906 246.438 244.688C245.839 245.469 245.539 246.38 245.539 247.422C245.539 248.75 246.008 249.909 246.945 250.898C247.909 251.862 249.159 252.734 250.695 253.516C252.232 254.297 253.898 255.091 255.695 255.898C257.596 256.706 259.523 257.604 261.477 258.594C263.456 259.583 265.266 260.755 266.906 262.109C268.573 263.438 269.901 265.039 270.891 266.914C271.906 268.789 272.414 271.042 272.414 273.672C272.414 277.135 271.477 280.195 269.602 282.852C267.753 285.482 265.148 287.526 261.789 288.984C258.456 290.443 254.576 291.172 250.148 291.172C246.06 291.172 242.128 290.521 238.352 289.219C234.602 287.891 231.125 285.977 227.922 283.477ZM310.156 290.781C306.068 290.781 302.422 289.909 299.219 288.164C296.042 286.393 293.542 283.984 291.719 280.938C289.896 277.865 288.984 274.375 288.984 270.469C288.984 266.562 289.896 263.086 291.719 260.039C293.542 256.966 296.042 254.557 299.219 252.812C302.422 251.042 306.068 250.156 310.156 250.156C314.193 250.156 317.786 251.042 320.938 252.812C324.115 254.557 326.602 256.966 328.398 260.039C330.221 263.086 331.133 266.562 331.133 270.469C331.133 274.375 330.221 277.865 328.398 280.938C326.602 283.984 324.115 286.393 320.938 288.164C317.786 289.909 314.193 290.781 310.156 290.781ZM310.078 279.297C311.589 279.297 312.943 278.919 314.141 278.164C315.339 277.409 316.276 276.354 316.953 275C317.656 273.646 318.008 272.109 318.008 270.391C318.008 268.724 317.656 267.227 316.953 265.898C316.276 264.57 315.339 263.529 314.141 262.773C312.943 262.018 311.589 261.641 310.078 261.641C308.542 261.641 307.174 262.018 305.977 262.773C304.779 263.529 303.828 264.57 303.125 265.898C302.448 267.227 302.109 268.724 302.109 270.391C302.109 272.109 302.448 273.646 303.125 275C303.828 276.354 304.779 277.409 305.977 278.164C307.174 278.919 308.542 279.297 310.078 279.297ZM365.711 290H352.898V262.383H346.062V250.938H352.898V245.625C352.898 242.656 353.615 240.013 355.047 237.695C356.479 235.378 358.432 233.555 360.906 232.227C363.406 230.898 366.245 230.234 369.422 230.234C371.427 230.234 373.484 230.534 375.594 231.133C377.703 231.706 379.773 232.617 381.805 233.867L376.961 243.789C376.128 243.086 375.242 242.565 374.305 242.227C373.393 241.862 372.482 241.68 371.57 241.68C369.956 241.68 368.576 242.24 367.43 243.359C366.284 244.479 365.711 246.068 365.711 248.125V250.938H377.234V262.383H365.711V290ZM426.578 288.945C423.453 290.169 420.419 290.781 417.477 290.781C414.378 290.781 411.63 290.13 409.234 288.828C406.865 287.5 405.016 285.677 403.688 283.359C402.359 281.016 401.695 278.294 401.695 275.195V262.383H394.859V250.938H402.398V241.172H414.508V250.938H425.055V262.383H414.508V272.891C414.508 274.948 415.081 276.536 416.227 277.656C417.372 278.776 418.753 279.336 420.367 279.336C421.93 279.336 423.453 278.841 424.938 277.852L426.578 288.945ZM492.25 290H477.641L472.25 267.812L466.859 290H452.25L439.594 250.938H453.148L459.359 276.836L466.703 250.938H477.797L485.141 276.953L491.352 250.938H504.906L492.25 290ZM556.398 290H545.188L544.523 285.547C543.091 287.214 541.346 288.503 539.289 289.414C537.232 290.326 534.966 290.781 532.492 290.781C529.784 290.781 527.375 290.26 525.266 289.219C523.156 288.177 521.49 286.745 520.266 284.922C519.068 283.073 518.469 280.977 518.469 278.633C518.469 276.159 519.12 273.984 520.422 272.109C521.75 270.234 523.573 268.763 525.891 267.695C528.208 266.628 530.852 266.094 533.82 266.094C535.513 266.094 537.18 266.276 538.82 266.641C540.487 267.005 542.076 267.513 543.586 268.164V267.344C543.586 265.964 543.169 264.766 542.336 263.75C541.503 262.734 540.37 261.94 538.938 261.367C537.505 260.768 535.878 260.469 534.055 260.469C532.258 260.469 530.513 260.755 528.82 261.328C527.128 261.875 525.578 262.669 524.172 263.711L520.812 254.141C523.573 252.812 526.32 251.823 529.055 251.172C531.815 250.495 534.471 250.156 537.023 250.156C540.956 250.156 544.367 250.924 547.258 252.461C550.174 253.997 552.427 256.172 554.016 258.984C555.604 261.771 556.398 265.078 556.398 268.906V290ZM535.383 281.211C536.711 281.211 537.987 280.924 539.211 280.352C540.461 279.753 541.477 278.971 542.258 278.008C543.065 277.044 543.482 276.016 543.508 274.922V274.766C542.466 274.089 541.307 273.581 540.031 273.242C538.755 272.878 537.479 272.695 536.203 272.695C534.302 272.695 532.779 273.086 531.633 273.867C530.487 274.622 529.914 275.638 529.914 276.914C529.914 277.721 530.148 278.464 530.617 279.141C531.086 279.792 531.737 280.299 532.57 280.664C533.404 281.029 534.341 281.211 535.383 281.211ZM589.141 290H576.328V250.938H587.461L587.891 257.383C589.193 255.091 590.924 253.32 593.086 252.07C595.247 250.794 597.721 250.156 600.508 250.156C601.367 250.156 602.24 250.221 603.125 250.352C604.036 250.482 604.948 250.677 605.859 250.938L604.297 262.461C602.474 261.888 600.768 261.602 599.18 261.602C597.148 261.602 595.378 262.044 593.867 262.93C592.357 263.815 591.185 265.052 590.352 266.641C589.544 268.229 589.141 270.104 589.141 272.266V290ZM659.031 285.742C654.161 289.102 648.862 290.781 643.133 290.781C638.81 290.781 634.917 289.87 631.453 288.047C628.016 286.198 625.294 283.698 623.289 280.547C621.284 277.37 620.281 273.802 620.281 269.844C620.281 266.068 621.18 262.708 622.977 259.766C624.773 256.797 627.221 254.453 630.32 252.734C633.445 251.016 636.974 250.156 640.906 250.156C644.995 250.156 648.589 251.107 651.688 253.008C654.786 254.909 657.195 257.552 658.914 260.938C660.659 264.297 661.531 268.203 661.531 272.656V273.906H634.031C634.5 275.182 635.203 276.315 636.141 277.305C637.104 278.294 638.302 279.089 639.734 279.688C641.167 280.26 642.807 280.547 644.656 280.547C648.484 280.547 652.078 279.31 655.438 276.836L659.031 285.742ZM633.484 268.125H649.734C649.578 266.667 649.135 265.378 648.406 264.258C647.677 263.138 646.714 262.266 645.516 261.641C644.344 261.016 643.029 260.703 641.57 260.703C640.086 260.703 638.771 261.042 637.625 261.719C636.505 262.37 635.581 263.255 634.852 264.375C634.148 265.469 633.693 266.719 633.484 268.125Z" fill="white"/>
<path d="M227.922 283.477L226.222 282.423L225.277 283.949L226.691 285.053L227.922 283.477ZM234.406 273.008L235.645 271.437L233.886 270.05L232.706 271.955L234.406 273.008ZM239.68 276.602L238.699 278.345L238.71 278.351L238.72 278.356L239.68 276.602ZM254.211 278.594L254.888 280.476L254.899 280.472L254.909 280.468L254.211 278.594ZM257.258 276.523L255.714 275.252L255.703 275.266L255.692 275.28L257.258 276.523ZM256.906 269.727L255.455 271.103L255.464 271.112L255.473 271.122L256.906 269.727ZM253.078 267.07L252.184 268.859L252.201 268.868L252.219 268.877L253.078 267.07ZM247.961 264.766L247.192 266.612L247.205 266.617L247.961 264.766ZM242.219 262.227L241.364 264.035L241.373 264.039L242.219 262.227ZM236.906 258.906L235.636 260.451L235.643 260.457L235.651 260.463L236.906 258.906ZM232.961 254.102L231.192 255.035L231.197 255.045L231.202 255.054L232.961 254.102ZM234.133 238.164L232.497 237.013L232.495 237.016L234.133 238.164ZM241.477 232.305L242.277 234.137L242.285 234.134L241.477 232.305ZM261.008 231.367L260.534 233.31L260.538 233.311L261.008 231.367ZM270.422 234.883L272.222 235.754L273.08 233.983L271.322 233.097L270.422 234.883ZM265.07 245.938L264.027 247.644L265.909 248.794L266.87 246.809L265.07 245.938ZM258.977 243.242L258.379 245.151L258.392 245.155L258.406 245.159L258.977 243.242ZM249.016 242.891L249.728 244.76L249.739 244.755L249.751 244.751L249.016 242.891ZM246.438 244.688L244.876 243.438L244.863 243.454L244.85 243.471L246.438 244.688ZM246.945 250.898L245.493 252.274L245.512 252.294L245.531 252.313L246.945 250.898ZM255.695 255.898L254.876 257.723L254.895 257.731L254.914 257.739L255.695 255.898ZM261.477 258.594L260.573 260.378L260.582 260.383L261.477 258.594ZM266.906 262.109L265.633 263.652L265.646 263.663L265.66 263.673L266.906 262.109ZM270.891 266.914L269.122 267.848L269.127 267.857L269.132 267.867L270.891 266.914ZM269.602 282.852L267.968 281.698L267.965 281.701L269.602 282.852ZM261.789 288.984L260.993 287.15L260.987 287.152L261.789 288.984ZM238.352 289.219L237.684 291.104L237.692 291.107L237.7 291.109L238.352 289.219ZM229.622 284.53L236.107 274.061L232.706 271.955L226.222 282.423L229.622 284.53ZM233.168 274.578C235.08 276.087 236.924 277.346 238.699 278.345L240.66 274.858C239.102 273.982 237.43 272.846 235.645 271.437L233.168 274.578ZM238.72 278.356C240.505 279.333 242.29 280.073 244.073 280.562L245.13 276.704C243.684 276.307 242.188 275.694 240.639 274.847L238.72 278.356ZM244.073 280.562C245.859 281.051 247.677 281.297 249.523 281.297V277.297C248.036 277.297 246.573 277.1 245.13 276.704L244.073 280.562ZM249.523 281.297C251.508 281.297 253.312 281.043 254.888 280.476L253.533 276.712C252.505 277.082 251.184 277.297 249.523 277.297V281.297ZM254.909 280.468C256.493 279.878 257.844 279.002 258.824 277.767L255.692 275.28C255.266 275.816 254.585 276.32 253.513 276.72L254.909 280.468ZM258.802 277.795C259.846 276.526 260.352 275.014 260.352 273.359H256.352C256.352 274.153 256.128 274.75 255.714 275.252L258.802 277.795ZM260.352 273.359C260.352 271.427 259.681 269.709 258.339 268.331L255.473 271.122C256.059 271.723 256.352 272.427 256.352 273.359H260.352ZM258.357 268.35C257.187 267.117 255.693 266.099 253.937 265.264L252.219 268.877C253.641 269.552 254.698 270.305 255.455 271.103L258.357 268.35ZM253.973 265.281C252.359 264.475 250.607 263.686 248.717 262.914L247.205 266.617C249.013 267.356 250.672 268.103 252.184 268.859L253.973 265.281ZM248.73 262.919C246.882 262.15 244.994 261.315 243.065 260.414L241.373 264.039C243.35 264.961 245.289 265.819 247.192 266.612L248.73 262.919ZM243.074 260.419C241.286 259.573 239.65 258.55 238.162 257.349L235.651 260.463C237.392 261.867 239.298 263.057 241.364 264.035L243.074 260.419ZM238.177 257.362C236.766 256.201 235.615 254.802 234.72 253.149L231.202 255.054C232.338 257.151 233.818 258.955 235.636 260.451L238.177 257.362ZM234.73 253.168C233.927 251.647 233.477 249.707 233.477 247.266H229.477C229.477 250.189 230.016 252.806 231.192 255.035L234.73 253.168ZM233.477 247.266C233.477 244.072 234.269 241.454 235.77 239.312L232.495 237.016C230.455 239.927 229.477 243.376 229.477 247.266H233.477ZM235.768 239.315C237.337 237.087 239.485 235.358 242.277 234.137L240.676 230.472C237.271 231.96 234.522 234.137 232.497 237.013L235.768 239.315ZM242.285 234.134C245.119 232.882 248.367 232.234 252.062 232.234V228.234C247.894 228.234 244.084 228.967 240.669 230.475L242.285 234.134ZM252.062 232.234C254.751 232.234 257.573 232.589 260.534 233.31L261.481 229.424C258.245 228.635 255.103 228.234 252.062 228.234V232.234ZM260.538 233.311C263.5 234.027 266.494 235.143 269.522 236.669L271.322 233.097C268.047 231.446 264.765 230.218 261.478 229.423L260.538 233.311ZM268.622 234.011L263.27 245.066L266.87 246.809L272.222 235.754L268.622 234.011ZM266.113 244.231C264.085 242.991 261.894 242.024 259.547 241.325L258.406 245.159C260.434 245.763 262.306 246.592 264.027 247.644L266.113 244.231ZM259.574 241.334C257.258 240.608 255.037 240.227 252.922 240.227V244.227C254.557 244.227 256.372 244.522 258.379 245.151L259.574 241.334ZM252.922 240.227C251.242 240.227 249.682 240.477 248.28 241.031L249.751 244.751C250.589 244.419 251.633 244.227 252.922 244.227V240.227ZM248.304 241.022C246.934 241.544 245.759 242.334 244.876 243.438L247.999 245.937C248.366 245.478 248.91 245.071 249.728 244.76L248.304 241.022ZM244.85 243.471C243.967 244.622 243.539 245.968 243.539 247.422H247.539C247.539 246.793 247.71 246.315 248.025 245.904L244.85 243.471ZM243.539 247.422C243.539 249.277 244.214 250.924 245.493 252.274L248.397 249.523C247.801 248.894 247.539 248.223 247.539 247.422H243.539ZM245.531 252.313C246.677 253.458 248.112 254.446 249.789 255.298L251.602 251.733C250.206 251.023 249.141 250.266 248.36 249.484L245.531 252.313ZM249.789 255.298C251.358 256.096 253.054 256.904 254.876 257.723L256.515 254.074C254.743 253.278 253.106 252.498 251.602 251.733L249.789 255.298ZM254.914 257.739C256.771 258.528 258.657 259.407 260.573 260.378L262.38 256.81C260.39 255.801 258.422 254.883 256.477 254.058L254.914 257.739ZM260.582 260.383C262.432 261.307 264.114 262.398 265.633 263.652L268.179 260.567C266.418 259.113 264.48 257.859 262.371 256.805L260.582 260.383ZM265.66 263.673C267.112 264.831 268.262 266.218 269.122 267.848L272.659 265.981C271.54 263.86 270.034 262.044 268.153 260.545L265.66 263.673ZM269.132 267.867C269.956 269.388 270.414 271.298 270.414 273.672H274.414C274.414 270.786 273.856 268.19 272.649 265.961L269.132 267.867ZM270.414 273.672C270.414 276.751 269.589 279.402 267.968 281.698L271.235 284.005C273.365 280.989 274.414 277.52 274.414 273.672H270.414ZM267.965 281.701C266.356 283.99 264.062 285.817 260.993 287.15L262.585 290.819C266.234 289.235 269.149 286.973 271.238 284.002L267.965 281.701ZM260.987 287.152C257.955 288.479 254.358 289.172 250.148 289.172V293.172C254.793 293.172 258.956 292.407 262.591 290.817L260.987 287.152ZM250.148 289.172C246.276 289.172 242.565 288.556 239.004 287.328L237.7 291.109C241.69 292.486 245.843 293.172 250.148 293.172V289.172ZM239.019 287.333C235.477 286.079 232.189 284.27 229.152 281.9L226.691 285.053C230.061 287.683 233.727 289.702 237.684 291.104L239.019 287.333ZM299.219 288.164L298.245 289.911L298.254 289.916L298.262 289.92L299.219 288.164ZM291.719 280.938L289.999 281.958L290.002 281.964L291.719 280.938ZM291.719 260.039L293.435 261.066L293.439 261.059L291.719 260.039ZM299.219 252.812L300.181 254.566L300.186 254.563L299.219 252.812ZM320.938 252.812L319.958 254.556L319.966 254.561L319.975 254.566L320.938 252.812ZM328.398 260.039L326.672 261.049L326.677 261.057L326.682 261.066L328.398 260.039ZM328.398 280.938L326.678 279.917L326.676 279.922L328.398 280.938ZM320.938 288.164L321.906 289.914L321.911 289.911L320.938 288.164ZM316.953 275L315.178 274.078L315.171 274.092L315.164 274.106L316.953 275ZM316.953 265.898L315.171 266.807L315.178 266.821L315.186 266.834L316.953 265.898ZM305.977 262.773L307.043 264.465L305.977 262.773ZM303.125 265.898L301.357 264.963L301.35 264.976L301.343 264.99L303.125 265.898ZM303.125 275L301.336 275.894L301.343 275.908L301.35 275.922L303.125 275ZM305.977 278.164L307.043 276.472L305.977 278.164ZM310.156 288.781C306.361 288.781 303.051 287.974 300.175 286.408L298.262 289.92C301.793 291.844 305.775 292.781 310.156 292.781V288.781ZM300.192 286.417C297.314 284.813 295.073 282.649 293.435 279.911L290.002 281.964C292.01 285.32 294.769 287.974 298.245 289.911L300.192 286.417ZM293.439 279.917C291.816 277.181 290.984 274.05 290.984 270.469H286.984C286.984 274.7 287.976 278.548 289.999 281.958L293.439 279.917ZM290.984 270.469C290.984 266.887 291.816 263.772 293.435 261.066L290.002 259.012C287.976 262.4 286.984 266.238 286.984 270.469H290.984ZM293.439 261.059C295.077 258.299 297.313 256.141 300.181 254.566L298.256 251.059C294.77 252.974 292.007 255.634 289.999 259.019L293.439 261.059ZM300.186 254.563C303.06 252.974 306.366 252.156 310.156 252.156V248.156C305.77 248.156 301.784 249.109 298.251 251.062L300.186 254.563ZM310.156 252.156C313.89 252.156 317.14 252.972 319.958 254.556L321.917 251.069C318.433 249.111 314.495 248.156 310.156 248.156V252.156ZM319.975 254.566C322.841 256.139 325.061 258.294 326.672 261.049L330.125 259.03C328.142 255.638 325.388 252.975 321.9 251.059L319.975 254.566ZM326.682 261.066C328.301 263.772 329.133 266.887 329.133 270.469H333.133C333.133 266.238 332.142 262.4 330.115 259.012L326.682 261.066ZM329.133 270.469C329.133 274.05 328.301 277.181 326.678 279.917L330.119 281.958C332.142 278.548 333.133 274.7 333.133 270.469H329.133ZM326.676 279.922C325.064 282.654 322.84 284.814 319.964 286.417L321.911 289.911C325.389 287.972 328.139 285.315 330.121 281.953L326.676 279.922ZM319.969 286.414C317.149 287.976 313.895 288.781 310.156 288.781V292.781C314.49 292.781 318.424 291.842 321.906 289.914L319.969 286.414ZM310.078 281.297C311.94 281.297 313.668 280.826 315.207 279.856L313.074 276.472C312.217 277.013 311.237 277.297 310.078 277.297V281.297ZM315.207 279.856C316.736 278.892 317.913 277.552 318.742 275.894L315.164 274.106C314.639 275.156 313.941 275.925 313.074 276.472L315.207 279.856ZM318.728 275.922C319.597 274.248 320.008 272.389 320.008 270.391H316.008C316.008 271.83 315.716 273.043 315.178 274.078L318.728 275.922ZM320.008 270.391C320.008 268.434 319.593 266.609 318.721 264.963L315.186 266.834C315.72 267.844 316.008 269.014 316.008 270.391H320.008ZM318.735 264.99C317.903 263.359 316.726 262.039 315.207 261.082L313.074 264.465C313.951 265.018 314.649 265.782 315.171 266.807L318.735 264.99ZM315.207 261.082C313.668 260.112 311.94 259.641 310.078 259.641V263.641C311.237 263.641 312.217 263.925 313.074 264.465L315.207 261.082ZM310.078 259.641C308.198 259.641 306.454 260.108 304.91 261.082L307.043 264.465C307.895 263.928 308.886 263.641 310.078 263.641V259.641ZM304.91 261.082C303.398 262.035 302.214 263.345 301.357 264.963L304.893 266.834C305.443 265.795 306.159 265.023 307.043 264.465L304.91 261.082ZM301.343 264.99C300.506 266.631 300.109 268.446 300.109 270.391H304.109C304.109 269.002 304.389 267.822 304.907 266.807L301.343 264.99ZM300.109 270.391C300.109 272.378 300.502 274.227 301.336 275.894L304.914 274.106C304.393 273.065 304.109 271.841 304.109 270.391H300.109ZM301.35 275.922C302.204 277.566 303.389 278.897 304.91 279.856L307.043 276.472C306.169 275.921 305.453 275.143 304.9 274.078L301.35 275.922ZM304.91 279.856C306.454 280.83 308.198 281.297 310.078 281.297V277.297C308.886 277.297 307.895 277.009 307.043 276.472L304.91 279.856ZM365.711 290V292H367.711V290H365.711ZM352.898 290H350.898V292H352.898V290ZM352.898 262.383H354.898V260.383H352.898V262.383ZM346.062 262.383H344.062V264.383H346.062V262.383ZM346.062 250.938V248.938H344.062V250.938H346.062ZM352.898 250.938V252.938H354.898V250.938H352.898ZM355.047 237.695L353.346 236.644L355.047 237.695ZM360.906 232.227L359.968 230.46L359.96 230.464L360.906 232.227ZM375.594 231.133L375.047 233.057L375.058 233.06L375.07 233.063L375.594 231.133ZM381.805 233.867L383.602 234.745L384.398 233.115L382.853 232.164L381.805 233.867ZM376.961 243.789L375.671 245.318L377.632 246.972L378.758 244.666L376.961 243.789ZM374.305 242.227L373.562 244.084L373.593 244.096L373.625 244.108L374.305 242.227ZM365.711 250.938H363.711V252.938H365.711V250.938ZM377.234 250.938H379.234V248.938H377.234V250.938ZM377.234 262.383V264.383H379.234V262.383H377.234ZM365.711 262.383V260.383H363.711V262.383H365.711ZM365.711 288H352.898V292H365.711V288ZM354.898 290V262.383H350.898V290H354.898ZM352.898 260.383H346.062V264.383H352.898V260.383ZM348.062 262.383V250.938H344.062V262.383H348.062ZM346.062 252.938H352.898V248.938H346.062V252.938ZM354.898 250.938V245.625H350.898V250.938H354.898ZM354.898 245.625C354.898 242.993 355.529 240.72 356.748 238.747L353.346 236.644C351.701 239.306 350.898 242.319 350.898 245.625H354.898ZM356.748 238.747C357.99 236.738 359.678 235.156 361.852 233.989L359.96 230.464C357.186 231.954 354.969 234.018 353.346 236.644L356.748 238.747ZM361.845 233.993C364.022 232.836 366.531 232.234 369.422 232.234V228.234C365.958 228.234 362.791 228.961 359.968 230.46L361.845 233.993ZM369.422 232.234C371.226 232.234 373.099 232.504 375.047 233.057L376.14 229.209C373.869 228.564 371.628 228.234 369.422 228.234V232.234ZM375.07 233.063C376.978 233.581 378.873 234.412 380.756 235.571L382.853 232.164C380.673 230.823 378.428 229.83 376.118 229.203L375.07 233.063ZM380.007 232.99L375.164 242.912L378.758 244.666L383.602 234.745L380.007 232.99ZM378.251 242.26C377.253 241.419 376.164 240.772 374.984 240.345L373.625 244.108C374.32 244.359 375.002 244.753 375.671 245.318L378.251 242.26ZM375.047 240.37C373.918 239.918 372.755 239.68 371.57 239.68V243.68C372.208 243.68 372.868 243.806 373.562 244.084L375.047 240.37ZM371.57 239.68C369.438 239.68 367.555 240.441 366.032 241.929L368.828 244.79C369.596 244.038 370.474 243.68 371.57 243.68V239.68ZM366.032 241.929C364.399 243.524 363.711 245.69 363.711 248.125H367.711C367.711 246.445 368.168 245.434 368.828 244.79L366.032 241.929ZM363.711 248.125V250.938H367.711V248.125H363.711ZM365.711 252.938H377.234V248.938H365.711V252.938ZM375.234 250.938V262.383H379.234V250.938H375.234ZM377.234 260.383H365.711V264.383H377.234V260.383ZM363.711 262.383V290H367.711V262.383H363.711ZM426.578 288.945L427.308 290.808L428.789 290.227L428.557 288.653L426.578 288.945ZM409.234 288.828L408.257 290.573L408.268 290.579L408.279 290.585L409.234 288.828ZM403.688 283.359L401.947 284.345L401.952 284.354L403.688 283.359ZM401.695 262.383H403.695V260.383H401.695V262.383ZM394.859 262.383H392.859V264.383H394.859V262.383ZM394.859 250.938V248.938H392.859V250.938H394.859ZM402.398 250.938V252.938H404.398V250.938H402.398ZM402.398 241.172V239.172H400.398V241.172H402.398ZM414.508 241.172H416.508V239.172H414.508V241.172ZM414.508 250.938H412.508V252.938H414.508V250.938ZM425.055 250.938H427.055V248.938H425.055V250.938ZM425.055 262.383V264.383H427.055V262.383H425.055ZM414.508 262.383V260.383H412.508V262.383H414.508ZM424.938 277.852L426.916 277.559L426.454 274.437L423.828 276.187L424.938 277.852ZM425.849 287.083C422.924 288.229 420.137 288.781 417.477 288.781V292.781C420.701 292.781 423.982 292.11 427.308 290.808L425.849 287.083ZM417.477 288.781C414.665 288.781 412.254 288.193 410.189 287.071L408.279 290.585C411.006 292.067 414.09 292.781 417.477 292.781V288.781ZM410.212 287.083C408.152 285.929 406.568 284.363 405.423 282.365L401.952 284.354C403.463 286.991 405.577 289.071 408.257 290.573L410.212 287.083ZM405.428 282.373C404.294 280.373 403.695 278.001 403.695 275.195H399.695C399.695 278.587 400.425 281.658 401.947 284.345L405.428 282.373ZM403.695 275.195V262.383H399.695V275.195H403.695ZM401.695 260.383H394.859V264.383H401.695V260.383ZM396.859 262.383V250.938H392.859V262.383H396.859ZM394.859 252.938H402.398V248.938H394.859V252.938ZM404.398 250.938V241.172H400.398V250.938H404.398ZM402.398 243.172H414.508V239.172H402.398V243.172ZM412.508 241.172V250.938H416.508V241.172H412.508ZM414.508 252.938H425.055V248.938H414.508V252.938ZM423.055 250.938V262.383H427.055V250.938H423.055ZM425.055 260.383H414.508V264.383H425.055V260.383ZM412.508 262.383V272.891H416.508V262.383H412.508ZM412.508 272.891C412.508 275.326 413.196 277.491 414.829 279.087L417.624 276.226C416.965 275.582 416.508 274.57 416.508 272.891H412.508ZM414.829 279.087C416.351 280.575 418.235 281.336 420.367 281.336V277.336C419.271 277.336 418.393 276.977 417.624 276.226L414.829 279.087ZM420.367 281.336C422.379 281.336 424.282 280.692 426.047 279.516L423.828 276.187C422.624 276.99 421.481 277.336 420.367 277.336V281.336ZM422.959 278.144L424.6 289.238L428.557 288.653L426.916 277.559L422.959 278.144ZM492.25 290V292H493.704L494.153 290.616L492.25 290ZM477.641 290L475.697 290.472L476.068 292H477.641V290ZM472.25 267.812L474.193 267.34H470.307L472.25 267.812ZM466.859 290V292H468.432L468.803 290.472L466.859 290ZM452.25 290L450.347 290.616L450.796 292H452.25V290ZM439.594 250.938V248.938H436.843L437.691 251.554L439.594 250.938ZM453.148 250.938L455.093 250.471L454.726 248.938H453.148V250.938ZM459.359 276.836L457.415 277.302L459.198 284.738L461.284 277.382L459.359 276.836ZM466.703 250.938V248.938H465.191L464.779 250.392L466.703 250.938ZM477.797 250.938L479.722 250.394L479.31 248.938H477.797V250.938ZM485.141 276.953L483.216 277.496L485.302 284.888L487.086 277.418L485.141 276.953ZM491.352 250.938V248.938H489.773L489.406 250.473L491.352 250.938ZM504.906 250.938L506.809 251.554L507.657 248.938H504.906V250.938ZM492.25 288H477.641V292H492.25V288ZM479.584 289.528L474.193 267.34L470.307 268.285L475.697 290.472L479.584 289.528ZM470.307 267.34L464.916 289.528L468.803 290.472L474.193 268.285L470.307 267.34ZM466.859 288H452.25V292H466.859V288ZM454.153 289.384L441.496 250.321L437.691 251.554L450.347 290.616L454.153 289.384ZM439.594 252.938H453.148V248.938H439.594V252.938ZM451.204 251.404L457.415 277.302L461.304 276.37L455.093 250.471L451.204 251.404ZM461.284 277.382L468.627 251.483L464.779 250.392L457.435 276.29L461.284 277.382ZM466.703 252.938H477.797V248.938H466.703V252.938ZM475.872 251.481L483.216 277.496L487.065 276.41L479.722 250.394L475.872 251.481ZM487.086 277.418L493.297 251.402L489.406 250.473L483.195 276.489L487.086 277.418ZM491.352 252.938H504.906V248.938H491.352V252.938ZM503.004 250.321L490.347 289.384L494.153 290.616L506.809 251.554L503.004 250.321ZM556.398 290V292H558.398V290H556.398ZM545.188 290L543.209 290.295L543.464 292H545.188V290ZM544.523 285.547L546.502 285.252L545.857 280.927L543.007 284.243L544.523 285.547ZM520.266 284.922L518.587 286.009L518.596 286.023L518.605 286.037L520.266 284.922ZM520.422 272.109L518.79 270.953L518.784 270.961L518.779 270.969L520.422 272.109ZM538.82 266.641L538.386 268.593L538.393 268.594L538.82 266.641ZM543.586 268.164L542.794 270.001L545.586 271.204V268.164H543.586ZM538.938 261.367L538.166 263.212L538.18 263.218L538.195 263.224L538.938 261.367ZM528.82 261.328L529.435 263.231L529.448 263.227L529.462 263.223L528.82 261.328ZM524.172 263.711L522.285 264.373L523.183 266.932L525.362 265.318L524.172 263.711ZM520.812 254.141L519.945 252.338L518.333 253.114L518.925 254.803L520.812 254.141ZM529.055 251.172L529.518 253.118L529.531 253.114L529.055 251.172ZM547.258 252.461L546.319 254.227L546.326 254.23L547.258 252.461ZM554.016 258.984L552.274 259.968L552.278 259.975L554.016 258.984ZM539.211 280.352L540.059 282.163L540.067 282.159L540.075 282.155L539.211 280.352ZM542.258 278.008L540.725 276.723L540.714 276.736L540.704 276.748L542.258 278.008ZM543.508 274.922L545.507 274.969L545.508 274.946V274.922H543.508ZM543.508 274.766H545.508V273.68L544.598 273.089L543.508 274.766ZM540.031 273.242L539.482 275.165L539.5 275.17L539.518 275.175L540.031 273.242ZM531.633 273.867L532.733 275.537L532.747 275.528L532.759 275.52L531.633 273.867ZM530.617 279.141L528.973 280.279L528.983 280.294L528.994 280.309L530.617 279.141ZM556.398 288H545.188V292H556.398V288ZM547.166 289.705L546.502 285.252L542.545 285.842L543.209 290.295L547.166 289.705ZM543.007 284.243C541.773 285.679 540.271 286.791 538.479 287.585L540.099 291.243C542.421 290.214 544.41 288.748 546.04 286.85L543.007 284.243ZM538.479 287.585C536.701 288.373 534.715 288.781 532.492 288.781V292.781C535.217 292.781 537.762 292.278 540.099 291.243L538.479 287.585ZM532.492 288.781C530.044 288.781 527.946 288.312 526.151 287.425L524.38 291.012C526.804 292.209 529.523 292.781 532.492 292.781V288.781ZM526.151 287.425C524.332 286.527 522.941 285.319 521.926 283.807L518.605 286.037C520.038 288.17 521.981 289.827 524.38 291.012L526.151 287.425ZM521.944 283.834C520.97 282.33 520.469 280.616 520.469 278.633H516.469C516.469 281.337 517.166 283.816 518.587 286.009L521.944 283.834ZM520.469 278.633C520.469 276.531 521.015 274.762 522.065 273.25L518.779 270.969C517.225 273.207 516.469 275.787 516.469 278.633H520.469ZM522.054 273.265C523.158 271.707 524.692 270.449 526.727 269.512L525.054 265.879C522.454 267.077 520.342 268.762 518.79 270.953L522.054 273.265ZM526.727 269.512C528.743 268.583 531.094 268.094 533.82 268.094V264.094C530.61 264.094 527.673 264.672 525.054 265.879L526.727 269.512ZM533.82 268.094C535.368 268.094 536.889 268.26 538.386 268.593L539.254 264.688C537.47 264.292 535.658 264.094 533.82 264.094V268.094ZM538.393 268.594C539.939 268.933 541.406 269.402 542.794 270.001L544.378 266.327C542.745 265.624 541.035 265.078 539.248 264.687L538.393 268.594ZM545.586 268.164V267.344H541.586V268.164H545.586ZM545.586 267.344C545.586 265.526 545.025 263.874 543.882 262.481L540.79 265.019C541.314 265.658 541.586 266.401 541.586 267.344H545.586ZM543.882 262.481C542.8 261.163 541.371 260.186 539.68 259.51L538.195 263.224C539.369 263.694 540.205 264.306 540.79 265.019L543.882 262.481ZM539.709 259.522C537.994 258.805 536.097 258.469 534.055 258.469V262.469C535.658 262.469 537.017 262.732 538.166 263.212L539.709 259.522ZM534.055 258.469C532.041 258.469 530.08 258.79 528.179 259.434L529.462 263.223C530.947 262.72 532.475 262.469 534.055 262.469V258.469ZM528.205 259.425C526.31 260.038 524.565 260.931 522.981 262.104L525.362 265.318C526.591 264.408 527.946 263.712 529.435 263.231L528.205 259.425ZM526.059 263.049L522.7 253.478L518.925 254.803L522.285 264.373L526.059 263.049ZM521.68 255.943C524.322 254.671 526.935 253.733 529.518 253.117L528.591 249.226C525.706 249.913 522.823 250.954 519.945 252.338L521.68 255.943ZM529.531 253.114C532.153 252.471 534.649 252.156 537.023 252.156V248.156C534.294 248.156 531.477 248.518 528.578 249.229L529.531 253.114ZM537.023 252.156C540.694 252.156 543.77 252.872 546.319 254.227L548.197 250.695C544.964 248.977 541.218 248.156 537.023 248.156V252.156ZM546.326 254.23C548.91 255.592 550.878 257.497 552.274 259.968L555.757 258.001C553.976 254.847 551.439 252.403 548.19 250.691L546.326 254.23ZM552.278 259.975C553.664 262.406 554.398 265.358 554.398 268.906H558.398C558.398 264.798 557.544 261.136 555.753 257.994L552.278 259.975ZM554.398 268.906V290H558.398V268.906H554.398ZM535.383 283.211C537.009 283.211 538.574 282.858 540.059 282.163L538.363 278.54C537.4 278.991 536.413 279.211 535.383 279.211V283.211ZM540.075 282.155C541.561 281.443 542.823 280.487 543.811 279.267L540.704 276.748C540.131 277.456 539.361 278.062 538.347 278.548L540.075 282.155ZM543.791 279.292C544.844 278.036 545.469 276.583 545.507 274.969L541.508 274.874C541.495 275.449 541.286 276.053 540.725 276.723L543.791 279.292ZM545.508 274.922V274.766H541.508V274.922H545.508ZM544.598 273.089C543.368 272.289 542.012 271.699 540.544 271.309L539.518 275.175C540.603 275.463 541.565 275.888 542.418 276.443L544.598 273.089ZM540.581 271.319C539.133 270.906 537.672 270.695 536.203 270.695V274.695C537.286 274.695 538.377 274.85 539.482 275.165L540.581 271.319ZM536.203 270.695C534.045 270.695 532.086 271.137 530.506 272.215L532.759 275.52C533.471 275.035 534.559 274.695 536.203 274.695V270.695ZM530.532 272.197C528.875 273.289 527.914 274.907 527.914 276.914H531.914C531.914 276.369 532.099 275.955 532.733 275.537L530.532 272.197ZM527.914 276.914C527.914 278.137 528.277 279.275 528.973 280.279L532.262 278.002C532.019 277.652 531.914 277.306 531.914 276.914H527.914ZM528.994 280.309C529.699 281.288 530.652 282.008 531.769 282.496L533.372 278.832C532.822 278.591 532.473 278.295 532.24 277.972L528.994 280.309ZM531.769 282.496C532.889 282.986 534.105 283.211 535.383 283.211V279.211C534.577 279.211 533.918 279.071 533.372 278.832L531.769 282.496ZM589.141 290V292H591.141V290H589.141ZM576.328 290H574.328V292H576.328V290ZM576.328 250.938V248.938H574.328V250.938H576.328ZM587.461 250.938L589.457 250.804L589.332 248.938H587.461V250.938ZM587.891 257.383L585.895 257.516L586.338 264.164L589.63 258.371L587.891 257.383ZM593.086 252.07L594.087 253.802L594.095 253.797L594.103 253.793L593.086 252.07ZM603.125 250.352L602.834 252.33L602.842 252.331L603.125 250.352ZM605.859 250.938L607.841 251.206L608.074 249.49L606.409 249.014L605.859 250.938ZM604.297 262.461L603.697 264.369L605.96 265.08L606.279 262.73L604.297 262.461ZM590.352 266.641L588.58 265.712L588.574 265.723L588.569 265.735L590.352 266.641ZM589.141 288H576.328V292H589.141V288ZM578.328 290V250.938H574.328V290H578.328ZM576.328 252.938H587.461V248.938H576.328V252.938ZM585.465 251.071L585.895 257.516L589.886 257.25L589.457 250.804L585.465 251.071ZM589.63 258.371C590.766 256.37 592.251 254.864 594.087 253.802L592.085 250.339C589.598 251.777 587.619 253.812 586.152 256.395L589.63 258.371ZM594.103 253.793C595.923 252.718 598.039 252.156 600.508 252.156V248.156C597.404 248.156 594.572 248.871 592.069 250.348L594.103 253.793ZM600.508 252.156C601.266 252.156 602.041 252.214 602.834 252.33L603.416 248.373C602.438 248.229 601.468 248.156 600.508 248.156V252.156ZM602.842 252.331C603.661 252.448 604.483 252.624 605.31 252.861L606.409 249.014C605.412 248.73 604.412 248.515 603.408 248.372L602.842 252.331ZM603.878 250.669L602.315 262.192L606.279 262.73L607.841 251.206L603.878 250.669ZM604.897 260.553C602.918 259.931 601.008 259.602 599.18 259.602V263.602C600.528 263.602 602.03 263.845 603.697 264.369L604.897 260.553ZM599.18 259.602C596.851 259.602 594.719 260.112 592.856 261.204L594.879 264.655C596.036 263.977 597.446 263.602 599.18 263.602V259.602ZM592.856 261.204C591.014 262.284 589.583 263.8 588.58 265.712L592.123 267.57C592.787 266.304 593.699 265.346 594.879 264.655L592.856 261.204ZM588.569 265.735C587.591 267.657 587.141 269.856 587.141 272.266H591.141C591.141 270.353 591.497 268.801 592.135 267.547L588.569 265.735ZM587.141 272.266V290H591.141V272.266H587.141ZM659.031 285.742L660.167 287.388L661.485 286.479L660.886 284.994L659.031 285.742ZM631.453 288.047L630.506 289.808L630.514 289.813L630.522 289.817L631.453 288.047ZM623.289 280.547L621.598 281.614L621.602 281.621L623.289 280.547ZM622.977 259.766L624.684 260.808L624.688 260.801L622.977 259.766ZM630.32 252.734L629.356 250.982L629.35 250.985L630.32 252.734ZM658.914 260.938L657.131 261.843L657.135 261.851L657.139 261.859L658.914 260.938ZM661.531 273.906V275.906H663.531V273.906H661.531ZM634.031 273.906V271.906H631.166L632.154 274.596L634.031 273.906ZM636.141 277.305L634.689 278.68L634.698 278.69L634.708 278.7L636.141 277.305ZM639.734 279.688L638.963 281.533L638.977 281.539L638.992 281.544L639.734 279.688ZM655.438 276.836L657.292 276.088L656.327 273.697L654.252 275.226L655.438 276.836ZM633.484 268.125L631.506 267.832L631.166 270.125H633.484V268.125ZM649.734 268.125V270.125H651.96L651.723 267.912L649.734 268.125ZM645.516 261.641L644.574 263.405L644.582 263.41L644.59 263.414L645.516 261.641ZM637.625 261.719L638.63 263.448L638.636 263.444L638.642 263.441L637.625 261.719ZM634.852 264.375L633.176 263.284L633.169 263.293L634.852 264.375ZM657.896 284.096C653.348 287.233 648.442 288.781 643.133 288.781V292.781C649.282 292.781 654.975 290.97 660.167 287.388L657.896 284.096ZM643.133 288.781C639.1 288.781 635.532 287.933 632.385 286.277L630.522 289.817C634.301 291.806 638.52 292.781 643.133 292.781V288.781ZM632.401 286.286C629.25 284.591 626.789 282.322 624.976 279.473L621.602 281.621C623.799 285.074 626.781 287.805 630.506 289.808L632.401 286.286ZM624.98 279.479C623.188 276.639 622.281 273.445 622.281 269.844H618.281C618.281 274.159 619.38 278.1 621.598 281.614L624.98 279.479ZM622.281 269.844C622.281 266.399 623.096 263.407 624.683 260.808L621.27 258.723C619.263 262.009 618.281 265.736 618.281 269.844H622.281ZM624.688 260.801C626.3 258.137 628.49 256.037 631.29 254.483L629.35 250.985C625.953 252.87 623.247 255.456 621.266 258.73L624.688 260.801ZM631.284 254.487C634.084 252.947 637.276 252.156 640.906 252.156V248.156C636.672 248.156 632.806 249.085 629.356 250.982L631.284 254.487ZM640.906 252.156C644.673 252.156 647.895 253.028 650.642 254.713L652.733 251.303C649.282 249.186 645.317 248.156 640.906 248.156V252.156ZM650.642 254.713C653.411 256.412 655.571 258.772 657.131 261.843L660.697 260.032C658.819 256.333 656.162 253.406 652.733 251.303L650.642 254.713ZM657.139 261.859C658.712 264.888 659.531 268.467 659.531 272.656H663.531C663.531 267.939 662.606 263.706 660.689 260.016L657.139 261.859ZM659.531 272.656V273.906H663.531V272.656H659.531ZM661.531 271.906H634.031V275.906H661.531V271.906ZM632.154 274.596C632.717 276.128 633.565 277.494 634.689 278.68L637.593 275.929C636.841 275.136 636.283 274.237 635.909 273.217L632.154 274.596ZM634.708 278.7C635.881 279.905 637.313 280.843 638.963 281.533L640.506 277.842C639.291 277.334 638.327 276.684 637.574 275.909L634.708 278.7ZM638.992 281.544C640.702 282.229 642.602 282.547 644.656 282.547V278.547C643.012 278.547 641.631 278.292 640.477 277.831L638.992 281.544ZM644.656 282.547C648.95 282.547 652.953 281.149 656.623 278.446L654.252 275.226C651.203 277.47 648.019 278.547 644.656 278.547V282.547ZM653.583 277.584L657.177 286.491L660.886 284.994L657.292 276.088L653.583 277.584ZM633.484 270.125H649.734V266.125H633.484V270.125ZM651.723 267.912C651.537 266.171 651 264.575 650.082 263.166L646.73 265.349C647.271 266.18 647.62 267.162 647.746 268.338L651.723 267.912ZM650.082 263.166C649.163 261.755 647.94 260.65 646.441 259.867L644.59 263.414C645.487 263.882 646.191 264.521 646.73 265.349L650.082 263.166ZM646.457 259.876C644.968 259.082 643.324 258.703 641.57 258.703V262.703C642.733 262.703 643.72 262.95 644.574 263.405L646.457 259.876ZM641.57 258.703C639.77 258.703 638.096 259.117 636.608 259.997L638.642 263.441C639.446 262.966 640.402 262.703 641.57 262.703V258.703ZM636.62 259.99C635.221 260.803 634.07 261.91 633.176 263.284L636.528 265.466C637.092 264.6 637.79 263.937 638.63 263.448L636.62 259.99ZM633.169 263.293C632.299 264.648 631.752 266.171 631.506 267.832L635.463 268.418C635.633 267.266 635.998 266.29 636.534 265.457L633.169 263.293Z" fill="#2F2E41"/>
<defs>
<radialGradient id="paint0_diamond_203_73" cx="0" cy="0" r="1" gradientUnits="userSpaceOnUse" gradientTransform="translate(430.545 275.268) rotate(90) scale(270 430)">
<stop stop-color="#0B0A1F"/>
<stop offset="1" stop-color="white"/>
</radialGradient>
</defs>
</svg>
