<svg width="864" height="546" viewBox="0 0 864 546" fill="none" xmlns="http://www.w3.org/2000/svg">
<rect x="0.544922" y="5.26846" width="860" height="540" rx="10" transform="rotate(-0.310028 0.544922 5.26846)" fill="url(#paint0_diamond_203_73)"/>
<path d="M164.717 284.782C161.641 287.771 157.993 290.114 153.774 291.813C149.556 293.483 144.956 294.318 139.976 294.318C134.966 294.318 130.337 293.469 126.089 291.77C121.841 290.041 118.149 287.639 115.015 284.562C111.88 281.457 109.448 277.824 107.72 273.664C105.991 269.504 105.127 264.963 105.127 260.041C105.127 255.119 105.991 250.578 107.72 246.418C109.448 242.258 111.88 238.64 115.015 235.563C118.149 232.458 121.841 230.056 126.089 228.356C130.337 226.628 134.966 225.764 139.976 225.764C144.927 225.764 149.497 226.613 153.687 228.312C157.876 229.982 161.523 232.326 164.629 235.344L153.818 246.198C152.148 244.03 150.098 242.331 147.666 241.101C145.234 239.87 142.583 239.255 139.712 239.255C137.046 239.255 134.57 239.782 132.285 240.837C130 241.892 128.008 243.356 126.309 245.231C124.609 247.106 123.291 249.304 122.354 251.823C121.416 254.343 120.947 257.067 120.947 259.997C120.947 262.985 121.416 265.739 122.354 268.259C123.291 270.749 124.609 272.946 126.309 274.851C128.008 276.726 130 278.19 132.285 279.245C134.57 280.3 137.046 280.827 139.712 280.827C142.583 280.827 145.22 280.212 147.622 278.981C150.054 277.751 152.119 276.052 153.818 273.884L164.717 284.782ZM206.605 293.879C202.006 293.879 197.904 292.897 194.301 290.935C190.727 288.942 187.914 286.232 185.863 282.805C183.812 279.348 182.787 275.422 182.787 271.027C182.787 266.633 183.812 262.722 185.863 259.294C187.914 255.837 190.727 253.127 194.301 251.164C197.904 249.172 202.006 248.176 206.605 248.176C211.146 248.176 215.189 249.172 218.734 251.164C222.309 253.127 225.106 255.837 227.128 259.294C229.179 262.722 230.204 266.633 230.204 271.027C230.204 275.422 229.179 279.348 227.128 282.805C225.106 286.232 222.309 288.942 218.734 290.935C215.189 292.897 211.146 293.879 206.605 293.879ZM206.518 280.959C208.217 280.959 209.74 280.534 211.088 279.685C212.436 278.835 213.49 277.648 214.252 276.125C215.043 274.602 215.438 272.873 215.438 270.939C215.438 269.064 215.043 267.38 214.252 265.886C213.49 264.392 212.436 263.22 211.088 262.37C209.74 261.521 208.217 261.096 206.518 261.096C204.789 261.096 203.251 261.521 201.903 262.37C200.556 263.22 199.486 264.392 198.695 265.886C197.934 267.38 197.553 269.064 197.553 270.939C197.553 272.873 197.934 274.602 198.695 276.125C199.486 277.648 200.556 278.835 201.903 279.685C203.251 280.534 204.789 280.959 206.518 280.959ZM323.201 293H308.787V271.379C308.787 268.098 308.172 265.563 306.941 263.776C305.711 261.96 303.953 261.052 301.668 261.052C299.354 261.052 297.552 261.96 296.263 263.776C294.974 265.593 294.329 268.127 294.329 271.379V293H279.915V271.379C279.915 268.098 279.3 265.563 278.069 263.776C276.839 261.96 275.081 261.052 272.796 261.052C270.481 261.052 268.68 261.96 267.391 263.776C266.102 265.593 265.457 268.127 265.457 271.379V293H251.043V249.055H262.469L262.952 256.13C264.446 253.522 266.409 251.545 268.841 250.197C271.302 248.85 274.158 248.176 277.41 248.176C280.721 248.176 283.592 248.864 286.023 250.241C288.484 251.589 290.403 253.537 291.78 256.086C293.274 253.508 295.237 251.545 297.669 250.197C300.101 248.85 302.957 248.176 306.238 248.176C311.57 248.176 315.73 249.875 318.719 253.273C321.707 256.672 323.201 261.403 323.201 267.468V293ZM360.036 314.973H345.578V249.055H358.234L358.938 254.899C360.754 252.79 362.937 251.149 365.485 249.978C368.034 248.776 370.803 248.176 373.791 248.176C377.717 248.176 381.203 249.172 384.25 251.164C387.297 253.127 389.699 255.837 391.457 259.294C393.215 262.722 394.094 266.633 394.094 271.027C394.094 275.422 393.215 279.348 391.457 282.805C389.699 286.232 387.297 288.942 384.25 290.935C381.203 292.897 377.717 293.879 373.791 293.879C371.066 293.879 368.532 293.396 366.188 292.429C363.874 291.433 361.823 290.056 360.036 288.298V314.973ZM369.704 280.959C371.579 280.959 373.234 280.534 374.67 279.685C376.135 278.835 377.263 277.663 378.054 276.169C378.874 274.646 379.284 272.932 379.284 271.027C379.284 269.094 378.874 267.38 378.054 265.886C377.233 264.392 376.105 263.22 374.67 262.37C373.234 261.491 371.579 261.052 369.704 261.052C367.946 261.052 366.35 261.447 364.914 262.238C363.508 263 362.38 264.069 361.53 265.446C360.681 266.794 360.183 268.361 360.036 270.148V272.038C360.183 273.767 360.681 275.305 361.53 276.652C362.38 278 363.508 279.055 364.914 279.816C366.35 280.578 367.946 280.959 369.704 280.959ZM456.021 288.21C450.543 291.989 444.581 293.879 438.136 293.879C433.272 293.879 428.893 292.854 424.996 290.803C421.129 288.723 418.067 285.91 415.812 282.365C413.556 278.791 412.428 274.777 412.428 270.324C412.428 266.076 413.438 262.297 415.46 258.986C417.481 255.646 420.235 253.01 423.722 251.076C427.237 249.143 431.207 248.176 435.631 248.176C440.23 248.176 444.273 249.245 447.76 251.384C451.246 253.522 453.956 256.496 455.89 260.305C457.853 264.084 458.834 268.479 458.834 273.488V274.895H427.896C428.424 276.33 429.215 277.604 430.27 278.718C431.354 279.831 432.701 280.725 434.312 281.398C435.924 282.043 437.77 282.365 439.85 282.365C444.156 282.365 448.199 280.974 451.979 278.19L456.021 288.21ZM427.281 268.391H445.562C445.387 266.75 444.889 265.3 444.068 264.04C443.248 262.78 442.164 261.799 440.816 261.096C439.498 260.393 438.019 260.041 436.378 260.041C434.708 260.041 433.229 260.422 431.939 261.184C430.68 261.916 429.64 262.912 428.819 264.172C428.028 265.402 427.516 266.809 427.281 268.391ZM510.742 291.813C507.227 293.19 503.813 293.879 500.503 293.879C497.017 293.879 493.926 293.146 491.23 291.682C488.564 290.188 486.484 288.137 484.99 285.529C483.496 282.893 482.749 279.831 482.749 276.345V261.931H475.059V249.055H483.54V238.068H497.163V249.055H509.028V261.931H497.163V273.752C497.163 276.066 497.808 277.854 499.097 279.113C500.386 280.373 501.938 281.003 503.755 281.003C505.513 281.003 507.227 280.446 508.896 279.333L510.742 291.813ZM536.635 239.65C534.818 239.65 533.28 239.021 532.021 237.761C530.79 236.472 530.175 234.919 530.175 233.103C530.175 231.315 530.79 229.792 532.021 228.532C533.28 227.243 534.818 226.599 536.635 226.599C538.48 226.599 540.033 227.243 541.293 228.532C542.553 229.792 543.183 231.315 543.183 233.103C543.183 234.919 542.553 236.472 541.293 237.761C540.033 239.021 538.48 239.65 536.635 239.65ZM543.886 293H529.472V249.055H543.886V293ZM599.617 291.813C596.102 293.19 592.688 293.879 589.378 293.879C585.892 293.879 582.801 293.146 580.105 291.682C577.439 290.188 575.359 288.137 573.865 285.529C572.371 282.893 571.624 279.831 571.624 276.345V261.931H563.934V249.055H572.415V238.068H586.038V249.055H597.903V261.931H586.038V273.752C586.038 276.066 586.683 277.854 587.972 279.113C589.261 280.373 590.813 281.003 592.63 281.003C594.388 281.003 596.102 280.446 597.771 279.333L599.617 291.813ZM625.51 239.65C623.693 239.65 622.155 239.021 620.896 237.761C619.665 236.472 619.05 234.919 619.05 233.103C619.05 231.315 619.665 229.792 620.896 228.532C622.155 227.243 623.693 226.599 625.51 226.599C627.355 226.599 628.908 227.243 630.168 228.532C631.428 229.792 632.058 231.315 632.058 233.103C632.058 234.919 631.428 236.472 630.168 237.761C628.908 239.021 627.355 239.65 625.51 239.65ZM632.761 293H618.347V249.055H632.761V293ZM677.418 293.879C672.818 293.879 668.717 292.897 665.113 290.935C661.539 288.942 658.727 286.232 656.676 282.805C654.625 279.348 653.6 275.422 653.6 271.027C653.6 266.633 654.625 262.722 656.676 259.294C658.727 255.837 661.539 253.127 665.113 251.164C668.717 249.172 672.818 248.176 677.418 248.176C681.959 248.176 686.002 249.172 689.547 251.164C693.121 253.127 695.919 255.837 697.94 259.294C699.991 262.722 701.017 266.633 701.017 271.027C701.017 275.422 699.991 279.348 697.94 282.805C695.919 286.232 693.121 288.942 689.547 290.935C686.002 292.897 681.959 293.879 677.418 293.879ZM677.33 280.959C679.029 280.959 680.553 280.534 681.9 279.685C683.248 278.835 684.303 277.648 685.064 276.125C685.855 274.602 686.251 272.873 686.251 270.939C686.251 269.064 685.855 267.38 685.064 265.886C684.303 264.392 683.248 263.22 681.9 262.37C680.553 261.521 679.029 261.096 677.33 261.096C675.602 261.096 674.063 261.521 672.716 262.37C671.368 263.22 670.299 264.392 669.508 265.886C668.746 267.38 668.365 269.064 668.365 270.939C668.365 272.873 668.746 274.602 669.508 276.125C670.299 277.648 671.368 278.835 672.716 279.685C674.063 280.534 675.602 280.959 677.33 280.959ZM766.592 293H752.178V271.159C752.178 267.966 751.489 265.49 750.112 263.732C748.735 261.975 746.831 261.096 744.399 261.096C741.88 261.096 739.888 262.004 738.423 263.82C736.987 265.637 736.27 268.142 736.27 271.335V293H721.855V249.055H733.369L733.853 256.086C735.405 253.508 737.441 251.545 739.961 250.197C742.51 248.85 745.498 248.176 748.926 248.176C754.434 248.176 758.755 249.89 761.89 253.317C765.024 256.716 766.592 261.433 766.592 267.468V293ZM785.893 289.265L788.925 277.224C789.774 278.161 790.961 279.055 792.484 279.904C794.008 280.754 795.648 281.442 797.406 281.97C799.193 282.468 800.863 282.717 802.416 282.717C803.91 282.717 805.067 282.453 805.888 281.926C806.708 281.398 807.118 280.695 807.118 279.816C807.118 278.996 806.796 278.308 806.151 277.751C805.507 277.165 804.657 276.638 803.603 276.169C802.548 275.7 801.347 275.231 799.999 274.763C798.124 274.06 796.161 273.225 794.11 272.258C792.06 271.262 790.331 269.929 788.925 268.259C787.548 266.56 786.859 264.304 786.859 261.491C786.859 258.767 787.562 256.408 788.969 254.416C790.404 252.424 792.426 250.886 795.033 249.802C797.641 248.718 800.702 248.176 804.218 248.176C809.989 248.176 815.775 249.626 821.576 252.526L817.533 263.688C816.596 262.927 815.395 262.209 813.93 261.535C812.465 260.832 810.956 260.275 809.403 259.865C807.88 259.426 806.532 259.206 805.36 259.206C804.159 259.206 803.236 259.44 802.592 259.909C801.947 260.378 801.625 261.008 801.625 261.799C801.625 262.502 801.903 263.132 802.46 263.688C803.017 264.216 803.822 264.714 804.877 265.183C805.932 265.651 807.147 266.149 808.524 266.677C810.517 267.38 812.538 268.229 814.589 269.226C816.64 270.222 818.368 271.569 819.774 273.269C821.21 274.968 821.928 277.238 821.928 280.08C821.928 282.863 821.166 285.295 819.643 287.375C818.119 289.426 815.966 291.022 813.183 292.165C810.429 293.308 807.177 293.879 803.427 293.879C797.157 293.879 791.312 292.341 785.893 289.265Z" fill="white"/>
<path d="M164.717 284.782L166.11 286.217L167.566 284.803L166.131 283.368L164.717 284.782ZM153.774 291.813L154.511 293.673L154.522 293.669L153.774 291.813ZM126.089 291.77L125.335 293.622L125.346 293.626L126.089 291.77ZM115.015 284.562L113.607 285.983L113.614 285.99L115.015 284.562ZM115.015 235.563L116.415 236.991L116.422 236.984L115.015 235.563ZM126.089 228.356L126.832 230.213L126.843 230.209L126.089 228.356ZM153.687 228.312L152.935 230.166L152.946 230.17L153.687 228.312ZM164.629 235.344L166.046 236.755L167.475 235.32L166.023 233.909L164.629 235.344ZM153.818 246.198L152.234 247.419L153.626 249.226L155.235 247.61L153.818 246.198ZM122.354 268.259L120.479 268.956L120.482 268.963L122.354 268.259ZM126.309 274.851L124.816 276.182L124.821 276.188L124.827 276.194L126.309 274.851ZM147.622 278.981L146.719 277.197L146.71 277.201L147.622 278.981ZM153.818 273.884L155.233 272.47L153.637 270.874L152.244 272.65L153.818 273.884ZM163.323 283.348C160.444 286.144 157.02 288.35 153.027 289.958L154.522 293.669C158.966 291.878 162.837 289.397 166.11 286.217L163.323 283.348ZM153.038 289.954C149.076 291.522 144.729 292.318 139.976 292.318V296.318C145.183 296.318 150.036 295.444 154.511 293.673L153.038 289.954ZM139.976 292.318C135.196 292.318 130.822 291.509 126.832 289.913L125.346 293.626C129.852 295.429 134.736 296.318 139.976 296.318V292.318ZM126.843 289.917C122.825 288.282 119.356 286.021 116.415 283.135L113.614 285.99C116.943 289.257 120.857 291.8 125.335 293.622L126.843 289.917ZM116.422 283.142C113.48 280.227 111.196 276.817 109.567 272.897L105.873 274.431C107.701 278.831 110.28 282.687 113.607 285.983L116.422 283.142ZM109.567 272.897C107.948 269.001 107.127 264.724 107.127 260.041H103.127C103.127 265.202 104.034 270.006 105.873 274.431L109.567 272.897ZM107.127 260.041C107.127 255.358 107.948 251.081 109.567 247.185L105.873 245.651C104.034 250.076 103.127 254.88 103.127 260.041H107.127ZM109.567 247.185C111.195 243.266 113.477 239.874 116.415 236.991L113.614 234.136C110.283 237.405 107.702 241.249 105.873 245.651L109.567 247.185ZM116.422 236.984C119.36 234.074 122.823 231.817 126.832 230.213L125.346 226.499C120.859 228.294 116.939 230.842 113.607 234.143L116.422 236.984ZM126.843 230.209C130.83 228.586 135.2 227.764 139.976 227.764V223.764C134.731 223.764 129.844 224.669 125.335 226.504L126.843 230.209ZM139.976 227.764C144.694 227.764 149.006 228.572 152.935 230.166L154.438 226.459C149.988 224.654 145.16 223.764 139.976 223.764V227.764ZM152.946 230.17C156.902 231.747 160.325 233.951 163.235 236.778L166.023 233.909C162.722 230.702 158.85 228.217 154.427 226.455L152.946 230.17ZM163.212 233.932L152.401 244.787L155.235 247.61L166.046 236.755L163.212 233.932ZM155.403 244.978C153.551 242.574 151.268 240.682 148.569 239.316L146.763 242.885C148.927 243.98 150.745 245.486 152.234 247.419L155.403 244.978ZM148.569 239.316C145.842 237.936 142.879 237.255 139.712 237.255V241.255C142.287 241.255 144.626 241.804 146.763 242.885L148.569 239.316ZM139.712 237.255C136.774 237.255 134.01 237.838 131.447 239.021L133.123 242.653C135.13 241.727 137.318 241.255 139.712 241.255V237.255ZM131.447 239.021C128.916 240.189 126.705 241.815 124.827 243.888L127.791 246.574C129.31 244.898 131.084 243.594 133.123 242.653L131.447 239.021ZM124.827 243.888C122.946 245.963 121.5 248.383 120.479 251.126L124.228 252.521C125.082 250.224 126.272 248.25 127.791 246.574L124.827 243.888ZM120.479 251.126C119.451 253.888 118.947 256.851 118.947 259.997H122.947C122.947 257.284 123.381 254.798 124.228 252.521L120.479 251.126ZM118.947 259.997C118.947 263.197 119.45 266.19 120.479 268.956L124.228 267.561C123.382 265.288 122.947 262.774 122.947 259.997H118.947ZM120.482 268.963C121.502 271.674 122.946 274.086 124.816 276.182L127.801 273.519C126.273 271.806 125.08 269.824 124.225 267.554L120.482 268.963ZM124.827 276.194C126.705 278.267 128.916 279.893 131.447 281.061L133.123 277.429C131.084 276.488 129.31 275.184 127.791 273.508L124.827 276.194ZM131.447 281.061C134.01 282.244 136.774 282.827 139.712 282.827V278.827C137.318 278.827 135.13 278.355 133.123 277.429L131.447 281.061ZM139.712 282.827C142.879 282.827 145.831 282.146 148.534 280.762L146.71 277.201C144.608 278.278 142.287 278.827 139.712 278.827V282.827ZM148.525 280.766C151.221 279.402 153.515 277.513 155.392 275.118L152.244 272.65C150.724 274.59 148.886 276.1 146.719 277.197L148.525 280.766ZM152.404 275.298L163.303 286.196L166.131 283.368L155.233 272.47L152.404 275.298ZM194.301 290.935L193.327 292.682L193.336 292.686L193.344 292.691L194.301 290.935ZM185.863 282.805L184.143 283.825L184.147 283.832L185.863 282.805ZM185.863 259.294L187.58 260.321L187.583 260.314L185.863 259.294ZM194.301 251.164L195.264 252.917L195.268 252.914L194.301 251.164ZM218.734 251.164L217.755 252.908L217.763 252.912L217.772 252.917L218.734 251.164ZM227.128 259.294L225.401 260.304L225.406 260.312L225.412 260.321L227.128 259.294ZM227.128 282.805L225.408 281.784L225.405 281.789L227.128 282.805ZM218.734 290.935L219.703 292.684L219.708 292.682L218.734 290.935ZM214.252 276.125L212.477 275.203L212.47 275.217L212.463 275.231L214.252 276.125ZM214.252 265.886L212.47 266.794L212.477 266.808L212.484 266.822L214.252 265.886ZM198.695 265.886L196.928 264.95L196.921 264.964L196.914 264.977L198.695 265.886ZM198.695 276.125L196.906 277.019L196.913 277.033L196.92 277.047L198.695 276.125ZM206.605 291.879C202.299 291.879 198.533 290.963 195.257 289.178L193.344 292.691C197.275 294.832 201.713 295.879 206.605 295.879V291.879ZM195.274 289.188C191.999 287.362 189.446 284.897 187.58 281.778L184.147 283.832C186.382 287.568 189.454 290.523 193.327 292.682L195.274 289.188ZM187.583 281.784C185.733 278.665 184.787 275.097 184.787 271.027H180.787C180.787 275.746 181.892 280.031 184.143 283.825L187.583 281.784ZM184.787 271.027C184.787 266.957 185.733 263.408 187.58 260.321L184.147 258.267C181.892 262.036 180.787 266.309 180.787 271.027H184.787ZM187.583 260.314C189.449 257.169 191.998 254.71 195.264 252.917L193.338 249.411C189.455 251.543 186.379 254.504 184.143 258.274L187.583 260.314ZM195.268 252.914C198.542 251.104 202.304 250.176 206.605 250.176V246.176C201.708 246.176 197.266 247.239 193.333 249.414L195.268 252.914ZM206.605 250.176C210.844 250.176 214.543 251.103 217.755 252.908L219.714 249.421C215.836 247.241 211.449 246.176 206.605 246.176V250.176ZM217.772 252.917C221.035 254.709 223.566 257.165 225.401 260.304L228.854 258.284C226.647 254.509 223.582 251.545 219.697 249.411L217.772 252.917ZM225.412 260.321C227.258 263.408 228.204 266.957 228.204 271.027H232.204C232.204 266.309 231.099 262.036 228.844 258.267L225.412 260.321ZM228.204 271.027C228.204 275.097 227.259 278.665 225.408 281.784L228.848 283.825C231.099 280.031 232.204 275.746 232.204 271.027H228.204ZM225.405 281.789C223.569 284.902 221.034 287.363 217.761 289.188L219.708 292.682C223.583 290.522 226.644 287.563 228.851 283.821L225.405 281.789ZM217.766 289.185C214.552 290.965 210.849 291.879 206.605 291.879V295.879C211.444 295.879 215.827 294.83 219.703 292.684L217.766 289.185ZM206.518 282.959C208.568 282.959 210.466 282.441 212.154 281.376L210.021 277.993C209.014 278.627 207.866 278.959 206.518 278.959V282.959ZM212.154 281.376C213.833 280.318 215.127 278.846 216.041 277.019L212.463 275.231C211.853 276.451 211.038 277.352 210.021 277.993L212.154 281.376ZM216.027 277.047C216.984 275.204 217.438 273.153 217.438 270.939H213.438C213.438 272.593 213.102 273.999 212.477 275.203L216.027 277.047ZM217.438 270.939C217.438 268.774 216.979 266.763 216.02 264.95L212.484 266.822C213.107 267.997 213.438 269.354 213.438 270.939H217.438ZM216.034 264.977C215.118 263.18 213.823 261.73 212.154 260.678L210.021 264.062C211.048 264.709 211.863 265.603 212.47 266.794L216.034 264.977ZM212.154 260.678C210.466 259.614 208.568 259.096 206.518 259.096V263.096C207.866 263.096 209.014 263.427 210.021 264.062L212.154 260.678ZM206.518 259.096C204.445 259.096 202.531 259.61 200.837 260.678L202.97 264.062C203.971 263.431 205.133 263.096 206.518 263.096V259.096ZM200.837 260.678C199.175 261.726 197.872 263.166 196.928 264.95L200.463 266.822C201.101 265.617 201.936 264.714 202.97 264.062L200.837 260.678ZM196.914 264.977C195.992 266.785 195.553 268.786 195.553 270.939H199.553C199.553 269.343 199.875 267.975 200.477 266.794L196.914 264.977ZM195.553 270.939C195.553 273.141 195.988 275.183 196.906 277.019L200.484 275.231C199.879 274.02 199.553 272.605 199.553 270.939H195.553ZM196.92 277.047C197.862 278.86 199.166 280.323 200.837 281.376L202.97 277.993C201.946 277.347 201.111 276.437 200.47 275.203L196.92 277.047ZM200.837 281.376C202.531 282.444 204.445 282.959 206.518 282.959V278.959C205.133 278.959 203.971 278.624 202.97 277.993L200.837 281.376ZM323.201 293V295H325.201V293H323.201ZM308.787 293H306.787V295H308.787V293ZM306.941 263.776L305.286 264.898L305.29 264.904L305.294 264.911L306.941 263.776ZM294.329 293V295H296.329V293H294.329ZM279.915 293H277.915V295H279.915V293ZM278.069 263.776L276.413 264.898L276.418 264.904L276.422 264.911L278.069 263.776ZM265.457 293V295H267.457V293H265.457ZM251.043 293H249.043V295H251.043V293ZM251.043 249.055V247.055H249.043V249.055H251.043ZM262.469 249.055L264.464 248.918L264.337 247.055H262.469V249.055ZM262.952 256.13L260.957 256.266L261.407 262.85L264.687 257.124L262.952 256.13ZM268.841 250.197L267.88 248.443L267.871 248.448L268.841 250.197ZM286.023 250.241L285.038 251.982L285.05 251.989L285.063 251.995L286.023 250.241ZM291.78 256.086L290.021 257.037L291.719 260.18L293.511 257.089L291.78 256.086ZM323.201 291H308.787V295H323.201V291ZM310.787 293V271.379H306.787V293H310.787ZM310.787 271.379C310.787 267.887 310.139 264.894 308.589 262.642L305.294 264.911C306.205 266.233 306.787 268.308 306.787 271.379H310.787ZM308.597 262.655C306.977 260.262 304.584 259.052 301.668 259.052V263.052C303.323 263.052 304.445 263.658 305.286 264.898L308.597 262.655ZM301.668 259.052C298.735 259.052 296.313 260.25 294.632 262.619L297.894 264.934C298.791 263.67 299.972 263.052 301.668 263.052V259.052ZM294.632 262.619C293.015 264.897 292.329 267.894 292.329 271.379H296.329C296.329 268.36 296.932 266.289 297.894 264.934L294.632 262.619ZM292.329 271.379V293H296.329V271.379H292.329ZM294.329 291H279.915V295H294.329V291ZM281.915 293V271.379H277.915V293H281.915ZM281.915 271.379C281.915 267.887 281.267 264.894 279.717 262.642L276.422 264.911C277.333 266.233 277.915 268.308 277.915 271.379H281.915ZM279.725 262.655C278.105 260.262 275.712 259.052 272.796 259.052V263.052C274.451 263.052 275.573 263.658 276.413 264.898L279.725 262.655ZM272.796 259.052C269.863 259.052 267.441 260.25 265.76 262.619L269.022 264.934C269.919 263.67 271.099 263.052 272.796 263.052V259.052ZM265.76 262.619C264.143 264.897 263.457 267.894 263.457 271.379H267.457C267.457 268.36 268.06 266.289 269.022 264.934L265.76 262.619ZM263.457 271.379V293H267.457V271.379H263.457ZM265.457 291H251.043V295H265.457V291ZM253.043 293V249.055H249.043V293H253.043ZM251.043 251.055H262.469V247.055H251.043V251.055ZM260.473 249.191L260.957 256.266L264.947 255.994L264.464 248.918L260.473 249.191ZM264.687 257.124C266.015 254.807 267.724 253.103 269.81 251.947L267.871 248.448C265.095 249.987 262.877 252.238 261.217 255.136L264.687 257.124ZM269.801 251.951C271.924 250.789 274.44 250.176 277.41 250.176V246.176C273.876 246.176 270.679 246.91 267.88 248.443L269.801 251.951ZM277.41 250.176C280.439 250.176 282.958 250.804 285.038 251.982L287.009 248.501C284.226 246.925 281.002 246.176 277.41 246.176V250.176ZM285.063 251.995C287.174 253.152 288.821 254.815 290.021 257.037L293.54 255.135C291.986 252.259 289.795 250.026 286.984 248.487L285.063 251.995ZM293.511 257.089C294.837 254.8 296.546 253.106 298.638 251.947L296.699 248.448C293.929 249.984 291.712 252.215 290.05 255.083L293.511 257.089ZM298.638 251.947C300.724 250.791 303.235 250.176 306.238 250.176V246.176C302.679 246.176 299.477 246.909 296.699 248.448L298.638 251.947ZM306.238 250.176C311.108 250.176 314.677 251.705 317.217 254.594L320.221 251.953C316.784 248.045 312.033 246.176 306.238 246.176V250.176ZM317.217 254.594C319.789 257.519 321.201 261.722 321.201 267.468H325.201C325.201 261.084 323.625 255.825 320.221 251.953L317.217 254.594ZM321.201 267.468V293H325.201V267.468H321.201ZM360.036 314.973V316.973H362.036V314.973H360.036ZM345.578 314.973H343.578V316.973H345.578V314.973ZM345.578 249.055V247.055H343.578V249.055H345.578ZM358.234 249.055L360.22 248.816L360.008 247.055H358.234V249.055ZM358.938 254.899L356.952 255.138L357.494 259.641L360.453 256.204L358.938 254.899ZM365.485 249.978L366.321 251.795L366.329 251.791L366.338 251.787L365.485 249.978ZM384.25 251.164L383.155 252.838L383.167 252.845L384.25 251.164ZM391.457 259.294L389.674 260.2L389.677 260.207L391.457 259.294ZM391.457 282.805L393.237 283.717L393.24 283.711L391.457 282.805ZM384.25 290.935L385.333 292.616L385.344 292.609L384.25 290.935ZM366.188 292.429L365.398 294.266L365.412 294.272L365.426 294.278L366.188 292.429ZM360.036 288.298L361.439 286.872L358.036 283.525V288.298H360.036ZM374.67 279.685L373.666 277.955L373.659 277.959L373.651 277.963L374.67 279.685ZM378.054 276.169L376.293 275.221L376.286 275.233L378.054 276.169ZM374.67 262.37L373.626 264.076L373.638 264.084L373.651 264.091L374.67 262.37ZM364.914 262.238L365.867 263.997L365.873 263.993L365.879 263.99L364.914 262.238ZM361.53 265.446L363.222 266.513L363.227 266.505L363.232 266.497L361.53 265.446ZM360.036 270.148L358.043 269.985L358.036 270.067V270.148H360.036ZM360.036 272.038H358.036V272.123L358.043 272.207L360.036 272.038ZM364.914 279.816L363.961 281.575L363.969 281.579L363.977 281.583L364.914 279.816ZM360.036 312.973H345.578V316.973H360.036V312.973ZM347.578 314.973V249.055H343.578V314.973H347.578ZM345.578 251.055H358.234V247.055H345.578V251.055ZM356.249 249.294L356.952 255.138L360.923 254.661L360.22 248.816L356.249 249.294ZM360.453 256.204C362.081 254.314 364.031 252.848 366.321 251.795L364.65 248.16C361.842 249.451 359.427 251.266 357.422 253.594L360.453 256.204ZM366.338 251.787C368.604 250.719 371.079 250.176 373.791 250.176V246.176C370.526 246.176 367.464 246.834 364.633 248.168L366.338 251.787ZM373.791 250.176C377.36 250.176 380.46 251.075 383.156 252.838L385.344 249.49C381.947 247.268 378.074 246.176 373.791 246.176V250.176ZM383.167 252.845C385.895 254.603 388.065 257.036 389.674 260.2L393.24 258.387C391.333 254.638 388.699 251.651 385.333 249.483L383.167 252.845ZM389.677 260.207C391.271 263.314 392.094 266.905 392.094 271.027H396.094C396.094 266.36 395.159 262.129 393.237 258.381L389.677 260.207ZM392.094 271.027C392.094 275.149 391.271 278.757 389.674 281.898L393.24 283.711C395.158 279.938 396.094 275.695 396.094 271.027H392.094ZM389.677 281.892C388.068 285.029 385.895 287.47 383.156 289.261L385.344 292.609C388.699 290.415 391.33 287.435 393.237 283.717L389.677 281.892ZM383.167 289.253C380.47 290.991 377.366 291.879 373.791 291.879V295.879C378.068 295.879 381.936 294.804 385.333 292.616L383.167 289.253ZM373.791 291.879C371.308 291.879 369.035 291.44 366.951 290.58L365.426 294.278C368.029 295.351 370.824 295.879 373.791 295.879V291.879ZM366.979 290.592C364.891 289.693 363.048 288.455 361.439 286.872L358.634 289.724C360.598 291.656 362.857 293.172 365.398 294.266L366.979 290.592ZM358.036 288.298V314.973H362.036V288.298H358.036ZM369.704 282.959C371.892 282.959 373.908 282.46 375.689 281.406L373.651 277.963C372.561 278.609 371.266 278.959 369.704 278.959V282.959ZM375.673 281.415C377.462 280.377 378.855 278.931 379.821 277.105L376.286 275.233C375.671 276.396 374.808 277.293 373.666 277.955L375.673 281.415ZM379.815 277.117C380.807 275.274 381.284 273.229 381.284 271.027H377.284C377.284 272.635 376.941 274.017 376.293 275.221L379.815 277.117ZM381.284 271.027C381.284 268.803 380.81 266.75 379.807 264.923L376.301 266.848C376.938 268.01 377.284 269.384 377.284 271.027H381.284ZM379.807 264.923C378.818 263.122 377.439 261.685 375.689 260.649L373.651 264.091C374.771 264.754 375.649 265.661 376.301 266.848L379.807 264.923ZM375.714 260.664C373.929 259.572 371.904 259.052 369.704 259.052V263.052C371.254 263.052 372.539 263.411 373.626 264.076L375.714 260.664ZM369.704 259.052C367.634 259.052 365.701 259.521 363.949 260.487L365.879 263.99C366.998 263.374 368.259 263.052 369.704 263.052V259.052ZM363.961 260.48C362.244 261.41 360.859 262.725 359.828 264.396L363.232 266.497C363.901 265.413 364.772 264.59 365.867 263.997L363.961 260.48ZM359.838 264.38C358.797 266.032 358.212 267.918 358.043 269.985L362.029 270.312C362.153 268.805 362.565 267.556 363.222 266.513L359.838 264.38ZM358.036 270.148V272.038H362.036V270.148H358.036ZM358.043 272.207C358.214 274.226 358.803 276.077 359.838 277.719L363.222 275.586C362.558 274.532 362.151 273.308 362.029 271.869L358.043 272.207ZM359.838 277.719C360.872 279.358 362.255 280.651 363.961 281.575L365.867 278.058C364.761 277.459 363.888 276.642 363.222 275.586L359.838 277.719ZM363.977 281.583C365.724 282.51 367.647 282.959 369.704 282.959V278.959C368.246 278.959 366.975 278.646 365.851 278.05L363.977 281.583ZM456.021 288.21L457.157 289.856L458.475 288.947L457.876 287.462L456.021 288.21ZM424.996 290.803L424.049 292.564L424.057 292.568L424.065 292.573L424.996 290.803ZM415.812 282.365L414.12 283.433L414.124 283.439L415.812 282.365ZM415.46 258.986L417.167 260.029L417.171 260.022L415.46 258.986ZM423.722 251.076L422.758 249.324L422.752 249.327L423.722 251.076ZM455.89 260.305L454.106 261.21L454.111 261.218L454.115 261.227L455.89 260.305ZM458.834 274.895V276.895H460.834V274.895H458.834ZM427.896 274.895V272.895H425.031L426.019 275.584L427.896 274.895ZM430.27 278.718L428.818 280.093L428.827 280.103L428.837 280.113L430.27 278.718ZM434.312 281.398L433.541 283.244L433.555 283.25L433.57 283.255L434.312 281.398ZM451.979 278.19L453.833 277.442L452.868 275.051L450.793 276.58L451.979 278.19ZM427.281 268.391L425.303 268.098L424.963 270.391H427.281V268.391ZM445.562 268.391V270.391H447.788L447.551 268.178L445.562 268.391ZM440.816 261.096L439.875 262.86L439.883 262.865L439.891 262.869L440.816 261.096ZM431.939 261.184L432.945 262.913L432.951 262.909L432.957 262.905L431.939 261.184ZM428.819 264.172L427.143 263.081L427.137 263.09L428.819 264.172ZM454.886 286.564C449.73 290.121 444.162 291.879 438.136 291.879V295.879C445.001 295.879 451.356 293.858 457.157 289.856L454.886 286.564ZM438.136 291.879C433.563 291.879 429.508 290.917 425.928 289.033L424.065 292.573C428.277 294.79 432.982 295.879 438.136 295.879V291.879ZM425.943 289.041C422.364 287.116 419.563 284.534 417.499 281.291L414.124 283.439C416.572 287.286 419.894 290.329 424.049 292.564L425.943 289.041ZM417.503 281.298C415.46 278.061 414.428 274.421 414.428 270.324H410.428C410.428 275.134 411.652 279.521 414.12 283.433L417.503 281.298ZM414.428 270.324C414.428 266.408 415.355 262.996 417.167 260.029L413.753 257.944C411.522 261.598 410.428 265.745 410.428 270.324H414.428ZM417.171 260.022C419.008 256.987 421.504 254.593 424.692 252.825L422.752 249.327C418.967 251.426 415.955 254.306 413.749 257.951L417.171 260.022ZM424.686 252.829C427.876 251.074 431.509 250.176 435.631 250.176V246.176C430.905 246.176 426.598 247.212 422.758 249.324L424.686 252.829ZM435.631 250.176C439.909 250.176 443.58 251.166 446.714 253.089L448.806 249.679C444.967 247.324 440.552 246.176 435.631 246.176V250.176ZM446.714 253.089C449.871 255.025 452.332 257.716 454.106 261.21L457.673 259.399C455.58 255.277 452.621 252.02 448.806 249.679L446.714 253.089ZM454.115 261.227C455.906 264.675 456.834 268.743 456.834 273.488H460.834C460.834 268.214 459.799 263.493 457.665 259.383L454.115 261.227ZM456.834 273.488V274.895H460.834V273.488H456.834ZM458.834 272.895H427.896V276.895H458.834V272.895ZM426.019 275.584C426.64 277.276 427.577 278.783 428.818 280.093L431.721 277.342C430.853 276.426 430.207 275.385 429.774 274.205L426.019 275.584ZM428.837 280.113C430.13 281.442 431.712 282.479 433.541 283.244L435.084 279.553C433.69 278.97 432.577 278.22 431.702 277.323L428.837 280.113ZM433.57 283.255C435.459 284.011 437.564 284.365 439.85 284.365V280.365C437.975 280.365 436.388 280.075 435.055 279.541L433.57 283.255ZM439.85 284.365C444.622 284.365 449.074 282.813 453.164 279.801L450.793 276.58C447.324 279.134 443.691 280.365 439.85 280.365V284.365ZM450.124 278.939L454.167 288.958L457.876 287.462L453.833 277.442L450.124 278.939ZM427.281 270.391H445.562V266.391H427.281V270.391ZM447.551 268.178C447.345 266.255 446.753 264.498 445.744 262.949L442.392 265.131C443.024 266.102 443.428 267.245 443.574 268.604L447.551 268.178ZM445.744 262.949C444.734 261.398 443.39 260.183 441.742 259.323L439.891 262.869C440.938 263.415 441.762 264.163 442.392 265.131L445.744 262.949ZM441.758 259.331C440.122 258.459 438.314 258.041 436.378 258.041V262.041C437.723 262.041 438.874 262.327 439.875 262.86L441.758 259.331ZM436.378 258.041C434.392 258.041 432.554 258.498 430.922 259.462L432.957 262.905C433.903 262.346 435.024 262.041 436.378 262.041V258.041ZM430.934 259.455C429.395 260.349 428.129 261.567 427.143 263.081L430.495 265.263C431.151 264.257 431.964 263.483 432.945 262.913L430.934 259.455ZM427.137 263.09C426.179 264.581 425.575 266.261 425.303 268.098L429.26 268.684C429.456 267.356 429.878 266.224 430.502 265.253L427.137 263.09ZM510.742 291.813L511.472 293.676L512.954 293.095L512.721 291.521L510.742 291.813ZM491.23 291.682L490.253 293.426L490.264 293.433L490.275 293.439L491.23 291.682ZM484.99 285.529L483.25 286.515L483.255 286.524L484.99 285.529ZM482.749 261.931H484.749V259.931H482.749V261.931ZM475.059 261.931H473.059V263.931H475.059V261.931ZM475.059 249.055V247.055H473.059V249.055H475.059ZM483.54 249.055V251.055H485.54V249.055H483.54ZM483.54 238.068V236.068H481.54V238.068H483.54ZM497.163 238.068H499.163V236.068H497.163V238.068ZM497.163 249.055H495.163V251.055H497.163V249.055ZM509.028 249.055H511.028V247.055H509.028V249.055ZM509.028 261.931V263.931H511.028V261.931H509.028ZM497.163 261.931V259.931H495.163V261.931H497.163ZM508.896 279.333L510.875 279.04L510.413 275.918L507.787 277.669L508.896 279.333ZM510.013 289.951C506.697 291.25 503.531 291.879 500.503 291.879V295.879C504.096 295.879 507.756 295.131 511.472 293.676L510.013 289.951ZM500.503 291.879C497.304 291.879 494.55 291.209 492.185 289.924L490.275 293.439C493.302 295.084 496.729 295.879 500.503 295.879V291.879ZM492.208 289.937C489.852 288.617 488.037 286.823 486.726 284.535L483.255 286.524C484.932 289.451 487.277 291.758 490.253 293.426L492.208 289.937ZM486.73 284.543C485.431 282.25 484.749 279.538 484.749 276.345H480.749C480.749 280.124 481.561 283.535 483.25 286.515L486.73 284.543ZM484.749 276.345V261.931H480.749V276.345H484.749ZM482.749 259.931H475.059V263.931H482.749V259.931ZM477.059 261.931V249.055H473.059V261.931H477.059ZM475.059 251.055H483.54V247.055H475.059V251.055ZM485.54 249.055V238.068H481.54V249.055H485.54ZM483.54 240.068H497.163V236.068H483.54V240.068ZM495.163 238.068V249.055H499.163V238.068H495.163ZM497.163 251.055H509.028V247.055H497.163V251.055ZM507.028 249.055V261.931H511.028V249.055H507.028ZM509.028 259.931H497.163V263.931H509.028V259.931ZM495.163 261.931V273.752H499.163V261.931H495.163ZM495.163 273.752C495.163 276.444 495.923 278.808 497.699 280.544L500.495 277.683C499.692 276.899 499.163 275.689 499.163 273.752H495.163ZM497.699 280.544C499.365 282.172 501.421 283.003 503.755 283.003V279.003C502.456 279.003 501.407 278.574 500.495 277.683L497.699 280.544ZM503.755 283.003C505.962 283.003 508.055 282.297 510.006 280.997L507.787 277.669C506.398 278.595 505.064 279.003 503.755 279.003V283.003ZM506.918 279.626L508.764 292.106L512.721 291.521L510.875 279.04L506.918 279.626ZM532.021 237.761L530.574 239.142L530.59 239.159L530.606 239.175L532.021 237.761ZM532.021 228.532L530.59 227.134L530.59 227.135L532.021 228.532ZM541.293 228.532L539.863 229.93L539.871 229.938L539.879 229.946L541.293 228.532ZM541.293 237.761L542.707 239.175L542.715 239.167L542.723 239.159L541.293 237.761ZM543.886 293V295H545.886V293H543.886ZM529.472 293H527.472V295H529.472V293ZM529.472 249.055V247.055H527.472V249.055H529.472ZM543.886 249.055H545.886V247.055H543.886V249.055ZM536.635 237.65C535.337 237.65 534.311 237.223 533.435 236.347L530.606 239.175C532.249 240.818 534.3 241.65 536.635 241.65V237.65ZM533.467 236.38C532.599 235.471 532.175 234.416 532.175 233.103H528.175C528.175 235.422 528.981 237.473 530.574 239.142L533.467 236.38ZM532.175 233.103C532.175 231.829 532.592 230.81 533.451 229.93L530.59 227.135C528.988 228.774 528.175 230.802 528.175 233.103H532.175ZM533.451 229.93C534.331 229.029 535.352 228.599 536.635 228.599V224.599C534.285 224.599 532.229 225.457 530.59 227.134L533.451 229.93ZM536.635 228.599C537.957 228.599 538.989 229.036 539.863 229.93L542.723 227.134C541.077 225.45 539.004 224.599 536.635 224.599V228.599ZM539.879 229.946C540.762 230.83 541.183 231.844 541.183 233.103H545.183C545.183 230.787 544.343 228.754 542.707 227.118L539.879 229.946ZM541.183 233.103C541.183 234.401 540.754 235.451 539.863 236.363L542.723 239.159C544.351 237.493 545.183 235.437 545.183 233.103H541.183ZM539.879 236.347C539.009 237.216 537.971 237.65 536.635 237.65V241.65C538.99 241.65 541.058 240.825 542.707 239.175L539.879 236.347ZM543.886 291H529.472V295H543.886V291ZM531.472 293V249.055H527.472V293H531.472ZM529.472 251.055H543.886V247.055H529.472V251.055ZM541.886 249.055V293H545.886V249.055H541.886ZM599.617 291.813L600.347 293.676L601.829 293.095L601.596 291.521L599.617 291.813ZM580.105 291.682L579.128 293.426L579.139 293.433L579.15 293.439L580.105 291.682ZM573.865 285.529L572.125 286.515L572.13 286.524L573.865 285.529ZM571.624 261.931H573.624V259.931H571.624V261.931ZM563.934 261.931H561.934V263.931H563.934V261.931ZM563.934 249.055V247.055H561.934V249.055H563.934ZM572.415 249.055V251.055H574.415V249.055H572.415ZM572.415 238.068V236.068H570.415V238.068H572.415ZM586.038 238.068H588.038V236.068H586.038V238.068ZM586.038 249.055H584.038V251.055H586.038V249.055ZM597.903 249.055H599.903V247.055H597.903V249.055ZM597.903 261.931V263.931H599.903V261.931H597.903ZM586.038 261.931V259.931H584.038V261.931H586.038ZM597.771 279.333L599.75 279.04L599.288 275.918L596.662 277.669L597.771 279.333ZM598.888 289.951C595.572 291.25 592.406 291.879 589.378 291.879V295.879C592.971 295.879 596.631 295.131 600.347 293.676L598.888 289.951ZM589.378 291.879C586.179 291.879 583.425 291.209 581.06 289.924L579.15 293.439C582.177 295.084 585.604 295.879 589.378 295.879V291.879ZM581.083 289.937C578.727 288.617 576.912 286.823 575.601 284.535L572.13 286.524C573.807 289.451 576.152 291.758 579.128 293.426L581.083 289.937ZM575.605 284.543C574.306 282.25 573.624 279.538 573.624 276.345H569.624C569.624 280.124 570.436 283.535 572.125 286.515L575.605 284.543ZM573.624 276.345V261.931H569.624V276.345H573.624ZM571.624 259.931H563.934V263.931H571.624V259.931ZM565.934 261.931V249.055H561.934V261.931H565.934ZM563.934 251.055H572.415V247.055H563.934V251.055ZM574.415 249.055V238.068H570.415V249.055H574.415ZM572.415 240.068H586.038V236.068H572.415V240.068ZM584.038 238.068V249.055H588.038V238.068H584.038ZM586.038 251.055H597.903V247.055H586.038V251.055ZM595.903 249.055V261.931H599.903V249.055H595.903ZM597.903 259.931H586.038V263.931H597.903V259.931ZM584.038 261.931V273.752H588.038V261.931H584.038ZM584.038 273.752C584.038 276.444 584.798 278.808 586.574 280.544L589.37 277.683C588.567 276.899 588.038 275.689 588.038 273.752H584.038ZM586.574 280.544C588.24 282.172 590.296 283.003 592.63 283.003V279.003C591.331 279.003 590.282 278.574 589.37 277.683L586.574 280.544ZM592.63 283.003C594.837 283.003 596.93 282.297 598.881 280.997L596.662 277.669C595.273 278.595 593.939 279.003 592.63 279.003V283.003ZM595.793 279.626L597.639 292.106L601.596 291.521L599.75 279.04L595.793 279.626ZM620.896 237.761L619.449 239.142L619.465 239.159L619.481 239.175L620.896 237.761ZM620.896 228.532L619.465 227.134L619.465 227.135L620.896 228.532ZM630.168 228.532L628.738 229.93L628.746 229.938L628.754 229.946L630.168 228.532ZM630.168 237.761L631.582 239.175L631.59 239.167L631.598 239.159L630.168 237.761ZM632.761 293V295H634.761V293H632.761ZM618.347 293H616.347V295H618.347V293ZM618.347 249.055V247.055H616.347V249.055H618.347ZM632.761 249.055H634.761V247.055H632.761V249.055ZM625.51 237.65C624.212 237.65 623.186 237.223 622.31 236.347L619.481 239.175C621.124 240.818 623.175 241.65 625.51 241.65V237.65ZM622.342 236.38C621.474 235.471 621.05 234.416 621.05 233.103H617.05C617.05 235.422 617.856 237.473 619.449 239.142L622.342 236.38ZM621.05 233.103C621.05 231.829 621.467 230.81 622.326 229.93L619.465 227.135C617.863 228.774 617.05 230.802 617.05 233.103H621.05ZM622.326 229.93C623.206 229.029 624.227 228.599 625.51 228.599V224.599C623.16 224.599 621.104 225.457 619.465 227.134L622.326 229.93ZM625.51 228.599C626.832 228.599 627.864 229.036 628.738 229.93L631.598 227.134C629.952 225.45 627.879 224.599 625.51 224.599V228.599ZM628.754 229.946C629.637 230.83 630.058 231.844 630.058 233.103H634.058C634.058 230.787 633.218 228.754 631.582 227.118L628.754 229.946ZM630.058 233.103C630.058 234.401 629.629 235.451 628.738 236.363L631.598 239.159C633.226 237.493 634.058 235.437 634.058 233.103H630.058ZM628.754 236.347C627.884 237.216 626.846 237.65 625.51 237.65V241.65C627.865 241.65 629.933 240.825 631.582 239.175L628.754 236.347ZM632.761 291H618.347V295H632.761V291ZM620.347 293V249.055H616.347V293H620.347ZM618.347 251.055H632.761V247.055H618.347V251.055ZM630.761 249.055V293H634.761V249.055H630.761ZM665.113 290.935L664.14 292.682L664.148 292.686L664.157 292.691L665.113 290.935ZM656.676 282.805L654.956 283.825L654.96 283.832L656.676 282.805ZM656.676 259.294L658.392 260.321L658.396 260.314L656.676 259.294ZM665.113 251.164L666.076 252.917L666.081 252.914L665.113 251.164ZM689.547 251.164L688.567 252.908L688.576 252.912L688.584 252.917L689.547 251.164ZM697.94 259.294L696.214 260.304L696.219 260.312L696.224 260.321L697.94 259.294ZM697.94 282.805L696.22 281.784L696.218 281.789L697.94 282.805ZM689.547 290.935L690.516 292.684L690.521 292.682L689.547 290.935ZM685.064 276.125L683.289 275.203L683.282 275.217L683.276 275.231L685.064 276.125ZM685.064 265.886L683.283 266.794L683.29 266.808L683.297 266.822L685.064 265.886ZM669.508 265.886L667.74 264.95L667.733 264.964L667.726 264.977L669.508 265.886ZM669.508 276.125L667.719 277.019L667.726 277.033L667.733 277.047L669.508 276.125ZM677.418 291.879C673.112 291.879 669.346 290.963 666.07 289.178L664.157 292.691C668.088 294.832 672.525 295.879 677.418 295.879V291.879ZM666.087 289.188C662.811 287.362 660.258 284.897 658.392 281.778L654.96 283.832C657.195 287.568 660.267 290.523 664.14 292.682L666.087 289.188ZM658.396 281.784C656.545 278.665 655.6 275.097 655.6 271.027H651.6C651.6 275.746 652.705 280.031 654.956 283.825L658.396 281.784ZM655.6 271.027C655.6 266.957 656.545 263.408 658.392 260.321L654.96 258.267C652.705 262.036 651.6 266.309 651.6 271.027H655.6ZM658.396 260.314C660.261 257.169 662.81 254.71 666.076 252.917L664.151 249.411C660.268 251.543 657.192 254.504 654.956 258.274L658.396 260.314ZM666.081 252.914C669.355 251.104 673.116 250.176 677.418 250.176V246.176C672.52 246.176 668.079 247.239 664.146 249.414L666.081 252.914ZM677.418 250.176C681.657 250.176 685.355 251.103 688.567 252.908L690.527 249.421C686.649 247.241 682.261 246.176 677.418 246.176V250.176ZM688.584 252.917C691.847 254.709 694.379 257.165 696.214 260.304L699.667 258.284C697.459 254.509 694.395 251.545 690.51 249.411L688.584 252.917ZM696.224 260.321C698.071 263.408 699.017 266.957 699.017 271.027H703.017C703.017 266.309 701.911 262.036 699.657 258.267L696.224 260.321ZM699.017 271.027C699.017 275.097 698.071 278.665 696.22 281.784L699.661 283.825C701.911 280.031 703.017 275.746 703.017 271.027H699.017ZM696.218 281.789C694.382 284.902 691.846 287.363 688.573 289.188L690.521 292.682C694.396 290.522 697.456 287.563 699.663 283.821L696.218 281.789ZM688.578 289.185C685.364 290.965 681.662 291.879 677.418 291.879V295.879C682.256 295.879 686.64 294.83 690.516 292.684L688.578 289.185ZM677.33 282.959C679.381 282.959 681.278 282.441 682.967 281.376L680.834 277.993C679.827 278.627 678.678 278.959 677.33 278.959V282.959ZM682.967 281.376C684.645 280.318 685.94 278.846 686.853 277.019L683.276 275.231C682.666 276.451 681.851 277.352 680.834 277.993L682.967 281.376ZM686.839 277.047C687.796 275.204 688.251 273.153 688.251 270.939H684.251C684.251 272.593 683.915 273.999 683.289 275.203L686.839 277.047ZM688.251 270.939C688.251 268.774 687.792 266.763 686.832 264.95L683.297 266.822C683.919 267.997 684.251 269.354 684.251 270.939H688.251ZM686.846 264.977C685.93 263.18 684.636 261.73 682.967 260.678L680.834 264.062C681.861 264.709 682.675 265.603 683.283 266.794L686.846 264.977ZM682.967 260.678C681.278 259.614 679.381 259.096 677.33 259.096V263.096C678.678 263.096 679.827 263.427 680.834 264.062L682.967 260.678ZM677.33 259.096C675.257 259.096 673.343 259.61 671.649 260.678L673.782 264.062C674.784 263.431 675.946 263.096 677.33 263.096V259.096ZM671.649 260.678C669.988 261.726 668.684 263.166 667.74 264.95L671.275 266.822C671.913 265.617 672.749 264.714 673.782 264.062L671.649 260.678ZM667.726 264.977C666.805 266.785 666.365 268.786 666.365 270.939H670.365C670.365 269.343 670.688 267.975 671.29 266.794L667.726 264.977ZM666.365 270.939C666.365 273.141 666.801 275.183 667.719 277.019L671.297 275.231C670.692 274.02 670.365 272.605 670.365 270.939H666.365ZM667.733 277.047C668.674 278.86 669.978 280.323 671.649 281.376L673.782 277.993C672.758 277.347 671.923 276.437 671.283 275.203L667.733 277.047ZM671.649 281.376C673.343 282.444 675.257 282.959 677.33 282.959V278.959C675.946 278.959 674.784 278.624 673.782 277.993L671.649 281.376ZM766.592 293V295H768.592V293H766.592ZM752.178 293H750.178V295H752.178V293ZM738.423 263.82L736.866 262.565L736.86 262.572L736.854 262.58L738.423 263.82ZM736.27 293V295H738.27V293H736.27ZM721.855 293H719.855V295H721.855V293ZM721.855 249.055V247.055H719.855V249.055H721.855ZM733.369 249.055L735.364 248.918L735.236 247.055H733.369V249.055ZM733.853 256.086L731.857 256.223L732.292 262.553L735.566 257.118L733.853 256.086ZM739.961 250.197L739.026 248.429L739.018 248.434L739.961 250.197ZM761.89 253.317L760.414 254.667L760.42 254.673L761.89 253.317ZM766.592 291H752.178V295H766.592V291ZM754.178 293V271.159H750.178V293H754.178ZM754.178 271.159C754.178 267.706 753.436 264.732 751.687 262.499L748.538 264.966C749.542 266.248 750.178 268.226 750.178 271.159H754.178ZM751.687 262.499C749.894 260.21 747.383 259.096 744.399 259.096V263.096C746.279 263.096 747.577 263.739 748.538 264.966L751.687 262.499ZM744.399 259.096C741.33 259.096 738.744 260.236 736.866 262.565L739.98 265.076C741.031 263.772 742.429 263.096 744.399 263.096V259.096ZM736.854 262.58C735.05 264.862 734.27 267.86 734.27 271.335H738.27C738.27 268.423 738.925 266.411 739.992 265.06L736.854 262.58ZM734.27 271.335V293H738.27V271.335H734.27ZM736.27 291H721.855V295H736.27V291ZM723.855 293V249.055H719.855V293H723.855ZM721.855 251.055H733.369V247.055H721.855V251.055ZM731.374 249.192L731.857 256.223L735.848 255.949L735.364 248.918L731.374 249.192ZM735.566 257.118C736.943 254.831 738.72 253.129 740.904 251.961L739.018 248.434C736.163 249.961 733.868 252.184 732.139 255.054L735.566 257.118ZM740.896 251.965C743.107 250.796 745.763 250.176 748.926 250.176V246.176C745.234 246.176 741.913 246.903 739.026 248.429L740.896 251.965ZM748.926 250.176C753.986 250.176 757.728 251.731 760.414 254.667L763.366 251.968C759.781 248.049 754.881 246.176 748.926 246.176V250.176ZM760.42 254.673C763.12 257.601 764.592 261.777 764.592 267.468H768.592C768.592 261.088 766.929 255.831 763.36 251.961L760.42 254.673ZM764.592 267.468V293H768.592V267.468H764.592ZM785.893 289.265L783.953 288.776L783.581 290.253L784.905 291.004L785.893 289.265ZM788.925 277.224L790.407 275.881L787.898 273.112L786.985 276.735L788.925 277.224ZM797.406 281.97L796.832 283.885L796.85 283.891L796.869 283.896L797.406 281.97ZM806.151 277.751L804.806 279.231L804.825 279.248L804.844 279.265L806.151 277.751ZM799.999 274.763L799.297 276.635L799.319 276.644L799.342 276.652L799.999 274.763ZM794.11 272.258L793.237 274.057L793.247 274.062L793.258 274.067L794.11 272.258ZM788.925 268.259L787.371 269.518L787.383 269.533L787.395 269.547L788.925 268.259ZM788.969 254.416L787.346 253.247L787.34 253.255L787.335 253.263L788.969 254.416ZM821.576 252.526L823.457 253.207L824.063 251.534L822.471 250.738L821.576 252.526ZM817.533 263.688L816.272 265.241L818.456 267.015L819.414 264.37L817.533 263.688ZM813.93 261.535L813.064 263.338L813.079 263.345L813.094 263.352L813.93 261.535ZM809.403 259.865L808.849 261.787L808.871 261.793L808.893 261.799L809.403 259.865ZM802.46 263.688L801.046 265.103L801.065 265.122L801.084 265.14L802.46 263.688ZM808.524 266.677L807.809 268.544L807.834 268.554L807.859 268.563L808.524 266.677ZM819.774 273.269L818.234 274.544L818.24 274.552L818.247 274.559L819.774 273.269ZM819.643 287.375L821.248 288.568L821.256 288.557L819.643 287.375ZM813.183 292.165L812.423 290.315L812.416 290.318L813.183 292.165ZM787.832 289.753L790.864 277.712L786.985 276.735L783.953 288.776L787.832 289.753ZM787.443 278.567C788.482 279.714 789.863 280.733 791.51 281.651L793.459 278.158C792.059 277.377 791.067 276.609 790.407 275.881L787.443 278.567ZM791.51 281.651C793.167 282.575 794.942 283.319 796.832 283.885L797.981 280.054C796.355 279.566 794.849 278.933 793.459 278.158L791.51 281.651ZM796.869 283.896C798.798 284.434 800.651 284.717 802.416 284.717V280.717C801.076 280.717 799.588 280.502 797.943 280.043L796.869 283.896ZM802.416 284.717C804.104 284.717 805.697 284.426 806.969 283.608L804.806 280.243C804.437 280.481 803.716 280.717 802.416 280.717V284.717ZM806.969 283.608C808.288 282.761 809.118 281.46 809.118 279.816H805.118C805.118 279.931 805.095 279.974 805.083 279.995C805.066 280.025 805.003 280.117 804.806 280.243L806.969 283.608ZM809.118 279.816C809.118 278.39 808.524 277.157 807.459 276.237L804.844 279.265C805.068 279.458 805.118 279.602 805.118 279.816H809.118ZM807.497 276.271C806.652 275.503 805.605 274.87 804.415 274.341L802.79 277.997C803.709 278.405 804.361 278.827 804.806 279.231L807.497 276.271ZM804.415 274.341C803.299 273.845 802.045 273.357 800.656 272.874L799.342 276.652C800.649 277.106 801.797 277.555 802.79 277.997L804.415 274.341ZM800.701 272.89C798.883 272.208 796.971 271.395 794.963 270.449L793.258 274.067C795.351 275.054 797.365 275.911 799.297 276.635L800.701 272.89ZM794.984 270.459C793.174 269.58 791.672 268.417 790.455 266.971L787.395 269.547C788.99 271.441 790.945 272.944 793.237 274.057L794.984 270.459ZM790.479 267C789.464 265.748 788.859 263.978 788.859 261.491H784.859C784.859 264.629 785.631 267.371 787.371 269.518L790.479 267ZM788.859 261.491C788.859 259.129 789.462 257.185 790.603 255.569L787.335 253.263C785.663 255.631 784.859 258.404 784.859 261.491H788.859ZM790.591 255.585C791.779 253.937 793.483 252.612 795.801 251.649L794.265 247.955C791.368 249.159 789.029 250.911 787.346 253.247L790.591 255.585ZM795.801 251.649C798.113 250.687 800.903 250.176 804.218 250.176V246.176C800.501 246.176 797.168 246.748 794.265 247.955L795.801 251.649ZM804.218 250.176C809.642 250.176 815.124 251.536 820.682 254.315L822.471 250.738C816.427 247.716 810.336 246.176 804.218 246.176V250.176ZM819.696 251.845L815.653 263.007L819.414 264.37L823.457 253.207L819.696 251.845ZM818.794 262.136C817.692 261.24 816.335 260.44 814.765 259.718L813.094 263.352C814.454 263.978 815.5 264.613 816.272 265.241L818.794 262.136ZM814.795 259.732C813.218 258.975 811.59 258.374 809.914 257.932L808.893 261.799C810.322 262.176 811.712 262.689 813.064 263.338L814.795 259.732ZM809.958 257.944C808.313 257.469 806.773 257.206 805.36 257.206V261.206C806.292 261.206 807.447 261.382 808.849 261.787L809.958 257.944ZM805.36 257.206C803.939 257.206 802.536 257.477 801.415 258.292L803.768 261.527C803.937 261.404 804.379 261.206 805.36 261.206V257.206ZM801.415 258.292C800.258 259.133 799.625 260.362 799.625 261.799H803.625C803.625 261.682 803.647 261.645 803.647 261.644C803.648 261.642 803.668 261.6 803.768 261.527L801.415 258.292ZM799.625 261.799C799.625 263.098 800.163 264.22 801.046 265.103L803.874 262.274C803.644 262.044 803.625 261.906 803.625 261.799H799.625ZM801.084 265.14C801.867 265.882 802.896 266.491 804.065 267.01L805.689 263.355C804.748 262.937 804.166 262.55 803.835 262.237L801.084 265.14ZM804.065 267.01C805.159 267.496 806.408 268.008 807.809 268.544L809.24 264.809C807.887 264.291 806.705 263.806 805.689 263.355L804.065 267.01ZM807.859 268.563C809.775 269.239 811.727 270.059 813.715 271.025L815.463 267.427C813.349 266.4 811.259 265.521 809.19 264.791L807.859 268.563ZM813.715 271.025C815.518 271.9 817.016 273.072 818.234 274.544L821.315 271.993C819.72 270.066 817.762 268.543 815.463 267.427L813.715 271.025ZM818.247 274.559C819.301 275.807 819.928 277.577 819.928 280.08H823.928C823.928 276.9 823.119 274.129 821.302 271.978L818.247 274.559ZM819.928 280.08C819.928 282.474 819.281 284.484 818.029 286.193L821.256 288.557C823.051 286.106 823.928 283.253 823.928 280.08H819.928ZM818.037 286.182C816.766 287.893 814.93 289.286 812.423 290.315L813.942 294.015C817.001 292.759 819.472 290.959 821.248 288.568L818.037 286.182ZM812.416 290.318C809.959 291.337 806.979 291.879 803.427 291.879V295.879C807.374 295.879 810.898 295.278 813.949 294.012L812.416 290.318ZM803.427 291.879C797.501 291.879 791.997 290.43 786.88 287.525L784.905 291.004C790.628 294.252 796.813 295.879 803.427 295.879V291.879Z" fill="#FE6310"/>
<defs>
<radialGradient id="paint0_diamond_203_73" cx="0" cy="0" r="1" gradientUnits="userSpaceOnUse" gradientTransform="translate(430.545 275.268) rotate(90) scale(270 430)">
<stop stop-color="#CF4F0A"/>
<stop offset="1"/>
</radialGradient>
</defs>
</svg>
