<svg width="864" height="546" viewBox="0 0 864 546" fill="none" xmlns="http://www.w3.org/2000/svg">
<rect x="0.544922" y="5.26846" width="860" height="540" rx="10" transform="rotate(-0.310028 0.544922 5.26846)" fill="url(#paint0_diamond_203_73)"/>
<path d="M233.312 290H219.562V231.406H233.312V255.156H256.203V231.406H269.953V290H256.203V267.188H233.312V290ZM326.602 290H315.391L314.727 285.547C313.294 287.214 311.549 288.503 309.492 289.414C307.435 290.326 305.169 290.781 302.695 290.781C299.987 290.781 297.578 290.26 295.469 289.219C293.359 288.177 291.693 286.745 290.469 284.922C289.271 283.073 288.672 280.977 288.672 278.633C288.672 276.159 289.323 273.984 290.625 272.109C291.953 270.234 293.776 268.763 296.094 267.695C298.411 266.628 301.055 266.094 304.023 266.094C305.716 266.094 307.383 266.276 309.023 266.641C310.69 267.005 312.279 267.513 313.789 268.164V267.344C313.789 265.964 313.372 264.766 312.539 263.75C311.706 262.734 310.573 261.94 309.141 261.367C307.708 260.768 306.081 260.469 304.258 260.469C302.461 260.469 300.716 260.755 299.023 261.328C297.331 261.875 295.781 262.669 294.375 263.711L291.016 254.141C293.776 252.812 296.523 251.823 299.258 251.172C302.018 250.495 304.674 250.156 307.227 250.156C311.159 250.156 314.57 250.924 317.461 252.461C320.378 253.997 322.63 256.172 324.219 258.984C325.807 261.771 326.602 265.078 326.602 268.906V290ZM305.586 281.211C306.914 281.211 308.19 280.924 309.414 280.352C310.664 279.753 311.68 278.971 312.461 278.008C313.268 277.044 313.685 276.016 313.711 274.922V274.766C312.669 274.089 311.51 273.581 310.234 273.242C308.958 272.878 307.682 272.695 306.406 272.695C304.505 272.695 302.982 273.086 301.836 273.867C300.69 274.622 300.117 275.638 300.117 276.914C300.117 277.721 300.352 278.464 300.82 279.141C301.289 279.792 301.94 280.299 302.773 280.664C303.607 281.029 304.544 281.211 305.586 281.211ZM359.344 290H346.531V250.938H357.664L358.094 257.383C359.396 255.091 361.128 253.32 363.289 252.07C365.451 250.794 367.924 250.156 370.711 250.156C371.57 250.156 372.443 250.221 373.328 250.352C374.24 250.482 375.151 250.677 376.062 250.938L374.5 262.461C372.677 261.888 370.971 261.602 369.383 261.602C367.352 261.602 365.581 262.044 364.07 262.93C362.56 263.815 361.388 265.052 360.555 266.641C359.747 268.229 359.344 270.104 359.344 272.266V290ZM433.609 290H422.359L421.695 284.805C420.107 286.654 418.18 288.112 415.914 289.18C413.648 290.247 411.201 290.781 408.57 290.781C405.081 290.781 401.969 289.909 399.234 288.164C396.526 286.393 394.391 283.984 392.828 280.938C391.266 277.865 390.484 274.375 390.484 270.469C390.484 266.562 391.266 263.086 392.828 260.039C394.391 256.966 396.526 254.557 399.234 252.812C401.969 251.042 405.081 250.156 408.57 250.156C410.992 250.156 413.245 250.599 415.328 251.484C417.411 252.344 419.234 253.555 420.797 255.117V231.406H433.609V290ZM412.242 279.297C413.805 279.297 415.237 278.958 416.539 278.281C417.841 277.578 418.87 276.615 419.625 275.391C420.406 274.141 420.797 272.721 420.797 271.133V269.688C420.797 268.125 420.406 266.745 419.625 265.547C418.87 264.323 417.841 263.359 416.539 262.656C415.237 261.953 413.805 261.602 412.242 261.602C410.576 261.602 409.091 261.992 407.789 262.773C406.487 263.529 405.458 264.583 404.703 265.938C403.974 267.266 403.609 268.776 403.609 270.469C403.609 272.161 403.974 273.685 404.703 275.039C405.458 276.367 406.487 277.409 407.789 278.164C409.091 278.919 410.576 279.297 412.242 279.297ZM503.344 290H488.734L483.344 267.812L477.953 290H463.344L450.688 250.938H464.242L470.453 276.836L477.797 250.938H488.891L496.234 276.953L502.445 250.938H516L503.344 290ZM567.492 290H556.281L555.617 285.547C554.185 287.214 552.44 288.503 550.383 289.414C548.326 290.326 546.06 290.781 543.586 290.781C540.878 290.781 538.469 290.26 536.359 289.219C534.25 288.177 532.583 286.745 531.359 284.922C530.161 283.073 529.562 280.977 529.562 278.633C529.562 276.159 530.214 273.984 531.516 272.109C532.844 270.234 534.667 268.763 536.984 267.695C539.302 266.628 541.945 266.094 544.914 266.094C546.607 266.094 548.273 266.276 549.914 266.641C551.581 267.005 553.169 267.513 554.68 268.164V267.344C554.68 265.964 554.263 264.766 553.43 263.75C552.596 262.734 551.464 261.94 550.031 261.367C548.599 260.768 546.971 260.469 545.148 260.469C543.352 260.469 541.607 260.755 539.914 261.328C538.221 261.875 536.672 262.669 535.266 263.711L531.906 254.141C534.667 252.812 537.414 251.823 540.148 251.172C542.909 250.495 545.565 250.156 548.117 250.156C552.049 250.156 555.461 250.924 558.352 252.461C561.268 253.997 563.521 256.172 565.109 258.984C566.698 261.771 567.492 265.078 567.492 268.906V290ZM546.477 281.211C547.805 281.211 549.081 280.924 550.305 280.352C551.555 279.753 552.57 278.971 553.352 278.008C554.159 277.044 554.576 276.016 554.602 274.922V274.766C553.56 274.089 552.401 273.581 551.125 273.242C549.849 272.878 548.573 272.695 547.297 272.695C545.396 272.695 543.872 273.086 542.727 273.867C541.581 274.622 541.008 275.638 541.008 276.914C541.008 277.721 541.242 278.464 541.711 279.141C542.18 279.792 542.831 280.299 543.664 280.664C544.497 281.029 545.435 281.211 546.477 281.211ZM600.234 290H587.422V250.938H598.555L598.984 257.383C600.286 255.091 602.018 253.32 604.18 252.07C606.341 250.794 608.815 250.156 611.602 250.156C612.461 250.156 613.333 250.221 614.219 250.352C615.13 250.482 616.042 250.677 616.953 250.938L615.391 262.461C613.568 261.888 611.862 261.602 610.273 261.602C608.242 261.602 606.471 262.044 604.961 262.93C603.451 263.815 602.279 265.052 601.445 266.641C600.638 268.229 600.234 270.104 600.234 272.266V290ZM670.125 285.742C665.255 289.102 659.956 290.781 654.227 290.781C649.904 290.781 646.01 289.87 642.547 288.047C639.109 286.198 636.388 283.698 634.383 280.547C632.378 277.37 631.375 273.802 631.375 269.844C631.375 266.068 632.273 262.708 634.07 259.766C635.867 256.797 638.315 254.453 641.414 252.734C644.539 251.016 648.068 250.156 652 250.156C656.089 250.156 659.682 251.107 662.781 253.008C665.88 254.909 668.289 257.552 670.008 260.938C671.753 264.297 672.625 268.203 672.625 272.656V273.906H645.125C645.594 275.182 646.297 276.315 647.234 277.305C648.198 278.294 649.396 279.089 650.828 279.688C652.26 280.26 653.901 280.547 655.75 280.547C659.578 280.547 663.172 279.31 666.531 276.836L670.125 285.742ZM644.578 268.125H660.828C660.672 266.667 660.229 265.378 659.5 264.258C658.771 263.138 657.807 262.266 656.609 261.641C655.438 261.016 654.122 260.703 652.664 260.703C651.18 260.703 649.865 261.042 648.719 261.719C647.599 262.37 646.674 263.255 645.945 264.375C645.242 265.469 644.786 266.719 644.578 268.125Z" fill="#292626"/>
<path d="M233.312 290V292H235.312V290H233.312ZM219.562 290H217.562V292H219.562V290ZM219.562 231.406V229.406H217.562V231.406H219.562ZM233.312 231.406H235.312V229.406H233.312V231.406ZM233.312 255.156H231.312V257.156H233.312V255.156ZM256.203 255.156V257.156H258.203V255.156H256.203ZM256.203 231.406V229.406H254.203V231.406H256.203ZM269.953 231.406H271.953V229.406H269.953V231.406ZM269.953 290V292H271.953V290H269.953ZM256.203 290H254.203V292H256.203V290ZM256.203 267.188H258.203V265.188H256.203V267.188ZM233.312 267.188V265.188H231.312V267.188H233.312ZM233.312 288H219.562V292H233.312V288ZM221.562 290V231.406H217.562V290H221.562ZM219.562 233.406H233.312V229.406H219.562V233.406ZM231.312 231.406V255.156H235.312V231.406H231.312ZM233.312 257.156H256.203V253.156H233.312V257.156ZM258.203 255.156V231.406H254.203V255.156H258.203ZM256.203 233.406H269.953V229.406H256.203V233.406ZM267.953 231.406V290H271.953V231.406H267.953ZM269.953 288H256.203V292H269.953V288ZM258.203 290V267.188H254.203V290H258.203ZM256.203 265.188H233.312V269.188H256.203V265.188ZM231.312 267.188V290H235.312V267.188H231.312ZM326.602 290V292H328.602V290H326.602ZM315.391 290L313.412 290.295L313.667 292H315.391V290ZM314.727 285.547L316.705 285.252L316.06 280.927L313.21 284.243L314.727 285.547ZM290.469 284.922L288.79 286.009L288.799 286.023L288.808 286.037L290.469 284.922ZM290.625 272.109L288.993 270.953L288.988 270.961L288.982 270.969L290.625 272.109ZM309.023 266.641L308.59 268.593L308.596 268.594L309.023 266.641ZM313.789 268.164L312.997 270.001L315.789 271.204V268.164H313.789ZM309.141 261.367L308.369 263.212L308.383 263.218L308.398 263.224L309.141 261.367ZM299.023 261.328L299.638 263.231L299.651 263.227L299.665 263.223L299.023 261.328ZM294.375 263.711L292.488 264.373L293.386 266.932L295.565 265.318L294.375 263.711ZM291.016 254.141L290.149 252.338L288.536 253.114L289.129 254.803L291.016 254.141ZM299.258 251.172L299.721 253.118L299.734 253.114L299.258 251.172ZM317.461 252.461L316.522 254.227L316.529 254.23L317.461 252.461ZM324.219 258.984L322.477 259.968L322.481 259.975L324.219 258.984ZM309.414 280.352L310.262 282.163L310.27 282.159L310.278 282.155L309.414 280.352ZM312.461 278.008L310.928 276.723L310.918 276.736L310.907 276.748L312.461 278.008ZM313.711 274.922L315.71 274.969L315.711 274.946V274.922H313.711ZM313.711 274.766H315.711V273.68L314.801 273.089L313.711 274.766ZM310.234 273.242L309.685 275.165L309.703 275.17L309.722 275.175L310.234 273.242ZM301.836 273.867L302.937 275.537L302.95 275.528L302.963 275.52L301.836 273.867ZM300.82 279.141L299.176 280.279L299.186 280.294L299.197 280.309L300.82 279.141ZM326.602 288H315.391V292H326.602V288ZM317.369 289.705L316.705 285.252L312.748 285.842L313.412 290.295L317.369 289.705ZM313.21 284.243C311.976 285.679 310.474 286.791 308.682 287.585L310.302 291.243C312.625 290.214 314.613 288.748 316.243 286.85L313.21 284.243ZM308.682 287.585C306.904 288.373 304.918 288.781 302.695 288.781V292.781C305.42 292.781 307.966 292.278 310.302 291.243L308.682 287.585ZM302.695 288.781C300.248 288.781 298.149 288.312 296.354 287.425L294.583 291.012C297.007 292.209 299.726 292.781 302.695 292.781V288.781ZM296.354 287.425C294.535 286.527 293.145 285.319 292.129 283.807L288.808 286.037C290.241 288.17 292.184 289.827 294.583 291.012L296.354 287.425ZM292.147 283.834C291.173 282.33 290.672 280.616 290.672 278.633H286.672C286.672 281.337 287.369 283.816 288.79 286.009L292.147 283.834ZM290.672 278.633C290.672 276.531 291.218 274.762 292.268 273.25L288.982 270.969C287.428 273.207 286.672 275.787 286.672 278.633H290.672ZM292.257 273.265C293.361 271.707 294.895 270.449 296.931 269.512L295.257 265.879C292.657 267.077 290.545 268.762 288.993 270.953L292.257 273.265ZM296.931 269.512C298.946 268.583 301.297 268.094 304.023 268.094V264.094C300.813 264.094 297.877 264.672 295.257 265.879L296.931 269.512ZM304.023 268.094C305.571 268.094 307.092 268.26 308.59 268.593L309.457 264.688C307.673 264.292 305.861 264.094 304.023 264.094V268.094ZM308.596 268.594C310.142 268.933 311.609 269.402 312.997 270.001L314.581 266.327C312.949 265.624 311.238 265.078 309.451 264.687L308.596 268.594ZM315.789 268.164V267.344H311.789V268.164H315.789ZM315.789 267.344C315.789 265.526 315.228 263.874 314.085 262.481L310.993 265.019C311.517 265.658 311.789 266.401 311.789 267.344H315.789ZM314.085 262.481C313.003 261.163 311.574 260.186 309.883 259.51L308.398 263.224C309.572 263.694 310.408 264.306 310.993 265.019L314.085 262.481ZM309.912 259.522C308.197 258.805 306.3 258.469 304.258 258.469V262.469C305.861 262.469 307.22 262.732 308.369 263.212L309.912 259.522ZM304.258 258.469C302.244 258.469 300.283 258.79 298.382 259.434L299.665 263.223C301.15 262.72 302.678 262.469 304.258 262.469V258.469ZM298.409 259.425C296.513 260.038 294.768 260.931 293.185 262.104L295.565 265.318C296.794 264.408 298.149 263.712 299.638 263.231L298.409 259.425ZM296.262 263.049L292.903 253.478L289.129 254.803L292.488 264.373L296.262 263.049ZM291.883 255.943C294.525 254.671 297.138 253.733 299.721 253.117L298.795 249.226C295.909 249.913 293.027 250.954 290.149 252.338L291.883 255.943ZM299.734 253.114C302.356 252.471 304.852 252.156 307.227 252.156V248.156C304.497 248.156 301.68 248.518 298.781 249.229L299.734 253.114ZM307.227 252.156C310.897 252.156 313.973 252.872 316.522 254.227L318.4 250.695C315.167 248.977 311.421 248.156 307.227 248.156V252.156ZM316.529 254.23C319.113 255.592 321.082 257.497 322.477 259.968L325.96 258.001C324.179 254.847 321.642 252.403 318.393 250.691L316.529 254.23ZM322.481 259.975C323.867 262.406 324.602 265.358 324.602 268.906H328.602C328.602 264.798 327.747 261.136 325.956 257.994L322.481 259.975ZM324.602 268.906V290H328.602V268.906H324.602ZM305.586 283.211C307.212 283.211 308.777 282.858 310.262 282.163L308.566 278.54C307.603 278.991 306.616 279.211 305.586 279.211V283.211ZM310.278 282.155C311.764 281.443 313.026 280.487 314.014 279.267L310.907 276.748C310.334 277.456 309.564 278.062 308.55 278.548L310.278 282.155ZM313.994 279.292C315.047 278.036 315.672 276.583 315.71 274.969L311.712 274.874C311.698 275.449 311.49 276.053 310.928 276.723L313.994 279.292ZM315.711 274.922V274.766H311.711V274.922H315.711ZM314.801 273.089C313.571 272.289 312.215 271.699 310.747 271.309L309.722 275.175C310.806 275.463 311.768 275.888 312.621 276.443L314.801 273.089ZM310.784 271.319C309.336 270.906 307.875 270.695 306.406 270.695V274.695C307.489 274.695 308.58 274.85 309.685 275.165L310.784 271.319ZM306.406 270.695C304.248 270.695 302.29 271.137 300.709 272.215L302.963 275.52C303.674 275.035 304.762 274.695 306.406 274.695V270.695ZM300.735 272.197C299.078 273.289 298.117 274.907 298.117 276.914H302.117C302.117 276.369 302.302 275.955 302.937 275.537L300.735 272.197ZM298.117 276.914C298.117 278.137 298.481 279.275 299.176 280.279L302.465 278.002C302.223 277.652 302.117 277.306 302.117 276.914H298.117ZM299.197 280.309C299.902 281.288 300.855 282.008 301.972 282.496L303.575 278.832C303.025 278.591 302.676 278.295 302.443 277.972L299.197 280.309ZM301.972 282.496C303.092 282.986 304.308 283.211 305.586 283.211V279.211C304.78 279.211 304.121 279.071 303.575 278.832L301.972 282.496ZM359.344 290V292H361.344V290H359.344ZM346.531 290H344.531V292H346.531V290ZM346.531 250.938V248.938H344.531V250.938H346.531ZM357.664 250.938L359.66 250.804L359.535 248.938H357.664V250.938ZM358.094 257.383L356.098 257.516L356.541 264.164L359.833 258.371L358.094 257.383ZM363.289 252.07L364.29 253.802L364.298 253.797L364.306 253.793L363.289 252.07ZM373.328 250.352L373.037 252.33L373.045 252.331L373.328 250.352ZM376.062 250.938L378.044 251.206L378.277 249.49L376.612 249.014L376.062 250.938ZM374.5 262.461L373.9 264.369L376.163 265.08L376.482 262.73L374.5 262.461ZM360.555 266.641L358.784 265.712L358.778 265.723L358.772 265.735L360.555 266.641ZM359.344 288H346.531V292H359.344V288ZM348.531 290V250.938H344.531V290H348.531ZM346.531 252.938H357.664V248.938H346.531V252.938ZM355.668 251.071L356.098 257.516L360.089 257.25L359.66 250.804L355.668 251.071ZM359.833 258.371C360.969 256.37 362.454 254.864 364.29 253.802L362.288 250.339C359.801 251.777 357.822 253.812 356.355 256.395L359.833 258.371ZM364.306 253.793C366.126 252.718 368.242 252.156 370.711 252.156V248.156C367.607 248.156 364.775 248.871 362.272 250.348L364.306 253.793ZM370.711 252.156C371.469 252.156 372.244 252.214 373.037 252.33L373.619 248.373C372.641 248.229 371.672 248.156 370.711 248.156V252.156ZM373.045 252.331C373.864 252.448 374.686 252.624 375.513 252.861L376.612 249.014C375.616 248.73 374.615 248.515 373.611 248.372L373.045 252.331ZM374.081 250.669L372.518 262.192L376.482 262.73L378.044 251.206L374.081 250.669ZM375.1 260.553C373.121 259.931 371.211 259.602 369.383 259.602V263.602C370.732 263.602 372.233 263.845 373.9 264.369L375.1 260.553ZM369.383 259.602C367.054 259.602 364.922 260.112 363.059 261.204L365.082 264.655C366.239 263.977 367.649 263.602 369.383 263.602V259.602ZM363.059 261.204C361.217 262.284 359.786 263.8 358.784 265.712L362.326 267.57C362.99 266.304 363.902 265.346 365.082 264.655L363.059 261.204ZM358.772 265.735C357.795 267.657 357.344 269.856 357.344 272.266H361.344C361.344 270.353 361.7 268.801 362.338 267.547L358.772 265.735ZM357.344 272.266V290H361.344V272.266H357.344ZM433.609 290V292H435.609V290H433.609ZM422.359 290L420.376 290.254L420.599 292H422.359V290ZM421.695 284.805L423.679 284.551L423.109 280.09L420.178 283.501L421.695 284.805ZM399.234 288.164L398.14 289.838L398.149 289.844L398.159 289.85L399.234 288.164ZM392.828 280.938L391.045 281.844L391.048 281.85L392.828 280.938ZM392.828 260.039L394.608 260.952L394.611 260.946L392.828 260.039ZM399.234 252.812L400.318 254.494L400.322 254.491L399.234 252.812ZM415.328 251.484L414.546 253.325L414.556 253.329L414.565 253.333L415.328 251.484ZM420.797 255.117L419.383 256.531L422.797 259.946V255.117H420.797ZM420.797 231.406V229.406H418.797V231.406H420.797ZM433.609 231.406H435.609V229.406H433.609V231.406ZM416.539 278.281L417.462 280.056L417.476 280.048L417.489 280.041L416.539 278.281ZM419.625 275.391L417.929 274.331L417.923 274.34L419.625 275.391ZM419.625 265.547L417.923 266.597L417.936 266.618L417.95 266.639L419.625 265.547ZM407.789 262.773L408.792 264.503L408.805 264.496L408.818 264.488L407.789 262.773ZM404.703 265.938L402.956 264.963L402.95 264.975L404.703 265.938ZM404.703 275.039L402.942 275.987L402.953 276.008L402.965 276.028L404.703 275.039ZM407.789 278.164L406.786 279.894L407.789 278.164ZM433.609 288H422.359V292H433.609V288ZM424.343 289.746L423.679 284.551L419.711 285.058L420.376 290.254L424.343 289.746ZM420.178 283.501C418.778 285.131 417.08 286.419 415.061 287.371L416.767 290.989C419.28 289.805 421.435 288.176 423.212 286.108L420.178 283.501ZM415.061 287.371C413.076 288.306 410.921 288.781 408.57 288.781V292.781C411.48 292.781 414.221 292.189 416.767 290.989L415.061 287.371ZM408.57 288.781C405.432 288.781 402.699 288.002 400.31 286.478L398.159 289.85C401.239 291.816 404.73 292.781 408.57 292.781V288.781ZM400.329 286.49C397.928 284.92 396.021 282.781 394.608 280.025L391.048 281.85C392.76 285.187 395.124 287.866 398.14 289.838L400.329 286.49ZM394.611 280.031C393.209 277.274 392.484 274.102 392.484 270.469H388.484C388.484 274.648 389.322 278.455 391.045 281.844L394.611 280.031ZM392.484 270.469C392.484 266.835 393.209 263.679 394.608 260.952L391.048 259.126C389.322 262.493 388.484 266.29 388.484 270.469H392.484ZM394.611 260.946C396.025 258.165 397.928 256.033 400.318 254.494L398.151 251.131C395.124 253.081 392.757 255.767 391.045 259.133L394.611 260.946ZM400.322 254.491C402.709 252.945 405.438 252.156 408.57 252.156V248.156C404.724 248.156 401.229 249.138 398.147 251.134L400.322 254.491ZM408.57 252.156C410.742 252.156 412.727 252.552 414.546 253.325L416.11 249.644C413.763 248.646 411.242 248.156 408.57 248.156V252.156ZM414.565 253.333C416.41 254.094 418.01 255.159 419.383 256.531L422.211 253.703C420.458 251.95 418.413 250.593 416.091 249.635L414.565 253.333ZM422.797 255.117V231.406H418.797V255.117H422.797ZM420.797 233.406H433.609V229.406H420.797V233.406ZM431.609 231.406V290H435.609V231.406H431.609ZM412.242 281.297C414.105 281.297 415.856 280.891 417.462 280.056L415.616 276.507C414.618 277.026 413.505 277.297 412.242 277.297V281.297ZM417.489 280.041C419.091 279.176 420.382 277.972 421.327 276.441L417.923 274.34C417.357 275.257 416.592 275.98 415.589 276.521L417.489 280.041ZM421.321 276.451C422.316 274.858 422.797 273.066 422.797 271.133H418.797C418.797 272.377 418.496 273.423 417.929 274.331L421.321 276.451ZM422.797 271.133V269.688H418.797V271.133H422.797ZM422.797 269.688C422.797 267.774 422.313 266.007 421.3 264.454L417.95 266.639C418.5 267.482 418.797 268.476 418.797 269.688H422.797ZM421.327 264.497C420.382 262.965 419.091 261.761 417.489 260.896L415.589 264.416C416.592 264.958 417.357 265.68 417.923 266.597L421.327 264.497ZM417.489 260.896C415.879 260.027 414.117 259.602 412.242 259.602V263.602C413.492 263.602 414.595 263.879 415.589 264.416L417.489 260.896ZM412.242 259.602C410.25 259.602 408.403 260.073 406.76 261.058L408.818 264.488C409.779 263.912 410.902 263.602 412.242 263.602V259.602ZM406.786 261.043C405.163 261.985 403.881 263.305 402.956 264.963L406.45 266.912C407.035 265.862 407.811 265.073 408.792 264.503L406.786 261.043ZM402.95 264.975C402.041 266.631 401.609 268.48 401.609 270.469H405.609C405.609 269.072 405.907 267.9 406.456 266.9L402.95 264.975ZM401.609 270.469C401.609 272.458 402.041 274.313 402.942 275.987L406.464 274.091C405.907 273.057 405.609 271.864 405.609 270.469H401.609ZM402.965 276.028C403.892 277.659 405.172 278.958 406.786 279.894L408.792 276.434C407.802 275.859 407.025 275.076 406.442 274.05L402.965 276.028ZM406.786 279.894C408.424 280.845 410.262 281.297 412.242 281.297V277.297C410.889 277.297 409.758 276.994 408.792 276.434L406.786 279.894ZM503.344 290V292H504.798L505.246 290.616L503.344 290ZM488.734 290L486.791 290.472L487.162 292H488.734V290ZM483.344 267.812L485.287 267.34H481.4L483.344 267.812ZM477.953 290V292H479.525L479.897 290.472L477.953 290ZM463.344 290L461.441 290.616L461.889 292H463.344V290ZM450.688 250.938V248.938H447.937L448.785 251.554L450.688 250.938ZM464.242 250.938L466.187 250.471L465.819 248.938H464.242V250.938ZM470.453 276.836L468.508 277.302L470.291 284.738L472.377 277.382L470.453 276.836ZM477.797 250.938V248.938H476.285L475.873 250.392L477.797 250.938ZM488.891 250.938L490.815 250.394L490.404 248.938H488.891V250.938ZM496.234 276.953L494.31 277.496L496.396 284.888L498.18 277.418L496.234 276.953ZM502.445 250.938V248.938H500.867L500.5 250.473L502.445 250.938ZM516 250.938L517.903 251.554L518.75 248.938H516V250.938ZM503.344 288H488.734V292H503.344V288ZM490.678 289.528L485.287 267.34L481.4 268.285L486.791 290.472L490.678 289.528ZM481.4 267.34L476.01 289.528L479.897 290.472L485.287 268.285L481.4 267.34ZM477.953 288H463.344V292H477.953V288ZM465.246 289.384L452.59 250.321L448.785 251.554L461.441 290.616L465.246 289.384ZM450.688 252.938H464.242V248.938H450.688V252.938ZM462.297 251.404L468.508 277.302L472.398 276.37L466.187 250.471L462.297 251.404ZM472.377 277.382L479.721 251.483L475.873 250.392L468.529 276.29L472.377 277.382ZM477.797 252.938H488.891V248.938H477.797V252.938ZM486.966 251.481L494.31 277.496L498.159 276.41L490.815 250.394L486.966 251.481ZM498.18 277.418L504.391 251.402L500.5 250.473L494.289 276.489L498.18 277.418ZM502.445 252.938H516V248.938H502.445V252.938ZM514.097 250.321L501.441 289.384L505.246 290.616L517.903 251.554L514.097 250.321ZM567.492 290V292H569.492V290H567.492ZM556.281 290L554.303 290.295L554.557 292H556.281V290ZM555.617 285.547L557.595 285.252L556.95 280.927L554.1 284.243L555.617 285.547ZM531.359 284.922L529.681 286.009L529.69 286.023L529.699 286.037L531.359 284.922ZM531.516 272.109L529.884 270.953L529.878 270.961L529.873 270.969L531.516 272.109ZM549.914 266.641L549.48 268.593L549.487 268.594L549.914 266.641ZM554.68 268.164L553.888 270.001L556.68 271.204V268.164H554.68ZM550.031 261.367L549.26 263.212L549.274 263.218L549.288 263.224L550.031 261.367ZM539.914 261.328L540.529 263.231L540.542 263.227L540.555 263.223L539.914 261.328ZM535.266 263.711L533.379 264.373L534.277 266.932L536.456 265.318L535.266 263.711ZM531.906 254.141L531.039 252.338L529.426 253.114L530.019 254.803L531.906 254.141ZM540.148 251.172L540.612 253.118L540.625 253.114L540.148 251.172ZM558.352 252.461L557.413 254.227L557.419 254.23L558.352 252.461ZM565.109 258.984L563.368 259.968L563.372 259.975L565.109 258.984ZM550.305 280.352L551.153 282.163L551.161 282.159L551.169 282.155L550.305 280.352ZM553.352 278.008L551.819 276.723L551.808 276.736L551.798 276.748L553.352 278.008ZM554.602 274.922L556.601 274.969L556.602 274.946V274.922H554.602ZM554.602 274.766H556.602V273.68L555.692 273.089L554.602 274.766ZM551.125 273.242L550.576 275.165L550.594 275.17L550.612 275.175L551.125 273.242ZM542.727 273.867L543.827 275.537L543.84 275.528L543.853 275.52L542.727 273.867ZM541.711 279.141L540.067 280.279L540.077 280.294L540.088 280.309L541.711 279.141ZM567.492 288H556.281V292H567.492V288ZM558.259 289.705L557.595 285.252L553.639 285.842L554.303 290.295L558.259 289.705ZM554.1 284.243C552.866 285.679 551.365 286.791 549.573 287.585L551.193 291.243C553.515 290.214 555.503 288.748 557.134 286.85L554.1 284.243ZM549.573 287.585C547.795 288.373 545.809 288.781 543.586 288.781V292.781C546.311 292.781 548.856 292.278 551.193 291.243L549.573 287.585ZM543.586 288.781C541.138 288.781 539.04 288.312 537.245 287.425L535.474 291.012C537.897 292.209 540.617 292.781 543.586 292.781V288.781ZM537.245 287.425C535.426 286.527 534.035 285.319 533.02 283.807L529.699 286.037C531.131 288.17 533.074 289.827 535.474 291.012L537.245 287.425ZM533.038 283.834C532.063 282.33 531.562 280.616 531.562 278.633H527.562C527.562 281.337 528.259 283.816 529.681 286.009L533.038 283.834ZM531.562 278.633C531.562 276.531 532.109 274.762 533.158 273.25L529.873 270.969C528.319 273.207 527.562 275.787 527.562 278.633H531.562ZM533.148 273.265C534.251 271.707 535.786 270.449 537.821 269.512L536.148 265.879C533.548 267.077 531.436 268.762 529.884 270.953L533.148 273.265ZM537.821 269.512C539.837 268.583 542.187 268.094 544.914 268.094V264.094C541.703 264.094 538.767 264.672 536.148 265.879L537.821 269.512ZM544.914 268.094C546.462 268.094 547.983 268.26 549.48 268.593L550.348 264.688C548.564 264.292 546.752 264.094 544.914 264.094V268.094ZM549.487 268.594C551.033 268.933 552.499 269.402 553.888 270.001L555.471 266.327C553.839 265.624 552.128 265.078 550.341 264.687L549.487 268.594ZM556.68 268.164V267.344H552.68V268.164H556.68ZM556.68 267.344C556.68 265.526 556.118 263.874 554.976 262.481L551.884 265.019C552.408 265.658 552.68 266.401 552.68 267.344H556.68ZM554.976 262.481C553.894 261.163 552.465 260.186 550.774 259.51L549.288 263.224C550.462 263.694 551.299 264.306 551.884 265.019L554.976 262.481ZM550.803 259.522C549.087 258.805 547.191 258.469 545.148 258.469V262.469C546.752 262.469 548.11 262.732 549.26 263.212L550.803 259.522ZM545.148 258.469C543.135 258.469 541.173 258.79 539.273 259.434L540.555 263.223C542.04 262.72 543.568 262.469 545.148 262.469V258.469ZM539.299 259.425C537.403 260.038 535.659 260.931 534.075 262.104L536.456 265.318C537.685 264.408 539.039 263.712 540.529 263.231L539.299 259.425ZM537.153 263.049L533.793 253.478L530.019 254.803L533.379 264.373L537.153 263.049ZM532.773 255.943C535.416 254.671 538.029 253.733 540.612 253.117L539.685 249.226C536.8 249.913 533.917 250.954 531.039 252.338L532.773 255.943ZM540.625 253.114C543.247 252.471 545.743 252.156 548.117 252.156V248.156C545.388 248.156 542.571 248.518 539.672 249.229L540.625 253.114ZM548.117 252.156C551.788 252.156 554.864 252.872 557.413 254.227L559.29 250.695C556.058 248.977 552.311 248.156 548.117 248.156V252.156ZM557.419 254.23C560.004 255.592 561.972 257.497 563.368 259.968L566.851 258.001C565.069 254.847 562.533 252.403 559.284 250.691L557.419 254.23ZM563.372 259.975C564.758 262.406 565.492 265.358 565.492 268.906H569.492C569.492 264.798 568.638 261.136 566.847 257.994L563.372 259.975ZM565.492 268.906V290H569.492V268.906H565.492ZM546.477 283.211C548.103 283.211 549.668 282.858 551.153 282.163L549.457 278.54C548.493 278.991 547.506 279.211 546.477 279.211V283.211ZM551.169 282.155C552.655 281.443 553.916 280.487 554.905 279.267L551.798 276.748C551.224 277.456 550.455 278.062 549.44 278.548L551.169 282.155ZM554.885 279.292C555.937 278.036 556.563 276.583 556.601 274.969L552.602 274.874C552.588 275.449 552.38 276.053 551.819 276.723L554.885 279.292ZM556.602 274.922V274.766H552.602V274.922H556.602ZM555.692 273.089C554.461 272.289 553.106 271.699 551.638 271.309L550.612 275.175C551.696 275.463 552.658 275.888 553.512 276.443L555.692 273.089ZM551.674 271.319C550.227 270.906 548.766 270.695 547.297 270.695V274.695C548.38 274.695 549.471 274.85 550.576 275.165L551.674 271.319ZM547.297 270.695C545.139 270.695 543.18 271.137 541.6 272.215L543.853 275.52C544.565 275.035 545.653 274.695 547.297 274.695V270.695ZM541.626 272.197C539.969 273.289 539.008 274.907 539.008 276.914H543.008C543.008 276.369 543.192 275.955 543.827 275.537L541.626 272.197ZM539.008 276.914C539.008 278.137 539.371 279.275 540.067 280.279L543.355 278.002C543.113 277.652 543.008 277.306 543.008 276.914H539.008ZM540.088 280.309C540.793 281.288 541.746 282.008 542.862 282.496L544.466 278.832C543.916 278.591 543.566 278.295 543.334 277.972L540.088 280.309ZM542.862 282.496C543.983 282.986 545.199 283.211 546.477 283.211V279.211C545.671 279.211 545.012 279.071 544.466 278.832L542.862 282.496ZM600.234 290V292H602.234V290H600.234ZM587.422 290H585.422V292H587.422V290ZM587.422 250.938V248.938H585.422V250.938H587.422ZM598.555 250.938L600.55 250.804L600.426 248.938H598.555V250.938ZM598.984 257.383L596.989 257.516L597.432 264.164L600.723 258.371L598.984 257.383ZM604.18 252.07L605.181 253.802L605.189 253.797L605.196 253.793L604.18 252.07ZM614.219 250.352L613.928 252.33L613.936 252.331L614.219 250.352ZM616.953 250.938L618.935 251.206L619.168 249.49L617.503 249.014L616.953 250.938ZM615.391 262.461L614.791 264.369L617.054 265.08L617.372 262.73L615.391 262.461ZM601.445 266.641L599.674 265.712L599.668 265.723L599.662 265.735L601.445 266.641ZM600.234 288H587.422V292H600.234V288ZM589.422 290V250.938H585.422V290H589.422ZM587.422 252.938H598.555V248.938H587.422V252.938ZM596.559 251.071L596.989 257.516L600.98 257.25L600.55 250.804L596.559 251.071ZM600.723 258.371C601.86 256.37 603.344 254.864 605.181 253.802L603.178 250.339C600.692 251.777 598.713 253.812 597.245 256.395L600.723 258.371ZM605.196 253.793C607.017 252.718 609.132 252.156 611.602 252.156V248.156C608.498 248.156 605.665 248.871 603.163 250.348L605.196 253.793ZM611.602 252.156C612.36 252.156 613.135 252.214 613.928 252.33L614.51 248.373C613.532 248.229 612.562 248.156 611.602 248.156V252.156ZM613.936 252.331C614.755 252.448 615.577 252.624 616.404 252.861L617.503 249.014C616.506 248.73 615.506 248.515 614.502 248.372L613.936 252.331ZM614.971 250.669L613.409 262.192L617.372 262.73L618.935 251.206L614.971 250.669ZM615.99 260.553C614.011 259.931 612.102 259.602 610.273 259.602V263.602C611.622 263.602 613.124 263.845 614.791 264.369L615.99 260.553ZM610.273 259.602C607.944 259.602 605.813 260.112 603.949 261.204L605.972 264.655C607.13 263.977 608.54 263.602 610.273 263.602V259.602ZM603.949 261.204C602.108 262.284 600.677 263.8 599.674 265.712L603.216 267.57C603.88 266.304 604.793 265.346 605.972 264.655L603.949 261.204ZM599.662 265.735C598.685 267.657 598.234 269.856 598.234 272.266H602.234C602.234 270.353 602.591 268.801 603.228 267.547L599.662 265.735ZM598.234 272.266V290H602.234V272.266H598.234ZM670.125 285.742L671.261 287.388L672.579 286.479L671.98 284.994L670.125 285.742ZM642.547 288.047L641.599 289.808L641.607 289.813L641.615 289.817L642.547 288.047ZM634.383 280.547L632.691 281.614L632.695 281.621L634.383 280.547ZM634.07 259.766L635.777 260.808L635.781 260.801L634.07 259.766ZM641.414 252.734L640.45 250.982L640.444 250.985L641.414 252.734ZM670.008 260.938L668.224 261.843L668.229 261.851L668.233 261.859L670.008 260.938ZM672.625 273.906V275.906H674.625V273.906H672.625ZM645.125 273.906V271.906H642.26L643.248 274.596L645.125 273.906ZM647.234 277.305L645.782 278.68L645.792 278.69L645.801 278.7L647.234 277.305ZM650.828 279.688L650.057 281.533L650.071 281.539L650.085 281.544L650.828 279.688ZM666.531 276.836L668.386 276.088L667.421 273.697L665.345 275.226L666.531 276.836ZM644.578 268.125L642.6 267.832L642.26 270.125H644.578V268.125ZM660.828 268.125V270.125H663.054L662.817 267.912L660.828 268.125ZM656.609 261.641L655.668 263.405L655.676 263.41L655.684 263.414L656.609 261.641ZM648.719 261.719L649.724 263.448L649.73 263.444L649.736 263.441L648.719 261.719ZM645.945 264.375L644.269 263.284L644.263 263.293L645.945 264.375ZM668.989 284.096C664.442 287.233 659.536 288.781 654.227 288.781V292.781C660.375 292.781 666.069 290.97 671.261 287.388L668.989 284.096ZM654.227 288.781C650.194 288.781 646.626 287.933 643.478 286.277L641.615 289.817C645.395 291.806 649.614 292.781 654.227 292.781V288.781ZM643.494 286.286C640.344 284.591 637.883 282.322 636.07 279.473L632.695 281.621C634.893 285.074 637.875 287.805 641.599 289.808L643.494 286.286ZM636.074 279.479C634.282 276.639 633.375 273.445 633.375 269.844H629.375C629.375 274.159 630.474 278.1 632.692 281.614L636.074 279.479ZM633.375 269.844C633.375 266.399 634.19 263.407 635.777 260.808L632.363 258.723C630.357 262.009 629.375 265.736 629.375 269.844H633.375ZM635.781 260.801C637.394 258.137 639.583 256.037 642.384 254.483L640.444 250.985C637.047 252.87 634.341 255.456 632.359 258.73L635.781 260.801ZM642.378 254.487C645.178 252.947 648.369 252.156 652 252.156V248.156C647.766 248.156 643.9 249.085 640.45 250.982L642.378 254.487ZM652 252.156C655.767 252.156 658.989 253.028 661.735 254.713L663.827 251.303C660.375 249.186 656.41 248.156 652 248.156V252.156ZM661.735 254.713C664.505 256.412 666.665 258.772 668.224 261.843L671.791 260.032C669.913 256.333 667.255 253.406 663.827 251.303L661.735 254.713ZM668.233 261.859C669.806 264.888 670.625 268.467 670.625 272.656H674.625C674.625 267.939 673.699 263.706 671.783 260.016L668.233 261.859ZM670.625 272.656V273.906H674.625V272.656H670.625ZM672.625 271.906H645.125V275.906H672.625V271.906ZM643.248 274.596C643.81 276.128 644.659 277.494 645.782 278.68L648.686 275.929C647.935 275.136 647.377 274.237 647.002 273.217L643.248 274.596ZM645.801 278.7C646.975 279.905 648.407 280.843 650.057 281.533L651.6 277.842C650.385 277.334 649.421 276.684 648.667 275.909L645.801 278.7ZM650.085 281.544C651.796 282.229 653.696 282.547 655.75 282.547V278.547C654.106 278.547 652.725 278.292 651.571 277.831L650.085 281.544ZM655.75 282.547C660.044 282.547 664.047 281.149 667.717 278.446L665.345 275.226C662.297 277.47 659.113 278.547 655.75 278.547V282.547ZM664.677 277.584L668.27 286.491L671.98 284.994L668.386 276.088L664.677 277.584ZM644.578 270.125H660.828V266.125H644.578V270.125ZM662.817 267.912C662.63 266.171 662.093 264.575 661.176 263.166L657.824 265.349C658.365 266.18 658.713 267.162 658.84 268.338L662.817 267.912ZM661.176 263.166C660.257 261.755 659.034 260.65 657.535 259.867L655.684 263.414C656.581 263.882 657.285 264.521 657.824 265.349L661.176 263.166ZM657.551 259.876C656.061 259.082 654.418 258.703 652.664 258.703V262.703C653.827 262.703 654.814 262.95 655.668 263.405L657.551 259.876ZM652.664 258.703C650.864 258.703 649.19 259.117 647.701 259.997L649.736 263.441C650.539 262.966 651.495 262.703 652.664 262.703V258.703ZM647.714 259.99C646.315 260.803 645.164 261.91 644.269 263.284L647.621 265.466C648.185 264.6 648.883 263.937 649.724 263.448L647.714 259.99ZM644.263 263.293C643.392 264.648 642.846 266.171 642.6 267.832L646.557 268.418C646.727 267.266 647.092 266.29 647.628 265.457L644.263 263.293Z" fill="#F9FCFF"/>
<defs>
<radialGradient id="paint0_diamond_203_73" cx="0" cy="0" r="1" gradientUnits="userSpaceOnUse" gradientTransform="translate(430.545 275.268) rotate(90) scale(270 430)">
<stop stop-color="#3D3C49"/>
<stop offset="1"/>
</radialGradient>
</defs>
</svg>
