<svg width="864" height="546" viewBox="0 0 864 546" fill="none" xmlns="http://www.w3.org/2000/svg">
<rect x="0.544922" y="5.26846" width="860" height="540" rx="10" transform="rotate(-0.310028 0.544922 5.26846)" fill="url(#paint0_diamond_203_73)"/>
<path d="M404.969 228H392.195L381.219 191.945L370.242 228H357.469L338.406 169.406H352.859L363.836 205.734L374.812 169.406H387.625L398.562 205.617L409.5 169.406H423.953L404.969 228ZM474.078 223.742C469.208 227.102 463.909 228.781 458.18 228.781C453.857 228.781 449.964 227.87 446.5 226.047C443.062 224.198 440.341 221.698 438.336 218.547C436.331 215.37 435.328 211.802 435.328 207.844C435.328 204.068 436.227 200.708 438.023 197.766C439.82 194.797 442.268 192.453 445.367 190.734C448.492 189.016 452.021 188.156 455.953 188.156C460.042 188.156 463.635 189.107 466.734 191.008C469.833 192.909 472.242 195.552 473.961 198.938C475.706 202.297 476.578 206.203 476.578 210.656V211.906H449.078C449.547 213.182 450.25 214.315 451.188 215.305C452.151 216.294 453.349 217.089 454.781 217.688C456.214 218.26 457.854 218.547 459.703 218.547C463.531 218.547 467.125 217.31 470.484 214.836L474.078 223.742ZM448.531 206.125H464.781C464.625 204.667 464.182 203.378 463.453 202.258C462.724 201.138 461.76 200.266 460.562 199.641C459.391 199.016 458.076 198.703 456.617 198.703C455.133 198.703 453.818 199.042 452.672 199.719C451.552 200.37 450.628 201.255 449.898 202.375C449.195 203.469 448.74 204.719 448.531 206.125ZM506.312 228H495.062V169.406H507.875V193.117C509.464 191.555 511.286 190.344 513.344 189.484C515.427 188.599 517.68 188.156 520.102 188.156C523.591 188.156 526.69 189.042 529.398 190.812C532.107 192.557 534.242 194.966 535.805 198.039C537.367 201.086 538.148 204.562 538.148 208.469C538.148 212.375 537.367 215.865 535.805 218.938C534.242 221.984 532.107 224.393 529.398 226.164C526.69 227.909 523.591 228.781 520.102 228.781C517.445 228.781 514.984 228.26 512.719 227.219C510.479 226.151 508.552 224.693 506.938 222.844L506.312 228ZM516.43 217.297C518.096 217.297 519.568 216.919 520.844 216.164C522.146 215.409 523.161 214.367 523.891 213.039C524.646 211.685 525.023 210.148 525.023 208.43C525.023 206.737 524.646 205.227 523.891 203.898C523.161 202.57 522.146 201.529 520.844 200.773C519.568 199.992 518.096 199.602 516.43 199.602C514.893 199.602 513.487 199.953 512.211 200.656C510.961 201.359 509.958 202.31 509.203 203.508C508.448 204.706 508.005 206.073 507.875 207.609V209.211C508.005 210.799 508.448 212.206 509.203 213.43C509.958 214.628 510.961 215.578 512.211 216.281C513.487 216.958 514.893 217.297 516.43 217.297ZM132.188 327V268.406H152.148C159.206 268.406 165.326 269.617 170.508 272.039C175.69 274.435 179.714 277.833 182.578 282.234C185.443 286.609 186.875 291.766 186.875 297.703C186.875 303.615 185.443 308.771 182.578 313.172C179.714 317.573 175.69 320.984 170.508 323.406C165.326 325.802 159.206 327 152.148 327H132.188ZM145.938 315.008H152.617C156.94 315.008 160.599 314.344 163.594 313.016C166.589 311.661 168.867 309.695 170.43 307.117C172.018 304.539 172.812 301.401 172.812 297.703C172.812 294.005 172.018 290.867 170.43 288.289C168.867 285.711 166.589 283.758 163.594 282.43C160.599 281.076 156.94 280.398 152.617 280.398H145.938V315.008ZM242.312 322.742C237.443 326.102 232.143 327.781 226.414 327.781C222.091 327.781 218.198 326.87 214.734 325.047C211.297 323.198 208.576 320.698 206.57 317.547C204.565 314.37 203.562 310.802 203.562 306.844C203.562 303.068 204.461 299.708 206.258 296.766C208.055 293.797 210.503 291.453 213.602 289.734C216.727 288.016 220.255 287.156 224.188 287.156C228.276 287.156 231.87 288.107 234.969 290.008C238.068 291.909 240.477 294.552 242.195 297.938C243.94 301.297 244.812 305.203 244.812 309.656V310.906H217.312C217.781 312.182 218.484 313.315 219.422 314.305C220.385 315.294 221.583 316.089 223.016 316.688C224.448 317.26 226.089 317.547 227.938 317.547C231.766 317.547 235.359 316.31 238.719 313.836L242.312 322.742ZM216.766 305.125H233.016C232.859 303.667 232.417 302.378 231.688 301.258C230.958 300.138 229.995 299.266 228.797 298.641C227.625 298.016 226.31 297.703 224.852 297.703C223.367 297.703 222.052 298.042 220.906 298.719C219.786 299.37 218.862 300.255 218.133 301.375C217.43 302.469 216.974 303.719 216.766 305.125ZM302.984 287.938L287.164 327H274.781L259 287.938H272.711L280.992 314.148L289.312 287.938H302.984ZM355.922 322.742C351.052 326.102 345.753 327.781 340.023 327.781C335.701 327.781 331.807 326.87 328.344 325.047C324.906 323.198 322.185 320.698 320.18 317.547C318.174 314.37 317.172 310.802 317.172 306.844C317.172 303.068 318.07 299.708 319.867 296.766C321.664 293.797 324.112 291.453 327.211 289.734C330.336 288.016 333.865 287.156 337.797 287.156C341.885 287.156 345.479 288.107 348.578 290.008C351.677 291.909 354.086 294.552 355.805 297.938C357.549 301.297 358.422 305.203 358.422 309.656V310.906H330.922C331.391 312.182 332.094 313.315 333.031 314.305C333.995 315.294 335.193 316.089 336.625 316.688C338.057 317.26 339.698 317.547 341.547 317.547C345.375 317.547 348.969 316.31 352.328 313.836L355.922 322.742ZM330.375 305.125H346.625C346.469 303.667 346.026 302.378 345.297 301.258C344.568 300.138 343.604 299.266 342.406 298.641C341.234 298.016 339.919 297.703 338.461 297.703C336.977 297.703 335.661 298.042 334.516 298.719C333.396 299.37 332.471 300.255 331.742 301.375C331.039 302.469 330.583 303.719 330.375 305.125ZM390.656 327H376.906V266.844H390.656V327ZM430.312 327.781C426.224 327.781 422.578 326.909 419.375 325.164C416.198 323.393 413.698 320.984 411.875 317.938C410.052 314.865 409.141 311.375 409.141 307.469C409.141 303.562 410.052 300.086 411.875 297.039C413.698 293.966 416.198 291.557 419.375 289.812C422.578 288.042 426.224 287.156 430.312 287.156C434.349 287.156 437.943 288.042 441.094 289.812C444.271 291.557 446.758 293.966 448.555 297.039C450.378 300.086 451.289 303.562 451.289 307.469C451.289 311.375 450.378 314.865 448.555 317.938C446.758 320.984 444.271 323.393 441.094 325.164C437.943 326.909 434.349 327.781 430.312 327.781ZM430.234 316.297C431.745 316.297 433.099 315.919 434.297 315.164C435.495 314.409 436.432 313.354 437.109 312C437.812 310.646 438.164 309.109 438.164 307.391C438.164 305.724 437.812 304.227 437.109 302.898C436.432 301.57 435.495 300.529 434.297 299.773C433.099 299.018 431.745 298.641 430.234 298.641C428.698 298.641 427.331 299.018 426.133 299.773C424.935 300.529 423.984 301.57 423.281 302.898C422.604 304.227 422.266 305.724 422.266 307.391C422.266 309.109 422.604 310.646 423.281 312C423.984 313.354 424.935 314.409 426.133 315.164C427.331 315.919 428.698 316.297 430.234 316.297ZM482.664 346.531H469.812V287.938H481.062L481.688 293.133C483.302 291.258 485.242 289.799 487.508 288.758C489.773 287.69 492.234 287.156 494.891 287.156C498.38 287.156 501.479 288.042 504.188 289.812C506.896 291.557 509.031 293.966 510.594 297.039C512.156 300.086 512.938 303.562 512.938 307.469C512.938 311.375 512.156 314.865 510.594 317.938C509.031 320.984 506.896 323.393 504.188 325.164C501.479 326.909 498.38 327.781 494.891 327.781C492.469 327.781 490.216 327.352 488.133 326.492C486.076 325.607 484.253 324.383 482.664 322.82V346.531ZM491.258 316.297C492.924 316.297 494.396 315.919 495.672 315.164C496.974 314.409 497.977 313.367 498.68 312.039C499.409 310.685 499.773 309.161 499.773 307.469C499.773 305.75 499.409 304.227 498.68 302.898C497.951 301.57 496.948 300.529 495.672 299.773C494.396 298.992 492.924 298.602 491.258 298.602C489.695 298.602 488.276 298.953 487 299.656C485.75 300.333 484.747 301.284 483.992 302.508C483.237 303.706 482.794 305.099 482.664 306.688V308.367C482.794 309.904 483.237 311.271 483.992 312.469C484.747 313.667 485.75 314.604 487 315.281C488.276 315.958 489.695 316.297 491.258 316.297ZM595.562 327H582.75V307.781C582.75 304.865 582.203 302.612 581.109 301.023C580.016 299.409 578.453 298.602 576.422 298.602C574.365 298.602 572.763 299.409 571.617 301.023C570.471 302.638 569.898 304.891 569.898 307.781V327H557.086V307.781C557.086 304.865 556.539 302.612 555.445 301.023C554.352 299.409 552.789 298.602 550.758 298.602C548.701 298.602 547.099 299.409 545.953 301.023C544.807 302.638 544.234 304.891 544.234 307.781V327H531.422V287.938H541.578L542.008 294.227C543.336 291.909 545.081 290.151 547.242 288.953C549.43 287.755 551.969 287.156 554.859 287.156C557.802 287.156 560.354 287.768 562.516 288.992C564.703 290.19 566.409 291.922 567.633 294.188C568.961 291.896 570.706 290.151 572.867 288.953C575.029 287.755 577.568 287.156 580.484 287.156C585.224 287.156 588.922 288.667 591.578 291.688C594.234 294.708 595.562 298.914 595.562 304.305V327ZM652.016 322.742C647.146 326.102 641.846 327.781 636.117 327.781C631.794 327.781 627.901 326.87 624.438 325.047C621 323.198 618.279 320.698 616.273 317.547C614.268 314.37 613.266 310.802 613.266 306.844C613.266 303.068 614.164 299.708 615.961 296.766C617.758 293.797 620.206 291.453 623.305 289.734C626.43 288.016 629.958 287.156 633.891 287.156C637.979 287.156 641.573 288.107 644.672 290.008C647.771 291.909 650.18 294.552 651.898 297.938C653.643 301.297 654.516 305.203 654.516 309.656V310.906H627.016C627.484 312.182 628.188 313.315 629.125 314.305C630.089 315.294 631.286 316.089 632.719 316.688C634.151 317.26 635.792 317.547 637.641 317.547C641.469 317.547 645.062 316.31 648.422 313.836L652.016 322.742ZM626.469 305.125H642.719C642.562 303.667 642.12 302.378 641.391 301.258C640.661 300.138 639.698 299.266 638.5 298.641C637.328 298.016 636.013 297.703 634.555 297.703C633.07 297.703 631.755 298.042 630.609 298.719C629.49 299.37 628.565 300.255 627.836 301.375C627.133 302.469 626.677 303.719 626.469 305.125ZM712.766 327H699.953V307.586C699.953 304.747 699.341 302.547 698.117 300.984C696.893 299.422 695.201 298.641 693.039 298.641C690.799 298.641 689.029 299.448 687.727 301.062C686.451 302.677 685.812 304.904 685.812 307.742V327H673V287.938H683.234L683.664 294.188C685.044 291.896 686.854 290.151 689.094 288.953C691.359 287.755 694.016 287.156 697.062 287.156C701.958 287.156 705.799 288.68 708.586 291.727C711.372 294.747 712.766 298.94 712.766 304.305V327ZM760.703 325.945C757.578 327.169 754.544 327.781 751.602 327.781C748.503 327.781 745.755 327.13 743.359 325.828C740.99 324.5 739.141 322.677 737.812 320.359C736.484 318.016 735.82 315.294 735.82 312.195V299.383H728.984V287.938H736.523V278.172H748.633V287.938H759.18V299.383H748.633V309.891C748.633 311.948 749.206 313.536 750.352 314.656C751.497 315.776 752.878 316.336 754.492 316.336C756.055 316.336 757.578 315.841 759.062 314.852L760.703 325.945Z" fill="white"/>
<path d="M404.969 228V230H406.423L406.871 228.616L404.969 228ZM392.195 228L390.282 228.582L390.714 230H392.195V228ZM381.219 191.945L383.132 191.363L381.219 185.078L379.305 191.363L381.219 191.945ZM370.242 228V230H371.724L372.155 228.582L370.242 228ZM357.469 228L355.567 228.619L356.016 230H357.469V228ZM338.406 169.406V167.406H335.652L336.504 170.025L338.406 169.406ZM352.859 169.406L354.774 168.828L354.344 167.406H352.859V169.406ZM363.836 205.734L361.921 206.313L363.836 212.649L365.75 206.313L363.836 205.734ZM374.812 169.406V167.406H373.327L372.898 168.828L374.812 169.406ZM387.625 169.406L389.54 168.828L389.11 167.406H387.625V169.406ZM398.562 205.617L396.648 206.195L398.562 212.534L400.477 206.195L398.562 205.617ZM409.5 169.406V167.406H408.015L407.585 168.828L409.5 169.406ZM423.953 169.406L425.856 170.023L426.703 167.406H423.953V169.406ZM404.969 226H392.195V230H404.969V226ZM394.109 227.418L383.132 191.363L379.305 192.528L390.282 228.582L394.109 227.418ZM379.305 191.363L368.329 227.418L372.155 228.582L383.132 192.528L379.305 191.363ZM370.242 226H357.469V230H370.242V226ZM359.371 227.381L340.308 168.788L336.504 170.025L355.567 228.619L359.371 227.381ZM338.406 171.406H352.859V167.406H338.406V171.406ZM350.945 169.985L361.921 206.313L365.75 205.156L354.774 168.828L350.945 169.985ZM365.75 206.313L376.727 169.985L372.898 168.828L361.921 205.156L365.75 206.313ZM374.812 171.406H387.625V167.406H374.812V171.406ZM385.71 169.985L396.648 206.195L400.477 205.039L389.54 168.828L385.71 169.985ZM400.477 206.195L411.415 169.985L407.585 168.828L396.648 205.039L400.477 206.195ZM409.5 171.406H423.953V167.406H409.5V171.406ZM422.05 168.79L403.066 227.384L406.871 228.616L425.856 170.023L422.05 168.79ZM474.078 223.742L475.214 225.388L476.532 224.479L475.933 222.994L474.078 223.742ZM446.5 226.047L445.553 227.808L445.561 227.813L445.569 227.817L446.5 226.047ZM438.336 218.547L436.645 219.614L436.649 219.621L438.336 218.547ZM438.023 197.766L439.73 198.808L439.734 198.801L438.023 197.766ZM445.367 190.734L444.403 188.982L444.397 188.985L445.367 190.734ZM473.961 198.938L472.178 199.843L472.182 199.851L472.186 199.859L473.961 198.938ZM476.578 211.906V213.906H478.578V211.906H476.578ZM449.078 211.906V209.906H446.213L447.201 212.596L449.078 211.906ZM451.188 215.305L449.736 216.68L449.745 216.69L449.755 216.7L451.188 215.305ZM454.781 217.688L454.01 219.533L454.024 219.539L454.038 219.544L454.781 217.688ZM470.484 214.836L472.339 214.088L471.374 211.697L469.298 213.226L470.484 214.836ZM448.531 206.125L446.553 205.832L446.213 208.125H448.531V206.125ZM464.781 206.125V208.125H467.007L466.77 205.912L464.781 206.125ZM460.562 199.641L459.621 201.405L459.629 201.41L459.637 201.414L460.562 199.641ZM452.672 199.719L453.677 201.448L453.683 201.444L453.689 201.441L452.672 199.719ZM449.898 202.375L448.222 201.284L448.216 201.293L449.898 202.375ZM472.942 222.096C468.395 225.233 463.489 226.781 458.18 226.781V230.781C464.328 230.781 470.022 228.97 475.214 225.388L472.942 222.096ZM458.18 226.781C454.147 226.781 450.579 225.933 447.431 224.277L445.569 227.817C449.348 229.806 453.567 230.781 458.18 230.781V226.781ZM447.447 224.286C444.297 222.591 441.836 220.322 440.023 217.473L436.649 219.621C438.846 223.074 441.828 225.805 445.553 227.808L447.447 224.286ZM440.027 217.479C438.235 214.639 437.328 211.445 437.328 207.844H433.328C433.328 212.159 434.427 216.1 436.645 219.614L440.027 217.479ZM437.328 207.844C437.328 204.399 438.143 201.407 439.73 198.808L436.317 196.723C434.31 200.009 433.328 203.736 433.328 207.844H437.328ZM439.734 198.801C441.347 196.137 443.536 194.037 446.337 192.483L444.397 188.985C441 190.87 438.294 193.456 436.312 196.73L439.734 198.801ZM446.331 192.487C449.131 190.947 452.323 190.156 455.953 190.156V186.156C451.719 186.156 447.853 187.085 444.403 188.982L446.331 192.487ZM455.953 190.156C459.72 190.156 462.942 191.028 465.689 192.713L467.78 189.303C464.329 187.186 460.364 186.156 455.953 186.156V190.156ZM465.689 192.713C468.458 194.412 470.618 196.772 472.178 199.843L475.744 198.032C473.866 194.333 471.208 191.406 467.78 189.303L465.689 192.713ZM472.186 199.859C473.759 202.888 474.578 206.467 474.578 210.656H478.578C478.578 205.939 477.653 201.706 475.736 198.016L472.186 199.859ZM474.578 210.656V211.906H478.578V210.656H474.578ZM476.578 209.906H449.078V213.906H476.578V209.906ZM447.201 212.596C447.764 214.128 448.612 215.494 449.736 216.68L452.639 213.929C451.888 213.136 451.33 212.237 450.955 211.217L447.201 212.596ZM449.755 216.7C450.928 217.905 452.36 218.843 454.01 219.533L455.553 215.842C454.338 215.334 453.374 214.684 452.62 213.909L449.755 216.7ZM454.038 219.544C455.749 220.229 457.649 220.547 459.703 220.547V216.547C458.059 216.547 456.678 216.292 455.524 215.831L454.038 219.544ZM459.703 220.547C463.997 220.547 468 219.149 471.67 216.446L469.298 213.226C466.25 215.47 463.066 216.547 459.703 216.547V220.547ZM468.63 215.584L472.223 224.491L475.933 222.994L472.339 214.088L468.63 215.584ZM448.531 208.125H464.781V204.125H448.531V208.125ZM466.77 205.912C466.583 204.171 466.047 202.575 465.129 201.166L461.777 203.349C462.318 204.18 462.667 205.162 462.793 206.338L466.77 205.912ZM465.129 201.166C464.21 199.755 462.987 198.65 461.488 197.867L459.637 201.414C460.534 201.882 461.238 202.521 461.777 203.349L465.129 201.166ZM461.504 197.876C460.014 197.082 458.371 196.703 456.617 196.703V200.703C457.78 200.703 458.767 200.95 459.621 201.405L461.504 197.876ZM456.617 196.703C454.817 196.703 453.143 197.117 451.654 197.997L453.689 201.441C454.493 200.966 455.448 200.703 456.617 200.703V196.703ZM451.667 197.99C450.268 198.803 449.117 199.91 448.222 201.284L451.574 203.466C452.139 202.6 452.836 201.937 453.677 201.448L451.667 197.99ZM448.216 201.293C447.346 202.648 446.799 204.171 446.553 205.832L450.51 206.418C450.68 205.266 451.045 204.29 451.581 203.457L448.216 201.293ZM506.312 228V230H508.085L508.298 228.241L506.312 228ZM495.062 228H493.062V230H495.062V228ZM495.062 169.406V167.406H493.062V169.406H495.062ZM507.875 169.406H509.875V167.406H507.875V169.406ZM507.875 193.117H505.875V197.89L509.277 194.543L507.875 193.117ZM513.344 189.484L514.115 191.33L514.126 191.325L513.344 189.484ZM529.398 190.812L528.304 192.486L528.315 192.494L529.398 190.812ZM535.805 198.039L534.022 198.946L534.025 198.952L535.805 198.039ZM535.805 218.938L537.584 219.85L537.587 219.844L535.805 218.938ZM529.398 226.164L530.482 227.845L530.493 227.838L529.398 226.164ZM512.719 227.219L511.858 229.024L511.871 229.03L511.883 229.036L512.719 227.219ZM506.938 222.844L508.444 221.528L505.492 218.148L504.952 222.603L506.938 222.844ZM520.844 216.164L519.84 214.434L519.833 214.438L519.825 214.443L520.844 216.164ZM523.891 213.039L522.144 212.065L522.137 212.077L523.891 213.039ZM523.891 203.898L522.137 204.861L522.145 204.874L522.152 204.887L523.891 203.898ZM520.844 200.773L519.799 202.479L519.82 202.492L519.84 202.503L520.844 200.773ZM512.211 200.656L511.246 198.905L511.238 198.909L511.23 198.913L512.211 200.656ZM507.875 207.609L505.882 207.44L505.875 207.525V207.609H507.875ZM507.875 209.211H505.875V209.293L505.882 209.374L507.875 209.211ZM509.203 213.43L507.501 214.48L507.506 214.488L507.511 214.496L509.203 213.43ZM512.211 216.281L511.23 218.024L511.252 218.036L511.274 218.048L512.211 216.281ZM506.312 226H495.062V230H506.312V226ZM497.062 228V169.406H493.062V228H497.062ZM495.062 171.406H507.875V167.406H495.062V171.406ZM505.875 169.406V193.117H509.875V169.406H505.875ZM509.277 194.543C510.684 193.16 512.293 192.091 514.115 191.33L512.573 187.639C510.28 188.597 508.243 189.95 506.473 191.691L509.277 194.543ZM514.126 191.325C515.945 190.552 517.929 190.156 520.102 190.156V186.156C517.43 186.156 514.909 186.646 512.561 187.644L514.126 191.325ZM520.102 190.156C523.234 190.156 525.947 190.945 528.304 192.486L530.493 189.139C527.434 187.138 523.948 186.156 520.102 186.156V190.156ZM528.315 192.494C530.705 194.033 532.608 196.165 534.022 198.946L537.587 197.133C535.876 193.767 533.508 191.081 530.482 189.131L528.315 192.494ZM534.025 198.952C535.424 201.679 536.148 204.835 536.148 208.469H540.148C540.148 204.29 539.311 200.493 537.584 197.126L534.025 198.952ZM536.148 208.469C536.148 212.102 535.424 215.274 534.022 218.031L537.587 219.844C539.311 216.455 540.148 212.648 540.148 208.469H536.148ZM534.025 218.025C532.611 220.781 530.705 222.92 528.304 224.49L530.493 227.838C533.509 225.866 535.873 223.187 537.584 219.85L534.025 218.025ZM528.315 224.483C525.957 226.002 523.24 226.781 520.102 226.781V230.781C523.942 230.781 527.423 229.816 530.482 227.845L528.315 224.483ZM520.102 226.781C517.715 226.781 515.541 226.315 513.554 225.402L511.883 229.036C514.428 230.206 517.176 230.781 520.102 230.781V226.781ZM513.579 225.413C511.584 224.462 509.877 223.169 508.444 221.528L505.431 224.159C507.227 226.216 509.375 227.84 511.858 229.024L513.579 225.413ZM504.952 222.603L504.327 227.759L508.298 228.241L508.923 223.084L504.952 222.603ZM516.43 219.297C518.409 219.297 520.241 218.845 521.862 217.885L519.825 214.443C518.894 214.994 517.783 215.297 516.43 215.297V219.297ZM521.847 217.894C523.467 216.955 524.74 215.647 525.644 214.002L522.137 212.077C521.582 213.088 520.825 213.863 519.84 214.434L521.847 217.894ZM525.637 214.013C526.576 212.33 527.023 210.452 527.023 208.43H523.023C523.023 209.845 522.716 211.04 522.144 212.065L525.637 214.013ZM527.023 208.43C527.023 206.429 526.574 204.571 525.629 202.91L522.152 204.887C522.718 205.882 523.023 207.045 523.023 208.43H527.023ZM525.644 202.936C524.74 201.291 523.467 199.983 521.847 199.043L519.84 202.503C520.825 203.075 521.582 203.85 522.137 204.861L525.644 202.936ZM521.888 199.068C520.263 198.073 518.422 197.602 516.43 197.602V201.602C517.771 201.602 518.873 201.912 519.799 202.479L521.888 199.068ZM516.43 197.602C514.575 197.602 512.834 198.03 511.246 198.905L513.176 202.408C514.14 201.877 515.212 201.602 516.43 201.602V197.602ZM511.23 198.913C509.695 199.777 508.446 200.958 507.511 202.441L510.895 204.574C511.471 203.661 512.227 202.942 513.191 202.399L511.23 198.913ZM507.511 202.441C506.57 203.934 506.037 205.614 505.882 207.44L509.868 207.778C509.973 206.532 510.325 205.478 510.895 204.574L507.511 202.441ZM505.875 207.609V209.211H509.875V207.609H505.875ZM505.882 209.374C506.035 211.243 506.563 212.959 507.501 214.48L510.905 212.379C510.333 211.452 509.976 210.356 509.868 209.048L505.882 209.374ZM507.511 214.496C508.446 215.979 509.695 217.161 511.23 218.024L513.191 214.538C512.227 213.996 511.471 213.276 510.895 212.363L507.511 214.496ZM511.274 218.048C512.857 218.888 514.588 219.297 516.43 219.297V215.297C515.199 215.297 514.117 215.029 513.148 214.515L511.274 218.048ZM132.188 327H130.188V329H132.188V327ZM132.188 268.406V266.406H130.188V268.406H132.188ZM170.508 272.039L169.661 273.851L169.669 273.854L170.508 272.039ZM182.578 282.234L180.902 283.325L180.905 283.33L182.578 282.234ZM170.508 323.406L171.347 325.222L171.355 325.218L170.508 323.406ZM145.938 315.008H143.938V317.008H145.938V315.008ZM163.594 313.016L164.405 314.844L164.411 314.841L164.418 314.838L163.594 313.016ZM170.43 307.117L168.727 306.068L168.723 306.074L168.719 306.081L170.43 307.117ZM170.43 288.289L168.719 289.326L168.723 289.332L168.727 289.338L170.43 288.289ZM163.594 282.43L162.77 284.252L162.776 284.255L162.783 284.258L163.594 282.43ZM145.938 280.398V278.398H143.938V280.398H145.938ZM134.188 327V268.406H130.188V327H134.188ZM132.188 270.406H152.148V266.406H132.188V270.406ZM152.148 270.406C158.98 270.406 164.798 271.578 169.661 273.851L171.355 270.227C165.853 267.656 159.432 266.406 152.148 266.406V270.406ZM169.669 273.854C174.54 276.107 178.26 279.267 180.902 283.325L184.254 281.143C181.167 276.4 176.84 272.763 171.347 270.224L169.669 273.854ZM180.905 283.33C183.528 287.337 184.875 292.101 184.875 297.703H188.875C188.875 291.431 187.357 285.882 184.251 281.139L180.905 283.33ZM184.875 297.703C184.875 303.277 183.529 308.044 180.902 312.081L184.254 314.263C187.356 309.498 188.875 303.952 188.875 297.703H184.875ZM180.902 312.081C178.259 316.141 174.536 319.316 169.661 321.594L171.355 325.218C176.844 322.653 181.168 319.005 184.254 314.263L180.902 312.081ZM169.669 321.591C164.804 323.84 158.983 325 152.148 325V329C159.429 329 165.847 327.764 171.347 325.222L169.669 321.591ZM152.148 325H132.188V329H152.148V325ZM145.938 317.008H152.617V313.008H145.938V317.008ZM152.617 317.008C157.134 317.008 161.087 316.315 164.405 314.844L162.783 311.187C160.111 312.372 156.746 313.008 152.617 313.008V317.008ZM164.418 314.838C167.746 313.333 170.349 311.109 172.14 308.154L168.719 306.081C167.385 308.282 165.431 309.99 162.77 311.193L164.418 314.838ZM172.132 308.166C173.954 305.21 174.812 301.689 174.812 297.703H170.812C170.812 301.113 170.082 303.869 168.727 306.068L172.132 308.166ZM174.812 297.703C174.812 293.717 173.954 290.197 172.132 287.24L168.727 289.338C170.082 291.538 170.812 294.294 170.812 297.703H174.812ZM172.14 287.252C170.347 284.294 167.739 282.08 164.405 280.601L162.783 284.258C165.438 285.435 167.387 287.128 168.719 289.326L172.14 287.252ZM164.418 280.607C161.096 279.105 157.139 278.398 152.617 278.398V282.398C156.741 282.398 160.102 283.046 162.77 284.252L164.418 280.607ZM152.617 278.398H145.938V282.398H152.617V278.398ZM143.938 280.398V315.008H147.938V280.398H143.938ZM242.312 322.742L243.448 324.388L244.767 323.479L244.167 321.994L242.312 322.742ZM214.734 325.047L213.787 326.808L213.795 326.813L213.803 326.817L214.734 325.047ZM206.57 317.547L204.879 318.614L204.883 318.621L206.57 317.547ZM206.258 296.766L207.965 297.808L207.969 297.801L206.258 296.766ZM213.602 289.734L212.638 287.982L212.632 287.985L213.602 289.734ZM242.195 297.938L240.412 298.843L240.416 298.851L240.42 298.859L242.195 297.938ZM244.812 310.906V312.906H246.812V310.906H244.812ZM217.312 310.906V308.906H214.447L215.435 311.596L217.312 310.906ZM219.422 314.305L217.97 315.68L217.979 315.69L217.989 315.7L219.422 314.305ZM223.016 316.688L222.244 318.533L222.258 318.539L222.273 318.544L223.016 316.688ZM238.719 313.836L240.573 313.088L239.609 310.697L237.533 312.226L238.719 313.836ZM216.766 305.125L214.787 304.832L214.447 307.125H216.766V305.125ZM233.016 305.125V307.125H235.241L235.004 304.912L233.016 305.125ZM228.797 298.641L227.856 300.405L227.864 300.41L227.872 300.414L228.797 298.641ZM220.906 298.719L221.911 300.448L221.918 300.444L221.924 300.441L220.906 298.719ZM218.133 301.375L216.457 300.284L216.45 300.293L218.133 301.375ZM241.177 321.096C236.629 324.233 231.724 325.781 226.414 325.781V329.781C232.563 329.781 238.256 327.97 243.448 324.388L241.177 321.096ZM226.414 325.781C222.381 325.781 218.813 324.933 215.666 323.277L213.803 326.817C217.583 328.806 221.801 329.781 226.414 329.781V325.781ZM215.682 323.286C212.532 321.591 210.071 319.322 208.258 316.473L204.883 318.621C207.08 322.074 210.062 324.805 213.787 326.808L215.682 323.286ZM208.262 316.479C206.469 313.639 205.562 310.445 205.562 306.844H201.562C201.562 311.159 202.661 315.1 204.879 318.614L208.262 316.479ZM205.562 306.844C205.562 303.399 206.378 300.407 207.965 297.808L204.551 295.723C202.544 299.009 201.562 302.736 201.562 306.844H205.562ZM207.969 297.801C209.581 295.137 211.771 293.037 214.572 291.483L212.632 287.985C209.234 289.87 206.528 292.456 204.547 295.73L207.969 297.801ZM214.565 291.487C217.366 289.947 220.557 289.156 224.188 289.156V285.156C219.954 285.156 216.088 286.085 212.638 287.982L214.565 291.487ZM224.188 289.156C227.954 289.156 231.177 290.028 233.923 291.713L236.015 288.303C232.563 286.186 228.598 285.156 224.188 285.156V289.156ZM233.923 291.713C236.693 293.412 238.853 295.772 240.412 298.843L243.979 297.032C242.1 293.333 239.443 290.406 236.015 288.303L233.923 291.713ZM240.42 298.859C241.993 301.888 242.812 305.467 242.812 309.656H246.812C246.812 304.939 245.887 300.706 243.97 297.016L240.42 298.859ZM242.812 309.656V310.906H246.812V309.656H242.812ZM244.812 308.906H217.312V312.906H244.812V308.906ZM215.435 311.596C215.998 313.128 216.846 314.494 217.97 315.68L220.874 312.929C220.123 312.136 219.565 311.237 219.19 310.217L215.435 311.596ZM217.989 315.7C219.162 316.905 220.594 317.843 222.244 318.533L223.787 314.842C222.573 314.334 221.608 313.684 220.855 312.909L217.989 315.7ZM222.273 318.544C223.983 319.229 225.883 319.547 227.938 319.547V315.547C226.294 315.547 224.913 315.292 223.758 314.831L222.273 318.544ZM227.938 319.547C232.231 319.547 236.234 318.149 239.905 315.446L237.533 312.226C234.484 314.47 231.3 315.547 227.938 315.547V319.547ZM236.864 314.584L240.458 323.491L244.167 321.994L240.573 313.088L236.864 314.584ZM216.766 307.125H233.016V303.125H216.766V307.125ZM235.004 304.912C234.818 303.171 234.281 301.575 233.363 300.166L230.012 302.349C230.552 303.18 230.901 304.162 231.027 305.338L235.004 304.912ZM233.363 300.166C232.445 298.755 231.221 297.65 229.722 296.867L227.872 300.414C228.769 300.882 229.472 301.521 230.012 302.349L233.363 300.166ZM229.738 296.876C228.249 296.082 226.605 295.703 224.852 295.703V299.703C226.014 299.703 227.001 299.95 227.856 300.405L229.738 296.876ZM224.852 295.703C223.052 295.703 221.377 296.117 219.889 296.997L221.924 300.441C222.727 299.966 223.683 299.703 224.852 299.703V295.703ZM219.901 296.99C218.502 297.803 217.351 298.91 216.457 300.284L219.809 302.466C220.373 301.6 221.071 300.937 221.911 300.448L219.901 296.99ZM216.45 300.293C215.58 301.648 215.033 303.171 214.787 304.832L218.744 305.418C218.915 304.266 219.279 303.29 219.815 302.457L216.45 300.293ZM302.984 287.938L304.838 288.688L305.952 285.938H302.984V287.938ZM287.164 327V329H288.512L289.018 327.751L287.164 327ZM274.781 327L272.927 327.749L273.432 329H274.781V327ZM259 287.938V285.938H256.035L257.146 288.687L259 287.938ZM272.711 287.938L274.618 287.335L274.176 285.938H272.711V287.938ZM280.992 314.148L279.085 314.751L280.988 320.773L282.898 314.754L280.992 314.148ZM289.312 287.938V285.938H287.849L287.406 287.332L289.312 287.938ZM301.131 287.187L285.31 326.249L289.018 327.751L304.838 288.688L301.131 287.187ZM287.164 325H274.781V329H287.164V325ZM276.636 326.251L260.854 287.188L257.146 288.687L272.927 327.749L276.636 326.251ZM259 289.938H272.711V285.938H259V289.938ZM270.804 288.54L279.085 314.751L282.899 313.546L274.618 287.335L270.804 288.54ZM282.898 314.754L291.219 288.543L287.406 287.332L279.086 313.543L282.898 314.754ZM289.312 289.938H302.984V285.938H289.312V289.938ZM355.922 322.742L357.058 324.388L358.376 323.479L357.777 321.994L355.922 322.742ZM328.344 325.047L327.396 326.808L327.404 326.813L327.412 326.817L328.344 325.047ZM320.18 317.547L318.488 318.614L318.492 318.621L320.18 317.547ZM319.867 296.766L321.574 297.808L321.578 297.801L319.867 296.766ZM327.211 289.734L326.247 287.982L326.241 287.985L327.211 289.734ZM355.805 297.938L354.021 298.843L354.026 298.851L354.03 298.859L355.805 297.938ZM358.422 310.906V312.906H360.422V310.906H358.422ZM330.922 310.906V308.906H328.057L329.045 311.596L330.922 310.906ZM333.031 314.305L331.579 315.68L331.589 315.69L331.598 315.7L333.031 314.305ZM336.625 316.688L335.853 318.533L335.868 318.539L335.882 318.544L336.625 316.688ZM352.328 313.836L354.183 313.088L353.218 310.697L351.142 312.226L352.328 313.836ZM330.375 305.125L328.397 304.832L328.057 307.125H330.375V305.125ZM346.625 305.125V307.125H348.851L348.614 304.912L346.625 305.125ZM342.406 298.641L341.465 300.405L341.473 300.41L341.481 300.414L342.406 298.641ZM334.516 298.719L335.521 300.448L335.527 300.444L335.533 300.441L334.516 298.719ZM331.742 301.375L330.066 300.284L330.06 300.293L331.742 301.375ZM354.786 321.096C350.239 324.233 345.333 325.781 340.023 325.781V329.781C346.172 329.781 351.865 327.97 357.058 324.388L354.786 321.096ZM340.023 325.781C335.991 325.781 332.422 324.933 329.275 323.277L327.412 326.817C331.192 328.806 335.41 329.781 340.023 329.781V325.781ZM329.291 323.286C326.141 321.591 323.68 319.322 321.867 316.473L318.492 318.621C320.69 322.074 323.672 324.805 327.396 326.808L329.291 323.286ZM321.871 316.479C320.078 313.639 319.172 310.445 319.172 306.844H315.172C315.172 311.159 316.27 315.1 318.488 318.614L321.871 316.479ZM319.172 306.844C319.172 303.399 319.987 300.407 321.574 297.808L318.16 295.723C316.154 299.009 315.172 302.736 315.172 306.844H319.172ZM321.578 297.801C323.191 295.137 325.38 293.037 328.181 291.483L326.241 287.985C322.844 289.87 320.138 292.456 318.156 295.73L321.578 297.801ZM328.175 291.487C330.975 289.947 334.166 289.156 337.797 289.156V285.156C333.563 285.156 329.697 286.085 326.247 287.982L328.175 291.487ZM337.797 289.156C341.563 289.156 344.786 290.028 347.532 291.713L349.624 288.303C346.172 286.186 342.207 285.156 337.797 285.156V289.156ZM347.532 291.713C350.302 293.412 352.462 295.772 354.021 298.843L357.588 297.032C355.71 293.333 353.052 290.406 349.624 288.303L347.532 291.713ZM354.03 298.859C355.603 301.888 356.422 305.467 356.422 309.656H360.422C360.422 304.939 359.496 300.706 357.58 297.016L354.03 298.859ZM356.422 309.656V310.906H360.422V309.656H356.422ZM358.422 308.906H330.922V312.906H358.422V308.906ZM329.045 311.596C329.607 313.128 330.455 314.494 331.579 315.68L334.483 312.929C333.732 312.136 333.174 311.237 332.799 310.217L329.045 311.596ZM331.598 315.7C332.772 316.905 334.203 317.843 335.853 318.533L337.397 314.842C336.182 314.334 335.218 313.684 334.464 312.909L331.598 315.7ZM335.882 318.544C337.593 319.229 339.493 319.547 341.547 319.547V315.547C339.903 315.547 338.522 315.292 337.368 314.831L335.882 318.544ZM341.547 319.547C345.841 319.547 349.844 318.149 353.514 315.446L351.142 312.226C348.094 314.47 344.909 315.547 341.547 315.547V319.547ZM350.473 314.584L354.067 323.491L357.777 321.994L354.183 313.088L350.473 314.584ZM330.375 307.125H346.625V303.125H330.375V307.125ZM348.614 304.912C348.427 303.171 347.89 301.575 346.973 300.166L343.621 302.349C344.162 303.18 344.51 304.162 344.636 305.338L348.614 304.912ZM346.973 300.166C346.054 298.755 344.83 297.65 343.331 296.867L341.481 300.414C342.378 300.882 343.081 301.521 343.621 302.349L346.973 300.166ZM343.347 296.876C341.858 296.082 340.215 295.703 338.461 295.703V299.703C339.624 299.703 340.611 299.95 341.465 300.405L343.347 296.876ZM338.461 295.703C336.661 295.703 334.987 296.117 333.498 296.997L335.533 300.441C336.336 299.966 337.292 299.703 338.461 299.703V295.703ZM333.51 296.99C332.112 297.803 330.96 298.91 330.066 300.284L333.418 302.466C333.982 301.6 334.68 300.937 335.521 300.448L333.51 296.99ZM330.06 300.293C329.189 301.648 328.643 303.171 328.397 304.832L332.353 305.418C332.524 304.266 332.889 303.29 333.425 302.457L330.06 300.293ZM390.656 327V329H392.656V327H390.656ZM376.906 327H374.906V329H376.906V327ZM376.906 266.844V264.844H374.906V266.844H376.906ZM390.656 266.844H392.656V264.844H390.656V266.844ZM390.656 325H376.906V329H390.656V325ZM378.906 327V266.844H374.906V327H378.906ZM376.906 268.844H390.656V264.844H376.906V268.844ZM388.656 266.844V327H392.656V266.844H388.656ZM419.375 325.164L418.401 326.911L418.41 326.916L418.418 326.92L419.375 325.164ZM411.875 317.938L410.155 318.958L410.159 318.964L411.875 317.938ZM411.875 297.039L413.591 298.066L413.595 298.059L411.875 297.039ZM419.375 289.812L420.338 291.566L420.343 291.563L419.375 289.812ZM441.094 289.812L440.114 291.556L440.122 291.561L440.131 291.566L441.094 289.812ZM448.555 297.039L446.828 298.049L446.833 298.057L446.838 298.066L448.555 297.039ZM448.555 317.938L446.835 316.917L446.832 316.922L448.555 317.938ZM441.094 325.164L442.063 326.914L442.067 326.911L441.094 325.164ZM437.109 312L435.334 311.078L435.327 311.092L435.321 311.106L437.109 312ZM437.109 302.898L435.328 303.807L435.335 303.821L435.342 303.834L437.109 302.898ZM426.133 299.773L427.199 301.465L426.133 299.773ZM423.281 302.898L421.514 301.963L421.506 301.976L421.499 301.99L423.281 302.898ZM423.281 312L421.492 312.894L421.499 312.908L421.506 312.922L423.281 312ZM426.133 315.164L427.199 313.472L426.133 315.164ZM430.312 325.781C426.517 325.781 423.207 324.974 420.332 323.408L418.418 326.92C421.949 328.844 425.931 329.781 430.312 329.781V325.781ZM420.349 323.417C417.47 321.813 415.23 319.649 413.591 316.911L410.159 318.964C412.166 322.32 414.926 324.974 418.401 326.911L420.349 323.417ZM413.595 316.917C411.972 314.181 411.141 311.05 411.141 307.469H407.141C407.141 311.7 408.132 315.548 410.155 318.958L413.595 316.917ZM411.141 307.469C411.141 303.887 411.972 300.772 413.591 298.066L410.159 296.012C408.132 299.4 407.141 303.238 407.141 307.469H411.141ZM413.595 298.059C415.233 295.299 417.469 293.141 420.338 291.566L418.412 288.059C414.927 289.974 412.163 292.634 410.155 296.019L413.595 298.059ZM420.343 291.563C423.216 289.974 426.522 289.156 430.312 289.156V285.156C425.926 285.156 421.94 286.109 418.407 288.062L420.343 291.563ZM430.312 289.156C434.047 289.156 437.296 289.972 440.114 291.556L442.074 288.069C438.59 286.111 434.651 285.156 430.312 285.156V289.156ZM440.131 291.566C442.997 293.139 445.217 295.294 446.828 298.049L450.281 296.03C448.298 292.638 445.545 289.975 442.056 288.059L440.131 291.566ZM446.838 298.066C448.457 300.772 449.289 303.887 449.289 307.469H453.289C453.289 303.238 452.298 299.4 450.271 296.012L446.838 298.066ZM449.289 307.469C449.289 311.05 448.457 314.181 446.835 316.917L450.275 318.958C452.298 315.548 453.289 311.7 453.289 307.469H449.289ZM446.832 316.922C445.221 319.654 442.996 321.814 440.12 323.417L442.067 326.911C445.545 324.972 448.295 322.315 450.277 318.953L446.832 316.922ZM440.125 323.414C437.305 324.976 434.052 325.781 430.312 325.781V329.781C434.646 329.781 438.581 328.842 442.063 326.914L440.125 323.414ZM430.234 318.297C432.096 318.297 433.825 317.826 435.363 316.856L433.23 313.472C432.373 314.013 431.394 314.297 430.234 314.297V318.297ZM435.363 316.856C436.892 315.892 438.069 314.552 438.898 312.894L435.321 311.106C434.795 312.156 434.098 312.925 433.23 313.472L435.363 316.856ZM438.884 312.922C439.753 311.248 440.164 309.389 440.164 307.391H436.164C436.164 308.83 435.872 310.043 435.334 311.078L438.884 312.922ZM440.164 307.391C440.164 305.434 439.749 303.609 438.877 301.963L435.342 303.834C435.876 304.844 436.164 306.014 436.164 307.391H440.164ZM438.891 301.99C438.06 300.359 436.882 299.039 435.363 298.082L433.23 301.465C434.107 302.018 434.805 302.782 435.328 303.807L438.891 301.99ZM435.363 298.082C433.825 297.112 432.096 296.641 430.234 296.641V300.641C431.394 300.641 432.373 300.925 433.23 301.465L435.363 298.082ZM430.234 296.641C428.354 296.641 426.611 297.108 425.066 298.082L427.199 301.465C428.051 300.928 429.042 300.641 430.234 300.641V296.641ZM425.066 298.082C423.554 299.035 422.37 300.345 421.514 301.963L425.049 303.834C425.599 302.795 426.315 302.023 427.199 301.465L425.066 298.082ZM421.499 301.99C420.663 303.631 420.266 305.446 420.266 307.391H424.266C424.266 306.002 424.546 304.822 425.063 303.807L421.499 301.99ZM420.266 307.391C420.266 309.378 420.659 311.227 421.492 312.894L425.07 311.106C424.55 310.065 424.266 308.841 424.266 307.391H420.266ZM421.506 312.922C422.36 314.566 423.545 315.897 425.066 316.856L427.199 313.472C426.325 312.921 425.609 312.143 425.056 311.078L421.506 312.922ZM425.066 316.856C426.611 317.83 428.354 318.297 430.234 318.297V314.297C429.042 314.297 428.051 314.009 427.199 313.472L425.066 316.856ZM482.664 346.531V348.531H484.664V346.531H482.664ZM469.812 346.531H467.812V348.531H469.812V346.531ZM469.812 287.938V285.938H467.812V287.938H469.812ZM481.062 287.938L483.048 287.699L482.836 285.938H481.062V287.938ZM481.688 293.133L479.702 293.372L480.244 297.875L483.203 294.438L481.688 293.133ZM487.508 288.758L488.343 290.575L488.352 290.571L488.36 290.567L487.508 288.758ZM504.188 289.812L503.093 291.486L503.104 291.494L504.188 289.812ZM510.594 297.039L508.811 297.946L508.814 297.952L510.594 297.039ZM510.594 317.938L512.373 318.85L512.377 318.844L510.594 317.938ZM504.188 325.164L505.271 326.845L505.282 326.838L504.188 325.164ZM488.133 326.492L487.342 328.329L487.356 328.335L487.37 328.341L488.133 326.492ZM482.664 322.82L484.067 321.394L480.664 318.048V322.82H482.664ZM495.672 315.164L494.668 313.434L494.661 313.438L494.653 313.443L495.672 315.164ZM498.68 312.039L496.919 311.091L496.912 311.103L498.68 312.039ZM495.672 299.773L494.628 301.479L494.64 301.487L494.653 301.495L495.672 299.773ZM487 299.656L487.953 301.415L487.959 301.411L487.965 301.408L487 299.656ZM483.992 302.508L485.684 303.574L485.689 303.566L485.694 303.558L483.992 302.508ZM482.664 306.688L480.671 306.524L480.664 306.606V306.688H482.664ZM482.664 308.367H480.664V308.452L480.671 308.536L482.664 308.367ZM487 315.281L486.047 317.04L486.055 317.044L486.063 317.048L487 315.281ZM482.664 344.531H469.812V348.531H482.664V344.531ZM471.812 346.531V287.938H467.812V346.531H471.812ZM469.812 289.938H481.062V285.938H469.812V289.938ZM479.077 288.176L479.702 293.372L483.673 292.894L483.048 287.699L479.077 288.176ZM483.203 294.438C484.629 292.782 486.336 291.498 488.343 290.575L486.672 286.941C484.148 288.101 481.975 289.733 480.172 291.828L483.203 294.438ZM488.36 290.567C490.343 289.632 492.511 289.156 494.891 289.156V285.156C491.958 285.156 489.204 285.748 486.655 286.949L488.36 290.567ZM494.891 289.156C498.023 289.156 500.736 289.945 503.093 291.486L505.282 288.139C502.223 286.138 498.737 285.156 494.891 285.156V289.156ZM503.104 291.494C505.494 293.033 507.397 295.165 508.811 297.946L512.377 296.133C510.665 292.767 508.298 290.081 505.271 288.131L503.104 291.494ZM508.814 297.952C510.213 300.679 510.938 303.835 510.938 307.469H514.938C514.938 303.29 514.1 299.493 512.373 296.126L508.814 297.952ZM510.938 307.469C510.938 311.102 510.213 314.274 508.811 317.031L512.377 318.844C514.1 315.455 514.938 311.648 514.938 307.469H510.938ZM508.814 317.025C507.4 319.781 505.494 321.92 503.093 323.49L505.282 326.838C508.298 324.866 510.662 322.187 512.373 318.85L508.814 317.025ZM503.104 323.483C500.746 325.002 498.029 325.781 494.891 325.781V329.781C498.731 329.781 502.212 328.816 505.271 326.845L503.104 323.483ZM494.891 325.781C492.711 325.781 490.719 325.396 488.895 324.643L487.37 328.341C489.713 329.307 492.227 329.781 494.891 329.781V325.781ZM488.923 324.655C487.093 323.867 485.477 322.782 484.067 321.394L481.262 324.246C483.028 325.983 485.058 327.346 487.342 328.329L488.923 324.655ZM480.664 322.82V346.531H484.664V322.82H480.664ZM491.258 318.297C493.237 318.297 495.069 317.845 496.691 316.885L494.653 313.443C493.723 313.994 492.612 314.297 491.258 314.297V318.297ZM496.675 316.894C498.301 315.951 499.569 314.635 500.447 312.975L496.912 311.103C496.385 312.1 495.647 312.866 494.668 313.434L496.675 316.894ZM500.441 312.987C501.342 311.313 501.773 309.458 501.773 307.469H497.773C497.773 308.864 497.476 310.057 496.919 311.091L500.441 312.987ZM501.773 307.469C501.773 305.459 501.345 303.597 500.433 301.936L496.927 303.861C497.473 304.856 497.773 306.041 497.773 307.469H501.773ZM500.433 301.936C499.535 300.301 498.282 298.994 496.691 298.052L494.653 301.495C495.614 302.063 496.366 302.84 496.927 303.861L500.433 301.936ZM496.716 298.068C495.091 297.073 493.25 296.602 491.258 296.602V300.602C492.599 300.602 493.701 300.912 494.628 301.479L496.716 298.068ZM491.258 296.602C489.383 296.602 487.628 297.027 486.035 297.905L487.965 301.408C488.924 300.879 490.008 300.602 491.258 300.602V296.602ZM486.047 297.898C484.486 298.743 483.227 299.94 482.29 301.458L485.694 303.558C486.268 302.628 487.014 301.923 487.953 301.415L486.047 297.898ZM482.3 301.441C481.353 302.944 480.824 304.655 480.671 306.524L484.657 306.851C484.765 305.543 485.121 304.467 485.684 303.574L482.3 301.441ZM480.664 306.688V308.367H484.664V306.688H480.664ZM480.671 308.536C480.826 310.363 481.36 312.043 482.3 313.535L485.684 311.402C485.114 310.499 484.763 309.445 484.657 308.198L480.671 308.536ZM482.3 313.535C483.239 315.025 484.497 316.2 486.047 317.04L487.953 313.523C487.003 313.008 486.256 312.309 485.684 311.402L482.3 313.535ZM486.063 317.048C487.651 317.891 489.396 318.297 491.258 318.297V314.297C489.995 314.297 488.902 314.026 487.937 313.515L486.063 317.048ZM595.562 327V329H597.562V327H595.562ZM582.75 327H580.75V329H582.75V327ZM581.109 301.023L579.454 302.145L579.458 302.151L579.462 302.158L581.109 301.023ZM569.898 327V329H571.898V327H569.898ZM557.086 327H555.086V329H557.086V327ZM555.445 301.023L553.789 302.145L553.794 302.151L553.798 302.158L555.445 301.023ZM545.953 301.023L544.322 299.866L545.953 301.023ZM544.234 327V329H546.234V327H544.234ZM531.422 327H529.422V329H531.422V327ZM531.422 287.938V285.938H529.422V287.938H531.422ZM541.578 287.938L543.573 287.801L543.446 285.938H541.578V287.938ZM542.008 294.227L540.012 294.363L540.462 300.946L543.743 295.221L542.008 294.227ZM547.242 288.953L546.282 287.199L546.273 287.204L547.242 288.953ZM562.516 288.992L561.53 290.733L561.543 290.74L561.555 290.746L562.516 288.992ZM567.633 294.188L565.873 295.138L567.572 298.282L569.363 295.19L567.633 294.188ZM595.562 325H582.75V329H595.562V325ZM584.75 327V307.781H580.75V327H584.75ZM584.75 307.781C584.75 304.654 584.17 301.942 582.757 299.889L579.462 302.158C580.236 303.282 580.75 305.075 580.75 307.781H584.75ZM582.765 299.902C581.281 297.711 579.084 296.602 576.422 296.602V300.602C577.823 300.602 578.75 301.107 579.454 302.145L582.765 299.902ZM576.422 296.602C573.747 296.602 571.524 297.699 569.986 299.866L573.248 302.181C574.002 301.119 574.983 300.602 576.422 300.602V296.602ZM569.986 299.866C568.513 301.942 567.898 304.658 567.898 307.781H571.898C571.898 305.123 572.43 303.334 573.248 302.181L569.986 299.866ZM567.898 307.781V327H571.898V307.781H567.898ZM569.898 325H557.086V329H569.898V325ZM559.086 327V307.781H555.086V327H559.086ZM559.086 307.781C559.086 304.654 558.506 301.942 557.093 299.889L553.798 302.158C554.572 303.282 555.086 305.075 555.086 307.781H559.086ZM557.101 299.902C555.617 297.711 553.42 296.602 550.758 296.602V300.602C552.159 300.602 553.086 301.107 553.789 302.145L557.101 299.902ZM550.758 296.602C548.082 296.602 545.86 297.699 544.322 299.866L547.584 302.181C548.338 301.119 549.319 300.602 550.758 300.602V296.602ZM544.322 299.866C542.849 301.942 542.234 304.658 542.234 307.781H546.234C546.234 305.123 546.766 303.334 547.584 302.181L544.322 299.866ZM542.234 307.781V327H546.234V307.781H542.234ZM544.234 325H531.422V329H544.234V325ZM533.422 327V287.938H529.422V327H533.422ZM531.422 289.938H541.578V285.938H531.422V289.938ZM539.583 288.074L540.012 294.363L544.003 294.09L543.573 287.801L539.583 288.074ZM543.743 295.221C544.905 293.193 546.395 291.709 548.212 290.702L546.273 287.204C543.766 288.593 541.767 290.624 540.273 293.232L543.743 295.221ZM548.203 290.707C550.052 289.695 552.251 289.156 554.859 289.156V285.156C551.687 285.156 548.807 285.816 546.282 287.199L548.203 290.707ZM554.859 289.156C557.521 289.156 559.72 289.708 561.53 290.733L563.501 287.252C560.988 285.829 558.083 285.156 554.859 285.156V289.156ZM561.555 290.746C563.393 291.753 564.826 293.2 565.873 295.138L569.392 293.237C567.991 290.644 566.013 288.627 563.476 287.238L561.555 290.746ZM569.363 295.19C570.523 293.188 572.015 291.712 573.837 290.702L571.898 287.204C569.397 288.59 567.398 290.603 565.902 293.185L569.363 295.19ZM573.837 290.702C575.652 289.696 577.846 289.156 580.484 289.156V285.156C577.29 285.156 574.405 285.814 571.898 287.204L573.837 290.702ZM580.484 289.156C584.762 289.156 587.868 290.497 590.076 293.008L593.08 290.367C589.976 286.836 585.686 285.156 580.484 285.156V289.156ZM590.076 293.008C592.316 295.555 593.562 299.233 593.562 304.305H597.562C597.562 298.595 596.153 293.861 593.08 290.367L590.076 293.008ZM593.562 304.305V327H597.562V304.305H593.562ZM652.016 322.742L653.151 324.388L654.47 323.479L653.87 321.994L652.016 322.742ZM624.438 325.047L623.49 326.808L623.498 326.813L623.506 326.817L624.438 325.047ZM616.273 317.547L614.582 318.614L614.586 318.621L616.273 317.547ZM615.961 296.766L617.668 297.808L617.672 297.801L615.961 296.766ZM623.305 289.734L622.341 287.982L622.335 287.985L623.305 289.734ZM651.898 297.938L650.115 298.843L650.119 298.851L650.124 298.859L651.898 297.938ZM654.516 310.906V312.906H656.516V310.906H654.516ZM627.016 310.906V308.906H624.15L625.138 311.596L627.016 310.906ZM629.125 314.305L627.673 315.68L627.683 315.69L627.692 315.7L629.125 314.305ZM632.719 316.688L631.947 318.533L631.962 318.539L631.976 318.544L632.719 316.688ZM648.422 313.836L650.277 313.088L649.312 310.697L647.236 312.226L648.422 313.836ZM626.469 305.125L624.49 304.832L624.151 307.125H626.469V305.125ZM642.719 305.125V307.125H644.944L644.707 304.912L642.719 305.125ZM638.5 298.641L637.559 300.405L637.567 300.41L637.575 300.414L638.5 298.641ZM630.609 298.719L631.615 300.448L631.621 300.444L631.627 300.441L630.609 298.719ZM627.836 301.375L626.16 300.284L626.154 300.293L627.836 301.375ZM650.88 321.096C646.332 324.233 641.427 325.781 636.117 325.781V329.781C642.266 329.781 647.959 327.97 653.151 324.388L650.88 321.096ZM636.117 325.781C632.084 325.781 628.516 324.933 625.369 323.277L623.506 326.817C627.286 328.806 631.504 329.781 636.117 329.781V325.781ZM625.385 323.286C622.235 321.591 619.774 319.322 617.961 316.473L614.586 318.621C616.783 322.074 619.765 324.805 623.49 326.808L625.385 323.286ZM617.965 316.479C616.172 313.639 615.266 310.445 615.266 306.844H611.266C611.266 311.159 612.364 315.1 614.582 318.614L617.965 316.479ZM615.266 306.844C615.266 303.399 616.081 300.407 617.668 297.808L614.254 295.723C612.247 299.009 611.266 302.736 611.266 306.844H615.266ZM617.672 297.801C619.284 295.137 621.474 293.037 624.275 291.483L622.335 287.985C618.937 289.87 616.231 292.456 614.25 295.73L617.672 297.801ZM624.269 291.487C627.069 289.947 630.26 289.156 633.891 289.156V285.156C629.657 285.156 625.791 286.085 622.341 287.982L624.269 291.487ZM633.891 289.156C637.657 289.156 640.88 290.028 643.626 291.713L645.718 288.303C642.266 286.186 638.301 285.156 633.891 285.156V289.156ZM643.626 291.713C646.396 293.412 648.556 295.772 650.115 298.843L653.682 297.032C651.804 293.333 649.146 290.406 645.718 288.303L643.626 291.713ZM650.124 298.859C651.696 301.888 652.516 305.467 652.516 309.656H656.516C656.516 304.939 655.59 300.706 653.673 297.016L650.124 298.859ZM652.516 309.656V310.906H656.516V309.656H652.516ZM654.516 308.906H627.016V312.906H654.516V308.906ZM625.138 311.596C625.701 313.128 626.549 314.494 627.673 315.68L630.577 312.929C629.826 312.136 629.268 311.237 628.893 310.217L625.138 311.596ZM627.692 315.7C628.865 316.905 630.297 317.843 631.947 318.533L633.49 314.842C632.276 314.334 631.312 313.684 630.558 312.909L627.692 315.7ZM631.976 318.544C633.686 319.229 635.587 319.547 637.641 319.547V315.547C635.997 315.547 634.616 315.292 633.462 314.831L631.976 318.544ZM637.641 319.547C641.934 319.547 645.937 318.149 649.608 315.446L647.236 312.226C644.188 314.47 641.003 315.547 637.641 315.547V319.547ZM646.567 314.584L650.161 323.491L653.87 321.994L650.277 313.088L646.567 314.584ZM626.469 307.125H642.719V303.125H626.469V307.125ZM644.707 304.912C644.521 303.171 643.984 301.575 643.067 300.166L639.715 302.349C640.256 303.18 640.604 304.162 640.73 305.338L644.707 304.912ZM643.067 300.166C642.148 298.755 640.924 297.65 639.425 296.867L637.575 300.414C638.472 300.882 639.175 301.521 639.715 302.349L643.067 300.166ZM639.441 296.876C637.952 296.082 636.308 295.703 634.555 295.703V299.703C635.718 299.703 636.704 299.95 637.559 300.405L639.441 296.876ZM634.555 295.703C632.755 295.703 631.08 296.117 629.592 296.997L631.627 300.441C632.43 299.966 633.386 299.703 634.555 299.703V295.703ZM629.604 296.99C628.205 297.803 627.054 298.91 626.16 300.284L629.512 302.466C630.076 301.6 630.774 300.937 631.615 300.448L629.604 296.99ZM626.154 300.293C625.283 301.648 624.736 303.171 624.49 304.832L628.447 305.418C628.618 304.266 628.983 303.29 629.518 302.457L626.154 300.293ZM712.766 327V329H714.766V327H712.766ZM699.953 327H697.953V329H699.953V327ZM687.727 301.062L686.17 299.807L686.164 299.815L686.157 299.822L687.727 301.062ZM685.812 327V329H687.812V327H685.812ZM673 327H671V329H673V327ZM673 287.938V285.938H671V287.938H673ZM683.234 287.938L685.23 287.8L685.102 285.938H683.234V287.938ZM683.664 294.188L681.669 294.325L682.104 300.654L685.377 295.219L683.664 294.188ZM689.094 288.953L688.159 287.185L688.15 287.19L689.094 288.953ZM708.586 291.727L707.11 293.076L707.116 293.083L708.586 291.727ZM712.766 325H699.953V329H712.766V325ZM701.953 327V307.586H697.953V327H701.953ZM701.953 307.586C701.953 304.487 701.288 301.789 699.692 299.751L696.543 302.218C697.394 303.305 697.953 305.007 697.953 307.586H701.953ZM699.692 299.751C698.051 297.657 695.752 296.641 693.039 296.641V300.641C694.649 300.641 695.735 301.187 696.543 302.218L699.692 299.751ZM693.039 296.641C690.25 296.641 687.885 297.68 686.17 299.807L689.283 302.318C690.172 301.216 691.349 300.641 693.039 300.641V296.641ZM686.157 299.822C684.513 301.903 683.812 304.622 683.812 307.742H687.812C687.812 305.185 688.388 303.451 689.296 302.303L686.157 299.822ZM683.812 307.742V327H687.812V307.742H683.812ZM685.812 325H673V329H685.812V325ZM675 327V287.938H671V327H675ZM673 289.938H683.234V285.938H673V289.938ZM681.239 288.075L681.669 294.325L685.659 294.05L685.23 287.8L681.239 288.075ZM685.377 295.219C686.582 293.219 688.133 291.735 690.037 290.717L688.15 287.19C685.576 288.567 683.507 290.572 681.951 293.156L685.377 295.219ZM690.029 290.721C691.956 289.702 694.28 289.156 697.062 289.156V285.156C693.751 285.156 690.762 285.809 688.159 287.185L690.029 290.721ZM697.062 289.156C701.511 289.156 704.773 290.521 707.11 293.076L710.062 290.377C706.826 286.839 702.406 285.156 697.062 285.156V289.156ZM707.116 293.083C709.468 295.632 710.766 299.285 710.766 304.305H714.766C714.766 298.595 713.277 293.862 710.056 290.371L707.116 293.083ZM710.766 304.305V327H714.766V304.305H710.766ZM760.703 325.945L761.433 327.808L762.914 327.227L762.682 325.653L760.703 325.945ZM743.359 325.828L742.382 327.573L742.393 327.579L742.404 327.585L743.359 325.828ZM737.812 320.359L736.072 321.345L736.077 321.354L737.812 320.359ZM735.82 299.383H737.82V297.383H735.82V299.383ZM728.984 299.383H726.984V301.383H728.984V299.383ZM728.984 287.938V285.938H726.984V287.938H728.984ZM736.523 287.938V289.938H738.523V287.938H736.523ZM736.523 278.172V276.172H734.523V278.172H736.523ZM748.633 278.172H750.633V276.172H748.633V278.172ZM748.633 287.938H746.633V289.938H748.633V287.938ZM759.18 287.938H761.18V285.938H759.18V287.938ZM759.18 299.383V301.383H761.18V299.383H759.18ZM748.633 299.383V297.383H746.633V299.383H748.633ZM759.062 314.852L761.041 314.559L760.579 311.437L757.953 313.187L759.062 314.852ZM759.974 324.083C757.049 325.229 754.262 325.781 751.602 325.781V329.781C754.826 329.781 758.107 329.11 761.433 327.808L759.974 324.083ZM751.602 325.781C748.79 325.781 746.379 325.193 744.314 324.071L742.404 327.585C745.131 329.067 748.215 329.781 751.602 329.781V325.781ZM744.337 324.083C742.277 322.929 740.693 321.363 739.548 319.365L736.077 321.354C737.588 323.991 739.702 326.071 742.382 327.573L744.337 324.083ZM739.553 319.373C738.419 317.373 737.82 315.001 737.82 312.195H733.82C733.82 315.587 734.55 318.658 736.072 321.345L739.553 319.373ZM737.82 312.195V299.383H733.82V312.195H737.82ZM735.82 297.383H728.984V301.383H735.82V297.383ZM730.984 299.383V287.938H726.984V299.383H730.984ZM728.984 289.938H736.523V285.938H728.984V289.938ZM738.523 287.938V278.172H734.523V287.938H738.523ZM736.523 280.172H748.633V276.172H736.523V280.172ZM746.633 278.172V287.938H750.633V278.172H746.633ZM748.633 289.938H759.18V285.938H748.633V289.938ZM757.18 287.938V299.383H761.18V287.938H757.18ZM759.18 297.383H748.633V301.383H759.18V297.383ZM746.633 299.383V309.891H750.633V299.383H746.633ZM746.633 309.891C746.633 312.326 747.321 314.491 748.954 316.087L751.749 313.226C751.09 312.582 750.633 311.57 750.633 309.891H746.633ZM748.954 316.087C750.476 317.575 752.36 318.336 754.492 318.336V314.336C753.396 314.336 752.518 313.977 751.749 313.226L748.954 316.087ZM754.492 318.336C756.504 318.336 758.407 317.692 760.172 316.516L757.953 313.187C756.749 313.99 755.606 314.336 754.492 314.336V318.336ZM757.084 315.144L758.725 326.238L762.682 325.653L761.041 314.559L757.084 315.144Z" fill="#6C63FF"/>
<defs>
<radialGradient id="paint0_diamond_203_73" cx="0" cy="0" r="1" gradientUnits="userSpaceOnUse" gradientTransform="translate(430.545 275.268) rotate(90) scale(270 430)">
<stop stop-color="#6C63FF"/>
<stop offset="1"/>
</radialGradient>
</defs>
</svg>
